<svg width="25" height="25" viewBox="0 0 25 25" fill="none" xmlns="http://www.w3.org/2000/svg">
<g clip-path="url(#clip0_414_19124)">
<path fill-rule="evenodd" clip-rule="evenodd" d="M16.4522 1.25003C16.3633 1.25081 16.2755 1.27058 16.1947 1.30803L8.5415 4.86328L0.88825 1.30828C0.79302 1.26405 0.688183 1.24453 0.583418 1.25152C0.478652 1.2585 0.377335 1.29177 0.28882 1.34825C0.200305 1.40473 0.127445 1.48259 0.0769661 1.57466C0.0264875 1.66673 1.76163e-05 1.77003 0 1.87503L0 19.4475C1.99872e-05 19.5666 0.0340811 19.6833 0.0981714 19.7837C0.162262 19.8841 0.253712 19.9641 0.36175 20.0143L8.27825 23.6918C8.36255 23.731 8.45453 23.7509 8.5475 23.75C8.63665 23.7493 8.72462 23.7295 8.8055 23.692L16.4587 20.1368L24.112 23.6918C24.2072 23.7359 24.312 23.7554 24.4168 23.7484C24.5215 23.7414 24.6228 23.7081 24.7112 23.6516C24.7997 23.5952 24.8726 23.5173 24.923 23.4253C24.9735 23.3333 25 23.23 25 23.125V5.55253C24.9998 5.44056 24.9696 5.3307 24.9124 5.23443C24.8552 5.13816 24.7732 5.05902 24.675 5.00528C24.3776 5.33614 24.0691 5.65683 23.75 5.96678V22.1455L16.8305 18.9313L16.7955 12.8075C16.5582 12.9805 16.3084 13.1358 16.0483 13.272L16.0807 18.9335L8.9115 22.2643L8.81925 6.11278L15.9882 2.78253L15.9975 4.37828C16.2497 4.13763 16.4983 3.89327 16.7432 3.64528L16.7377 2.69403L17.401 3.00228C17.7402 2.72228 18.0545 2.40453 18.3575 2.06803L16.7218 1.30828C16.6374 1.26904 16.5453 1.24914 16.4522 1.25003ZM1.25 2.85453L8.06875 6.02203L8.1615 22.2595L1.25 19.048V2.85453Z" fill="#FA8334"/>
<path d="M22.59 0.218091C22.4504 0.0786019 22.2611 0.000244141 22.0638 0.000244141C21.8665 0.000244141 21.6773 0.0786019 21.5377 0.218091L12.8352 8.92059C12.7627 8.99309 12.7082 9.07709 12.672 9.16684L11.4832 13.3226C11.4287 13.4943 11.5125 13.5676 11.6977 13.5108L15.833 12.3278C15.9227 12.2916 16.0067 12.2373 16.0792 12.1646L24.7817 3.46209C24.9213 3.32252 24.9997 3.13322 24.9997 2.93584C24.9997 2.73846 24.9213 2.54916 24.7817 2.40959L22.59 0.218091ZM20.696 3.16459L21.8352 4.30384L15.5532 10.5863L14.4137 9.44659L20.696 3.16459Z" fill="#FA8334"/>
</g>
<defs>
<clipPath id="clip0_414_19124">
<rect width="25" height="25" fill="white"/>
</clipPath>
</defs>
</svg>
