<svg width="255" height="45" viewBox="0 0 255 45" fill="none" xmlns="http://www.w3.org/2000/svg">
<rect x="0.967871" y="0.967871" width="253.064" height="43.0643" rx="6.7751" stroke="#FA8334" stroke-width="1.93574"/>
<path d="M48.0938 15.0107H49.2001L53.9997 26.4477L58.8083 15.0107H59.9056L54.419 28H53.5804L48.0938 15.0107ZM47.7548 15.0107H48.7272L48.8432 22.3261V28H47.7548V15.0107ZM59.29 15.0107H60.2624V28H59.1651V22.3261L59.29 15.0107ZM68.5364 15.7868L64.04 28H62.8981L67.8048 15.0107H68.5988L68.5364 15.7868ZM72.6223 28L68.1171 15.7868L68.0546 15.0107H68.8486L73.7642 28H72.6223ZM71.8194 23.4145V24.3601H64.9232V23.4145H71.8194ZM80.6553 22.7097H76.953V21.773H80.6553C81.4285 21.773 82.056 21.6481 82.5377 21.3983C83.0254 21.1425 83.3793 20.7976 83.5993 20.3634C83.8254 19.9292 83.9384 19.4415 83.9384 18.9003C83.9384 18.371 83.8254 17.8833 83.5993 17.4372C83.3793 16.9912 83.0254 16.6343 82.5377 16.3667C82.056 16.0931 81.4285 15.9563 80.6553 15.9563H77.3366V28H76.2393V15.0107H80.6553C81.6069 15.0107 82.4069 15.1742 83.0552 15.5013C83.7094 15.8284 84.203 16.2834 84.5361 16.8663C84.8691 17.4491 85.0357 18.1212 85.0357 18.8825C85.0357 19.6794 84.8691 20.3664 84.5361 20.9433C84.203 21.5143 83.7124 21.9514 83.0641 22.2547C82.4158 22.558 81.6129 22.7097 80.6553 22.7097ZM91.0793 15.7868L86.583 28H85.441L90.3477 15.0107H91.1417L91.0793 15.7868ZM95.1652 28L90.66 15.7868L90.5975 15.0107H91.3915L96.3071 28H95.1652ZM94.3623 23.4145V24.3601H87.4662V23.4145H94.3623ZM106.133 24.8062C106.133 24.4493 106.074 24.1312 105.955 23.8516C105.836 23.5721 105.64 23.3223 105.366 23.1022C105.098 22.8762 104.736 22.6681 104.278 22.4777C103.826 22.2815 103.261 22.0882 102.583 21.8979C101.934 21.7135 101.349 21.5113 100.825 21.2912C100.302 21.0712 99.8528 20.8184 99.4781 20.5329C99.1094 20.2474 98.8269 19.9144 98.6306 19.5337C98.4343 19.1471 98.3362 18.6981 98.3362 18.1866C98.3362 17.687 98.4432 17.2321 98.6573 16.8217C98.8715 16.4113 99.1718 16.0574 99.5584 15.76C99.9509 15.4627 100.412 15.2337 100.941 15.0731C101.476 14.9125 102.062 14.8322 102.699 14.8322C103.609 14.8322 104.394 15.0047 105.054 15.3497C105.72 15.6946 106.234 16.1615 106.597 16.7503C106.966 17.3332 107.15 17.9874 107.15 18.713H106.053C106.053 18.148 105.919 17.6454 105.652 17.2053C105.39 16.7592 105.009 16.4113 104.51 16.1615C104.016 15.9058 103.412 15.7779 102.699 15.7779C101.985 15.7779 101.384 15.8879 100.897 16.108C100.415 16.3221 100.049 16.6105 99.7993 16.9733C99.5554 17.3302 99.4335 17.7287 99.4335 18.1688C99.4335 18.4781 99.493 18.7635 99.6119 19.0252C99.7309 19.281 99.9242 19.5218 100.192 19.7478C100.465 19.9679 100.825 20.1761 101.271 20.3723C101.717 20.5627 102.267 20.744 102.922 20.9165C103.612 21.1068 104.224 21.318 104.759 21.5499C105.295 21.7819 105.747 22.0495 106.116 22.3528C106.484 22.6502 106.764 22.9982 106.954 23.3966C107.144 23.7951 107.24 24.259 107.24 24.7883C107.24 25.3177 107.127 25.7935 106.901 26.2157C106.681 26.6321 106.368 26.986 105.964 27.2774C105.565 27.5688 105.093 27.7918 104.545 27.9465C104.004 28.1011 103.412 28.1784 102.77 28.1784C102.193 28.1784 101.619 28.1041 101.048 27.9554C100.477 27.8067 99.9539 27.5777 99.4781 27.2685C99.0082 26.9532 98.6306 26.5488 98.3451 26.0552C98.0656 25.5615 97.9258 24.9727 97.9258 24.2888H99.0142C99.0142 24.8359 99.1242 25.2969 99.3443 25.6716C99.5643 26.0462 99.8558 26.3496 100.219 26.5815C100.587 26.8135 100.992 26.983 101.432 27.09C101.878 27.1911 102.324 27.2417 102.77 27.2417C103.454 27.2417 104.046 27.1406 104.545 26.9384C105.051 26.7362 105.44 26.4536 105.714 26.0909C105.994 25.7221 106.133 25.2939 106.133 24.8062ZM118.72 28H115.776L115.794 27.0633H118.72C119.654 27.0633 120.457 26.8551 121.129 26.4388C121.807 26.0165 122.33 25.4337 122.699 24.6902C123.068 23.9468 123.252 23.0844 123.252 22.1031V20.8898C123.252 20.1404 123.145 19.4624 122.931 18.8557C122.723 18.2491 122.422 17.7316 122.03 17.3034C121.637 16.8693 121.168 16.5362 120.62 16.3042C120.079 16.0723 119.473 15.9563 118.8 15.9563H115.723V15.0107H118.8C119.609 15.0107 120.35 15.1504 121.022 15.43C121.7 15.7035 122.286 16.102 122.779 16.6254C123.279 17.1428 123.663 17.7644 123.93 18.4899C124.204 19.2155 124.341 20.0244 124.341 20.9165V22.1031C124.341 22.9952 124.204 23.804 123.93 24.5296C123.663 25.2552 123.279 25.8767 122.779 26.3942C122.28 26.9116 121.688 27.3101 121.004 27.5896C120.32 27.8632 119.559 28 118.72 28ZM116.267 15.0107V28H115.17V15.0107H116.267ZM135.764 27.0633V28H128.457V27.0633H135.764ZM128.787 15.0107V28H127.69V15.0107H128.787ZM134.854 20.8362V21.773H128.457V20.8362H134.854ZM135.719 15.0107V15.9563H128.457V15.0107H135.719ZM143.172 15.0107V28H142.084V15.0107H143.172ZM147.624 15.0107V15.9563H137.641V15.0107H147.624ZM153.837 15.7868L149.341 28H148.199L153.106 15.0107H153.9L153.837 15.7868ZM157.923 28L153.418 15.7868L153.355 15.0107H154.149L159.065 28H157.923ZM157.12 23.4145V24.3601H150.224V23.4145H157.12ZM169.052 27.0633V28H162.316V27.0633H169.052ZM162.637 15.0107V28H161.54V15.0107H162.637ZM180.457 20.8362V21.773H172.562V20.8362H180.457ZM172.82 15.0107V28H171.723V15.0107H172.82ZM181.34 15.0107V28H180.243V15.0107H181.34ZM189.632 15.7868L185.136 28H183.994L188.9 15.0107H189.694L189.632 15.7868ZM193.718 28L189.213 15.7868L189.15 15.0107H189.944L194.86 28H193.718ZM192.915 23.4145V24.3601H186.019V23.4145H192.915ZM200.886 28H197.942L197.959 27.0633H200.886C201.819 27.0633 202.622 26.8551 203.294 26.4388C203.972 26.0165 204.496 25.4337 204.864 24.6902C205.233 23.9468 205.418 23.0844 205.418 22.1031V20.8898C205.418 20.1404 205.311 19.4624 205.096 18.8557C204.888 18.2491 204.588 17.7316 204.195 17.3034C203.803 16.8693 203.333 16.5362 202.786 16.3042C202.245 16.0723 201.638 15.9563 200.966 15.9563H197.888V15.0107H200.966C201.775 15.0107 202.515 15.1504 203.187 15.43C203.865 15.7035 204.451 16.102 204.945 16.6254C205.444 17.1428 205.828 17.7644 206.096 18.4899C206.369 19.2155 206.506 20.0244 206.506 20.9165V22.1031C206.506 22.9952 206.369 23.804 206.096 24.5296C205.828 25.2552 205.444 25.8767 204.945 26.3942C204.445 26.9116 203.853 27.3101 203.169 27.5896C202.485 27.8632 201.724 28 200.886 28ZM198.432 15.0107V28H197.335V15.0107H198.432ZM219.446 20.8095V22.2012C219.446 23.1112 219.327 23.9349 219.089 24.6724C218.857 25.4039 218.518 26.0314 218.072 26.5548C217.632 27.0781 217.102 27.4796 216.484 27.7591C215.865 28.0387 215.169 28.1784 214.396 28.1784C213.641 28.1784 212.951 28.0387 212.327 27.7591C211.708 27.4796 211.176 27.0781 210.73 26.5548C210.284 26.0314 209.939 25.4039 209.695 24.6724C209.451 23.9349 209.329 23.1112 209.329 22.2012V20.8095C209.329 19.8995 209.448 19.0787 209.686 18.3472C209.93 17.6097 210.275 16.9793 210.721 16.4559C211.167 15.9325 211.699 15.5311 212.318 15.2515C212.936 14.972 213.623 14.8322 214.378 14.8322C215.152 14.8322 215.847 14.972 216.466 15.2515C217.085 15.5311 217.617 15.9325 218.063 16.4559C218.509 16.9793 218.851 17.6097 219.089 18.3472C219.327 19.0787 219.446 19.8995 219.446 20.8095ZM218.357 22.2012V20.7916C218.357 20.0244 218.268 19.3345 218.09 18.7219C217.917 18.1093 217.659 17.5859 217.314 17.1518C216.975 16.7176 216.558 16.3845 216.065 16.1526C215.571 15.9206 215.009 15.8047 214.378 15.8047C213.766 15.8047 213.216 15.9206 212.728 16.1526C212.24 16.3845 211.824 16.7176 211.479 17.1518C211.14 17.5859 210.878 18.1093 210.694 18.7219C210.516 19.3345 210.426 20.0244 210.426 20.7916V22.2012C210.426 22.9744 210.516 23.6702 210.694 24.2888C210.878 24.9014 211.143 25.4277 211.488 25.8678C211.833 26.302 212.249 26.635 212.737 26.867C213.231 27.099 213.784 27.2149 214.396 27.2149C215.033 27.2149 215.595 27.099 216.082 26.867C216.57 26.635 216.983 26.302 217.322 25.8678C217.661 25.4277 217.917 24.9014 218.09 24.2888C218.268 23.6702 218.357 22.9744 218.357 22.2012ZM230.119 24.8062C230.119 24.4493 230.06 24.1312 229.941 23.8516C229.822 23.5721 229.626 23.3223 229.352 23.1022C229.085 22.8762 228.722 22.6681 228.264 22.4777C227.812 22.2815 227.247 22.0882 226.569 21.8979C225.921 21.7135 225.335 21.5113 224.811 21.2912C224.288 21.0712 223.839 20.8184 223.464 20.5329C223.095 20.2474 222.813 19.9144 222.617 19.5337C222.42 19.1471 222.322 18.6981 222.322 18.1866C222.322 17.687 222.429 17.2321 222.643 16.8217C222.858 16.4113 223.158 16.0574 223.545 15.76C223.937 15.4627 224.398 15.2337 224.927 15.0731C225.463 14.9125 226.048 14.8322 226.685 14.8322C227.595 14.8322 228.38 15.0047 229.04 15.3497C229.706 15.6946 230.221 16.1615 230.583 16.7503C230.952 17.3332 231.136 17.9874 231.136 18.713H230.039C230.039 18.148 229.905 17.6454 229.638 17.2053C229.376 16.7592 228.995 16.4113 228.496 16.1615C228.002 15.9058 227.398 15.7779 226.685 15.7779C225.971 15.7779 225.37 15.8879 224.883 16.108C224.401 16.3221 224.035 16.6105 223.785 16.9733C223.542 17.3302 223.42 17.7287 223.42 18.1688C223.42 18.4781 223.479 18.7635 223.598 19.0252C223.717 19.281 223.91 19.5218 224.178 19.7478C224.452 19.9679 224.811 20.1761 225.257 20.3723C225.703 20.5627 226.254 20.744 226.908 20.9165C227.598 21.1068 228.21 21.318 228.746 21.5499C229.281 21.7819 229.733 22.0495 230.102 22.3528C230.47 22.6502 230.75 22.9982 230.94 23.3966C231.131 23.7951 231.226 24.259 231.226 24.7883C231.226 25.3177 231.113 25.7935 230.887 26.2157C230.667 26.6321 230.354 26.986 229.95 27.2774C229.551 27.5688 229.079 27.7918 228.531 27.9465C227.99 28.1011 227.398 28.1784 226.756 28.1784C226.179 28.1784 225.605 28.1041 225.034 27.9554C224.463 27.8067 223.94 27.5777 223.464 27.2685C222.994 26.9532 222.617 26.5488 222.331 26.0552C222.052 25.5615 221.912 24.9727 221.912 24.2888H223C223 24.8359 223.11 25.2969 223.33 25.6716C223.55 26.0462 223.842 26.3496 224.205 26.5815C224.573 26.8135 224.978 26.983 225.418 27.09C225.864 27.1911 226.31 27.2417 226.756 27.2417C227.44 27.2417 228.032 27.1406 228.531 26.9384C229.037 26.7362 229.427 26.4536 229.7 26.0909C229.98 25.7221 230.119 25.2939 230.119 24.8062Z" fill="#152238" fill-opacity="0.93"/>
<g clip-path="url(#clip0_0_1)">
<path fill-rule="evenodd" clip-rule="evenodd" d="M29.4522 11.25C29.3633 11.2508 29.2755 11.2706 29.1947 11.308L21.5415 14.8633L13.8882 11.3083C13.793 11.2641 13.6882 11.2445 13.5834 11.2515C13.4787 11.2585 13.3773 11.2918 13.2888 11.3482C13.2003 11.4047 13.1274 11.4826 13.077 11.5747C13.0265 11.6667 13 11.77 13 11.875V29.4475C13 29.5666 13.0341 29.6833 13.0982 29.7837C13.1623 29.8841 13.2537 29.9641 13.3618 30.0143L21.2782 33.6918C21.3626 33.731 21.4545 33.7509 21.5475 33.75C21.6367 33.7493 21.7246 33.7295 21.8055 33.692L29.4587 30.1368L37.112 33.6918C37.2072 33.7359 37.312 33.7554 37.4168 33.7484C37.5215 33.7414 37.6228 33.7081 37.7112 33.6516C37.7997 33.5952 37.8726 33.5173 37.923 33.4253C37.9735 33.3333 38 33.23 38 33.125V15.5525C37.9998 15.4406 37.9696 15.3307 37.9124 15.2344C37.8552 15.1382 37.7732 15.059 37.675 15.0053C37.3776 15.3361 37.0691 15.6568 36.75 15.9668V32.1455L29.8305 28.9313L29.7955 22.8075C29.5582 22.9805 29.3084 23.1358 29.0483 23.272L29.0807 28.9335L21.9115 32.2643L21.8193 16.1128L28.9882 12.7825L28.9975 14.3783C29.2497 14.1376 29.4983 13.8933 29.7432 13.6453L29.7377 12.694L30.401 13.0023C30.7402 12.7223 31.0545 12.4045 31.3575 12.068L29.7218 11.3083C29.6374 11.269 29.5453 11.2491 29.4522 11.25ZM14.25 12.8545L21.0688 16.022L21.1615 32.2595L14.25 29.048V12.8545Z" fill="#FA8334"/>
<path d="M35.59 10.2181C35.4504 10.0786 35.2611 10.0002 35.0638 10.0002C34.8665 10.0002 34.6773 10.0786 34.5377 10.2181L25.8352 18.9206C25.7627 18.9931 25.7082 19.0771 25.672 19.1668L24.4832 23.3226C24.4287 23.4943 24.5125 23.5676 24.6977 23.5108L28.833 22.3278C28.9227 22.2916 29.0067 22.2373 29.0792 22.1646L37.7817 13.4621C37.9213 13.3225 37.9997 13.1332 37.9997 12.9358C37.9997 12.7385 37.9213 12.5492 37.7817 12.4096L35.59 10.2181ZM33.696 13.1646L34.8352 14.3038L28.5532 20.5863L27.4137 19.4466L33.696 13.1646Z" fill="#FA8334"/>
</g>
<defs>
<clipPath id="clip0_0_1">
<rect width="25" height="25" fill="white" transform="translate(13 10)"/>
</clipPath>
</defs>
</svg>
