<svg width="34" height="39" viewBox="0 0 34 39" fill="none" xmlns="http://www.w3.org/2000/svg">
<path d="M18.4172 24.9892H18.3476H14.7531C13.4666 24.9892 12.3985 24.0511 12.3985 22.8725L12.3987 11.878L18.4172 24.9892ZM18.4172 24.9892L18.4177 24.9881M18.4172 24.9892L18.4177 24.9881M18.4177 24.9881C19.6727 24.9548 20.7016 24.0295 20.7023 22.8731V22.873V11.878C20.7023 11.6244 20.4761 11.4384 20.2233 11.4384C19.9706 11.4384 19.7443 11.6244 19.7443 11.878L19.7446 22.873C19.7446 23.5442 19.1294 24.1105 18.3479 24.1105H14.7534C13.9718 24.1105 13.3567 23.5442 13.3567 22.873V11.878C13.3567 11.6244 13.1304 11.4384 12.8777 11.4384C12.625 11.4384 12.3987 11.6244 12.3987 11.878L18.4177 24.9881Z" fill="#FA8334" stroke="#FA8334" stroke-width="0.21478"/>
<path d="M20.2219 17.4931H21.3938C22.3792 17.4931 23.2015 16.7744 23.2015 15.8654V10.2684C23.2015 8.70521 21.7835 7.45279 20.0652 7.45279H13.0338C11.3164 7.45279 9.89749 8.70432 9.89749 10.2684V15.8654C9.89749 16.7742 10.7197 17.4931 11.7051 17.4931H12.877C13.1298 17.4931 13.356 17.3071 13.356 17.0534C13.356 16.7998 13.1298 16.6138 12.877 16.6138H11.7051C11.2252 16.6138 10.8555 16.2669 10.8555 15.8655V10.2684C10.8555 9.21187 11.8212 8.33212 13.0338 8.33212H20.0652C21.2778 8.33212 22.2435 9.21187 22.2435 10.2684V15.8655C22.2435 16.2669 21.8738 16.6138 21.3938 16.6138H20.2219C19.9692 16.6138 19.743 16.7998 19.743 17.0534C19.743 17.3071 19.9692 17.4931 20.2219 17.4931Z" fill="#FA8334" stroke="#FA8334" stroke-width="0.21478"/>
<path d="M19.9353 3.93155V3.93153C19.9353 2.24469 18.4049 0.89261 16.5492 0.89261C14.6935 0.89261 13.1631 2.24469 13.1631 3.93153C13.1631 5.61838 14.6935 6.97046 16.5492 6.97046C18.4049 6.97046 19.935 5.61859 19.9353 3.93155ZM14.121 3.93234C14.121 2.75273 15.1992 1.77265 16.5492 1.77265C17.8992 1.77265 18.9773 2.75273 18.9773 3.93234C18.9773 5.11194 17.8992 6.09202 16.5492 6.09202C15.199 6.09202 14.121 5.11174 14.121 3.93234Z" fill="#FA8334" stroke="#FA8334" stroke-width="0.21478"/>
<path d="M16.5493 24.9892H16.6567V24.9777C16.8627 24.9339 17.0283 24.7666 17.0283 24.5496V18.2136C17.0283 17.96 16.802 17.774 16.5493 17.774C16.2966 17.774 16.0703 17.96 16.0703 18.2136V24.5496C16.0703 24.8032 16.2966 24.9892 16.5493 24.9892Z" fill="#FA8334" stroke="#FA8334" stroke-width="0.21478"/>
<g filter="url(#filter0_d_602_90)">
<path d="M16.5492 30.3685C16.4503 30.3685 16.3561 30.3332 16.2861 30.2715L13.6778 27.9393H4.91046C4.79383 27.9393 4.68303 27.8901 4.61328 27.8065C4.54353 27.7228 4.52114 27.6144 4.5538 27.5141L7.09304 19.7183C7.13923 19.5767 7.28478 19.4791 7.4497 19.4791H12.876C13.0811 19.4791 13.2476 19.628 13.2476 19.8113C13.2476 19.9947 13.0811 20.1436 12.876 20.1436H7.72845L5.40609 27.2741H13.8324C13.9313 27.2741 14.0256 27.3093 14.0955 27.371L16.5501 29.5657L19.0047 27.371C19.0744 27.3087 19.1689 27.2741 19.2678 27.2741H27.6941L25.3711 20.1425H20.2235C20.0185 20.1425 19.8519 19.9936 19.8519 19.8103C19.8519 19.6269 20.0185 19.478 20.2235 19.478H25.6498C25.8148 19.478 25.9605 19.5756 26.0065 19.7172L28.5457 27.513C28.5784 27.6133 28.5562 27.7216 28.4863 27.8054C28.4165 27.889 28.3057 27.9383 28.1891 27.9383H19.4206L16.8123 30.2704C16.7423 30.333 16.648 30.368 16.5491 30.368L16.5492 30.3685Z" fill="#FA8334"/>
<path d="M16.5492 30.6185H16.8343L16.8262 30.5572C16.8813 30.5315 16.9328 30.498 16.9789 30.4568L19.5161 28.1883H28.1891C28.3731 28.1883 28.5568 28.1111 28.6782 27.9656C28.8007 27.8188 28.844 27.6215 28.7835 27.4356L28.7835 27.4356L26.2443 19.6401C26.1602 19.3809 25.9071 19.228 25.6498 19.228H20.2235C19.9075 19.228 19.6019 19.4633 19.6019 19.8103C19.6019 20.1572 19.9075 20.3925 20.2235 20.3925H25.1896L27.3498 27.0241H19.2678C19.1118 27.0241 18.9568 27.0785 18.838 27.1847L16.5501 29.2304L14.2622 27.1847L14.2609 27.1836C14.1434 27.0799 13.9897 27.0241 13.8324 27.0241H5.75044L7.90995 20.3936H12.876C13.1921 20.3936 13.4976 20.1583 13.4976 19.8113C13.4976 19.4644 13.1921 19.2291 12.876 19.2291H7.4497C7.19219 19.2291 6.9397 19.3822 6.85537 19.6408L6.85534 19.6409L4.31609 27.4366L4.31608 27.4367C4.25549 27.6228 4.29925 27.8203 4.42128 27.9666C4.54271 28.1122 4.72645 28.1893 4.91046 28.1893H13.5823L16.1195 30.4579L16.1207 30.459C16.2382 30.5626 16.3919 30.6185 16.5492 30.6185Z" stroke="#FA8334" stroke-width="0.5"/>
</g>
<defs>
<filter id="filter0_d_602_90" x="0.0390625" y="18.978" width="33.0215" height="19.8904" filterUnits="userSpaceOnUse" color-interpolation-filters="sRGB">
<feFlood flood-opacity="0" result="BackgroundImageFix"/>
<feColorMatrix in="SourceAlpha" type="matrix" values="0 0 0 0 0 0 0 0 0 0 0 0 0 0 0 0 0 0 127 0" result="hardAlpha"/>
<feOffset dy="4"/>
<feGaussianBlur stdDeviation="2"/>
<feComposite in2="hardAlpha" operator="out"/>
<feColorMatrix type="matrix" values="0 0 0 0 0 0 0 0 0 0 0 0 0 0 0 0 0 0 0.25 0"/>
<feBlend mode="normal" in2="BackgroundImageFix" result="effect1_dropShadow_602_90"/>
<feBlend mode="normal" in="SourceGraphic" in2="effect1_dropShadow_602_90" result="shape"/>
</filter>
</defs>
</svg>
