<svg width="255" height="45" viewBox="0 0 255 45" fill="none" xmlns="http://www.w3.org/2000/svg">
<rect x="0.967871" y="0.967871" width="253.064" height="43.0643" rx="6.7751" stroke="#FA8334" stroke-width="1.93574"/>
<path d="M56.1676 26.3853L60.2624 15.0107H61.4579L56.6226 28H55.7394L56.1676 26.3853ZM51.9389 15.0107L56.0159 26.3853L56.462 28H55.5699L50.7435 15.0107H51.9389ZM65.2712 15.0107V28H64.1739V15.0107H65.2712ZM76.7032 24.8062C76.7032 24.4493 76.6437 24.1312 76.5248 23.8516C76.4058 23.5721 76.2096 23.3223 75.936 23.1022C75.6684 22.8762 75.3056 22.6681 74.8476 22.4777C74.3956 22.2815 73.8306 22.0882 73.1526 21.8979C72.5043 21.7135 71.9185 21.5113 71.3951 21.2912C70.8717 21.0712 70.4227 20.8184 70.048 20.5329C69.6792 20.2474 69.3967 19.9144 69.2005 19.5337C69.0042 19.1471 68.9061 18.6981 68.9061 18.1866C68.9061 17.687 69.0131 17.2321 69.2272 16.8217C69.4413 16.4113 69.7417 16.0574 70.1283 15.76C70.5208 15.4627 70.9817 15.2337 71.5111 15.0731C72.0463 14.9125 72.6322 14.8322 73.2685 14.8322C74.1785 14.8322 74.9636 15.0047 75.6238 15.3497C76.2899 15.6946 76.8043 16.1615 77.1671 16.7503C77.5359 17.3332 77.7202 17.9874 77.7202 18.713H76.6229C76.6229 18.148 76.4891 17.6454 76.2215 17.2053C75.9598 16.7592 75.5791 16.4113 75.0796 16.1615C74.5859 15.9058 73.9822 15.7779 73.2685 15.7779C72.5548 15.7779 71.9541 15.8879 71.4665 16.108C70.9847 16.3221 70.6189 16.6105 70.3691 16.9733C70.1253 17.3302 70.0034 17.7287 70.0034 18.1688C70.0034 18.4781 70.0628 18.7635 70.1818 19.0252C70.3007 19.281 70.494 19.5218 70.7617 19.7478C71.0353 19.9679 71.3951 20.1761 71.8411 20.3723C72.2872 20.5627 72.8373 20.744 73.4916 20.9165C74.1815 21.1068 74.7941 21.318 75.3294 21.5499C75.8646 21.7819 76.3166 22.0495 76.6854 22.3528C77.0541 22.6502 77.3337 22.9982 77.524 23.3966C77.7143 23.7951 77.8095 24.259 77.8095 24.7883C77.8095 25.3177 77.6965 25.7935 77.4705 26.2157C77.2504 26.6321 76.9382 26.986 76.5337 27.2774C76.1352 27.5688 75.6624 27.7918 75.1152 27.9465C74.574 28.1011 73.9822 28.1784 73.3399 28.1784C72.763 28.1784 72.1891 28.1041 71.6181 27.9554C71.0472 27.8067 70.5238 27.5777 70.048 27.2685C69.5781 26.9532 69.2005 26.5488 68.915 26.0552C68.6354 25.5615 68.4957 24.9727 68.4957 24.2888H69.5841C69.5841 24.8359 69.6941 25.2969 69.9142 25.6716C70.1342 26.0462 70.4256 26.3496 70.7884 26.5815C71.1572 26.8135 71.5616 26.983 72.0017 27.09C72.4478 27.1911 72.8939 27.2417 73.3399 27.2417C74.0239 27.2417 74.6157 27.1406 75.1152 26.9384C75.6208 26.7362 76.0103 26.4536 76.2839 26.0909C76.5635 25.7221 76.7032 25.2939 76.7032 24.8062ZM84.995 15.7868L80.4987 28H79.3568L84.2635 15.0107H85.0574L84.995 15.7868ZM89.0809 28L84.5757 15.7868L84.5132 15.0107H85.3072L90.2228 28H89.0809ZM88.278 23.4145V24.3601H81.3819V23.4145H88.278ZM87.0558 11.7901L87.8587 11.8436C87.8587 12.2243 87.7784 12.5573 87.6178 12.8428C87.4632 13.1283 87.255 13.3513 86.9934 13.5119C86.7317 13.6725 86.4373 13.7528 86.1101 13.7528C85.7949 13.7528 85.5362 13.7022 85.334 13.6011C85.1318 13.5 84.9504 13.387 84.7898 13.2621C84.6292 13.1312 84.4597 13.0182 84.2813 12.9231C84.1029 12.822 83.8858 12.7714 83.63 12.7714C83.3565 12.7714 83.1245 12.8666 82.9342 13.0569C82.7439 13.2413 82.6487 13.497 82.6487 13.8241L81.8458 13.7974C81.8458 13.4167 81.9231 13.0866 82.0777 12.8071C82.2324 12.5216 82.4405 12.2986 82.7022 12.138C82.9699 11.9774 83.2672 11.8971 83.5944 11.8971C83.8739 11.8971 84.1148 11.9477 84.317 12.0488C84.5251 12.144 84.7155 12.257 84.8879 12.3878C85.0604 12.5187 85.2388 12.6346 85.4232 12.7357C85.6076 12.8309 85.8217 12.8785 86.0655 12.8785C86.3391 12.8785 86.5711 12.7803 86.7614 12.5841C86.9577 12.3819 87.0558 12.1172 87.0558 11.7901ZM102.181 20.8095V22.2012C102.181 23.1112 102.062 23.9349 101.824 24.6724C101.592 25.4039 101.253 26.0314 100.807 26.5548C100.367 27.0781 99.8379 27.4796 99.2194 27.7591C98.6009 28.0387 97.905 28.1784 97.1318 28.1784C96.3765 28.1784 95.6866 28.0387 95.0621 27.7591C94.4435 27.4796 93.9112 27.0781 93.4652 26.5548C93.0191 26.0314 92.6742 25.4039 92.4303 24.6724C92.1865 23.9349 92.0645 23.1112 92.0645 22.2012V20.8095C92.0645 19.8995 92.1835 19.0787 92.4214 18.3472C92.6652 17.6097 93.0102 16.9793 93.4563 16.4559C93.9023 15.9325 94.4346 15.5311 95.0532 15.2515C95.6717 14.972 96.3586 14.8322 97.114 14.8322C97.8872 14.8322 98.583 14.972 99.2015 15.2515C99.8201 15.5311 100.352 15.9325 100.798 16.4559C101.245 16.9793 101.586 17.6097 101.824 18.3472C102.062 19.0787 102.181 19.8995 102.181 20.8095ZM101.093 22.2012V20.7916C101.093 20.0244 101.004 19.3345 100.825 18.7219C100.653 18.1093 100.394 17.5859 100.049 17.1518C99.7101 16.7176 99.2937 16.3845 98.8001 16.1526C98.3065 15.9206 97.7444 15.8047 97.114 15.8047C96.5014 15.8047 95.9512 15.9206 95.4635 16.1526C94.9759 16.3845 94.5595 16.7176 94.2146 17.1518C93.8756 17.5859 93.6139 18.1093 93.4295 18.7219C93.2511 19.3345 93.1619 20.0244 93.1619 20.7916V22.2012C93.1619 22.9744 93.2511 23.6702 93.4295 24.2888C93.6139 24.9014 93.8785 25.4277 94.2235 25.8678C94.5684 26.302 94.9848 26.635 95.4725 26.867C95.9661 27.099 96.5192 27.2149 97.1318 27.2149C97.7682 27.2149 98.3302 27.099 98.8179 26.867C99.3056 26.635 99.719 26.302 100.058 25.8678C100.397 25.4277 100.653 24.9014 100.825 24.2888C101.004 23.6702 101.093 22.9744 101.093 22.2012ZM114.929 22.7097H111.226V21.773H114.929C115.702 21.773 116.329 21.6481 116.811 21.3983C117.299 21.1425 117.653 20.7976 117.873 20.3634C118.099 19.9292 118.212 19.4415 118.212 18.9003C118.212 18.371 118.099 17.8833 117.873 17.4372C117.653 16.9912 117.299 16.6343 116.811 16.3667C116.329 16.0931 115.702 15.9563 114.929 15.9563H111.61V28H110.513V15.0107H114.929C115.88 15.0107 116.68 15.1742 117.328 15.5013C117.983 15.8284 118.476 16.2834 118.809 16.8663C119.142 17.4491 119.309 18.1212 119.309 18.8825C119.309 19.6794 119.142 20.3664 118.809 20.9433C118.476 21.5143 117.986 21.9514 117.337 22.2547C116.689 22.558 115.886 22.7097 114.929 22.7097ZM125.353 15.7868L120.856 28H119.714L124.621 15.0107H125.415L125.353 15.7868ZM129.439 28L124.933 15.7868L124.871 15.0107H125.665L130.58 28H129.439ZM128.636 23.4145V24.3601H121.739V23.4145H128.636ZM142.726 15.0107V28H141.62L134.153 16.902V28H133.056V15.0107H134.153L141.638 26.1087V15.0107H142.726ZM156.183 20.8095V22.2012C156.183 23.1112 156.064 23.9349 155.827 24.6724C155.595 25.4039 155.256 26.0314 154.809 26.5548C154.369 27.0781 153.84 27.4796 153.222 27.7591C152.603 28.0387 151.907 28.1784 151.134 28.1784C150.379 28.1784 149.689 28.0387 149.064 27.7591C148.446 27.4796 147.913 27.0781 147.467 26.5548C147.021 26.0314 146.676 25.4039 146.432 24.6724C146.189 23.9349 146.067 23.1112 146.067 22.2012V20.8095C146.067 19.8995 146.186 19.0787 146.424 18.3472C146.667 17.6097 147.012 16.9793 147.458 16.4559C147.904 15.9325 148.437 15.5311 149.055 15.2515C149.674 14.972 150.361 14.8322 151.116 14.8322C151.889 14.8322 152.585 14.972 153.204 15.2515C153.822 15.5311 154.355 15.9325 154.801 16.4559C155.247 16.9793 155.589 17.6097 155.827 18.3472C156.064 19.0787 156.183 19.8995 156.183 20.8095ZM155.095 22.2012V20.7916C155.095 20.0244 155.006 19.3345 154.827 18.7219C154.655 18.1093 154.396 17.5859 154.051 17.1518C153.712 16.7176 153.296 16.3845 152.802 16.1526C152.309 15.9206 151.747 15.8047 151.116 15.8047C150.504 15.8047 149.953 15.9206 149.466 16.1526C148.978 16.3845 148.562 16.7176 148.217 17.1518C147.878 17.5859 147.616 18.1093 147.432 18.7219C147.253 19.3345 147.164 20.0244 147.164 20.7916V22.2012C147.164 22.9744 147.253 23.6702 147.432 24.2888C147.616 24.9014 147.881 25.4277 148.226 25.8678C148.571 26.302 148.987 26.635 149.475 26.867C149.968 27.099 150.521 27.2149 151.134 27.2149C151.77 27.2149 152.332 27.099 152.82 26.867C153.308 26.635 153.721 26.302 154.06 25.8678C154.399 25.4277 154.655 24.9014 154.827 24.2888C155.006 23.6702 155.095 22.9744 155.095 22.2012ZM159.479 15.0107H163.699C164.597 15.0107 165.376 15.1564 166.036 15.4478C166.697 15.7392 167.205 16.1704 167.562 16.7414C167.925 17.3064 168.106 18.0023 168.106 18.829C168.106 19.4415 167.975 19.9976 167.714 20.4972C167.458 20.9968 167.104 21.4161 166.652 21.7551C166.2 22.0882 165.677 22.3172 165.082 22.4421L164.698 22.5848H160.193L160.175 21.6481H163.949C164.627 21.6481 165.192 21.5172 165.644 21.2555C166.096 20.9938 166.435 20.6489 166.661 20.2207C166.893 19.7865 167.009 19.3226 167.009 18.829C167.009 18.2402 166.881 17.7316 166.625 17.3034C166.375 16.8693 166.004 16.5362 165.51 16.3042C165.016 16.0723 164.413 15.9563 163.699 15.9563H160.577V28H159.479V15.0107ZM167.499 28L164.136 22.1923L165.314 22.1833L168.668 27.884V28H167.499ZM175.934 15.7868L171.438 28H170.296L175.202 15.0107H175.996L175.934 15.7868ZM180.02 28L175.515 15.7868L175.452 15.0107H176.246L181.162 28H180.02ZM179.217 23.4145V24.3601H172.321V23.4145H179.217ZM176.086 11.576L178.236 13.8687V13.958H177.245L175.747 12.3343L174.257 13.958H173.293V13.8509L175.408 11.576H176.086ZM183.976 15.0107H185.082L189.882 26.4477L194.69 15.0107H195.788L190.301 28H189.462L183.976 15.0107ZM183.637 15.0107H184.609L184.725 22.3261V28H183.637V15.0107ZM195.172 15.0107H196.145V28H195.047V22.3261L195.172 15.0107ZM201.332 15.0107V28H200.234V15.0107H201.332ZM213.504 23.9498H214.601C214.512 24.824 214.271 25.5794 213.879 26.2157C213.486 26.8462 212.951 27.3309 212.273 27.6699C211.595 28.0089 210.777 28.1784 209.82 28.1784C209.082 28.1784 208.413 28.0387 207.812 27.7591C207.218 27.4796 206.706 27.0841 206.278 26.5726C205.85 26.0552 205.52 25.4366 205.288 24.717C205.056 23.9973 204.94 23.1974 204.94 22.3172V20.6935C204.94 19.8133 205.056 19.0163 205.288 18.3026C205.52 17.583 205.853 16.9644 206.287 16.447C206.721 15.9295 207.241 15.5311 207.848 15.2515C208.455 14.972 209.139 14.8322 209.9 14.8322C210.822 14.8322 211.619 15.0017 212.291 15.3407C212.963 15.6738 213.492 16.1556 213.879 16.786C214.271 17.4164 214.512 18.1777 214.601 19.0698H213.504C213.421 18.368 213.237 17.7733 212.951 17.2856C212.666 16.7979 212.27 16.4262 211.765 16.1704C211.265 15.9087 210.643 15.7779 209.9 15.7779C209.293 15.7779 208.752 15.8939 208.276 16.1258C207.801 16.3578 207.396 16.6908 207.063 17.125C206.73 17.5532 206.474 18.0677 206.296 18.6684C206.123 19.2691 206.037 19.9382 206.037 20.6757V22.3172C206.037 23.0309 206.12 23.6881 206.287 24.2888C206.453 24.8895 206.697 25.4099 207.018 25.85C207.346 26.2901 207.744 26.6321 208.214 26.8759C208.684 27.1198 209.219 27.2417 209.82 27.2417C210.587 27.2417 211.226 27.1198 211.738 26.8759C212.255 26.6261 212.657 26.2574 212.942 25.7697C213.228 25.282 213.415 24.6753 213.504 23.9498ZM222.09 15.7868L217.594 28H216.452L221.359 15.0107H222.153L222.09 15.7868ZM226.176 28L221.671 15.7868L221.609 15.0107H222.403L227.318 28H226.176ZM225.373 23.4145V24.3601H218.477V23.4145H225.373Z" fill="#152238" fill-opacity="0.93"/>
<path d="M38.3875 24.2008L35.6414 17.5969C35.2805 16.5414 34.5219 15.6703 33.5438 15.1641C33.393 14.0148 32.4211 13.125 31.2313 13.125C29.9367 13.125 28.8875 14.1742 28.8875 15.4688C28.8875 15.5227 28.8969 15.5734 28.9031 15.625C27.9156 16.4125 27.2812 17.6234 27.2812 18.9844C27.2812 19.1602 27.2812 19.368 27.2812 19.5914C27.0508 19.4578 26.7859 19.375 26.5 19.375C26.2141 19.375 25.9492 19.4578 25.7188 19.5914C25.7188 19.368 25.7188 19.1602 25.7188 18.9844C25.7188 17.6414 25.1023 16.4437 24.1375 15.6555C24.143 15.593 24.1562 15.5328 24.1562 15.4688C24.1562 14.1742 23.107 13.125 21.8125 13.125C20.6289 13.125 19.6609 14.0047 19.5016 15.1445C18.5023 15.6469 17.7242 16.525 17.3586 17.5969L14.6125 24.2008C14.2242 24.9836 14 25.8633 14 26.7969C14 30.0328 16.6234 32.6562 19.8594 32.6562C22.5477 32.6562 24.807 30.8438 25.4969 28.3766C25.7695 28.6062 26.1164 28.75 26.5 28.75C26.8836 28.75 27.2305 28.6062 27.5031 28.3766C28.193 30.8438 30.4523 32.6562 33.1406 32.6562C36.3766 32.6562 39 30.0328 39 26.7969C39 25.8633 38.7758 24.9836 38.3875 24.2008ZM21.8125 13.9062C22.5617 13.9062 23.1852 14.4367 23.3359 15.1414C22.7594 14.8539 22.1109 14.6875 21.4219 14.6875C21.068 14.6875 20.7297 14.743 20.4008 14.8234C20.6453 14.2844 21.182 13.9062 21.8125 13.9062ZM19.8594 31.875C17.0594 31.875 14.7812 29.5969 14.7812 26.7969C14.7812 26.1477 14.9195 25.4898 15.1922 24.8406L15.3195 24.5344C16.1539 22.868 17.8727 21.7188 19.8594 21.7188C22.6594 21.7188 24.9375 23.9969 24.9375 26.7969C24.9375 29.5969 22.6594 31.875 19.8594 31.875ZM24.9375 23.882C23.9258 22.1242 22.0328 20.9375 19.8594 20.9375C18.5258 20.9375 17.3008 21.3883 16.3164 22.1383L18.0797 17.8969L18.0898 17.8734L18.0977 17.8492C18.5844 16.425 19.9195 15.4688 21.4219 15.4688C23.3602 15.4688 24.9375 17.0461 24.9375 18.9844V23.882ZM26.5 27.9688C26.0695 27.9688 25.7188 27.618 25.7188 27.1875C25.7188 26.757 26.0695 26.4062 26.5 26.4062C26.9305 26.4062 27.2812 26.757 27.2812 27.1875C27.2812 27.618 26.9305 27.9688 26.5 27.9688ZM27.2812 25.8414C27.0508 25.7078 26.7859 25.625 26.5 25.625C26.2141 25.625 25.9492 25.7078 25.7188 25.8414C25.7188 24.4203 25.7188 22.4969 25.7188 20.9375C25.7188 20.507 26.0695 20.1562 26.5 20.1562C26.9305 20.1562 27.2812 20.507 27.2812 20.9375C27.2812 22.4969 27.2812 24.4203 27.2812 25.8414ZM31.2313 13.9062C31.868 13.9062 32.4148 14.2906 32.6578 14.8383C32.3117 14.7477 31.9531 14.6875 31.5781 14.6875C30.9086 14.6875 30.2766 14.8453 29.7117 15.1188C29.8711 14.4258 30.4898 13.9062 31.2313 13.9062ZM28.0625 18.9844C28.0625 17.0461 29.6398 15.4688 31.5781 15.4688C33.0805 15.4688 34.4156 16.425 34.9023 17.8492L34.9102 17.8734L34.9203 17.8969L36.6836 22.1383C35.6992 21.3883 34.4742 20.9375 33.1406 20.9375C30.9672 20.9375 29.0742 22.1242 28.0625 23.882V18.9844ZM33.1406 31.875C30.3406 31.875 28.0625 29.5969 28.0625 26.7969C28.0625 23.9969 30.3406 21.7188 33.1406 21.7188C35.1273 21.7188 36.8461 22.868 37.6805 24.5344L37.8086 24.8438C38.0805 25.4898 38.2188 26.1477 38.2188 26.7969C38.2188 29.5969 35.9406 31.875 33.1406 31.875ZM19.8594 22.5C17.4859 22.5 15.5625 24.4234 15.5625 26.7969C15.5625 29.1703 17.4859 31.0938 19.8594 31.0938C22.2328 31.0938 24.1562 29.1703 24.1562 26.7969C24.1562 24.4234 22.2328 22.5 19.8594 22.5ZM19.8594 30.3125C17.9211 30.3125 16.3438 28.7352 16.3438 26.7969C16.3438 24.8586 17.9211 23.2812 19.8594 23.2812C21.7977 23.2812 23.375 24.8586 23.375 26.7969C23.375 28.7352 21.7977 30.3125 19.8594 30.3125ZM33.1406 22.5C30.7672 22.5 28.8438 24.4234 28.8438 26.7969C28.8438 29.1703 30.7672 31.0938 33.1406 31.0938C35.5141 31.0938 37.4375 29.1703 37.4375 26.7969C37.4375 24.4234 35.5141 22.5 33.1406 22.5ZM33.1406 30.3125C31.2023 30.3125 29.625 28.7352 29.625 26.7969C29.625 24.8586 31.2023 23.2812 33.1406 23.2812C35.0789 23.2812 36.6562 24.8586 36.6562 26.7969C36.6562 28.7352 35.0789 30.3125 33.1406 30.3125Z" fill="#FA8334"/>
</svg>
