<svg width="255" height="45" viewBox="0 0 255 45" fill="none" xmlns="http://www.w3.org/2000/svg">
<rect x="0.967871" y="0.967871" width="253.064" height="43.0643" rx="6.7751" stroke="#FA8334" stroke-width="1.93574"/>
<path d="M69.3036 15.0107V28H68.2063V15.0107H69.3036ZM83.0552 15.0107V28H81.9489L74.4818 16.902V28H73.3845V15.0107H74.4818L81.9668 26.1087V15.0107H83.0552ZM91.0079 15.0107V28H89.9195V15.0107H91.0079ZM95.4596 15.0107V15.9563H85.4767V15.0107H95.4596ZM106.196 27.0633V28H98.8893V27.0633H106.196ZM99.2194 15.0107V28H98.1221V15.0107H99.2194ZM105.286 20.8362V21.773H98.8893V20.8362H105.286ZM106.151 15.0107V15.9563H98.8893V15.0107H106.151ZM109.046 15.0107H113.265C114.163 15.0107 114.943 15.1564 115.603 15.4478C116.263 15.7392 116.771 16.1704 117.128 16.7414C117.491 17.3064 117.672 18.0023 117.672 18.829C117.672 19.4415 117.542 19.9976 117.28 20.4972C117.024 20.9968 116.67 21.4161 116.218 21.7551C115.766 22.0882 115.243 22.3172 114.648 22.4421L114.265 22.5848H109.759L109.741 21.6481H113.515C114.193 21.6481 114.758 21.5172 115.21 21.2555C115.662 20.9938 116.001 20.6489 116.227 20.2207C116.459 19.7865 116.575 19.3226 116.575 18.829C116.575 18.2402 116.447 17.7316 116.192 17.3034C115.942 16.8693 115.57 16.5362 115.076 16.3042C114.583 16.0723 113.979 15.9563 113.265 15.9563H110.143V28H109.046V15.0107ZM117.066 28L113.703 22.1923L114.88 22.1833L118.235 27.884V28H117.066ZM125.5 15.7868L121.004 28H119.862L124.769 15.0107H125.563L125.5 15.7868ZM129.586 28L125.081 15.7868L125.019 15.0107H125.813L130.728 28H129.586ZM128.783 23.4145V24.3601H121.887V23.4145H128.783ZM136.397 15.0107V28H135.309V15.0107H136.397ZM140.849 15.0107V15.9563H130.866V15.0107H140.849ZM144.849 15.0107V28H143.752V15.0107H144.849ZM152.99 26.3853L157.084 15.0107H158.28L153.445 28H152.561L152.99 26.3853ZM148.761 15.0107L152.838 26.3853L153.284 28H152.392L147.565 15.0107H148.761ZM162.093 15.0107V28H160.996V15.0107H162.093ZM169.725 28H166.781L166.799 27.0633H169.725C170.659 27.0633 171.461 26.8551 172.133 26.4388C172.812 26.0165 173.335 25.4337 173.704 24.6902C174.072 23.9468 174.257 23.0844 174.257 22.1031V20.8898C174.257 20.1404 174.15 19.4624 173.936 18.8557C173.727 18.2491 173.427 17.7316 173.035 17.3034C172.642 16.8693 172.172 16.5362 171.625 16.3042C171.084 16.0723 170.477 15.9563 169.805 15.9563H166.727V15.0107H169.805C170.614 15.0107 171.354 15.1504 172.026 15.43C172.704 15.7035 173.29 16.102 173.784 16.6254C174.284 17.1428 174.667 17.7644 174.935 18.4899C175.208 19.2155 175.345 20.0244 175.345 20.9165V22.1031C175.345 22.9952 175.208 23.804 174.935 24.5296C174.667 25.2552 174.284 25.8767 173.784 26.3942C173.284 26.9116 172.693 27.3101 172.009 27.5896C171.325 27.8632 170.563 28 169.725 28ZM167.271 15.0107V28H166.174V15.0107H167.271ZM182.763 15.7868L178.266 28H177.124L182.031 15.0107H182.825L182.763 15.7868ZM186.849 28L182.343 15.7868L182.281 15.0107H183.075L187.99 28H186.849ZM186.046 23.4145V24.3601H179.15V23.4145H186.046ZM194.016 28H191.072L191.09 27.0633H194.016C194.95 27.0633 195.753 26.8551 196.425 26.4388C197.103 26.0165 197.626 25.4337 197.995 24.6902C198.364 23.9468 198.548 23.0844 198.548 22.1031V20.8898C198.548 20.1404 198.441 19.4624 198.227 18.8557C198.019 18.2491 197.719 17.7316 197.326 17.3034C196.933 16.8693 196.464 16.5362 195.916 16.3042C195.375 16.0723 194.769 15.9563 194.097 15.9563H191.019V15.0107H194.097C194.905 15.0107 195.646 15.1504 196.318 15.43C196.996 15.7035 197.582 16.102 198.075 16.6254C198.575 17.1428 198.959 17.7644 199.226 18.4899C199.5 19.2155 199.637 20.0244 199.637 20.9165V22.1031C199.637 22.9952 199.5 23.804 199.226 24.5296C198.959 25.2552 198.575 25.8767 198.075 26.3942C197.576 26.9116 196.984 27.3101 196.3 27.5896C195.616 27.8632 194.855 28 194.016 28ZM191.563 15.0107V28H190.466V15.0107H191.563ZM211.06 27.0633V28H203.753V27.0633H211.06ZM204.083 15.0107V28H202.986V15.0107H204.083ZM210.15 20.8362V21.773H203.753V20.8362H210.15ZM211.015 15.0107V15.9563H203.753V15.0107H211.015Z" fill="#152238" fill-opacity="0.93"/>
<path d="M28.4172 30.9892H28.3476H24.7531C23.4666 30.9892 22.3985 30.0511 22.3985 28.8725L22.3987 17.878L28.4172 30.9892ZM28.4172 30.9892L28.4177 30.9881M28.4172 30.9892L28.4177 30.9881M28.4177 30.9881C29.6727 30.9548 30.7016 30.0295 30.7023 28.8731V28.873V17.878C30.7023 17.6244 30.4761 17.4384 30.2233 17.4384C29.9706 17.4384 29.7443 17.6244 29.7443 17.878L29.7446 28.873C29.7446 29.5442 29.1294 30.1105 28.3479 30.1105H24.7534C23.9718 30.1105 23.3567 29.5442 23.3567 28.873V17.878C23.3567 17.6244 23.1304 17.4384 22.8777 17.4384C22.625 17.4384 22.3987 17.6244 22.3987 17.878L28.4177 30.9881Z" fill="#FA8334" stroke="#FA8334" stroke-width="0.21478"/>
<path d="M30.2219 23.4931H31.3938C32.3792 23.4931 33.2015 22.7744 33.2015 21.8654V16.2684C33.2015 14.7052 31.7835 13.4528 30.0652 13.4528H23.0338C21.3164 13.4528 19.8975 14.7043 19.8975 16.2684V21.8654C19.8975 22.7742 20.7197 23.4931 21.7051 23.4931H22.877C23.1298 23.4931 23.356 23.3071 23.356 23.0534C23.356 22.7998 23.1298 22.6138 22.877 22.6138H21.7051C21.2252 22.6138 20.8555 22.2669 20.8555 21.8655V16.2684C20.8555 15.2119 21.8212 14.3321 23.0338 14.3321H30.0652C31.2778 14.3321 32.2435 15.2119 32.2435 16.2684V21.8655C32.2435 22.2669 31.8738 22.6138 31.3938 22.6138H30.2219C29.9692 22.6138 29.743 22.7998 29.743 23.0534C29.743 23.3071 29.9692 23.4931 30.2219 23.4931Z" fill="#FA8334" stroke="#FA8334" stroke-width="0.21478"/>
<path d="M29.9353 9.93155V9.93153C29.9353 8.24469 28.4049 6.89261 26.5492 6.89261C24.6935 6.89261 23.1631 8.24469 23.1631 9.93153C23.1631 11.6184 24.6935 12.9705 26.5492 12.9705C28.4049 12.9705 29.935 11.6186 29.9353 9.93155ZM24.121 9.93234C24.121 8.75273 25.1992 7.77265 26.5492 7.77265C27.8992 7.77265 28.9773 8.75273 28.9773 9.93234C28.9773 11.1119 27.8992 12.092 26.5492 12.092C25.199 12.092 24.121 11.1117 24.121 9.93234Z" fill="#FA8334" stroke="#FA8334" stroke-width="0.21478"/>
<path d="M26.5493 30.9892H26.6567V30.9777C26.8627 30.9339 27.0283 30.7666 27.0283 30.5496V24.2136C27.0283 23.96 26.802 23.774 26.5493 23.774C26.2966 23.774 26.0703 23.96 26.0703 24.2136V30.5496C26.0703 30.8032 26.2966 30.9892 26.5493 30.9892Z" fill="#FA8334" stroke="#FA8334" stroke-width="0.21478"/>
<g filter="url(#filter0_d_412_253)">
<path d="M26.5492 36.3685C26.4503 36.3685 26.3561 36.3332 26.2861 36.2715L23.6778 33.9393H14.9105C14.7938 33.9393 14.683 33.8901 14.6133 33.8065C14.5435 33.7228 14.5211 33.6144 14.5538 33.5141L17.093 25.7183C17.1392 25.5767 17.2848 25.4791 17.4497 25.4791H22.876C23.0811 25.4791 23.2476 25.628 23.2476 25.8113C23.2476 25.9947 23.0811 26.1436 22.876 26.1436H17.7285L15.4061 33.2741H23.8324C23.9313 33.2741 24.0256 33.3093 24.0955 33.371L26.5501 35.5657L29.0047 33.371C29.0744 33.3087 29.1689 33.2741 29.2678 33.2741H37.6941L35.3711 26.1425H30.2235C30.0185 26.1425 29.8519 25.9936 29.8519 25.8103C29.8519 25.6269 30.0185 25.478 30.2235 25.478H35.6498C35.8148 25.478 35.9605 25.5756 36.0065 25.7172L38.5457 33.513C38.5784 33.6133 38.5562 33.7216 38.4863 33.8054C38.4165 33.889 38.3057 33.9383 38.1891 33.9383H29.4206L26.8123 36.2704C26.7423 36.333 26.648 36.368 26.5491 36.368L26.5492 36.3685Z" fill="#FA8334"/>
<path d="M26.5492 36.6185H26.8343L26.8262 36.5572C26.8813 36.5315 26.9328 36.498 26.9789 36.4568L29.5161 34.1883H38.1891C38.3731 34.1883 38.5568 34.1111 38.6782 33.9656C38.8007 33.8188 38.844 33.6215 38.7835 33.4356L38.7835 33.4356L36.2443 25.6401C36.1602 25.3809 35.9071 25.228 35.6498 25.228H30.2235C29.9075 25.228 29.6019 25.4633 29.6019 25.8103C29.6019 26.1572 29.9075 26.3925 30.2235 26.3925H35.1896L37.3498 33.0241H29.2678C29.1118 33.0241 28.9568 33.0785 28.838 33.1847L26.5501 35.2304L24.2622 33.1847L24.2609 33.1836C24.1434 33.0799 23.9897 33.0241 23.8324 33.0241H15.7504L17.91 26.3936H22.876C23.1921 26.3936 23.4976 26.1583 23.4976 25.8113C23.4976 25.4644 23.1921 25.2291 22.876 25.2291H17.4497C17.1922 25.2291 16.9397 25.3822 16.8554 25.6408L16.8553 25.6409L14.3161 33.4366L14.3161 33.4367C14.2555 33.6228 14.2992 33.8203 14.4213 33.9666C14.5427 34.1122 14.7264 34.1893 14.9105 34.1893H23.5823L26.1195 36.4579L26.1207 36.459C26.2382 36.5626 26.3919 36.6185 26.5492 36.6185Z" stroke="#FA8334" stroke-width="0.5"/>
</g>
<defs>
</defs>
</svg>
