<svg width="25" height="25" viewBox="0 0 25 25" fill="none" xmlns="http://www.w3.org/2000/svg">
<path d="M24.3875 14.2008L21.6414 7.59687C21.2805 6.54141 20.5219 5.67031 19.5438 5.16406C19.393 4.01484 18.4211 3.125 17.2312 3.125C15.9367 3.125 14.8875 4.17422 14.8875 5.46875C14.8875 5.52266 14.8969 5.57344 14.9031 5.625C13.9156 6.4125 13.2812 7.62344 13.2812 8.98438C13.2812 9.16016 13.2812 9.36797 13.2812 9.59141C13.0508 9.45781 12.7859 9.375 12.5 9.375C12.2141 9.375 11.9492 9.45781 11.7188 9.59141C11.7188 9.36797 11.7188 9.16016 11.7188 8.98438C11.7188 7.64141 11.1023 6.44375 10.1375 5.65547C10.143 5.59297 10.1562 5.53281 10.1562 5.46875C10.1562 4.17422 9.10703 3.125 7.8125 3.125C6.62891 3.125 5.66094 4.00469 5.50156 5.14453C4.50234 5.64688 3.72422 6.525 3.35859 7.59687L0.6125 14.2008C0.224219 14.9836 0 15.8633 0 16.7969C0 20.0328 2.62344 22.6562 5.85938 22.6562C8.54766 22.6562 10.807 20.8437 11.4969 18.3766C11.7695 18.6062 12.1164 18.75 12.5 18.75C12.8836 18.75 13.2305 18.6062 13.5031 18.3766C14.193 20.8437 16.4523 22.6562 19.1406 22.6562C22.3766 22.6562 25 20.0328 25 16.7969C25 15.8633 24.7758 14.9836 24.3875 14.2008ZM7.8125 3.90625C8.56172 3.90625 9.18516 4.43672 9.33594 5.14141C8.75937 4.85391 8.11094 4.6875 7.42188 4.6875C7.06797 4.6875 6.72969 4.74297 6.40078 4.82344C6.64531 4.28437 7.18203 3.90625 7.8125 3.90625ZM5.85938 21.875C3.05937 21.875 0.78125 19.5969 0.78125 16.7969C0.78125 16.1477 0.919531 15.4898 1.19219 14.8406L1.31953 14.5344C2.15391 12.868 3.87266 11.7188 5.85938 11.7188C8.65938 11.7188 10.9375 13.9969 10.9375 16.7969C10.9375 19.5969 8.65938 21.875 5.85938 21.875ZM10.9375 13.882C9.92578 12.1242 8.03281 10.9375 5.85938 10.9375C4.52578 10.9375 3.30078 11.3883 2.31641 12.1383L4.07969 7.89687L4.08984 7.87344L4.09766 7.84922C4.58437 6.425 5.91953 5.46875 7.42188 5.46875C9.36016 5.46875 10.9375 7.04609 10.9375 8.98438V13.882ZM12.5 17.9688C12.0695 17.9688 11.7188 17.618 11.7188 17.1875C11.7188 16.757 12.0695 16.4062 12.5 16.4062C12.9305 16.4062 13.2812 16.757 13.2812 17.1875C13.2812 17.618 12.9305 17.9688 12.5 17.9688ZM13.2812 15.8414C13.0508 15.7078 12.7859 15.625 12.5 15.625C12.2141 15.625 11.9492 15.7078 11.7188 15.8414C11.7188 14.4203 11.7188 12.4969 11.7188 10.9375C11.7188 10.507 12.0695 10.1562 12.5 10.1562C12.9305 10.1562 13.2812 10.507 13.2812 10.9375C13.2812 12.4969 13.2812 14.4203 13.2812 15.8414ZM17.2312 3.90625C17.868 3.90625 18.4148 4.29062 18.6578 4.83828C18.3117 4.74766 17.9531 4.6875 17.5781 4.6875C16.9086 4.6875 16.2766 4.84531 15.7117 5.11875C15.8711 4.42578 16.4898 3.90625 17.2312 3.90625ZM14.0625 8.98438C14.0625 7.04609 15.6398 5.46875 17.5781 5.46875C19.0805 5.46875 20.4156 6.425 20.9023 7.84922L20.9102 7.87344L20.9203 7.89687L22.6836 12.1383C21.6992 11.3883 20.4742 10.9375 19.1406 10.9375C16.9672 10.9375 15.0742 12.1242 14.0625 13.882V8.98438ZM19.1406 21.875C16.3406 21.875 14.0625 19.5969 14.0625 16.7969C14.0625 13.9969 16.3406 11.7188 19.1406 11.7188C21.1273 11.7188 22.8461 12.868 23.6805 14.5344L23.8086 14.8438C24.0805 15.4898 24.2188 16.1477 24.2188 16.7969C24.2188 19.5969 21.9406 21.875 19.1406 21.875ZM5.85938 12.5C3.48594 12.5 1.5625 14.4234 1.5625 16.7969C1.5625 19.1703 3.48594 21.0938 5.85938 21.0938C8.23281 21.0938 10.1562 19.1703 10.1562 16.7969C10.1562 14.4234 8.23281 12.5 5.85938 12.5ZM5.85938 20.3125C3.92109 20.3125 2.34375 18.7352 2.34375 16.7969C2.34375 14.8586 3.92109 13.2812 5.85938 13.2812C7.79766 13.2812 9.375 14.8586 9.375 16.7969C9.375 18.7352 7.79766 20.3125 5.85938 20.3125ZM19.1406 12.5C16.7672 12.5 14.8438 14.4234 14.8438 16.7969C14.8438 19.1703 16.7672 21.0938 19.1406 21.0938C21.5141 21.0938 23.4375 19.1703 23.4375 16.7969C23.4375 14.4234 21.5141 12.5 19.1406 12.5ZM19.1406 20.3125C17.2023 20.3125 15.625 18.7352 15.625 16.7969C15.625 14.8586 17.2023 13.2812 19.1406 13.2812C21.0789 13.2812 22.6562 14.8586 22.6562 16.7969C22.6562 18.7352 21.0789 20.3125 19.1406 20.3125Z" fill="#FA8334"/>
</svg>
