<?xml version="1.0" encoding="utf-8"?><!-- Uploaded to: SVG Repo, www.svgrepo.com, Generator: SVG Repo Mixer Tools -->
<svg version="1.1" id="Uploaded to svgrepo.com" xmlns="http://www.w3.org/2000/svg" xmlns:xlink="http://www.w3.org/1999/xlink" 
	 width="800px" height="800px" viewBox="0 0 32 32" xml:space="preserve">
<style type="text/css">
	.feather_een{fill:#0B1719;}
</style>
<path class="feather_een" d="M31.216,18.177l-3.515-8.453c-0.462-1.351-1.433-2.466-2.685-3.114C24.823,5.139,23.579,4,22.056,4
	c-1.657,0-3,1.343-3,3c0,0.069,0.012,0.134,0.02,0.2C17.812,8.208,17,9.758,17,11.5c0,0.225,0,0.491,0,0.777
	C16.705,12.106,16.366,12,16,12s-0.705,0.106-1,0.277c0-0.286,0-0.552,0-0.777c0-1.719-0.789-3.252-2.024-4.261
	C12.983,7.159,13,7.082,13,7c0-1.657-1.343-3-3-3C8.485,4,7.246,5.126,7.042,6.585C5.763,7.228,4.767,8.352,4.299,9.724
	l-3.515,8.453C0.287,19.179,0,20.305,0,21.5C0,25.642,3.358,29,7.5,29c3.441,0,6.333-2.32,7.216-5.478
	C15.065,23.816,15.509,24,16,24s0.935-0.184,1.284-0.478C18.167,26.68,21.059,29,24.5,29c4.142,0,7.5-3.358,7.5-7.5
	C32,20.305,31.713,19.179,31.216,18.177z M10,5c0.959,0,1.757,0.679,1.95,1.581C11.212,6.213,10.382,6,9.5,6
	C9.047,6,8.614,6.071,8.193,6.174C8.506,5.484,9.193,5,10,5z M7.5,28C3.916,28,1,25.084,1,21.5c0-0.831,0.177-1.673,0.526-2.504
	l0.163-0.392C2.757,16.471,4.957,15,7.5,15c3.584,0,6.5,2.916,6.5,6.5S11.084,28,7.5,28z M14,17.769C12.705,15.519,10.282,14,7.5,14
	c-1.707,0-3.275,0.577-4.535,1.537l2.257-5.429l0.013-0.03l0.01-0.031C5.868,8.224,7.577,7,9.5,7c2.481,0,4.5,2.019,4.5,4.5V17.769z
	 M16,23c-0.551,0-1-0.449-1-1s0.449-1,1-1s1,0.449,1,1S16.551,23,16,23z M17,20.277C16.705,20.106,16.366,20,16,20
	s-0.705,0.106-1,0.277c0-1.819,0-4.281,0-6.277c0-0.551,0.449-1,1-1s1,0.449,1,1C17,15.996,17,18.458,17,20.277z M22.056,5
	c0.815,0,1.515,0.492,1.826,1.193C23.439,6.077,22.98,6,22.5,6c-0.857,0-1.666,0.202-2.389,0.552C20.315,5.665,21.107,5,22.056,5z
	 M18,11.5C18,9.019,20.019,7,22.5,7c1.923,0,3.632,1.224,4.255,3.047l0.01,0.031l0.013,0.03l2.257,5.429
	C27.775,14.577,26.207,14,24.5,14c-2.782,0-5.205,1.519-6.5,3.769V11.5z M24.5,28c-3.584,0-6.5-2.916-6.5-6.5s2.916-6.5,6.5-6.5
	c2.543,0,4.743,1.471,5.811,3.604L30.475,19C30.823,19.827,31,20.669,31,21.5C31,25.084,28.084,28,24.5,28z M7.5,16
	C4.462,16,2,18.462,2,21.5C2,24.538,4.462,27,7.5,27c3.038,0,5.5-2.462,5.5-5.5C13,18.462,10.538,16,7.5,16z M7.5,26
	C5.019,26,3,23.981,3,21.5S5.019,17,7.5,17s4.5,2.019,4.5,4.5S9.981,26,7.5,26z M24.5,16c-3.038,0-5.5,2.462-5.5,5.5
	c0,3.038,2.462,5.5,5.5,5.5c3.038,0,5.5-2.462,5.5-5.5C30,18.462,27.538,16,24.5,16z M24.5,26c-2.481,0-4.5-2.019-4.5-4.5
	s2.019-4.5,4.5-4.5s4.5,2.019,4.5,4.5S26.981,26,24.5,26z"/>
</svg>