<svg width="430" height="287" viewBox="0 0 430 287" fill="none" xmlns="http://www.w3.org/2000/svg">
<path d="M187.793 137.597L171.539 152.973L164.51 147.152L181.094 131.557L187.793 137.597Z" fill="#CCE0E9" stroke="#CCE0E9" stroke-width="2"/>
<path d="M230.406 237.321V249.951L296.193 239.847L293.008 228.644C293.008 228.644 292.747 227.546 292.239 227.107C291.459 226.43 289.604 226.887 289.604 226.887L255.447 231.939L232.603 235.454C232.603 235.454 231.614 235.563 230.955 236.003C230.296 236.442 230.406 237.321 230.406 237.321Z" fill="#CCE0E9" stroke="#CCE0E9" stroke-width="2"/>
<path d="M170.77 205.471H158.579V213.268L162.423 226.338L170.66 235.124L176.701 243.581L180.545 247.205L185.597 251.049L193.834 252.257L198.996 251.049L199.874 238.749C199.874 238.749 196.125 238.113 193.834 237.321C191.368 236.468 190.013 235.836 187.793 234.465C185.918 233.307 184.884 232.584 183.29 231.061C181.572 229.417 180.744 228.331 179.446 226.338C178.159 224.361 177.713 223.088 176.701 220.956C173.922 215.107 170.77 205.471 170.77 205.471Z" fill="#CCE0E9" stroke="#CCE0E9" stroke-width="2"/>
<path d="M205.915 263.35L205.476 255.552L249.077 249.951L249.407 256.651C249.407 256.651 249.407 258.504 248.199 259.616C247.41 260.342 245.563 260.385 245.563 260.385L210.528 264.888C210.528 264.888 209.21 265.107 207.782 264.888C206.354 264.668 205.915 263.35 205.915 263.35Z" fill="#CCE0E9" stroke="#CCE0E9" stroke-width="2"/>
<path d="M325.079 216.893L322.223 218.431L325.738 224.801L328.483 223.153L325.079 216.893Z" fill="#CCE0E9"/>
<path d="M325.738 225.35L314.975 231.281L319.807 232.818L327.605 228.315L325.738 225.35Z" fill="#CCE0E9"/>
<path d="M325.079 216.893L322.223 218.431L325.738 224.801L328.483 223.153L325.079 216.893Z" stroke="#CCE0E9" stroke-width="2"/>
<path d="M325.738 225.35L314.975 231.281L319.807 232.818L327.605 228.315L325.738 225.35Z" stroke="#CCE0E9" stroke-width="2"/>
<path fill-rule="evenodd" clip-rule="evenodd" d="M156.821 62.8044C160.218 62.8044 162.971 60.0508 162.971 56.654C162.971 53.2573 160.218 50.5037 156.821 50.5037C153.424 50.5037 150.671 53.2573 150.671 56.654C150.671 60.0508 153.424 62.8044 156.821 62.8044ZM107.399 108.603C107.399 112.788 104.007 116.181 99.8213 116.181C95.636 116.181 92.2432 112.788 92.2432 108.603C92.2432 104.417 95.636 101.024 99.8213 101.024C104.007 101.024 107.399 104.417 107.399 108.603ZM305.801 184.744C303.179 180.086 301.78 176.75 300.056 172.641L300.056 172.639C299.455 171.207 298.815 169.681 298.07 167.973C297.677 167.071 297.166 165.88 296.795 165.013C296.512 164.353 296.757 163.586 297.37 163.211C298.138 162.74 299.146 163.074 299.484 163.909C300.882 167.36 304.323 175.631 307.347 181.079C309.093 184.226 310.579 186.426 312.169 188.78L312.17 188.781C313.239 190.364 314.355 192.017 315.63 194.074C322.942 205.882 332.853 223.898 335.568 228.865C335.941 229.547 335.588 230.386 334.845 230.616C334.077 230.874 333.241 230.56 332.845 229.853C330.199 225.127 320.317 207.578 313.09 196.074C311.982 194.31 311.013 192.886 310.087 191.525L310.086 191.523L310.086 191.523C308.674 189.446 307.36 187.514 305.801 184.744ZM414.973 206.686L414.972 206.687C414.895 206.789 414.914 206.934 415.014 207.013L420.454 211.299C422.623 213.008 422.996 216.152 421.287 218.321C419.578 220.49 416.435 220.863 414.266 219.154L405.172 211.989L404.899 211.785L404.898 211.785L404.897 211.784L404.897 211.784L404.896 211.783L404.895 211.782L404.863 211.759C404.842 211.744 404.814 211.723 404.777 211.696L404.713 211.649C404.649 211.603 404.57 211.546 404.477 211.48L404.356 211.395C404.278 211.34 404.193 211.28 404.1 211.216C403.564 210.843 402.8 210.327 401.902 209.767C400.037 208.603 397.868 207.418 396.049 206.8C395.409 206.583 393.214 206.216 390.132 206.044C387.191 205.878 384.153 205.929 382.046 206.243C377.09 206.981 371.052 209.751 365.934 212.63C363.447 214.029 361.305 215.379 359.788 216.378C359.031 216.876 358.433 217.284 358.031 217.564C357.83 217.703 357.677 217.811 357.579 217.881C357.529 217.916 357.493 217.942 357.471 217.958L357.448 217.974L357.446 217.976C357.446 217.976 357.447 217.975 354.512 213.927C351.576 209.88 351.577 209.879 351.578 209.879L351.579 209.878L351.584 209.874L351.597 209.865L351.639 209.835L351.686 209.801L351.787 209.729C351.913 209.639 352.095 209.511 352.327 209.35C352.79 209.028 353.456 208.573 354.289 208.025C355.952 206.93 358.296 205.452 361.032 203.914C366.362 200.916 373.723 197.372 380.573 196.352C383.628 195.897 387.421 195.876 390.693 196.059C393.823 196.235 397.221 196.637 399.265 197.332C401.82 198.199 404.393 199.586 406.38 200.782C406.583 200.905 406.846 200.855 406.988 200.665L406.989 200.664L419.775 183.716C421.439 181.512 424.574 181.073 426.778 182.736C428.983 184.399 429.421 187.535 427.758 189.739L414.973 206.686ZM316.292 240.067C318.542 238.466 318.812 234.943 316.054 235.072C315.87 235.08 315.686 235.099 315.503 235.128C314.048 235.359 313.255 236.809 313.011 238.261L312.218 242.965C312.218 242.965 312.218 242.966 312.218 242.966L312.22 242.968L312.226 242.977L312.253 243.015L312.36 243.166C312.455 243.3 312.596 243.499 312.779 243.758C313.144 244.276 313.675 245.031 314.335 245.976C315.657 247.867 317.493 250.518 319.553 253.552C323.691 259.646 328.663 267.189 332.18 273.226C334.154 276.614 335.596 279.115 337.538 282.521C338.906 284.92 341.96 285.755 344.359 284.387C346.757 283.019 347.593 279.966 346.225 277.567C344.267 274.134 342.81 271.606 340.82 268.191C337.121 261.843 331.988 254.065 327.826 247.935C325.736 244.856 323.874 242.168 322.534 240.25C321.863 239.29 321.323 238.522 320.949 237.993C320.763 237.728 320.618 237.523 320.519 237.383L320.406 237.224L320.376 237.183L320.369 237.172L320.367 237.169L320.366 237.168C320.366 237.168 320.366 237.168 316.292 240.067ZM158.799 56.5442C158.799 57.6967 157.865 58.6309 156.712 58.6309C155.56 58.6309 154.626 57.6967 154.626 56.5442C154.626 55.3917 155.56 54.4575 156.712 54.4575C157.865 54.4575 158.799 55.3917 158.799 56.5442ZM99.9306 111.348C101.386 111.348 102.566 110.168 102.566 108.712C102.566 107.257 101.386 106.077 99.9306 106.077C98.4748 106.077 97.2947 107.257 97.2947 108.712C97.2947 110.168 98.4748 111.348 99.9306 111.348Z" fill="#D9D9D9"/>
<path d="M300.056 172.641L299.13 173.017L299.134 173.028L300.056 172.641ZM305.801 184.744L304.929 185.235H304.929L305.801 184.744ZM300.056 172.639L300.982 172.263L300.978 172.253L300.056 172.639ZM298.07 167.973L297.154 168.373V168.373L298.07 167.973ZM296.795 165.013L295.875 165.406V165.406L296.795 165.013ZM297.37 163.211L296.848 162.358V162.358L297.37 163.211ZM299.484 163.909L298.557 164.284V164.284L299.484 163.909ZM307.347 181.079L306.473 181.564L307.347 181.079ZM312.169 188.78L313.013 188.243C313.008 188.236 313.003 188.228 312.998 188.221L312.169 188.78ZM312.17 188.781L311.326 189.318C311.331 189.325 311.336 189.333 311.341 189.34L312.17 188.781ZM315.63 194.074L314.779 194.601L315.63 194.074ZM335.568 228.865L336.446 228.385L335.568 228.865ZM334.845 230.616L334.55 229.661C334.542 229.663 334.535 229.666 334.527 229.668L334.845 230.616ZM332.845 229.853L333.718 229.365V229.365L332.845 229.853ZM313.09 196.074L313.936 195.542L313.09 196.074ZM310.087 191.525L309.255 192.079L309.26 192.087L310.087 191.525ZM310.086 191.523L310.919 190.969C310.902 190.945 310.885 190.921 310.867 190.899L310.086 191.523ZM310.086 191.523L309.259 192.085C309.274 192.107 309.289 192.128 309.305 192.148L310.086 191.523ZM414.972 206.687L415.77 207.289L415.773 207.285L414.972 206.687ZM414.973 206.686L414.174 206.084L414.171 206.088L414.973 206.686ZM415.014 207.013L415.633 206.227L415.633 206.227L415.014 207.013ZM420.454 211.299L421.073 210.513L420.454 211.299ZM414.266 219.154L414.884 218.368L414.266 219.154ZM405.172 211.989L405.79 211.203C405.784 211.198 405.777 211.193 405.77 211.188L405.172 211.989ZM404.899 211.785L405.497 210.984C405.494 210.981 405.49 210.979 405.486 210.976L404.899 211.785ZM404.898 211.785L404.298 212.585C404.303 212.588 404.307 212.591 404.312 212.595L404.898 211.785ZM404.897 211.784L404.286 212.576C404.29 212.578 404.294 212.581 404.297 212.584L404.897 211.784ZM404.897 211.784L405.508 210.992C405.503 210.988 405.497 210.984 405.492 210.98L404.897 211.784ZM404.896 211.783L405.491 210.98L405.485 210.975L404.896 211.783ZM404.895 211.782L404.301 212.587L404.305 212.59L404.895 211.782ZM404.863 211.759L405.456 210.954L405.456 210.953L404.863 211.759ZM404.777 211.696L405.366 210.887L405.364 210.887L404.777 211.696ZM404.713 211.649L405.3 210.84L405.299 210.839L404.713 211.649ZM404.477 211.48L405.056 210.665L405.055 210.664L404.477 211.48ZM404.356 211.395L404.934 210.579L404.932 210.578L404.356 211.395ZM404.1 211.216L403.529 212.037L403.529 212.037L404.1 211.216ZM401.902 209.767L402.432 208.919V208.919L401.902 209.767ZM396.049 206.8L396.371 205.854L396.049 206.8ZM390.132 206.044L390.188 205.045L390.132 206.044ZM382.046 206.243L381.899 205.254L382.046 206.243ZM365.934 212.63L366.424 213.501L365.934 212.63ZM359.788 216.378L360.338 217.213L359.788 216.378ZM358.031 217.564L358.601 218.385H358.601L358.031 217.564ZM357.579 217.881L356.999 217.066L356.999 217.066L357.579 217.881ZM357.471 217.958L356.888 217.145L356.887 217.146L357.471 217.958ZM357.448 217.974L356.864 217.162L356.863 217.163L357.448 217.974ZM357.446 217.976L356.861 217.165C356.413 217.488 356.312 218.112 356.634 218.56C356.957 219.008 357.581 219.11 358.029 218.788L357.446 217.976ZM354.512 213.927L355.321 213.34L354.512 213.927ZM351.578 209.879L352.161 210.691L352.171 210.684L351.578 209.879ZM351.579 209.878L350.993 209.068L350.986 209.072L351.579 209.878ZM351.584 209.874L350.998 209.064L350.997 209.064L351.584 209.874ZM351.597 209.865L351.013 209.053L351.011 209.054L351.597 209.865ZM351.639 209.835L351.056 209.022L351.055 209.023L351.639 209.835ZM351.686 209.801L351.106 208.986L351.104 208.988L351.686 209.801ZM351.787 209.729L351.208 208.914L351.207 208.914L351.787 209.729ZM352.327 209.35L351.756 208.529L351.756 208.529L352.327 209.35ZM354.289 208.025L353.739 207.19L353.739 207.19L354.289 208.025ZM361.032 203.914L360.542 203.042L361.032 203.914ZM380.573 196.352L380.72 197.341L380.573 196.352ZM390.693 196.059L390.637 197.058L390.693 196.059ZM399.265 197.332L398.944 198.279L399.265 197.332ZM406.38 200.782L405.864 201.639H405.864L406.38 200.782ZM406.988 200.665L406.194 200.058L406.19 200.063L406.988 200.665ZM406.989 200.664L407.783 201.272L407.787 201.267L406.989 200.664ZM419.775 183.716L420.574 184.319L419.775 183.716ZM426.778 182.736L426.176 183.535L426.778 182.736ZM427.758 189.739L428.557 190.341V190.341L427.758 189.739ZM316.054 235.072L316.1 236.071H316.1L316.054 235.072ZM315.712 239.252C315.262 239.572 315.157 240.196 315.477 240.646C315.797 241.096 316.422 241.202 316.872 240.881L315.712 239.252ZM315.503 235.128L315.346 234.141L315.346 234.141L315.503 235.128ZM313.011 238.261L313.997 238.427L313.011 238.261ZM312.218 242.965L311.232 242.799L311.23 242.809L312.218 242.965ZM312.218 242.966L311.394 243.532C311.398 243.537 311.401 243.542 311.404 243.547L312.218 242.966ZM312.22 242.968L313.035 242.389L313.033 242.387L312.22 242.968ZM312.226 242.977L311.411 243.556L311.411 243.556L312.226 242.977ZM312.253 243.015L313.068 242.436L313.068 242.435L312.253 243.015ZM312.36 243.166L313.176 242.588L313.176 242.587L312.36 243.166ZM312.779 243.758L313.596 243.182L313.596 243.181L312.779 243.758ZM314.335 245.976L313.516 246.549L314.335 245.976ZM319.553 253.552L320.38 252.99L319.553 253.552ZM332.18 273.226L331.316 273.729L332.18 273.226ZM337.538 282.521L338.407 282.026L337.538 282.521ZM344.359 284.387L343.863 283.519H343.863L344.359 284.387ZM346.225 277.567L347.094 277.072L346.225 277.567ZM340.82 268.191L339.956 268.695L340.82 268.191ZM327.826 247.935L326.999 248.496L327.826 247.935ZM322.534 240.25L321.714 240.822V240.822L322.534 240.25ZM320.949 237.993L320.132 238.569L320.132 238.569L320.949 237.993ZM320.519 237.383L321.335 236.805L321.334 236.805L320.519 237.383ZM320.406 237.224L321.221 236.646L321.221 236.645L320.406 237.224ZM320.376 237.183L321.192 236.604L321.191 236.603L320.376 237.183ZM320.369 237.172L321.184 236.592L321.184 236.592L320.369 237.172ZM320.367 237.169L319.548 237.743L319.552 237.749L320.367 237.169ZM320.366 237.168L321.185 236.594C321.178 236.585 321.172 236.577 321.166 236.568L320.366 237.168ZM311.232 242.799C311.14 243.344 311.507 243.86 312.052 243.952C312.596 244.043 313.112 243.676 313.204 243.132L311.232 242.799ZM314.379 236.159C314.471 235.614 314.104 235.098 313.559 235.007C313.014 234.915 312.499 235.282 312.407 235.827L314.379 236.159ZM161.971 56.654C161.971 59.4985 159.666 61.8044 156.821 61.8044V63.8044C160.77 63.8044 163.971 60.6031 163.971 56.654H161.971ZM156.821 51.5037C159.666 51.5037 161.971 53.8096 161.971 56.654H163.971C163.971 52.705 160.77 49.5037 156.821 49.5037V51.5037ZM151.671 56.654C151.671 53.8096 153.977 51.5037 156.821 51.5037V49.5037C152.872 49.5037 149.671 52.705 149.671 56.654H151.671ZM156.821 61.8044C153.977 61.8044 151.671 59.4985 151.671 56.654H149.671C149.671 60.6031 152.872 63.8044 156.821 63.8044V61.8044ZM99.8213 117.181C104.559 117.181 108.399 113.34 108.399 108.603H106.399C106.399 112.236 103.454 115.181 99.8213 115.181V117.181ZM91.2432 108.603C91.2432 113.34 95.0837 117.181 99.8213 117.181V115.181C96.1883 115.181 93.2432 112.236 93.2432 108.603H91.2432ZM99.8213 100.024C95.0837 100.024 91.2432 103.865 91.2432 108.603H93.2432C93.2432 104.97 96.1883 102.024 99.8213 102.024V100.024ZM108.399 108.603C108.399 103.865 104.559 100.024 99.8213 100.024V102.024C103.454 102.024 106.399 104.97 106.399 108.603H108.399ZM299.134 173.028C300.859 177.141 302.277 180.523 304.929 185.235L306.672 184.254C304.08 179.65 302.7 176.359 300.979 172.254L299.134 173.028ZM299.129 173.016L299.13 173.017L300.983 172.264L300.982 172.263L299.129 173.016ZM297.154 168.373C297.895 170.074 298.533 171.594 299.134 173.026L300.978 172.253C300.378 170.821 299.735 169.289 298.987 167.573L297.154 168.373ZM295.875 165.406C296.247 166.274 296.759 167.467 297.154 168.373L298.987 167.573C298.595 166.674 298.085 165.486 297.714 164.619L295.875 165.406ZM296.848 162.358C295.812 162.991 295.397 164.289 295.875 165.406L297.714 164.619C297.627 164.416 297.702 164.18 297.892 164.063L296.848 162.358ZM300.411 163.533C299.841 162.127 298.144 161.564 296.848 162.358L297.892 164.064C298.132 163.916 298.45 164.02 298.557 164.284L300.411 163.533ZM308.221 180.594C305.231 175.206 301.81 166.989 300.411 163.533L298.557 164.284C299.953 167.731 303.415 176.055 306.473 181.564L308.221 180.594ZM312.998 188.221C311.409 185.868 309.945 183.7 308.221 180.594L306.473 181.564C308.242 184.753 309.749 186.984 311.341 189.34L312.998 188.221ZM313.013 188.244L313.013 188.243L311.326 189.317L311.326 189.318L313.013 188.244ZM316.48 193.548C315.194 191.472 314.068 189.804 312.998 188.221L311.341 189.34C312.41 190.924 313.517 192.562 314.779 194.601L316.48 193.548ZM336.446 228.385C333.732 223.421 323.809 205.382 316.48 193.548L314.779 194.601C322.076 206.382 331.974 224.375 334.691 229.345L336.446 228.385ZM335.141 231.572C336.471 231.16 337.13 229.638 336.446 228.385L334.691 229.345C334.752 229.457 334.705 229.613 334.55 229.661L335.141 231.572ZM331.973 230.342C332.608 231.476 333.948 231.972 335.163 231.564L334.527 229.668C334.206 229.776 333.874 229.644 333.718 229.365L331.973 230.342ZM312.243 196.606C319.455 208.085 329.325 225.613 331.973 230.342L333.718 229.365C331.073 224.641 321.179 207.07 313.936 195.542L312.243 196.606ZM309.26 192.087C310.186 193.448 311.146 194.859 312.243 196.606L313.936 195.542C312.818 193.761 311.84 192.324 310.914 190.962L309.26 192.087ZM309.254 192.078L309.255 192.079L310.919 190.97L310.919 190.969L309.254 192.078ZM309.305 192.148L309.306 192.148L310.867 190.899L310.867 190.898L309.305 192.148ZM304.929 185.235C306.511 188.045 307.846 190.007 309.259 192.085L310.913 190.961C309.502 188.885 308.209 186.984 306.672 184.254L304.929 185.235ZM415.773 207.285L415.774 207.284L414.171 206.088L414.17 206.089L415.773 207.285ZM415.633 206.227C415.96 206.485 416.021 206.957 415.77 207.289L414.173 206.085C413.769 206.621 413.867 207.383 414.395 207.798L415.633 206.227ZM421.073 210.513L415.633 206.227L414.395 207.798L419.835 212.084L421.073 210.513ZM422.073 218.94C424.124 216.337 423.676 212.564 421.073 210.513L419.835 212.084C421.571 213.452 421.869 215.967 420.502 217.702L422.073 218.94ZM413.647 219.939C416.25 221.99 420.022 221.543 422.073 218.94L420.502 217.702C419.135 219.437 416.62 219.736 414.884 218.368L413.647 219.939ZM404.553 212.774L413.647 219.939L414.884 218.368L405.79 211.203L404.553 212.774ZM404.301 212.587L404.573 212.79L405.77 211.188L405.497 210.984L404.301 212.587ZM404.312 212.595L404.312 212.595L405.486 210.976L405.485 210.975L404.312 212.595ZM404.297 212.584L404.298 212.585L405.499 210.985L405.497 210.984L404.297 212.584ZM404.285 212.575L404.286 212.576L405.509 210.993L405.508 210.992L404.285 212.575ZM404.301 212.587L404.302 212.587L405.492 210.98L405.491 210.98L404.301 212.587ZM404.305 212.59L404.307 212.591L405.485 210.975L405.484 210.974L404.305 212.59ZM404.269 212.563L404.301 212.587L405.488 210.977L405.456 210.954L404.269 212.563ZM404.189 212.505C404.224 212.53 404.251 212.55 404.27 212.564L405.456 210.953C405.433 210.937 405.403 210.915 405.366 210.887L404.189 212.505ZM404.125 212.459L404.19 212.506L405.364 210.887L405.3 210.84L404.125 212.459ZM403.898 212.295C403.988 212.36 404.065 212.415 404.127 212.459L405.299 210.839C405.233 210.791 405.152 210.733 405.056 210.665L403.898 212.295ZM403.778 212.211L403.899 212.296L405.055 210.664L404.934 210.579L403.778 212.211ZM403.529 212.037C403.62 212.099 403.703 212.158 403.779 212.212L404.932 210.578C404.853 210.521 404.766 210.46 404.672 210.395L403.529 212.037ZM401.373 210.615C402.254 211.165 403.004 211.671 403.529 212.037L404.672 210.395C404.125 210.015 403.347 209.49 402.432 208.919L401.373 210.615ZM395.728 207.747C397.436 208.327 399.528 209.464 401.373 210.615L402.432 208.919C400.547 207.742 398.3 206.509 396.371 205.854L395.728 207.747ZM390.076 207.042C391.592 207.127 392.884 207.259 393.869 207.396C394.882 207.536 395.506 207.672 395.728 207.747L396.371 205.854C395.952 205.711 395.159 205.555 394.143 205.415C393.101 205.27 391.754 205.133 390.188 205.045L390.076 207.042ZM382.193 207.232C384.206 206.932 387.168 206.879 390.076 207.042L390.188 205.045C387.214 204.878 384.101 204.926 381.899 205.254L382.193 207.232ZM366.424 213.501C371.522 210.635 377.427 207.942 382.193 207.232L381.899 205.254C376.753 206.02 370.583 208.868 365.444 211.758L366.424 213.501ZM360.338 217.213C361.84 216.224 363.962 214.886 366.424 213.501L365.444 211.758C362.932 213.171 360.77 214.534 359.238 215.542L360.338 217.213ZM358.601 218.385C358.998 218.11 359.588 217.706 360.338 217.213L359.238 215.542C358.473 216.046 357.869 216.458 357.46 216.742L358.601 218.385ZM358.158 218.696C358.254 218.628 358.403 218.523 358.601 218.385L357.46 216.742C357.256 216.884 357.101 216.994 356.999 217.066L358.158 218.696ZM358.054 218.77C358.075 218.755 358.11 218.73 358.158 218.696L356.999 217.066C356.948 217.102 356.911 217.129 356.888 217.145L358.054 218.77ZM358.032 218.786L358.055 218.77L356.887 217.146L356.864 217.162L358.032 218.786ZM358.031 218.787L358.033 218.785L356.863 217.163L356.861 217.165L358.031 218.787ZM353.702 214.515C355.17 216.538 355.903 217.55 356.27 218.056C356.453 218.309 356.544 218.435 356.59 218.498C356.613 218.53 356.623 218.543 356.626 218.549C356.63 218.554 356.625 218.547 356.618 218.537C356.616 218.533 356.611 218.526 356.605 218.517C356.601 218.511 356.587 218.489 356.57 218.459C356.562 218.444 356.546 218.414 356.529 218.375C356.516 218.345 356.48 218.259 356.46 218.143C356.439 218.02 356.422 217.778 356.558 217.516C356.622 217.392 356.701 217.303 356.765 217.244C356.788 217.223 356.824 217.193 356.837 217.183C356.849 217.173 356.862 217.164 356.862 217.164L358.029 218.788C358.029 218.788 358.042 218.779 358.055 218.769C358.067 218.759 358.104 218.729 358.127 218.708C358.19 218.649 358.27 218.56 358.334 218.435C358.469 218.174 358.453 217.931 358.432 217.808C358.412 217.692 358.376 217.607 358.362 217.576C358.345 217.537 358.329 217.507 358.321 217.492C358.305 217.463 358.29 217.44 358.286 217.434C358.28 217.424 358.275 217.417 358.273 217.413C358.264 217.401 358.256 217.39 358.254 217.387C358.247 217.376 358.234 217.358 358.211 217.327C358.165 217.263 358.073 217.136 357.889 216.883C357.523 216.376 356.789 215.364 355.321 213.34L353.702 214.515ZM350.995 209.066C350.995 209.066 350.986 209.073 350.977 209.079C350.968 209.086 350.942 209.107 350.925 209.121C350.881 209.159 350.817 209.22 350.757 209.308C350.619 209.506 350.576 209.718 350.578 209.89C350.579 210.037 350.613 210.148 350.629 210.197C350.648 210.252 350.668 210.295 350.679 210.317C350.7 210.36 350.719 210.392 350.725 210.402C350.733 210.415 350.74 210.426 350.744 210.431C350.755 210.448 350.766 210.463 350.767 210.465C350.776 210.477 350.789 210.496 350.812 210.527C350.858 210.592 350.95 210.719 351.134 210.972C351.501 211.478 352.234 212.491 353.702 214.515L355.321 213.34C353.853 211.316 353.12 210.305 352.753 209.799C352.57 209.546 352.479 209.42 352.434 209.357C352.411 209.325 352.402 209.313 352.399 209.308C352.395 209.303 352.403 209.314 352.413 209.329C352.416 209.333 352.422 209.344 352.43 209.357C352.436 209.366 352.456 209.398 352.477 209.441C352.487 209.463 352.507 209.505 352.526 209.561C352.542 209.61 352.576 209.721 352.577 209.868C352.579 210.04 352.536 210.252 352.398 210.45C352.338 210.537 352.274 210.599 352.23 210.637C352.213 210.651 352.187 210.672 352.178 210.678C352.169 210.685 352.16 210.691 352.16 210.691L350.995 209.066ZM350.986 209.072L350.985 209.074L352.171 210.684L352.172 210.683L350.986 209.072ZM350.997 209.064L350.993 209.068L352.166 210.687L352.17 210.684L350.997 209.064ZM351.011 209.054L350.998 209.064L352.169 210.685L352.182 210.676L351.011 209.054ZM351.055 209.023L351.013 209.053L352.181 210.677L352.223 210.646L351.055 209.023ZM351.104 208.988L351.056 209.022L352.221 210.647L352.269 210.613L351.104 208.988ZM351.207 208.914L351.106 208.986L352.267 210.615L352.367 210.543L351.207 208.914ZM351.756 208.529C351.521 208.692 351.337 208.822 351.208 208.914L352.366 210.544C352.49 210.456 352.668 210.33 352.897 210.171L351.756 208.529ZM353.739 207.19C352.899 207.743 352.226 208.203 351.756 208.529L352.897 210.171C353.354 209.854 354.014 209.404 354.839 208.86L353.739 207.19ZM360.542 203.042C357.781 204.595 355.417 206.086 353.739 207.19L354.839 208.86C356.487 207.775 358.811 206.31 361.523 204.785L360.542 203.042ZM380.426 195.363C373.387 196.411 365.893 200.033 360.542 203.042L361.523 204.785C366.83 201.8 374.06 198.333 380.72 197.341L380.426 195.363ZM390.749 195.061C387.444 194.875 383.575 194.894 380.426 195.363L380.72 197.341C383.68 196.9 387.398 196.876 390.637 197.058L390.749 195.061ZM399.587 196.385C397.403 195.643 393.885 195.237 390.749 195.061L390.637 197.058C393.761 197.233 397.039 197.632 398.944 198.279L399.587 196.385ZM406.896 199.926C404.884 198.715 402.24 197.286 399.587 196.385L398.944 198.279C401.399 199.112 403.901 200.457 405.864 201.639L406.896 199.926ZM406.19 200.063C406.358 199.841 406.663 199.786 406.896 199.926L405.864 201.639C406.502 202.024 407.333 201.869 407.787 201.268L406.19 200.063ZM406.195 200.057L406.194 200.058L407.783 201.273L407.783 201.272L406.195 200.057ZM418.977 183.114L406.191 200.062L407.787 201.267L420.574 184.319L418.977 183.114ZM427.381 181.938C424.735 179.942 420.973 180.469 418.977 183.114L420.574 184.319C421.904 182.555 424.412 182.204 426.176 183.535L427.381 181.938ZM428.557 190.341C430.552 187.696 430.026 183.934 427.381 181.938L426.176 183.535C427.94 184.865 428.291 187.373 426.96 189.137L428.557 190.341ZM415.771 207.288L428.557 190.341L426.96 189.137L414.174 206.084L415.771 207.288ZM316.1 236.071C316.571 236.049 316.769 236.182 316.854 236.269C316.953 236.371 317.052 236.571 317.051 236.917C317.048 237.634 316.595 238.623 315.712 239.252L316.872 240.881C318.238 239.909 319.046 238.336 319.051 236.924C319.054 236.205 318.844 235.448 318.288 234.876C317.719 234.289 316.915 234.03 316.007 234.073L316.1 236.071ZM315.66 236.116C315.806 236.093 315.953 236.077 316.1 236.071L316.007 234.073C315.786 234.083 315.566 234.106 315.346 234.141L315.66 236.116ZM313.997 238.427C314.221 237.096 314.869 236.242 315.66 236.116L315.346 234.141C313.228 234.477 312.29 236.522 312.025 238.095L313.997 238.427ZM313.204 243.131L313.997 238.427L312.025 238.095L311.232 242.799L313.204 243.131ZM313.042 242.399C313.197 242.625 313.243 242.887 313.206 243.121L311.23 242.809C311.193 243.044 311.239 243.307 311.394 243.532L313.042 242.399ZM313.033 242.387L313.032 242.385L311.404 243.547L311.406 243.549L313.033 242.387ZM313.041 242.398L313.035 242.389L311.404 243.547L311.411 243.556L313.041 242.398ZM313.068 242.435L313.041 242.398L311.411 243.556L311.438 243.594L313.068 242.435ZM313.176 242.587L313.068 242.436L311.437 243.593L311.545 243.745L313.176 242.587ZM313.596 243.181C313.413 242.922 313.271 242.722 313.176 242.588L311.544 243.744C311.639 243.878 311.78 244.076 311.962 244.335L313.596 243.181ZM315.155 245.403C314.494 244.457 313.962 243.7 313.596 243.182L311.962 244.335C312.326 244.851 312.856 245.605 313.516 246.549L315.155 245.403ZM320.38 252.99C318.317 249.952 316.478 247.297 315.155 245.403L313.516 246.549C314.835 248.437 316.669 251.084 318.726 254.113L320.38 252.99ZM333.044 272.722C329.508 266.655 324.521 259.088 320.38 252.99L318.726 254.113C322.861 260.205 327.817 267.724 331.316 273.729L333.044 272.722ZM338.407 282.026C336.463 278.617 335.02 276.113 333.044 272.722L331.316 273.729C333.289 277.115 334.729 279.613 336.67 283.016L338.407 282.026ZM343.863 283.519C341.944 284.613 339.501 283.945 338.407 282.026L336.67 283.016C338.311 285.895 341.975 286.898 344.854 285.256L343.863 283.519ZM345.356 278.062C346.451 279.981 345.782 282.424 343.863 283.519L344.854 285.256C347.733 283.614 348.735 279.95 347.094 277.072L345.356 278.062ZM339.956 268.695C341.944 272.107 343.4 274.632 345.356 278.062L347.094 277.072C345.134 273.636 343.676 271.105 341.684 267.688L339.956 268.695ZM326.999 248.496C331.158 254.623 336.275 262.377 339.956 268.695L341.684 267.688C337.967 261.308 332.818 253.506 328.654 247.373L326.999 248.496ZM321.714 240.822C323.052 242.738 324.912 245.422 326.999 248.496L328.654 247.373C326.561 244.29 324.696 241.599 323.353 239.677L321.714 240.822ZM320.132 238.569C320.505 239.097 321.044 239.864 321.714 240.822L323.353 239.677C322.682 238.716 322.141 237.946 321.766 237.416L320.132 238.569ZM319.703 237.962C319.801 238.101 319.946 238.305 320.132 238.569L321.766 237.416C321.579 237.151 321.434 236.945 321.335 236.805L319.703 237.962ZM319.59 237.803L319.703 237.962L321.334 236.805L321.221 236.646L319.59 237.803ZM319.561 237.762L319.591 237.803L321.221 236.645L321.192 236.604L319.561 237.762ZM319.554 237.751L319.561 237.762L321.191 236.603L321.184 236.592L319.554 237.751ZM319.552 237.749L319.554 237.752L321.184 236.592L321.181 236.589L319.552 237.749ZM319.547 237.743L319.548 237.743L321.185 236.595L321.185 236.594L319.547 237.743ZM316.872 240.881C318.909 239.432 319.927 238.707 320.436 238.345C320.691 238.164 320.818 238.074 320.881 238.029C320.913 238.006 320.928 237.995 320.935 237.991C320.939 237.987 320.937 237.989 320.932 237.992C320.931 237.993 320.927 237.996 320.923 237.999C320.92 238.001 320.909 238.008 320.895 238.017C320.887 238.021 320.873 238.031 320.854 238.041C320.84 238.049 320.795 238.074 320.734 238.098C320.711 238.107 320.496 238.2 320.214 238.157C320.036 238.129 319.871 238.054 319.735 237.944C319.624 237.854 319.555 237.754 319.566 237.768L321.166 236.568C321.154 236.553 320.944 236.245 320.518 236.18C320.236 236.136 320.021 236.229 319.998 236.238C319.937 236.263 319.892 236.288 319.878 236.295C319.859 236.306 319.844 236.315 319.837 236.319C319.822 236.329 319.811 236.336 319.808 236.338C319.803 236.341 319.799 236.344 319.798 236.345C319.791 236.35 319.784 236.354 319.781 236.357C319.772 236.363 319.755 236.376 319.723 236.398C319.659 236.443 319.531 236.534 319.277 236.715C318.767 237.078 317.749 237.802 315.712 239.252L316.872 240.881ZM156.712 59.6309C158.417 59.6309 159.799 58.249 159.799 56.5442H157.799C157.799 57.1444 157.313 57.6309 156.712 57.6309V59.6309ZM153.626 56.5442C153.626 58.249 155.008 59.6309 156.712 59.6309V57.6309C156.112 57.6309 155.626 57.1444 155.626 56.5442H153.626ZM156.712 53.4575C155.008 53.4575 153.626 54.8395 153.626 56.5442H155.626C155.626 55.944 156.112 55.4575 156.712 55.4575V53.4575ZM159.799 56.5442C159.799 54.8395 158.417 53.4575 156.712 53.4575V55.4575C157.313 55.4575 157.799 55.944 157.799 56.5442H159.799ZM101.566 108.712C101.566 109.616 100.834 110.348 99.9306 110.348V112.348C101.939 112.348 103.566 110.72 103.566 108.712H101.566ZM99.9306 107.077C100.834 107.077 101.566 107.809 101.566 108.712H103.566C103.566 106.704 101.939 105.077 99.9306 105.077V107.077ZM98.2947 108.712C98.2947 107.809 99.0271 107.077 99.9306 107.077V105.077C97.9226 105.077 96.2947 106.704 96.2947 108.712H98.2947ZM99.9306 110.348C99.0271 110.348 98.2947 109.616 98.2947 108.712H96.2947C96.2947 110.72 97.9226 112.348 99.9306 112.348V110.348ZM313.204 243.132L314.379 236.159L312.407 235.827L311.232 242.799L313.204 243.132Z" fill="#989898"/>
<path d="M189.181 178.478C189.181 178.478 189.729 176.739 191.373 176.847C193.016 176.956 197.509 180.815 197.509 180.815L233.67 202.608L253.504 202.159C256.885 202.082 258.78 202.039 262.161 201.963C269.778 201.79 281.666 201.521 281.666 201.521C281.666 201.521 286.077 201.995 289.164 201.521C295.141 200.603 304.568 197.168 303.801 195.103C303.42 194.077 302.688 192.945 302.048 192.064M236.958 217.064C236.958 217.064 234.985 217.173 233.67 216.086C232.642 215.236 233.04 207.474 233.342 204.129M285.282 194.782L285.948 195.869L288.679 200.325M299.637 188.477C299.637 188.477 300.584 190.183 300.952 190.651M254.819 221.847C254.819 221.847 256.244 222.607 256.244 225.325C256.244 228.042 256.244 230.651 256.244 230.651M219.535 248.911V244.129V239.346M191.921 189.021C193.235 187.173 194.664 184.842 196.703 181.956M159.595 166.086L169.785 173.478M114.557 130L102.333 145.978C102.333 145.978 85.5783 164.922 77.7388 178.912C75.6374 182.662 75.5415 185.462 72.6981 188.695C70.8 190.853 67 193.369 67 193.369M82.0124 196.847L78.1771 180.434M129.57 167.717C128.803 164.565 121.108 158.295 116.53 155.217C111.469 151.814 103.709 146.304 103.709 146.304M104.147 196.847L92.9703 189.347L78.9442 179.673M172.087 139.891L167.703 136.522M262.161 205.869C262.161 205.869 262.161 204.781 262.161 203.477M258.764 217.716C258.764 217.716 258.874 216.303 258.435 216.086C257.997 215.868 256.792 215.868 256.244 214.781C255.696 213.695 256.244 208.837 256.244 203.477M342.044 259.455C342.044 259.455 340.735 259.975 339.853 259.998C337.94 260.048 336.976 258.995 335.47 257.824C333.67 256.426 331.853 253.259 331.853 253.259C331.853 253.259 330.582 249.38 330.758 246.846C330.903 244.74 331.005 243.387 332.182 241.629C332.919 240.529 334.593 239.238 334.593 239.238M362.097 247.825C362.097 247.825 363.466 247.616 364.07 246.629C364.676 245.638 364.946 243.151 364.946 243.151L364.289 239.672C364.289 239.672 363.882 237.567 363.193 236.412C362.046 234.489 360.721 233.811 358.7 232.825C357.292 232.137 356.728 232.064 354.865 231.629C351.878 230.932 351.468 231.629 348.4 231.629C347.767 231.666 346.268 231.565 345.66 231.629M335.47 238.368C335.689 238.586 336.894 234.02 337.332 233.803C337.771 233.586 340.905 232.127 345.66 231.629M214.494 237.499H219.535M289.994 202.716L290.98 204.673L292.186 206.303M93.9592 187.934L115.544 156.739M226.109 244.129V248.259V242.499M404.395 203.912C406.148 201.564 407.829 198.803 408.449 197.716C409.07 196.63 408.997 194.999 408.997 194.999M285.948 170.434L293.391 167.268L295.911 166.195M284.734 170.434H280.789L269.941 175.543L280.789 198.26L284.625 196.63M323.854 220.977L325.607 219.89L306.431 188.912L302.486 190.869L296.459 193.586L285.611 171.847M345.66 231.629L358.262 224.411L372.398 219.89L381.712 210.108M296.459 237.716L292.953 226.086L294.596 220.977L298.322 228.803L288.022 206.629L289.994 205.434M220.959 244.129H224.685" stroke="#FA8334" stroke-width="4" stroke-linecap="round" stroke-linejoin="round" stroke-dasharray="2 8"/>
<path d="M29.5876 175.855C29.5876 175.855 19.0356 169.622 12.0321 170.915C8.94921 171.485 7.14615 172.09 4.57102 173.879C-4.34932 180.075 2.45189 190.795 2.92519 201.649C3.32639 210.849 2.57598 216.479 5.99741 225.028C8.29176 230.761 10.2086 233.841 14.2266 238.529C16.7319 241.452 18.2901 243.009 21.3585 245.334C28.5642 250.793 34.9169 249.587 42.864 253.896C49.4572 257.47 52.2379 260.974 58.7737 264.652C66.9188 269.236 71.8668 271.202 80.7181 274.202C90.2365 277.428 95.8242 278.571 105.735 280.239C118.659 282.414 126.121 283.614 139.2 282.763C146.239 282.305 155.785 287.174 157.085 280.239C157.337 278.89 157.207 278.092 157.085 276.726C156.205 266.884 145.954 266.045 139.2 258.835C134.365 253.674 132.164 250.301 127.131 245.334C121.506 239.784 119.6 233.213 111.769 232.163C106.279 231.426 103.525 236.658 98.0542 235.785C90.0353 234.505 83.4612 220.967 83.4612 220.967L68.3195 201.649L51.8612 185.404L29.5876 175.855Z" fill="#00693E" fill-opacity="0.4"/>
<path d="M119.56 75.3123C117.192 71.8904 113.452 70.1534 117.365 64.8848C116.462 65.3432 124.976 55.8286 129.874 47.1033C131.327 44.5147 129.874 43.9202 132.178 39.859C134.482 35.7978 140.314 29.9793 145.344 23.5044C147.464 20.7764 148.926 19.4313 150.721 16.4796C152.704 13.2186 152.182 10.3843 154.78 7.58888C157.599 4.55637 160.079 2.65703 164.217 2.75933C168.165 2.85695 169.394 6.23242 173.104 7.58888C177.201 9.08675 179.722 9.41611 184.076 9.67436C190.416 10.0504 193.92 8.49801 200.205 7.58888C206.39 6.69445 209.815 5.91549 216.005 5.06434C224.331 3.91959 229.003 3.05759 237.401 2.75933C241.555 2.61182 248.044 2.75933 248.044 2.75933C248.044 2.75933 256.084 4.54244 261.321 5.06434C268.484 5.77829 272.617 6.00232 279.754 5.06434C285.298 4.33576 288.131 2.38907 293.689 1.77147C301.109 0.946879 307.257 -2.26529 312.78 2.75933C316.971 6.57148 314.024 12.0045 317.498 16.4796C319.19 18.6592 320.607 19.4603 322.655 21.3092C327.922 26.0634 330.982 28.6335 336.7 32.8342C341.556 36.4022 345.242 37.1687 349.537 41.3957C355.546 47.3094 356.492 52.5835 360.4 60.0553C363.936 66.8172 368.885 75.1659 368.738 77.727C368.592 80.2882 368.014 85.8275 366.873 87.4959C365.447 89.5814 366.873 90.4595 363.143 94.1914C359.412 97.9233 359.126 99.4646 355.352 100.558C352.677 101.333 351.006 100.558 348.22 100.558C345.435 100.558 345.916 110.985 345.916 110.985C345.916 110.985 347.672 118.266 348.22 119.546C348.769 120.827 349.8 123.893 349.537 125.913C349.274 127.932 347.013 126.754 345.916 125.913C344.819 125.071 341.624 128.117 341.527 130.632C341.45 132.646 342.186 133.925 344.051 135.133C345.916 136.34 345.587 136.57 348.22 137.987C350.854 139.403 357.657 144.353 357.657 144.353C357.657 144.353 365.549 147.202 365.008 151.048C364.696 153.264 362.309 154.956 361.607 155.658C360.904 156.361 355.207 157.253 352.866 158.277C350.525 159.302 348.038 160.802 342.552 163.781C339.163 165.621 337.846 164.966 334.176 163.781C330.024 162.44 328.295 160.13 325.398 156.866C320.094 150.889 317.498 137.987 317.498 137.987V130.632C317.498 127.761 312.378 122.636 310.147 117.022C307.02 109.155 309.788 103.16 305.539 95.8378C302.373 90.3834 297.832 89.4204 294.457 84.0933C289.447 76.186 287.873 63.3482 287.873 61.0432C287.873 58.7381 288.861 59.287 287.873 54.0184C287.873 54.0184 282.095 33.2733 281.948 30.7487C281.948 30.7487 282.455 24.7035 279.754 23.5044C272.549 20.306 269.771 23.3316 269.55 25.2453C269.229 28.0131 271.013 29.8554 271.013 29.8554C271.013 29.8554 273.537 35.6728 275.255 39.859C276.974 44.0453 276.232 44.2803 276.901 47.1033C277.951 51.5341 279.21 53.888 279.754 58.4089C280.266 62.6646 280.741 66.7508 279.754 69.3851C278.766 72.0194 277.34 73.9951 273.719 73.2268C273.719 73.2268 262.235 71.6169 257.041 70.812C251.848 70.0071 248.922 68.2875 248.922 68.2875C248.922 68.2875 243.728 64.7008 243.436 64.2263C241.68 61.3724 241.2 61.0215 240.144 58.4089C238.722 54.8878 239.266 51.128 237.401 49.0791C235.536 47.0302 231.608 42.8665 230.818 42.6031C230.028 42.3397 226.978 39.42 225.551 37.9931C224.125 36.5662 219.935 33.5434 217.98 35.9076C216.615 37.5592 218.09 39.9322 217.98 41.3957C217.871 42.8592 217.492 44.9286 217.98 47.1033C218.994 51.6174 223.137 53.6159 225.551 56.2136C227.965 58.8113 229.965 63.1274 225.551 64.8848L214.25 69.3851C209.836 71.1426 203.138 72.0785 195.926 71.7999C192.607 71.6716 190.001 70.0071 187.478 70.812C184.954 71.6169 180.894 72.5682 177.603 73.2268C174.311 73.8854 173.324 73.5561 170.471 75.3123C167.618 77.0685 166.74 78.6051 161.035 80.1418C155.329 81.6785 155.549 79.593 153.354 77.727C151.16 75.8611 148.071 73.263 144.028 73.2268C141.208 73.2015 139.858 73.5561 137.115 75.3123C134.372 77.0685 130.197 81.5498 125.485 80.1418C122.625 79.2873 121.258 77.7675 119.56 75.3123Z" fill="#00693E" fill-opacity="0.4"/>
<path d="M262.089 78.4954C257.594 76.5028 253.298 71.7499 249.909 75.3123C247.939 77.3836 248.264 82.4468 248.264 82.4468V90.4595V97.8135C248.264 97.8135 248.451 103.552 249.909 106.814C251.186 109.671 252.182 111.339 254.628 113.29C256.741 114.975 258.228 116.763 260.882 116.254C262.218 115.997 261.211 116.766 263.954 114.607C266.697 112.449 273.719 106.814 273.719 106.814C273.719 106.814 277.815 102.277 279.096 100.667C280.376 99.0575 283.912 97.2396 283.046 94.5207C282.692 93.4097 282.05 92.99 281.29 92.1059C279.357 89.8568 277.588 89.3268 275.255 87.4959C272.786 85.558 271.594 84.2162 269.001 82.4468C266.433 80.694 264.931 79.7556 262.089 78.4954Z" fill="#00693E" fill-opacity="0.4"/>
<path d="M356.998 195.722C355.718 194.331 356.304 193.086 356.998 191.66C358.023 189.555 363.069 187.401 365.008 185.059C366.946 182.718 368.3 181.452 368.3 181.452C368.3 181.452 370.494 178.196 371.591 176.952C372.688 175.708 373.211 172.893 374.883 170.696C376.241 168.911 377.463 168.32 378.943 166.635C379.888 165.558 379.922 164.325 381.247 163.781C382.881 163.109 384.136 164.037 385.636 164.878C387.135 165.72 390.298 165.993 390.902 168.391C391.122 169.264 390.902 170.696 390.902 170.696C390.902 170.696 390.154 173.32 389.366 174.867C388.05 177.449 386.394 178.292 384.758 180.684C383.239 182.905 381.247 186.611 381.247 186.611C381.247 186.611 378.449 190.299 376.638 192.648C374.681 195.188 373.607 196.631 371.591 199.124C369.908 201.207 369.798 203.737 367.202 204.393C366.122 204.666 365.396 204.774 364.35 204.393C362.551 203.738 362.804 201.824 361.607 200.332C360.014 198.346 358.278 197.112 356.998 195.722Z" fill="#00693E" fill-opacity="0.4"/>
<path d="M177.139 188.118C172.526 187.679 170.2 192.83 169.78 197.453C169.555 199.942 171.098 203.714 171.098 203.714C171.098 203.714 173.961 214.053 177.139 220.078C179.309 224.192 180.291 226.822 183.619 230.072C187.155 233.526 189.934 234.638 194.492 236.552C199.268 238.558 207.341 239.847 207.341 239.847V233.038L210.197 232.049C210.197 232.049 223.925 216.893 225.024 215.465C226.122 214.037 228.648 203.984 220.301 205.251C211.954 206.519 210.746 209.644 204.156 205.251C197.567 200.858 181.752 188.557 177.139 188.118Z" fill="#91C0AC"/>
<rect x="257.863" y="218.321" width="1.53759" height="6.37002" rx="0.768795" fill="#2F7B9A"/>
<rect x="149.792" y="127.623" width="10.969" height="18.44" rx="2" transform="rotate(-47.9664 149.792 127.623)" fill="#2F7B9A"/>
<rect x="258.521" y="206.239" width="7.90761" height="5.05208" rx="2" fill="#2F7B9A"/>
<path fill-rule="evenodd" clip-rule="evenodd" d="M104.423 153.73C103.519 153.095 103.301 151.848 103.936 150.944L104.37 150.326C105.005 149.422 106.252 149.204 107.156 149.839L111.644 152.992C112.548 153.626 112.766 154.874 112.131 155.778L111.697 156.396C111.062 157.299 109.815 157.517 108.911 156.883L104.423 153.73ZM72.7695 152.495C71.8657 151.86 70.6182 152.079 69.9834 152.982L65.9778 158.685C65.3429 159.589 65.561 160.837 66.4649 161.471L75.1479 167.57C75.8128 168.037 76.7305 167.877 77.1975 167.212V167.212C77.6645 166.547 78.5821 166.387 79.247 166.854L80.3842 167.652C81.2881 168.287 82.5355 168.069 83.1703 167.165L83.6042 166.547C84.2391 165.644 84.021 164.396 83.1172 163.761L82.1147 163.057C81.3754 162.538 81.197 161.518 81.7163 160.778V160.778C82.2356 160.039 82.0572 159.019 81.3179 158.5L72.7695 152.495ZM85.9717 179.869C85.0678 179.234 84.8498 177.987 85.4846 177.083L85.9185 176.465C86.5534 175.561 87.8008 175.343 88.7047 175.978L93.193 179.131C94.0968 179.765 94.3149 181.013 93.68 181.917L93.2461 182.535C92.6113 183.438 91.3639 183.657 90.46 183.022L85.9717 179.869ZM100.786 184.984C99.8819 184.349 98.6345 184.567 97.9996 185.471L97.5657 186.089C96.9308 186.993 97.1489 188.24 98.0528 188.875L102.541 192.027C103.445 192.662 104.692 192.444 105.327 191.54L105.761 190.923C106.396 190.019 106.178 188.771 105.274 188.136L100.786 184.984ZM90.3653 173.279C89.4614 172.645 89.2433 171.397 89.8782 170.493L90.3121 169.876C90.947 168.972 92.1944 168.754 93.0983 169.388L97.5865 172.541C98.4904 173.176 98.7085 174.423 98.0736 175.327L97.6397 175.945C97.0048 176.849 95.7574 177.067 94.8535 176.432L90.3653 173.279ZM105.179 178.394C104.275 177.76 103.028 177.978 102.393 178.882L101.959 179.499C101.324 180.403 101.542 181.651 102.446 182.285L106.935 185.438C107.838 186.073 109.086 185.855 109.721 184.951L110.155 184.333C110.79 183.429 110.571 182.182 109.668 181.547L105.179 178.394ZM94.9776 166.69C94.0737 166.055 93.8556 164.808 94.4905 163.904L94.9244 163.286C95.5593 162.382 96.8067 162.164 97.7106 162.799L102.199 165.951C103.103 166.586 103.321 167.834 102.686 168.737L102.252 169.355C101.617 170.259 100.37 170.477 99.4658 169.842L94.9776 166.69ZM82.3994 197.833C81.8158 196.895 80.5825 196.608 79.6447 197.192L78.416 197.956C77.4782 198.54 77.191 199.773 77.7746 200.711L85.1563 212.574C85.7399 213.512 86.9732 213.799 87.911 213.215L89.1397 212.451C90.0775 211.867 90.3647 210.634 89.7811 209.696L82.3994 197.833ZM126.519 172.248C125.854 171.366 126.03 170.112 126.911 169.447L130.366 166.842C131.248 166.177 132.502 166.352 133.167 167.234L139.963 176.246C140.628 177.128 140.452 178.382 139.57 179.047L136.116 181.652C135.234 182.318 133.98 182.142 133.314 181.26L126.519 172.248ZM109.792 171.805C108.888 171.17 107.64 171.388 107.005 172.292L106.572 172.91C105.937 173.813 106.155 175.061 107.059 175.696L111.547 178.848C112.451 179.483 113.698 179.265 114.333 178.361L114.767 177.743C115.402 176.839 115.184 175.592 114.28 174.957L109.792 171.805ZM99.8106 160.32C98.9067 159.685 98.6886 158.438 99.3235 157.534L99.7574 156.916C100.392 156.012 101.64 155.794 102.544 156.429L107.032 159.581C107.936 160.216 108.154 161.464 107.519 162.367L107.085 162.985C106.45 163.889 105.203 164.107 104.299 163.472L99.8106 160.32ZM114.624 165.435C113.72 164.8 112.472 165.018 111.837 165.922L111.404 166.54C110.769 167.443 110.987 168.691 111.891 169.326L116.379 172.478C117.283 173.113 118.53 172.895 119.165 171.991L119.599 171.373C120.234 170.469 120.016 169.222 119.112 168.587L114.624 165.435ZM119.237 158.845C118.333 158.21 117.086 158.428 116.451 159.332L116.017 159.95C115.382 160.854 115.6 162.101 116.504 162.736L120.992 165.888C121.896 166.523 123.143 166.305 123.778 165.401L124.212 164.784C124.847 163.88 124.629 162.632 123.725 161.997L119.237 158.845Z" fill="#2F7B9A"/>
<path fill-rule="evenodd" clip-rule="evenodd" d="M356.965 241.174L338.654 253.996L344.828 262.812L350.157 259.081L356.632 268.328L364.129 263.08L357.653 253.832L363.139 249.991L356.965 241.174Z" fill="#2F7B9A"/>
<rect x="287.494" y="171.717" width="9.58744" height="21.9002" transform="rotate(-25.0744 287.494 171.717)" fill="#2F7B9A"/>
<rect x="289.054" y="69.8547" width="6.2705" height="4.83763" transform="rotate(-25.0744 289.054 69.8547)" fill="#2F7B9A"/>
<rect x="271.921" y="176.256" width="9.58744" height="21.9002" transform="rotate(-25.0744 271.921 176.256)" fill="#2F7B9A"/>
<rect x="311.027" y="224.563" width="12.5248" height="7.36173" transform="rotate(-28.9098 311.027 224.563)" fill="#2F7B9A"/>
<path d="M289.932 207.447L298.616 203.384L307.898 223.22L299.214 227.283L289.932 207.447Z" fill="#2F7B9A"/>
<path fill-rule="evenodd" clip-rule="evenodd" d="M237.435 211.951H251.932V217.662H254.787V228.425H240.29V228.425H237.435V222.055H233.7V218.101H237.435V211.951Z" fill="#2F7B9A"/>
<rect x="206.464" y="232.379" width="7.68795" height="9.88451" fill="#2F7B9A"/>
<rect x="222.278" y="234.575" width="7.68795" height="8.34692" fill="#2F7B9A"/>
<rect x="173.523" y="168.28" width="24.6481" height="11.1382" transform="rotate(34 173.523 168.28)" fill="#2F7B9A"/>
<path d="M383.989 210.316L391.137 216.543L381.827 227.231L374.679 221.003L383.989 210.316Z" fill="#2F7B9A"/>
<rect x="395.147" y="188.228" width="10.3238" height="8.34692" fill="#2F7B9A"/>
<rect x="412.28" y="188.228" width="4.61277" height="5.71105" fill="#2F7B9A"/>
<rect x="419.529" y="177.464" width="9.66485" height="4.17346" fill="#2F7B9A"/>
<circle cx="389.327" cy="186.141" r="4.94225" fill="#9AD2B2"/>
</svg>
