<svg width="60" height="60" viewBox="0 0 60 60" fill="none" xmlns="http://www.w3.org/2000/svg">
<rect x="1" y="1" width="58" height="58" rx="29" fill="white" stroke="#264653" stroke-width="2"/>
<path d="M30 20.625C28.8875 20.625 27.7999 20.9549 26.8749 21.573C25.9499 22.1911 25.2289 23.0696 24.8032 24.0974C24.3774 25.1252 24.266 26.2562 24.4831 27.3474C24.7001 28.4385 25.2359 29.4408 26.0225 30.2275C26.8092 31.0141 27.8115 31.5499 28.9026 31.7669C29.9938 31.984 31.1248 31.8726 32.1526 31.4468C33.1804 31.0211 34.0589 30.3001 34.677 29.3751C35.2951 28.4501 35.625 27.3625 35.625 26.25C35.6233 24.7587 35.0301 23.3289 33.9756 22.2744C32.9211 21.2199 31.4913 20.6267 30 20.625ZM30 30.625C29.1347 30.625 28.2888 30.3684 27.5694 29.8877C26.8499 29.4069 26.2892 28.7237 25.958 27.9242C25.6269 27.1248 25.5403 26.2451 25.7091 25.3965C25.8779 24.5478 26.2946 23.7683 26.9064 23.1564C27.5183 22.5446 28.2978 22.1279 29.1465 21.9591C29.9951 21.7903 30.8748 21.8769 31.6742 22.208C32.4737 22.5392 33.1569 23.0999 33.6377 23.8194C34.1184 24.5388 34.375 25.3847 34.375 26.25C34.3737 27.4099 33.9123 28.522 33.0922 29.3422C32.272 30.1623 31.1599 30.6237 30 30.625ZM30 13.125C26.5202 13.1289 23.1841 14.513 20.7236 16.9736C18.263 19.4341 16.8789 22.7702 16.875 26.25C16.875 31.0028 19.0892 36.0614 23.2784 40.8789C25.1748 43.0698 27.309 45.0429 29.6416 46.762C29.7466 46.8356 29.8718 46.875 30 46.875C30.1282 46.875 30.2534 46.8356 30.3584 46.762C32.691 45.0429 34.8252 43.0698 36.7217 40.8789C40.9108 36.0614 43.125 31.0028 43.125 26.25C43.1211 22.7702 41.737 19.4341 39.2764 16.9736C36.8159 14.513 33.4798 13.1289 30 13.125ZM35.7974 40.0366C34.0518 42.0386 32.1095 43.8602 30 45.4742C27.8905 43.8602 25.9483 42.0386 24.2026 40.0366C21.4301 36.8431 18.125 31.8588 18.125 26.25C18.125 23.1006 19.3761 20.0801 21.6031 17.8531C23.8301 15.6261 26.8506 14.375 30 14.375C33.1494 14.375 36.1699 15.6261 38.3969 17.8531C40.6239 20.0801 41.875 23.1006 41.875 26.25C41.875 31.8588 38.5699 36.8431 35.7974 40.0366Z" fill="#264653"/>
</svg>
