<svg width="27" height="52" viewBox="0 0 27 52" fill="none" xmlns="http://www.w3.org/2000/svg">
<path d="M13.9234 44.3214C14.5013 44.2466 15.1745 44.2342 15.8478 44.2176C16.0587 44.2134 16.2667 44.1303 16.4776 44.0971C17.2029 43.9767 17.853 44.2009 18.3962 44.9444C19.1879 46.0242 19.0319 47.6314 18.1709 48.5244C17.7663 48.9438 17.2982 48.9978 16.8244 49.0518C16.2812 49.1141 15.7495 49.0061 15.2179 48.8732C14.9116 48.7943 14.6053 48.7985 14.2961 48.8151C14.1603 48.8192 14.0303 48.8732 13.9147 48.9854C13.776 49.1224 13.7703 49.2304 13.9118 49.3633C14.2701 49.6997 14.6573 49.8825 15.0907 49.7496C15.2872 49.6914 15.4837 49.6084 15.6802 49.5461C15.9258 49.4713 15.998 49.5211 16.0731 49.8534C16.1598 50.2355 16.2407 50.6217 16.3072 51.008C16.3563 51.2945 16.3216 51.3859 16.1309 51.4856C15.0647 52.0379 14.0361 52.0006 13.071 51.0495C12.8716 50.8501 12.6896 50.6176 12.548 50.3435C12.077 49.4298 12.1753 48.4621 12.785 47.6398C13.4177 46.7801 14.1921 46.6098 15.0185 46.7593C15.6195 46.8714 16.2147 47.0375 16.8273 46.9794C16.9833 46.9669 17.1364 46.9545 17.2809 46.8631C17.4687 46.7468 17.4832 46.5392 17.3271 46.3523C17.2289 46.236 17.1133 46.1612 16.9833 46.1571C16.8302 46.1529 16.6741 46.1405 16.521 46.1737C15.8217 46.3191 15.1196 46.3274 14.4175 46.3357C14.0043 46.3398 13.5882 46.373 13.175 46.3315C12.3949 46.2526 11.7159 45.8373 11.2362 44.907C10.9386 44.3297 10.8317 43.661 10.8086 42.955C10.7624 41.4059 10.7306 39.8609 10.6728 38.3118C10.6468 37.6348 10.6092 36.9578 10.5052 36.2933C10.3405 35.2426 10.0198 34.3164 9.47656 33.5564C9.07782 32.9957 8.66174 32.4558 8.27455 31.8827C7.75157 31.1102 7.30659 30.238 6.91074 29.3119C6.25773 27.7835 5.97746 26.1098 5.96012 24.3323C5.937 22.0771 6.2664 19.9382 6.98009 17.9239C7.98561 15.0873 9.52857 13.1021 11.5772 11.9226C12.7561 11.2457 13.987 10.9757 15.2496 10.9965C15.5675 11.0006 15.6455 11.1086 15.6542 11.5571C15.6628 11.9434 15.6657 12.3338 15.6513 12.72C15.6368 13.073 15.5733 13.1561 15.3392 13.1935C15.0821 13.235 14.822 13.2516 14.562 13.2682C12.8687 13.3721 11.3662 14.1944 10.0747 15.7809C8.59817 17.5958 7.83247 19.9548 7.5782 22.6876C7.47418 23.7923 7.48863 24.8929 7.64466 25.9894C7.74868 26.7286 7.9336 27.4222 8.2081 28.0659C8.67041 29.1582 9.20206 30.1674 9.88397 31.0064C10.4098 31.6543 10.8953 32.3728 11.2796 33.2117C11.7881 34.3247 12.051 35.5582 12.1464 36.8706C12.2417 38.1623 12.2851 39.4622 12.3284 40.7621C12.3573 41.6301 12.3602 42.5023 12.4151 43.3703C12.4411 43.7607 12.5769 43.9767 12.8081 44.1137C12.9236 44.1802 13.045 44.23 13.1664 44.2674C13.386 44.338 13.6113 44.3089 13.9234 44.3214Z" fill="white"/>
<path d="M18.2691 29.7016C18.7516 29.6643 19.292 29.739 19.8294 29.631C20.8465 29.4275 21.7538 28.8627 22.557 27.9532C23.3603 27.0436 23.9642 25.914 24.36 24.56C24.6027 23.7211 24.7414 22.8489 24.7414 21.9352C24.7414 20.9925 24.7674 20.0497 24.5594 19.1402C23.8746 16.1499 22.4935 14.2145 20.3639 13.413C19.8959 13.2385 19.4191 13.1721 18.9337 13.1845C18.4511 13.1928 17.9715 13.1887 17.489 13.1845C17.1393 13.1804 17.0613 13.0724 17.0498 12.5782C17.044 12.2584 17.044 11.9427 17.0584 11.6229C17.0729 11.2824 17.148 11.1702 17.3821 11.1702C18.22 11.1619 19.0608 11.1121 19.893 11.191C20.5749 11.2533 21.2337 11.5689 21.8607 11.9718C23.4152 12.9769 24.597 14.5717 25.4176 16.7106C25.851 17.8402 26.0879 19.0654 26.1688 20.3487C26.2931 22.3007 26.1399 24.2112 25.4927 25.9555C24.2936 29.1866 22.4559 31.2009 19.893 31.6785C19.2573 31.7948 18.6072 31.8239 17.9628 31.7948C17.6248 31.7782 17.2896 31.799 16.9515 31.7865C16.6597 31.7741 16.5672 31.6536 16.5499 31.2425C16.5355 30.9102 16.5355 30.578 16.5499 30.2457C16.5672 29.8345 16.6597 29.7058 16.9486 29.6975C17.3676 29.6892 17.7895 29.7016 18.2691 29.7016Z" fill="white"/>
<path d="M13.939 35.7588C13.939 34.3051 13.9332 32.8515 13.9419 31.4021C13.9448 30.5714 13.9708 29.7449 13.9853 28.9143C13.9881 28.8313 13.991 28.7482 13.991 28.6651C13.991 28.4865 13.9448 28.4035 13.8119 28.4699C13.7108 28.5198 13.6096 28.5488 13.5027 28.5613C13.078 28.6194 12.7023 28.4367 12.3701 28.0671C11.9078 27.5521 11.5466 26.9125 11.2432 26.1981C11.1652 26.0112 11.1767 25.8576 11.2923 25.7247C11.509 25.4713 11.7431 25.2554 11.9829 25.0477C12.1013 24.9439 12.2083 24.9937 12.2892 25.1432C12.3672 25.2844 12.4423 25.4298 12.5088 25.5793C12.6474 25.8825 12.8121 26.1525 12.9971 26.3975C13.2831 26.7754 13.3467 26.7754 13.653 26.4058C13.7397 26.2978 13.8263 26.1857 13.9217 26.0902C14.4562 25.5461 15.0515 25.841 15.2479 26.7422C15.3115 27.0329 15.3462 27.3361 15.3346 27.6434C15.2537 29.7034 15.3057 31.7634 15.2711 33.8234C15.2335 35.9955 15.2248 38.1634 15.2248 40.3356C15.2248 41.27 15.2248 41.27 14.5603 41.27C14.4533 41.27 14.3493 41.2742 14.2424 41.2659C14.0286 41.2409 13.9535 41.1371 13.9304 40.8339C13.9246 40.7799 13.9304 40.8256 13.9304 40.7716C13.9304 39.1394 13.9246 37.4034 13.9246 35.7712C13.9275 35.7588 13.9332 35.7588 13.939 35.7588Z" fill="white"/>
<path d="M9.4307 0.543976C9.71675 0.543976 9.90746 0.75994 10.0028 1.12957C10.1039 1.51581 10.182 1.91867 10.2657 2.31322C10.5807 3.79589 10.8928 5.27857 11.2048 6.76124C11.2482 6.97305 11.2973 7.18486 11.3233 7.40083C11.3868 7.91582 11.1875 8.38097 10.8667 8.50141C10.5518 8.62185 10.2253 8.38928 10.1097 7.90336C9.91035 7.06442 9.73698 6.21718 9.55783 5.36994C9.33535 4.32334 9.11864 3.27675 8.90193 2.23016C8.8557 2.00589 8.80369 1.78162 8.79503 1.54489C8.7748 0.950985 9.04063 0.539823 9.4307 0.543976Z" fill="white"/>
<path d="M0.73934 14.8407C1.16987 14.9196 1.63795 14.9985 2.10604 15.0899C3.06822 15.2768 4.0304 15.4637 4.99258 15.6547C5.06771 15.6713 5.14572 15.6879 5.21796 15.717C5.55024 15.8458 5.76117 16.2652 5.71494 16.693C5.66004 17.1956 5.35087 17.532 4.98102 17.4697C4.56206 17.3991 4.14309 17.3118 3.72123 17.2288C2.76772 17.046 1.81421 16.8591 0.860696 16.6764C0.756677 16.6556 0.649768 16.6349 0.548638 16.6016C0.18168 16.4771 -0.0379168 16.0617 0.00542468 15.5883C0.054545 15.1356 0.337709 14.8282 0.73934 14.8407Z" fill="white"/>
<path d="M2.82851 6.3062C2.82562 5.93242 2.93831 5.67907 3.15213 5.51295C3.35439 5.35513 3.55665 5.35513 3.75313 5.54617C3.82537 5.61678 3.89471 5.69153 3.95828 5.7746C4.83956 6.94994 5.71794 8.12944 6.60211 9.30478C6.79281 9.55812 7.00374 9.77824 7.17133 10.069C7.46894 10.584 7.35914 11.2609 6.94306 11.5101C6.74658 11.6264 6.56455 11.5849 6.39407 11.4187C6.28427 11.3108 6.17736 11.1862 6.07912 11.0533C5.4579 10.2268 4.84245 9.392 4.22122 8.56552C3.88893 8.12528 3.54798 7.69751 3.2157 7.25727C3.01633 6.99562 2.80829 6.73398 2.82851 6.3062Z" fill="white"/>
</svg>
