<svg width="150" height="39" viewBox="0 0 150 39" fill="none" xmlns="http://www.w3.org/2000/svg">
<g clip-path="url(#clip0_414_22125)">
<path d="M30.6047 19.969C30.6047 16.2556 30.6047 12.5391 30.6047 8.82567C30.6047 8.66779 30.6078 8.50991 30.6292 8.35518C30.663 8.14362 30.7274 8.08994 30.9328 8.07415C31.0248 8.06784 31.1167 8.07099 31.2087 8.07099C32.8551 8.07099 34.4985 8.0931 36.1449 8.06152C37.1506 8.04258 38.098 8.24466 39.0024 8.66463C41.0689 9.62455 42.5314 11.1844 43.2795 13.4011C43.6321 14.4431 43.7148 15.5262 43.629 16.6377C43.4021 19.6469 41.2805 22.3435 38.4475 23.3413C37.9692 23.5087 37.9723 23.5087 38.2451 23.9413C39.7965 26.379 41.3479 28.8167 42.8993 31.2544C42.979 31.3775 43.0587 31.5007 43.1231 31.6333C43.209 31.807 43.163 31.8985 42.9759 31.908C42.6908 31.9238 42.4026 31.9143 42.1175 31.9143C41.4613 31.9143 41.4675 31.9112 41.118 31.346C40.3116 30.0545 39.4961 28.7662 38.6866 27.4778C37.9753 26.3474 37.2579 25.2233 36.5558 24.0834C36.3994 23.8308 36.2247 23.7424 35.9334 23.7455C34.8296 23.7645 33.7259 23.755 32.6221 23.7581C32.1346 23.7581 32.1346 23.7613 32.1346 24.276C32.1346 26.6221 32.1346 28.9683 32.1346 31.3144C32.1346 31.8764 32.1009 31.9112 31.5674 31.9112C31.3528 31.9112 31.1382 31.908 30.9236 31.908C30.7549 31.908 30.6599 31.8196 30.6292 31.6491C30.5986 31.4817 30.6016 31.3144 30.6016 31.147C30.6047 27.421 30.6047 23.695 30.6047 19.969ZM32.1346 15.8862C32.1346 17.8439 32.1346 19.8016 32.1346 21.7594C32.1346 22.1256 32.1684 22.1572 32.5179 22.1635C32.5485 22.1635 32.5792 22.1635 32.6099 22.1635C33.8363 22.1635 35.0626 22.1635 36.289 22.1635C36.4331 22.1635 36.5772 22.1635 36.7183 22.1446C38.3432 21.9393 39.68 21.1784 40.7378 19.8964C41.8967 18.4975 42.2861 16.8619 42.096 15.0683C41.9274 13.4642 41.1793 12.1633 40.0081 11.1181C38.8921 10.1203 37.5829 9.61824 36.1051 9.60876C34.94 9.60245 33.7749 9.60561 32.6099 9.60876C32.1438 9.60876 32.1346 9.61824 32.1346 10.1108C32.1346 12.0338 32.1346 13.96 32.1346 15.8862Z" fill="#264653"/>
<path d="M138.159 19.9848C138.159 16.2399 138.159 12.4917 138.159 8.74678C138.159 8.08999 138.178 8.07104 138.809 8.07104C142.344 8.07104 145.879 8.07104 149.415 8.07104C149.966 8.07104 150 8.10578 150 8.68363C150 8.87308 150.006 9.06254 149.991 9.252C149.973 9.47935 149.884 9.57092 149.663 9.59618C149.543 9.61197 149.418 9.60566 149.295 9.60566C146.272 9.60566 143.246 9.60566 140.223 9.60566C139.686 9.60566 139.683 9.60566 139.683 10.1709C139.683 13.0443 139.686 15.9178 139.689 18.7881C139.689 18.7975 139.689 18.8102 139.689 18.8196C139.692 19.2238 139.714 19.2459 140.109 19.2459C143.184 19.2459 146.26 19.2459 149.335 19.2459C149.457 19.2459 149.58 19.2428 149.703 19.2554C149.896 19.2775 149.982 19.3564 149.991 19.5585C150.003 19.8522 150.006 20.149 149.991 20.4427C149.982 20.6511 149.884 20.7426 149.681 20.7711C149.562 20.7869 149.436 20.7837 149.313 20.7837C146.278 20.7837 143.243 20.7837 140.21 20.7837C139.689 20.7837 139.686 20.7837 139.686 21.33C139.686 24.2129 139.689 27.0958 139.692 29.9787C139.692 30.0324 139.692 30.0829 139.695 30.1366C139.711 30.364 139.754 30.4082 139.974 30.4208C140.076 30.4271 140.18 30.424 140.281 30.424C143.325 30.424 146.37 30.424 149.415 30.424C149.966 30.424 150.003 30.4619 150.003 31.0366C150.003 31.2165 150.009 31.3934 149.997 31.5734C149.982 31.8102 149.902 31.886 149.672 31.9017C149.589 31.9081 149.51 31.9049 149.427 31.9049C145.861 31.9049 142.295 31.9049 138.73 31.9049C138.196 31.9049 138.156 31.8702 138.156 31.3144C138.156 27.5379 138.156 23.7582 138.156 19.9817C138.156 19.9848 138.156 19.9848 138.159 19.9848Z" fill="#264653"/>
<path d="M14.7684 33.2816C15.3816 33.2247 16.096 33.2153 16.8104 33.2026C17.0342 33.1995 17.2549 33.1363 17.4788 33.1111C18.2483 33.0195 18.9382 33.19 19.5146 33.7552C20.3546 34.5762 20.1891 35.7982 19.2754 36.4771C18.8462 36.796 18.3495 36.8371 17.8467 36.8781C17.2703 36.9255 16.7061 36.8434 16.142 36.7424C15.817 36.6824 15.492 36.6855 15.1639 36.6981C15.0198 36.7013 14.8819 36.7424 14.7592 36.8276C14.6121 36.9318 14.6059 37.0139 14.7562 37.115C15.1363 37.3707 15.5472 37.5097 16.0071 37.4086C16.2156 37.3644 16.4241 37.3013 16.6325 37.2539C16.8932 37.1971 16.9698 37.2349 17.0495 37.4876C17.1415 37.7781 17.2273 38.0717 17.2979 38.3654C17.35 38.5833 17.3132 38.6527 17.1108 38.7285C15.9795 39.1485 14.888 39.1201 13.864 38.397C13.6524 38.2454 13.4593 38.0686 13.309 37.8602C12.8093 37.1655 12.9135 36.4298 13.5604 35.8045C14.2319 35.1509 15.0536 35.0214 15.9304 35.1351C16.5682 35.2204 17.1998 35.3467 17.8497 35.3025C18.0153 35.293 18.1778 35.2835 18.3311 35.2141C18.5304 35.1256 18.5457 34.9678 18.3802 34.8257C18.2759 34.7373 18.1533 34.6804 18.0153 34.6773C17.8528 34.6741 17.6872 34.6646 17.5247 34.6899C16.7828 34.8004 16.0377 34.8067 15.2927 34.813C14.8543 34.8162 14.4128 34.8415 13.9743 34.8099C13.1465 34.7499 12.426 34.4341 11.9171 33.7268C11.6013 33.2879 11.4878 32.7795 11.4633 32.2427C11.4142 31.0649 11.3805 29.8903 11.3192 28.7125C11.2916 28.1978 11.2517 27.6831 11.1414 27.1779C10.9666 26.379 10.6263 25.6748 10.0499 25.097C9.62678 24.6707 9.18528 24.2602 8.77444 23.8245C8.2195 23.2371 7.74733 22.574 7.3273 21.8699C6.63438 20.7079 6.33698 19.4353 6.31859 18.0839C6.29406 16.3693 6.64358 14.7431 7.40088 13.2116C8.46784 11.055 10.1051 9.54561 12.2789 8.64884C13.5298 8.13415 14.8359 7.9289 16.1757 7.94469C16.513 7.94785 16.5958 8.02995 16.6049 8.37097C16.6141 8.66463 16.6172 8.96145 16.6019 9.25511C16.5866 9.52351 16.5191 9.58666 16.2708 9.61508C15.9979 9.64666 15.7219 9.65929 15.446 9.67192C13.6493 9.75086 12.055 10.3761 10.6845 11.5823C9.11783 12.9622 8.30534 14.7557 8.03554 16.8334C7.92516 17.6734 7.94049 18.5101 8.10605 19.3438C8.21643 19.9058 8.41265 20.4332 8.70392 20.9226C9.19448 21.753 9.75862 22.5204 10.4822 23.1582C11.0402 23.6508 11.5553 24.1971 11.9631 24.8349C12.5027 25.6811 12.7817 26.619 12.8829 27.6168C12.984 28.5988 13.03 29.5871 13.076 30.5755C13.1067 31.2354 13.1097 31.8985 13.168 32.5585C13.1956 32.8553 13.3397 33.0195 13.585 33.1237C13.7076 33.1742 13.8364 33.2121 13.9651 33.2405C14.1982 33.2942 14.4373 33.2721 14.7684 33.2816Z" fill="#264653"/>
<path d="M113.377 20.2469C113.331 21.8604 113.711 23.4803 114.487 25.0023C115.183 26.3632 116.136 27.5031 117.292 28.4694C118.706 29.6535 120.315 30.3892 122.115 30.6576C124.743 31.0492 127.223 30.6071 129.492 29.1356C129.857 28.8988 130.191 28.6241 130.525 28.3462C130.822 28.0999 130.893 28.0968 131.184 28.3494C131.362 28.5073 131.54 28.6652 131.712 28.8325C131.92 29.0378 131.917 29.1293 131.702 29.3219C131.062 29.8998 130.372 30.4019 129.627 30.8281C128.232 31.6302 126.729 32.0912 125.15 32.2585C122.747 32.5112 120.444 32.1165 118.283 30.9765C117.127 30.3671 116.121 29.5461 115.211 28.5957C113.573 26.8874 112.479 24.876 112.056 22.5078C111.577 19.8238 111.844 17.2219 113.006 14.7526C113.524 13.6474 114.217 12.6591 115.048 11.7718C115.845 10.9192 116.716 10.1582 117.706 9.54881C119.022 8.74045 120.438 8.22576 121.956 8.01104C123.811 7.74896 125.644 7.84369 127.444 8.40259C128.983 8.87939 130.35 9.68143 131.574 10.7487C131.635 10.8024 131.696 10.8592 131.755 10.9192C131.899 11.0739 131.902 11.1371 131.767 11.2918C131.546 11.5413 131.292 11.7528 131.043 11.9707C130.924 12.0749 130.804 12.0749 130.685 11.977C130.605 11.9107 130.525 11.8476 130.445 11.7813C129.087 10.6414 127.548 9.88984 125.819 9.58986C123.47 9.18568 121.195 9.42566 119.049 10.5561C118.191 11.0076 117.409 11.5792 116.707 12.2675C115.98 12.9812 115.312 13.7453 114.79 14.6358C114.064 15.8799 113.601 17.2124 113.441 18.6618C113.386 19.1543 113.38 19.6469 113.377 20.2469Z" fill="#264653"/>
<path d="M66.5903 20.0479C66.5688 21.8256 66.8908 23.436 67.6665 24.9201C69.0952 27.6452 71.2353 29.5145 74.1418 30.3986C74.8378 30.6102 75.5583 30.7049 76.2849 30.7649C77.3764 30.8533 78.4464 30.7523 79.5103 30.5123C81.0433 30.1618 82.4138 29.464 83.6371 28.4504C84.094 28.0683 84.094 28.0715 84.5263 28.4662C84.6489 28.5767 84.7777 28.684 84.8942 28.7977C85.1425 29.0377 85.1425 29.1387 84.8942 29.3566C84.2779 29.8966 83.6249 30.3828 82.9197 30.7965C81.491 31.6301 79.9518 32.1038 78.3299 32.2711C75.9783 32.5143 73.7248 32.1259 71.6032 31.0333C70.1315 30.2723 68.8959 29.1987 67.8228 27.9167C66.7865 26.6789 66.0262 25.2864 65.5663 23.7234C65.321 22.8866 65.1738 22.0277 65.1033 21.1531C65.0634 20.67 65.042 20.1868 65.0604 19.7037C65.1554 17.0797 65.9372 14.7115 67.5377 12.6464C68.7487 11.0834 70.2082 9.83925 71.968 8.98669C73.1239 8.42463 74.3472 8.10886 75.6165 7.95414C76.383 7.86257 77.1495 7.85625 77.913 7.90677C80.3443 8.0615 82.5395 8.89511 84.4527 10.4708C84.6367 10.6223 84.8298 10.7644 84.9862 10.9444C85.1119 11.0897 85.1149 11.1528 84.9892 11.2981C84.7685 11.5475 84.5171 11.7654 84.2657 11.977C84.1154 12.1033 84.0449 12.1001 83.8855 11.9707C83.6249 11.7654 83.3735 11.5507 83.1098 11.3549C81.6627 10.2939 80.053 9.67189 78.287 9.48875C76.6712 9.32455 75.0831 9.45086 73.5409 10.0034C72.1397 10.5087 70.9133 11.3012 69.8433 12.359C68.9971 13.1958 68.2674 14.121 67.7155 15.1946C67.1606 16.2777 66.811 17.4239 66.6731 18.6396C66.6087 19.1322 66.5842 19.6374 66.5903 20.0479Z" fill="#264653"/>
<path d="M55.3412 12.1506C55.24 12.2232 55.2277 12.3306 55.1909 12.4285C54.2435 14.9956 53.2962 17.5596 52.3488 20.1268C51.5608 22.2613 50.7729 24.3927 49.9941 26.5305C49.43 28.0777 48.8811 29.6281 48.3262 31.1785C48.2741 31.3269 48.2128 31.4722 48.1637 31.6206C48.0963 31.8321 47.9552 31.9142 47.7437 31.9111C47.4463 31.9048 47.1519 31.9142 46.8545 31.9079C46.5694 31.9016 46.5081 31.8132 46.6031 31.529C46.7871 30.9827 46.9864 30.4396 47.1795 29.8965C48.1821 27.0925 49.1816 24.2885 50.1842 21.4846C51.0764 18.9869 51.9717 16.4892 52.8639 13.9915C53.5598 12.0464 54.2497 10.1013 54.9457 8.15617C54.9978 8.00776 55.0499 7.85935 55.1235 7.72041C55.1971 7.58148 55.3074 7.58148 55.378 7.72041C55.4546 7.86882 55.5098 8.0267 55.565 8.18459C57.0826 12.4411 58.5942 16.6976 60.1118 20.9541C61.3597 24.4496 62.6106 27.9419 63.8585 31.4374C63.8769 31.488 63.8953 31.5353 63.9106 31.5858C63.9658 31.8037 63.9136 31.8921 63.7021 31.9016C63.3648 31.9142 63.0276 31.9048 62.6903 31.9048C62.5094 31.9048 62.4113 31.7974 62.35 31.6364C62.1844 31.1943 62.0158 30.7554 61.8594 30.3102C61.004 27.9104 60.1548 25.5074 59.2993 23.1107C58.0239 19.5363 56.7423 15.965 55.4638 12.3937C55.4331 12.3116 55.4239 12.2106 55.3412 12.1506Z" fill="#264653"/>
<path d="M94.3619 20.7268C94.3619 17.1998 94.3619 13.6758 94.3619 10.1488C94.3619 9.60564 94.3619 9.60564 93.8376 9.60564C92.2831 9.60564 90.7317 9.60564 89.1773 9.60564C89.1068 9.60564 89.0332 9.60564 88.9627 9.60564C88.607 9.59617 88.5058 9.49828 88.4936 9.13515C88.4844 8.89201 88.4844 8.64888 88.4997 8.4089C88.5181 8.15313 88.604 8.08366 88.8523 8.07103C88.9351 8.06787 89.0148 8.06787 89.0976 8.06787C93.114 8.06787 97.1304 8.06787 101.147 8.06787C101.745 8.06787 101.745 8.06787 101.745 8.68045C101.745 8.86044 101.748 9.03727 101.742 9.21725C101.732 9.5046 101.653 9.58354 101.368 9.60248C101.276 9.6088 101.184 9.60564 101.092 9.60564C99.5372 9.60564 97.9859 9.60564 96.4314 9.60564C95.9071 9.60564 95.9041 9.60564 95.9041 10.1488C95.9041 17.1682 95.9041 24.1908 95.9041 31.2102C95.9041 31.3365 95.9102 31.4628 95.8979 31.5891C95.8765 31.8133 95.8029 31.8954 95.5913 31.9049C95.2847 31.9144 94.9781 31.9144 94.6715 31.9049C94.46 31.8986 94.3864 31.8133 94.3649 31.5891C94.3557 31.4755 94.3588 31.3586 94.3588 31.2418C94.3619 27.7368 94.3619 24.2318 94.3619 20.7268Z" fill="#264653"/>
<path d="M19.3797 22.1636C19.8917 22.1352 20.4651 22.192 21.0353 22.1099C22.1146 21.9552 23.0773 21.5258 23.9296 20.8343C24.782 20.1427 25.4227 19.2839 25.8428 18.2545C26.1003 17.6166 26.2475 16.9535 26.2475 16.2588C26.2475 15.5421 26.2751 14.8253 26.0543 14.1338C25.3277 11.8603 23.8622 10.3888 21.6025 9.77937C21.1058 9.64675 20.6 9.59622 20.0849 9.6057C19.5729 9.61201 19.0639 9.60886 18.5519 9.6057C18.1809 9.60254 18.0981 9.52044 18.0859 9.14468C18.0797 8.90154 18.0797 8.66156 18.0951 8.41843C18.1104 8.1595 18.1901 8.07424 18.4384 8.07424C19.3276 8.06793 20.2198 8.03004 21.1028 8.09003C21.8264 8.1374 22.5254 8.37738 23.1907 8.68367C24.8402 9.44782 26.0942 10.6603 26.9649 12.2865C27.4248 13.1454 27.6762 14.0769 27.7621 15.0526C27.8939 16.5367 27.7314 17.9892 27.0447 19.3154C25.7723 21.7721 23.8223 23.3035 21.1028 23.6667C20.4283 23.7551 19.7384 23.7772 19.0547 23.7551C18.696 23.7424 18.3403 23.7582 17.9816 23.7488C17.672 23.7393 17.5738 23.6477 17.5554 23.3351C17.5401 23.0825 17.5401 22.8299 17.5554 22.5773C17.5738 22.2647 17.672 22.1668 17.9785 22.1605C18.4231 22.1542 18.8707 22.1636 19.3797 22.1636Z" fill="#264653"/>
<path d="M106.263 19.991C106.263 23.7265 106.263 27.462 106.263 31.1975C106.263 31.3459 106.263 31.4943 106.245 31.6364C106.217 31.829 106.15 31.8953 105.96 31.9016C105.653 31.9111 105.347 31.9048 105.04 31.9048C104.868 31.9048 104.776 31.8037 104.755 31.6364C104.74 31.5322 104.733 31.428 104.733 31.3238C104.733 23.7707 104.733 16.2145 104.733 8.66139C104.733 8.59824 104.733 8.53509 104.736 8.47193C104.761 8.16249 104.838 8.08039 105.132 8.07407C105.386 8.06776 105.644 8.06776 105.898 8.07407C106.15 8.08039 106.23 8.15617 106.254 8.40878C106.266 8.53509 106.263 8.66139 106.263 8.7877C106.263 12.52 106.263 16.2555 106.263 19.991Z" fill="#264653"/>
<path d="M14.7845 26.7737C14.7845 25.6685 14.7784 24.5633 14.7876 23.4613C14.7907 22.8298 14.8182 22.2014 14.8336 21.5699C14.8366 21.5067 14.8397 21.4436 14.8397 21.3804C14.8397 21.2447 14.7907 21.1815 14.6496 21.232C14.5423 21.2699 14.435 21.292 14.3216 21.3015C13.8709 21.3457 13.4723 21.2068 13.1197 20.9257C12.6291 20.5342 12.2459 20.0479 11.924 19.5048C11.8412 19.3627 11.8534 19.2459 11.9761 19.1448C12.206 18.9522 12.4544 18.788 12.7089 18.6301C12.8346 18.5512 12.948 18.5891 13.0338 18.7028C13.1166 18.8101 13.1963 18.9206 13.2669 19.0343C13.414 19.2648 13.5888 19.4701 13.785 19.6564C14.0885 19.9437 14.156 19.9437 14.481 19.6627C14.573 19.5806 14.665 19.4953 14.7661 19.4227C15.3333 19.009 15.9649 19.2332 16.1734 19.9184C16.2409 20.1395 16.2777 20.37 16.2654 20.6037C16.1795 22.1698 16.2347 23.736 16.1979 25.3022C16.1581 26.9537 16.1489 28.6019 16.1489 30.2534C16.1489 30.9639 16.1489 30.9639 15.4437 30.9639C15.3303 30.9639 15.2199 30.967 15.1065 30.9607C14.8796 30.9418 14.7999 30.8628 14.7753 30.6323C14.7692 30.5913 14.7753 30.626 14.7753 30.5849C14.7753 29.344 14.7692 28.0241 14.7692 26.7832C14.7723 26.7737 14.7784 26.7737 14.7845 26.7737Z" fill="#264653"/>
<path d="M10.0009 2.37044e-05C10.3044 2.37044e-05 10.5067 0.164221 10.6079 0.445251C10.7152 0.738911 10.798 1.0452 10.8869 1.34518C11.2211 2.47246 11.5522 3.59973 11.8834 4.72701C11.9294 4.88805 11.9815 5.04909 12.0091 5.21329C12.0765 5.60483 11.865 5.95849 11.5246 6.05006C11.1905 6.14163 10.844 5.9648 10.7214 5.59536C10.5098 4.95752 10.3259 4.31336 10.1358 3.6692C9.89968 2.87348 9.66973 2.07775 9.43978 1.28203C9.39073 1.11151 9.33554 0.941 9.32634 0.761015C9.30488 0.309472 9.58695 -0.00313394 10.0009 2.37044e-05Z" fill="#2F7B9A"/>
<path d="M0.778655 10.8655C1.23549 10.9255 1.73218 10.9855 2.22886 11.055C3.24983 11.1971 4.27081 11.3392 5.29178 11.4844C5.37149 11.497 5.45427 11.5097 5.53092 11.5318C5.88351 11.6297 6.10733 11.9486 6.05827 12.2738C6.00002 12.6559 5.67196 12.9117 5.27951 12.8643C4.83495 12.8106 4.39038 12.7443 3.94275 12.6812C2.93097 12.5422 1.9192 12.4001 0.907427 12.2612C0.797051 12.2454 0.68361 12.2296 0.576301 12.2044C0.186921 12.1096 -0.0460929 11.7939 -0.000103242 11.4339C0.0520184 11.0897 0.352484 10.856 0.778655 10.8655Z" fill="#FA8334"/>
<path d="M2.99559 4.3828C2.99252 4.09861 3.1121 3.90599 3.33898 3.77969C3.5536 3.6597 3.76822 3.6597 3.9767 3.80495C4.05335 3.85863 4.12694 3.91547 4.19439 3.97862C5.12951 4.87223 6.06157 5.769 6.99976 6.66261C7.20211 6.85523 7.42593 7.02258 7.60376 7.24362C7.91955 7.63517 7.80305 8.14986 7.36155 8.33932C7.15306 8.42773 6.9599 8.39616 6.77901 8.26985C6.6625 8.18775 6.54906 8.09302 6.44482 7.99198C5.78563 7.36361 5.13258 6.72892 4.47339 6.10055C4.1208 5.76584 3.75902 5.44061 3.40643 5.1059C3.19488 4.90697 2.97413 4.70803 2.99559 4.3828Z" fill="#FCAE17"/>
</g>
<defs>
<clipPath id="clip0_414_22125">
<rect width="150" height="39" fill="white"/>
</clipPath>
</defs>
</svg>
