<svg width="288" height="397" viewBox="0 0 288 397" fill="none" xmlns="http://www.w3.org/2000/svg">
<path d="M171.035 90.0861C171.035 92.2331 170.972 94.4121 171.066 96.5591C171.098 97.6331 170.751 97.8541 169.74 97.8541C162.951 97.7591 156.163 97.8221 149.469 99.1481C121.303 104.706 100.779 120.178 88.9691 146.575C82.6861 160.595 80.4441 175.404 81.7391 190.718C82.6861 201.927 87.0121 211.75 93.3901 220.87C98.3791 227.98 104.347 234.13 110.757 239.94C117.04 245.66 122.503 252.1 126.292 259.84C129.797 267 131.691 274.58 132.512 282.48C133.87 295.61 134.186 308.81 134.786 321.98C134.975 325.74 134.628 329.52 135.165 333.28C135.417 335.11 136.207 336.38 137.659 337.42C140.943 339.76 144.701 340.26 148.553 340.51C151.142 340.7 153.7 340.32 156.257 340.17C163.393 339.76 170.561 340.17 177.666 339.22C181.202 338.74 184.707 338.05 188.307 338.59C194.969 339.6 200.495 342.6 204.284 348.22C210.189 357 205.926 369.09 195.601 373.32C192.601 374.55 189.412 374.93 186.223 375.15C179.56 375.63 172.992 375.03 166.456 373.79C163.362 373.23 160.236 372.81 157.047 373.19C154.773 373.48 152.784 374.3 151.016 375.69C149.342 377.01 149.311 377.2 151.047 378.53C156.163 382.41 161.815 383.8 168.098 382C170.024 381.47 171.919 380.93 173.845 380.33C174.666 380.08 175.14 380.11 175.424 381.12C176.466 385 177.603 388.89 178.708 392.77C178.897 393.37 178.929 393.69 178.171 393.91C172.708 395.45 167.34 397.25 161.53 396.97C152.973 396.53 145.585 393.31 139.617 387.25C133.807 381.34 133.744 373.23 139.396 367.13C145.395 360.69 153.005 358.35 161.657 358.89C166.425 359.21 171.129 360.22 175.866 360.82C180.192 361.35 184.581 361.2 188.907 360.53C189.412 360.47 189.917 360.28 190.391 360.06C193.169 358.76 193.422 356.49 191.022 354.6C188.433 352.54 185.433 352.26 182.339 352.83C177.918 353.68 173.466 354 169.014 354C161.909 353.96 154.836 354.82 147.732 354.63C140.312 354.44 133.428 352.48 127.618 347.59C122.377 343.17 119.693 337.36 119.472 330.66C119.03 318.57 118.714 306.47 117.956 294.41C117.577 288.13 117.167 281.81 115.651 275.66C113.599 267.29 109.367 260.12 103.179 254.15C99.8001 250.9 96.3581 247.74 93.0431 244.43C84.1071 235.52 76.9081 225.36 71.6661 213.86C68.4771 206.88 66.9301 199.401 66.2981 191.791C64.7191 173.193 67.6561 155.29 75.6131 138.428C89.3171 109.379 112.209 91.6331 143.438 84.5291C152.121 82.5391 160.931 82.2551 169.772 82.3181C170.814 82.3181 170.972 82.697 170.972 83.613C170.908 85.76 170.94 87.9391 170.94 90.0861C171.003 90.0861 171.003 90.0861 171.035 90.0861Z" fill="#fff"/>
<path d="M202.452 97.5059C198.41 97.5059 194.368 97.4739 190.295 97.5369C189.285 97.5369 188.969 97.2849 189.001 96.2429C189.064 92.0429 189.064 87.8439 189.001 83.6129C188.969 82.5709 189.316 82.3179 190.327 82.3179C196.894 82.3499 203.494 82.065 210.03 82.413C215.84 82.728 221.524 84.1179 227.112 85.8229C249.121 92.5799 266.393 105.495 278.17 125.356C285.117 137.07 287.833 149.953 287.548 163.531C287.075 186.392 277.349 204.74 260.362 219.58C247.668 230.66 232.954 237.48 216.282 240.04C210.725 240.89 205.104 241.18 199.452 241.11C194.179 241.08 188.937 241.08 183.664 241.11C182.685 241.11 182.306 240.92 182.338 239.85C182.401 236.06 182.401 232.27 182.338 228.48C182.306 227.44 182.622 227.19 183.664 227.19C189.822 227.22 195.979 227.31 202.136 227.19C228.186 226.75 248.679 215.79 263.203 194.159C271.003 182.539 273.434 169.435 272.139 155.637C270.087 133.755 258.057 118.283 240.09 106.821C232.607 102.053 224.397 98.99 215.682 97.632C212.335 97.095 208.862 97.5059 205.451 97.4739C204.441 97.5059 203.431 97.5059 202.452 97.5059Z" fill="#fff"/>
<path d="M154.835 214.18C152.814 215.32 151.077 216.14 149.151 216.48C143.752 217.46 139.237 215.47 135.163 212.25C130.111 208.27 126.733 202.906 123.133 197.759C122.817 197.317 122.88 197.064 123.322 196.749C126.385 194.633 129.48 192.549 132.511 190.37C133.332 189.802 133.49 190.433 133.774 190.875C135.384 193.149 136.931 195.454 138.605 197.664C140.215 199.811 142.015 201.832 144.32 203.25C146.183 204.39 146.752 204.36 148.393 203C149.435 202.116 150.477 201.232 151.488 200.317C154.298 197.696 157.393 196.022 161.308 197.506C165.318 199.022 166.644 202.432 167.213 206.32C167.844 210.67 167.56 215.03 167.181 219.39C166.676 224.85 166.802 230.31 166.771 235.78C166.676 261.29 166.107 286.77 166.36 312.28C166.392 314.87 166.392 314.87 163.866 314.9C161.024 314.94 158.182 314.87 155.34 315.03C153.856 315.13 153.667 314.59 153.667 313.29C153.477 294.95 153.761 276.6 153.951 258.26C154.077 245.94 153.856 233.66 154.33 221.35C154.393 219.01 154.645 216.77 154.835 214.18Z" fill="#fff"/>
<path d="M79.8441 78.1821C79.6861 80.6131 78.5181 82.6031 76.0871 83.7081C73.5611 84.8451 71.2241 84.3711 69.2351 82.5401C66.3931 79.9501 63.6141 77.2981 60.8361 74.6771C51.6161 66.0571 42.4271 57.4371 33.2071 48.7851C31.2811 46.9851 30.4911 44.8381 31.1861 42.2171C31.8491 39.7541 33.4911 38.2392 35.9541 37.7022C38.3221 37.1652 40.2481 38.0491 41.9851 39.6601C50.7951 47.9331 59.6041 56.2052 68.4451 64.4782C71.5081 67.3522 74.5711 70.2252 77.6651 73.0982C79.0551 74.4252 79.8131 76.0031 79.8441 78.1821Z" fill="#fff"/>
<path d="M103.208 -5.9757e-05C106.177 -5.9757e-05 108.418 1.86293 109.397 5.11493C112.902 16.8299 116.407 28.5449 119.912 40.2589C121.143 44.3329 122.406 48.4059 123.512 52.4789C124.206 55.0049 123.385 57.1839 121.396 58.8259C119.438 60.4359 117.228 60.72 114.891 59.71C112.902 58.857 111.829 57.247 111.229 55.226C107.187 41.68 103.145 28.1659 99.1041 14.6509C98.4401 12.3779 97.7141 10.1359 97.1141 7.86292C96.0411 3.85192 99.0721 -0.0310598 103.208 -5.9757e-05Z" fill="#fff"/>
<path d="M55.0882 129.682C51.0462 129.145 46.7522 128.577 42.4262 127.977C31.0902 126.43 19.7542 124.914 8.38721 123.367C7.50321 123.241 6.61921 123.146 5.73521 123.02C2.07221 122.514 -0.390785 119.452 0.0512154 115.947C0.493215 112.442 3.61923 110.042 7.28223 110.484C11.4502 110.989 15.6182 111.621 19.7542 112.189C30.2062 113.61 40.6892 115.031 51.1412 116.42C52.9092 116.673 54.6772 116.831 56.4452 117.147C59.8872 117.746 62.1292 120.651 61.8452 123.998C61.5292 127.282 58.6872 129.745 55.0882 129.682Z" fill="#fff"/>
</svg>
