<?xml version="1.0" encoding="iso-8859-1"?>
<!-- Uploaded to: SVG Repo, www.svgrepo.com, Generator: SVG Repo Mixer Tools -->
<svg fill="#000000" height="800px" width="800px" version="1.1" id="Layer_1" xmlns="http://www.w3.org/2000/svg" xmlns:xlink="http://www.w3.org/1999/xlink" 
	 viewBox="0 0 480 480" xml:space="preserve">
<g>
	<g>
		<g>
			<path d="M328.003,363.825c-5.395-1.208-10.737,2.183-11.945,7.57c-1.208,5.389,2.182,10.737,7.57,11.945
				c42.555,9.539,61.937,24.364,61.937,34.101c0,6.727-10.152,18.013-38.764,27.683C318.417,454.717,280.487,460,240,460
				c-40.487,0-78.416-5.283-106.801-14.876c-28.612-9.67-38.764-20.956-38.764-27.683c0-9.302,17.14-22.966,55.432-32.524
				c5.358-1.337,8.618-6.766,7.28-12.124c-1.337-5.358-6.766-8.62-12.124-7.28c-45.52,11.362-70.588,29.804-70.588,51.929
				c0,13.2,9.084,32.004,52.36,46.63C157.189,474.343,197.393,480,240,480s82.811-5.657,113.204-15.929
				c43.276-14.626,52.36-33.43,52.36-46.63C405.565,394.078,378.021,375.037,328.003,363.825z"/>
			<path d="M172.273,293.739h12.581v102.889c0,5.523,4.477,10,10,10h90.293c5.522,0,10-4.477,10-10V293.739h12.58
				c5.522,0,10-4.477,10-10V103.123c0-5.523-4.478-10-10-10h-29.195c9.412-9.899,15.207-23.27,15.207-37.977
				C293.739,24.739,269,0,238.592,0c-30.416,0-55.162,24.739-55.162,55.146c0,14.707,5.797,28.078,15.211,37.977h-26.37
				c-5.523,0-10,4.477-10,10v180.616C162.273,289.262,166.749,293.739,172.273,293.739z M238.592,20
				c19.379,0,35.146,15.767,35.146,35.146c0,19.388-15.767,35.162-35.146,35.162c-19.388,0-35.162-15.773-35.162-35.162
				C203.432,35.767,219.204,20,238.592,20z M182.273,113.123h115.454v160.616h-12.58c-5.522,0-10,4.477-10,10v102.889H250v-91.599
				c0-5.523-4.478-10-10-10c-5.523,0-10,4.477-10,10v91.599h-25.147V283.739c0-5.523-4.477-10-10-10h-12.581V113.123z"/>
		</g>
	</g>
</g>
</svg>