<svg width="298" height="175" viewBox="0 0 298 175" fill="none" xmlns="http://www.w3.org/2000/svg">
<path d="M16.2158 21.5723V25H4.86328V21.5723H16.2158ZM6.29883 3.67188V25H1.9043V3.67188H6.29883ZM14.7363 12.3584V15.6982H4.86328V12.3584H14.7363ZM16.2012 3.67188V7.11426H4.86328V3.67188H16.2012ZM22.2141 9.15039L24.8361 13.9697L27.5314 9.15039H32.0285L27.5461 16.8994L32.2336 25H27.7219L24.8654 19.9023L22.009 25H17.4973L22.1848 16.8994L17.7023 9.15039H22.2141ZM38.598 12.1973V31.0938H34.3793V9.15039H38.2904L38.598 12.1973ZM48.6322 16.8994V17.207C48.6322 18.3594 48.4955 19.4287 48.2221 20.415C47.9584 21.4014 47.5678 22.2607 47.0502 22.9932C46.5326 23.7158 45.8881 24.2822 45.1166 24.6924C44.3549 25.0928 43.476 25.293 42.4799 25.293C41.5131 25.293 40.6732 25.0977 39.9604 24.707C39.2475 24.3164 38.6469 23.7695 38.1586 23.0664C37.6801 22.3535 37.2943 21.5283 37.0014 20.5908C36.7084 19.6533 36.4838 18.6475 36.3275 17.5732V16.7676C36.4838 15.6152 36.7084 14.5605 37.0014 13.6035C37.2943 12.6367 37.6801 11.8018 38.1586 11.0986C38.6469 10.3857 39.2426 9.83398 39.9457 9.44336C40.6586 9.05273 41.4936 8.85742 42.4506 8.85742C43.4564 8.85742 44.3402 9.04785 45.102 9.42871C45.8734 9.80957 46.518 10.3564 47.0355 11.0693C47.5629 11.7822 47.9584 12.6318 48.2221 13.6182C48.4955 14.6045 48.6322 15.6982 48.6322 16.8994ZM44.3988 17.207V16.8994C44.3988 16.2256 44.3402 15.6055 44.223 15.0391C44.1156 14.4629 43.9398 13.96 43.6957 13.5303C43.4613 13.1006 43.1488 12.7686 42.7582 12.5342C42.3773 12.29 41.9135 12.168 41.3666 12.168C40.7904 12.168 40.2973 12.2607 39.8871 12.4463C39.4867 12.6318 39.1596 12.9004 38.9057 13.252C38.6518 13.6035 38.4613 14.0234 38.3344 14.5117C38.2074 15 38.1293 15.5518 38.1 16.167V18.2031C38.1488 18.9258 38.2855 19.5752 38.5102 20.1514C38.7348 20.7178 39.0814 21.167 39.5502 21.499C40.0189 21.8311 40.6342 21.9971 41.3959 21.9971C41.9525 21.9971 42.4213 21.875 42.8021 21.6309C43.183 21.377 43.4906 21.0303 43.725 20.5908C43.9691 20.1514 44.14 19.6436 44.2377 19.0674C44.3451 18.4912 44.3988 17.8711 44.3988 17.207ZM56.0074 2.5V25H51.774V2.5H56.0074ZM59.1199 17.2363V16.9287C59.1199 15.7666 59.2859 14.6973 59.618 13.7207C59.95 12.7344 60.4334 11.8799 61.0682 11.1572C61.7029 10.4346 62.4842 9.87305 63.4119 9.47266C64.3396 9.0625 65.4041 8.85742 66.6053 8.85742C67.8064 8.85742 68.8758 9.0625 69.8133 9.47266C70.7508 9.87305 71.5369 10.4346 72.1717 11.1572C72.8162 11.8799 73.3045 12.7344 73.6365 13.7207C73.9686 14.6973 74.1346 15.7666 74.1346 16.9287V17.2363C74.1346 18.3887 73.9686 19.458 73.6365 20.4443C73.3045 21.4209 72.8162 22.2754 72.1717 23.0078C71.5369 23.7305 70.7557 24.292 69.8279 24.6924C68.9002 25.0928 67.8357 25.293 66.6346 25.293C65.4334 25.293 64.3641 25.0928 63.4266 24.6924C62.4988 24.292 61.7127 23.7305 61.0682 23.0078C60.4334 22.2754 59.95 21.4209 59.618 20.4443C59.2859 19.458 59.1199 18.3887 59.1199 17.2363ZM63.3387 16.9287V17.2363C63.3387 17.9004 63.3973 18.5205 63.5145 19.0967C63.6316 19.6729 63.8172 20.1807 64.0711 20.6201C64.3348 21.0498 64.6766 21.3867 65.0965 21.6309C65.5164 21.875 66.0291 21.9971 66.6346 21.9971C67.2205 21.9971 67.7234 21.875 68.1434 21.6309C68.5633 21.3867 68.9002 21.0498 69.1541 20.6201C69.408 20.1807 69.5936 19.6729 69.7107 19.0967C69.8377 18.5205 69.9012 17.9004 69.9012 17.2363V16.9287C69.9012 16.2842 69.8377 15.6787 69.7107 15.1123C69.5936 14.5361 69.4031 14.0283 69.1395 13.5889C68.8855 13.1396 68.5486 12.7881 68.1287 12.5342C67.7088 12.2803 67.201 12.1533 66.6053 12.1533C66.0096 12.1533 65.5018 12.2803 65.0818 12.5342C64.6717 12.7881 64.3348 13.1396 64.0711 13.5889C63.8172 14.0283 63.6316 14.5361 63.5145 15.1123C63.3973 15.6787 63.3387 16.2842 63.3387 16.9287ZM81.2461 12.6074V25H77.0273V9.15039H80.9971L81.2461 12.6074ZM86.0215 9.04785L85.9482 12.959C85.7432 12.9297 85.4941 12.9053 85.2012 12.8857C84.918 12.8564 84.6592 12.8418 84.4248 12.8418C83.8291 12.8418 83.3115 12.9199 82.8721 13.0762C82.4424 13.2227 82.0811 13.4424 81.7881 13.7354C81.5049 14.0283 81.29 14.3848 81.1436 14.8047C81.0068 15.2246 80.9287 15.7031 80.9092 16.2402L80.0596 15.9766C80.0596 14.9512 80.1621 14.0088 80.3672 13.1494C80.5723 12.2803 80.8701 11.5234 81.2607 10.8789C81.6611 10.2344 82.1494 9.73633 82.7256 9.38477C83.3018 9.0332 83.9609 8.85742 84.7031 8.85742C84.9375 8.85742 85.1768 8.87695 85.4209 8.91602C85.665 8.94531 85.8652 8.98926 86.0215 9.04785ZM95.3156 25.293C94.0852 25.293 92.9816 25.0977 92.0051 24.707C91.0285 24.3066 90.1984 23.7549 89.5148 23.0518C88.841 22.3486 88.3234 21.5332 87.9621 20.6055C87.6008 19.668 87.4201 18.6719 87.4201 17.6172V17.0312C87.4201 15.8301 87.591 14.7314 87.9328 13.7354C88.2746 12.7393 88.7629 11.875 89.3977 11.1426C90.0422 10.4102 90.8234 9.84863 91.7414 9.45801C92.6594 9.05762 93.6945 8.85742 94.8469 8.85742C95.9699 8.85742 96.966 9.04297 97.8352 9.41406C98.7043 9.78516 99.4318 10.3125 100.018 10.9961C100.613 11.6797 101.063 12.5 101.365 13.457C101.668 14.4043 101.82 15.459 101.82 16.6211V18.3789H89.2219V15.5664H97.674V15.2441C97.674 14.6582 97.5666 14.1357 97.3518 13.6768C97.1467 13.208 96.8342 12.8369 96.4143 12.5635C95.9943 12.29 95.4572 12.1533 94.8029 12.1533C94.2463 12.1533 93.7678 12.2754 93.3674 12.5195C92.967 12.7637 92.6398 13.1055 92.3859 13.5449C92.1418 13.9844 91.9563 14.502 91.8293 15.0977C91.7121 15.6836 91.6535 16.3281 91.6535 17.0312V17.6172C91.6535 18.252 91.7414 18.8379 91.9172 19.375C92.1027 19.9121 92.3615 20.376 92.6936 20.7666C93.0354 21.1572 93.4455 21.46 93.924 21.6748C94.4123 21.8896 94.9641 21.9971 95.5793 21.9971C96.341 21.9971 97.049 21.8506 97.7033 21.5576C98.3674 21.2549 98.9387 20.8008 99.4172 20.1953L101.468 22.4219C101.136 22.9004 100.682 23.3594 100.106 23.7988C99.5393 24.2383 98.8557 24.5996 98.0549 24.8828C97.2541 25.1562 96.341 25.293 95.3156 25.293ZM111.619 17.2363V16.9287C111.619 15.7666 111.785 14.6973 112.117 13.7207C112.449 12.7344 112.932 11.8799 113.567 11.1572C114.202 10.4346 114.983 9.87305 115.911 9.47266C116.838 9.0625 117.903 8.85742 119.104 8.85742C120.305 8.85742 121.375 9.0625 122.312 9.47266C123.25 9.87305 124.036 10.4346 124.671 11.1572C125.315 11.8799 125.803 12.7344 126.135 13.7207C126.467 14.6973 126.633 15.7666 126.633 16.9287V17.2363C126.633 18.3887 126.467 19.458 126.135 20.4443C125.803 21.4209 125.315 22.2754 124.671 23.0078C124.036 23.7305 123.254 24.292 122.327 24.6924C121.399 25.0928 120.335 25.293 119.133 25.293C117.932 25.293 116.863 25.0928 115.925 24.6924C114.998 24.292 114.212 23.7305 113.567 23.0078C112.932 22.2754 112.449 21.4209 112.117 20.4443C111.785 19.458 111.619 18.3887 111.619 17.2363ZM115.838 16.9287V17.2363C115.838 17.9004 115.896 18.5205 116.013 19.0967C116.13 19.6729 116.316 20.1807 116.57 20.6201C116.834 21.0498 117.175 21.3867 117.595 21.6309C118.015 21.875 118.528 21.9971 119.133 21.9971C119.719 21.9971 120.222 21.875 120.642 21.6309C121.062 21.3867 121.399 21.0498 121.653 20.6201C121.907 20.1807 122.092 19.6729 122.21 19.0967C122.337 18.5205 122.4 17.9004 122.4 17.2363V16.9287C122.4 16.2842 122.337 15.6787 122.21 15.1123C122.092 14.5361 121.902 14.0283 121.638 13.5889C121.384 13.1396 121.047 12.7881 120.628 12.5342C120.208 12.2803 119.7 12.1533 119.104 12.1533C118.508 12.1533 118.001 12.2803 117.581 12.5342C117.171 12.7881 116.834 13.1396 116.57 13.5889C116.316 14.0283 116.13 14.5361 116.013 15.1123C115.896 15.6787 115.838 16.2842 115.838 16.9287ZM19.8301 55.0312V92H12.2383V55.0312H19.8301ZM31.2051 55.0312V60.998H1.04102V55.0312H31.2051ZM30.2839 78.543V78.0098C30.2839 75.9954 30.5717 74.1419 31.1472 72.4492C31.7227 70.7396 32.5606 69.2585 33.6609 68.0059C34.7611 66.7533 36.1153 65.7799 37.7234 65.0859C39.3314 64.375 41.1765 64.0195 43.2585 64.0195C45.3405 64.0195 47.1941 64.375 48.8191 65.0859C50.4441 65.7799 51.8067 66.7533 52.907 68.0059C54.0241 69.2585 54.8705 70.7396 55.446 72.4492C56.0215 74.1419 56.3093 75.9954 56.3093 78.0098V78.543C56.3093 80.5404 56.0215 82.3939 55.446 84.1035C54.8705 85.7962 54.0241 87.2773 52.907 88.5469C51.8067 89.7995 50.4525 90.7728 48.8445 91.4668C47.2364 92.1608 45.3913 92.5078 43.3093 92.5078C41.2273 92.5078 39.3738 92.1608 37.7488 91.4668C36.1407 90.7728 34.778 89.7995 33.6609 88.5469C32.5606 87.2773 31.7227 85.7962 31.1472 84.1035C30.5717 82.3939 30.2839 80.5404 30.2839 78.543ZM37.5964 78.0098V78.543C37.5964 79.694 37.698 80.7689 37.9011 81.7676C38.1042 82.7663 38.4258 83.6465 38.8659 84.4082C39.323 85.153 39.9154 85.737 40.6433 86.1602C41.3711 86.5833 42.2598 86.7949 43.3093 86.7949C44.3249 86.7949 45.1967 86.5833 45.9245 86.1602C46.6524 85.737 47.2364 85.153 47.6765 84.4082C48.1166 83.6465 48.4382 82.7663 48.6413 81.7676C48.8614 80.7689 48.9714 79.694 48.9714 78.543V78.0098C48.9714 76.8926 48.8614 75.8431 48.6413 74.8613C48.4382 73.8626 48.1081 72.9824 47.6511 72.2207C47.211 71.4421 46.627 70.8327 45.8991 70.3926C45.1713 69.9525 44.2911 69.7324 43.2585 69.7324C42.226 69.7324 41.3458 69.9525 40.6179 70.3926C39.907 70.8327 39.323 71.4421 38.8659 72.2207C38.4258 72.9824 38.1042 73.8626 37.9011 74.8613C37.698 75.8431 37.5964 76.8926 37.5964 78.0098ZM77.8334 85.4238V64.5273H85.1459V92H78.2651L77.8334 85.4238ZM78.6459 79.7871L80.8041 79.7363C80.8041 81.5645 80.5926 83.2656 80.1694 84.8398C79.7462 86.3971 79.1114 87.7513 78.2651 88.9023C77.4187 90.0365 76.3523 90.9251 75.0659 91.5684C73.7794 92.1947 72.2644 92.5078 70.5209 92.5078C69.1837 92.5078 67.948 92.3216 66.8139 91.9492C65.6967 91.5599 64.7319 90.959 63.9194 90.1465C63.1238 89.3171 62.4975 88.2591 62.0405 86.9727C61.6004 85.6693 61.3803 84.1035 61.3803 82.2754V64.5273H68.6928V82.3262C68.6928 83.1387 68.7859 83.8242 68.9721 84.3828C69.1752 84.9414 69.4545 85.3984 69.81 85.7539C70.1655 86.1094 70.5802 86.3633 71.0541 86.5156C71.545 86.668 72.0867 86.7441 72.6791 86.7441C74.1857 86.7441 75.3705 86.4395 76.2338 85.8301C77.114 85.2207 77.7319 84.3913 78.0873 83.3418C78.4597 82.2754 78.6459 81.0905 78.6459 79.7871ZM98.8244 70.5195V92H91.5119V64.5273H98.3927L98.8244 70.5195ZM107.102 64.3496L106.975 71.1289C106.619 71.0781 106.188 71.0358 105.68 71.002C105.189 70.9512 104.74 70.9258 104.334 70.9258C103.302 70.9258 102.404 71.0612 101.643 71.332C100.898 71.5859 100.272 71.9668 99.7638 72.4746C99.2729 72.9824 98.9005 73.6003 98.6466 74.3281C98.4097 75.056 98.2742 75.8854 98.2404 76.8164L96.7677 76.3594C96.7677 74.582 96.9455 72.9486 97.3009 71.459C97.6564 69.9525 98.1727 68.6406 98.8498 67.5234C99.5438 66.4062 100.39 65.543 101.389 64.9336C102.388 64.3242 103.53 64.0195 104.817 64.0195C105.223 64.0195 105.638 64.0534 106.061 64.1211C106.484 64.1719 106.831 64.248 107.102 64.3496ZM138.851 84.2812L147.56 55.0312H156.041L143.168 92H137.582L138.851 84.2812ZM130.828 55.0312L139.511 84.2812L140.832 92H135.195L122.398 55.0312H130.828ZM167.535 64.5273V92H160.198V64.5273H167.535ZM159.741 57.3672C159.741 56.3008 160.113 55.4206 160.858 54.7266C161.603 54.0326 162.601 53.6855 163.854 53.6855C165.089 53.6855 166.08 54.0326 166.825 54.7266C167.586 55.4206 167.967 56.3008 167.967 57.3672C167.967 58.4336 167.586 59.3138 166.825 60.0078C166.08 60.7018 165.089 61.0488 163.854 61.0488C162.601 61.0488 161.603 60.7018 160.858 60.0078C160.113 59.3138 159.741 58.4336 159.741 57.3672ZM181.671 70.5195V92H174.358V64.5273H181.239L181.671 70.5195ZM189.948 64.3496L189.821 71.1289C189.466 71.0781 189.034 71.0358 188.526 71.002C188.036 70.9512 187.587 70.9258 187.181 70.9258C186.148 70.9258 185.251 71.0612 184.489 71.332C183.745 71.5859 183.118 71.9668 182.61 72.4746C182.12 72.9824 181.747 73.6003 181.493 74.3281C181.256 75.056 181.121 75.8854 181.087 76.8164L179.614 76.3594C179.614 74.582 179.792 72.9486 180.148 71.459C180.503 69.9525 181.019 68.6406 181.696 67.5234C182.39 66.4062 183.237 65.543 184.235 64.9336C185.234 64.3242 186.377 64.0195 187.663 64.0195C188.069 64.0195 188.484 64.0534 188.907 64.1211C189.33 64.1719 189.677 64.248 189.948 64.3496ZM208.908 64.5273V69.707H192.912V64.5273H208.908ZM196.873 57.748H204.185V83.7227C204.185 84.5182 204.287 85.1276 204.49 85.5508C204.71 85.974 205.032 86.2702 205.455 86.4395C205.878 86.5918 206.411 86.668 207.054 86.668C207.511 86.668 207.918 86.651 208.273 86.6172C208.646 86.5664 208.959 86.5156 209.213 86.4648L209.238 91.8477C208.612 92.0508 207.935 92.2116 207.207 92.3301C206.479 92.4486 205.675 92.5078 204.795 92.5078C203.187 92.5078 201.782 92.2454 200.58 91.7207C199.395 91.179 198.481 90.3158 197.838 89.1309C197.194 87.946 196.873 86.3887 196.873 84.459V57.748ZM230.102 85.4238V64.5273H237.415V92H230.534L230.102 85.4238ZM230.915 79.7871L233.073 79.7363C233.073 81.5645 232.861 83.2656 232.438 84.8398C232.015 86.3971 231.38 87.7513 230.534 88.9023C229.687 90.0365 228.621 90.9251 227.334 91.5684C226.048 92.1947 224.533 92.5078 222.79 92.5078C221.452 92.5078 220.217 92.3216 219.083 91.9492C217.965 91.5599 217 90.959 216.188 90.1465C215.392 89.3171 214.766 88.2591 214.309 86.9727C213.869 85.6693 213.649 84.1035 213.649 82.2754V64.5273H220.961V82.3262C220.961 83.1387 221.055 83.8242 221.241 84.3828C221.444 84.9414 221.723 85.3984 222.079 85.7539C222.434 86.1094 222.849 86.3633 223.323 86.5156C223.814 86.668 224.355 86.7441 224.948 86.7441C226.454 86.7441 227.639 86.4395 228.502 85.8301C229.383 85.2207 230 84.3913 230.356 83.3418C230.728 82.2754 230.915 81.0905 230.915 79.7871ZM258.609 85.8047V73.5664C258.609 72.6862 258.465 71.9329 258.177 71.3066C257.889 70.6634 257.441 70.1641 256.831 69.8086C256.239 69.4531 255.469 69.2754 254.521 69.2754C253.708 69.2754 253.006 69.4193 252.413 69.707C251.821 69.9779 251.364 70.3757 251.042 70.9004C250.721 71.4082 250.56 72.0091 250.56 72.7031H243.247C243.247 71.5352 243.518 70.4264 244.06 69.377C244.601 68.3275 245.389 67.4049 246.421 66.6094C247.454 65.7969 248.681 65.1621 250.103 64.7051C251.542 64.248 253.15 64.0195 254.927 64.0195C257.06 64.0195 258.956 64.375 260.614 65.0859C262.273 65.7969 263.577 66.8633 264.525 68.2852C265.489 69.707 265.972 71.4844 265.972 73.6172V85.373C265.972 86.8796 266.065 88.1152 266.251 89.0801C266.437 90.028 266.708 90.8574 267.064 91.5684V92H259.675C259.32 91.2552 259.049 90.3242 258.863 89.207C258.693 88.0729 258.609 86.9388 258.609 85.8047ZM259.573 75.2676L259.624 79.4062H255.536C254.571 79.4062 253.734 79.5163 253.023 79.7363C252.312 79.9564 251.728 80.2695 251.271 80.6758C250.814 81.0651 250.475 81.5221 250.255 82.0469C250.052 82.5716 249.95 83.1471 249.95 83.7734C249.95 84.3997 250.094 84.9668 250.382 85.4746C250.67 85.9655 251.085 86.3548 251.626 86.6426C252.168 86.9134 252.803 87.0488 253.53 87.0488C254.631 87.0488 255.587 86.8288 256.4 86.3887C257.212 85.9486 257.838 85.4069 258.279 84.7637C258.736 84.1204 258.973 83.5111 258.989 82.9355L260.919 86.0332C260.648 86.7272 260.276 87.4466 259.802 88.1914C259.345 88.9362 258.761 89.6387 258.05 90.2988C257.339 90.9421 256.484 91.4753 255.486 91.8984C254.487 92.3047 253.302 92.5078 251.931 92.5078C250.187 92.5078 248.605 92.1608 247.183 91.4668C245.778 90.7559 244.661 89.7826 243.831 88.5469C243.019 87.2943 242.613 85.8724 242.613 84.2812C242.613 82.8424 242.883 81.5645 243.425 80.4473C243.967 79.3301 244.762 78.3906 245.812 77.6289C246.878 76.8503 248.207 76.2663 249.798 75.877C251.389 75.4707 253.234 75.2676 255.333 75.2676H259.573ZM280.107 53V92H272.769V53H280.107ZM23.7148 122.031H31.3066V146.457C31.3066 149.301 30.6973 151.696 29.4785 153.643C28.2767 155.589 26.6094 157.053 24.4766 158.035C22.3607 159.017 19.9232 159.508 17.1641 159.508C14.4049 159.508 11.9505 159.017 9.80078 158.035C7.66797 157.053 5.99219 155.589 4.77344 153.643C3.57161 151.696 2.9707 149.301 2.9707 146.457V122.031H10.5879V146.457C10.5879 148.116 10.8503 149.47 11.375 150.52C11.8997 151.569 12.653 152.339 13.6348 152.83C14.6335 153.321 15.8099 153.566 17.1641 153.566C18.5521 153.566 19.7285 153.321 20.6934 152.83C21.6751 152.339 22.4199 151.569 22.9277 150.52C23.4525 149.47 23.7148 148.116 23.7148 146.457V122.031ZM45.9753 122.031V159H38.3581V122.031H45.9753ZM60.7019 137.824V143.766H43.8933V137.824H60.7019ZM62.4792 122.031V127.998H43.8933V122.031H62.4792ZM75.2944 122.031V159H67.6772V122.031H75.2944ZM90.0209 137.824V143.766H73.2123V137.824H90.0209ZM91.7983 122.031V127.998H73.2123V122.031H91.7983ZM116.242 149.326C116.242 148.666 116.141 148.074 115.938 147.549C115.751 147.007 115.396 146.516 114.871 146.076C114.347 145.619 113.61 145.171 112.662 144.73C111.714 144.29 110.487 143.833 108.981 143.359C107.305 142.818 105.714 142.208 104.207 141.531C102.718 140.854 101.397 140.067 100.246 139.17C99.1121 138.256 98.215 137.198 97.5548 135.996C96.9116 134.794 96.59 133.398 96.59 131.807C96.59 130.266 96.9285 128.87 97.6056 127.617C98.2827 126.348 99.2306 125.264 100.449 124.367C101.668 123.453 103.107 122.751 104.766 122.26C106.442 121.769 108.278 121.523 110.276 121.523C113.001 121.523 115.379 122.014 117.41 122.996C119.442 123.978 121.016 125.324 122.133 127.033C123.267 128.743 123.834 130.698 123.834 132.898H116.268C116.268 131.815 116.039 130.867 115.582 130.055C115.142 129.225 114.465 128.574 113.551 128.1C112.654 127.626 111.52 127.389 110.149 127.389C108.828 127.389 107.728 127.592 106.848 127.998C105.968 128.387 105.307 128.921 104.867 129.598C104.427 130.258 104.207 131.003 104.207 131.832C104.207 132.458 104.36 133.025 104.664 133.533C104.986 134.041 105.46 134.515 106.086 134.955C106.712 135.395 107.483 135.81 108.397 136.199C109.311 136.589 110.369 136.969 111.57 137.342C113.585 137.951 115.354 138.637 116.877 139.398C118.417 140.16 119.704 141.015 120.736 141.963C121.769 142.911 122.548 143.986 123.072 145.188C123.597 146.389 123.86 147.752 123.86 149.275C123.86 150.883 123.546 152.322 122.92 153.592C122.294 154.861 121.388 155.936 120.203 156.816C119.018 157.697 117.605 158.365 115.963 158.822C114.321 159.279 112.485 159.508 110.453 159.508C108.625 159.508 106.822 159.271 105.045 158.797C103.268 158.306 101.651 157.57 100.195 156.588C98.7567 155.606 97.6056 154.354 96.7423 152.83C95.8791 151.307 95.4474 149.504 95.4474 147.422H103.09C103.09 148.573 103.268 149.546 103.623 150.342C103.979 151.137 104.478 151.781 105.121 152.271C105.781 152.762 106.56 153.118 107.457 153.338C108.371 153.558 109.37 153.668 110.453 153.668C111.774 153.668 112.857 153.482 113.703 153.109C114.567 152.737 115.201 152.221 115.608 151.561C116.031 150.9 116.242 150.156 116.242 149.326Z" fill="#152238"/>
</svg>
