<svg width="2418" height="1461" viewBox="0 0 2418 1461" fill="none" xmlns="http://www.w3.org/2000/svg">
<g id="Passo Fundo">
<g id="&#195;&#129;RVORES">
<path d="M816 503C825.657 483.161 941 538.5 956 538.5C970.151 538.5 983.159 555.358 989.5 556.5C1019 561.814 1007.36 599.877 1019 627.5C1027.99 648.817 1036.83 674.667 1041 682.5C1045.17 690.333 1057.5 712 1057.5 712C1078 727.5 1092 736 1092 736C1092 736 1118.67 744.667 1126.5 745.5C1134.33 746.333 1166 745.5 1166 745.5C1166 745.5 1183.17 739.5 1195 745.5C1206.83 751.5 1221.13 760.083 1235 773C1245.03 782.337 1245.45 793.988 1258 799.5C1269.8 804.684 1281.73 790.546 1291 799.5C1297.08 805.378 1299.67 813.167 1298 820C1296.33 826.833 1289.42 844.833 1291 861C1293.38 885.445 1310.16 894.212 1321.5 916C1333.92 939.861 1338.85 954.26 1351.5 978C1364.58 1002.56 1377.47 1013.54 1387.5 1039.5C1393.13 1054.09 1400.83 1063.83 1387.5 1068C1374.17 1072.17 1367.85 1080.83 1351.5 1090.5C1337.47 1098.8 1334.85 1110.16 1321.5 1119.5C1302.99 1132.45 1276.8 1138.3 1268 1141.5C1259.2 1144.7 1221.08 1159.45 1189.5 1162C1158.82 1164.48 1117.8 1155 1111 1155C1102.5 1155 1074.65 1162.54 1053.5 1155C1032.7 1147.59 1021.83 1131.33 1009.5 1119.5C997.167 1107.67 1026.45 1079.13 1026 1052C1025.58 1026.57 1019.19 1012.51 1009.5 989C998.446 962.189 995.826 940.49 971 925.5C962.526 920.383 955.598 921.693 947.5 916C928.454 902.611 913 870.5 913 870.5C913 870.5 888.099 853.018 892 829C895.431 807.878 879.812 807.485 884 786.5C887.364 769.649 869.506 766.92 872.5 750C874.674 737.716 852.683 718.472 853 706C853.528 685.221 834.905 666.097 831 649.5C827.095 632.903 826.905 573.097 823 556.5C819.095 539.903 811.3 512.656 816 503Z" fill="#00693E" fill-opacity="0.4"/>
<path d="M1090 170C1092.64 160.785 1096.37 155.906 1103.5 149.5C1119.46 135.16 1136.6 144.098 1158 142.5C1187.99 140.26 1215 146 1235 142.5C1255 139 1282.89 112.804 1300 132C1310.09 143.322 1307 157.333 1308 170C1309 182.667 1295.84 176.129 1287.5 178.5C1267.78 184.11 1255.33 181.132 1235 178.5C1220.11 176.572 1212.18 173.154 1197.5 170C1182.11 166.694 1168.98 150.724 1158 162C1151.16 169.026 1153.11 176.713 1152.5 186.5C1151.64 200.116 1162.23 208.028 1158 221C1154.52 231.673 1147.64 235.269 1139.5 243C1128.31 253.632 1122.44 265.604 1107 265.5C1097.1 265.433 1089.1 264.159 1083.5 256C1077.75 247.631 1081.82 240.013 1083.5 230C1085.44 218.484 1092.53 213.585 1094 202C1095.59 189.507 1086.53 182.107 1090 170Z" fill="#00693E" fill-opacity="0.4"/>
<path d="M1174.5 386.5C1177.13 374.818 1190.53 373.75 1202.5 374C1213.94 374.239 1222.17 376.833 1229 386.5C1235.83 396.167 1249.5 418.5 1249.5 418.5C1249.5 420.9 1262.83 429.167 1269.5 433C1276.17 436.833 1273.91 446.288 1276 455C1280.4 473.372 1273.63 486.063 1282 503C1290.99 521.208 1313.74 519.182 1320 538.5C1327.77 562.466 1312.17 595 1299 599.5C1285.83 604 1267.3 622.194 1249.5 613C1235.43 605.732 1234.13 592.988 1229 578C1220.66 553.613 1229 515.2 1229 512C1229 508.8 1224 497 1215 494C1206 491 1200.33 467 1197.5 455C1194.67 443 1234.9 446.798 1229 433C1224.65 422.829 1212.1 428.492 1202.5 423C1191.91 416.943 1183.91 413.935 1178.5 403C1175.56 397.058 1173.04 392.968 1174.5 386.5Z" fill="#00693E" fill-opacity="0.4"/>
<path d="M1262.5 357.5C1266.61 349.441 1273.95 349.122 1282 345C1295.85 337.909 1320 333 1320 333L1368 320C1386.75 314.923 1382.42 333.515 1386 345C1389.37 355.812 1390.67 369.833 1386 374C1381.33 378.167 1371.2 386.5 1368 386.5C1368 386.5 1337 382 1330.5 386.5C1324 391 1313.54 403 1300 403C1286.46 403 1277 393.333 1269.5 386.5C1262 379.667 1257.21 367.88 1262.5 357.5Z" fill="#00693E" fill-opacity="0.4"/>
</g>
<path id="Vector 105" d="M806.303 275.337L752.927 301.797C751.548 302.48 750.91 304.096 751.449 305.537L814.995 475.315C815.557 476.817 817.172 477.62 818.696 477.121C834.666 471.894 916.671 444.722 932 433C947.632 421.046 954.809 393.026 955.862 388.595C955.959 388.19 956.121 387.834 956.37 387.501C958.515 384.631 969.603 370.133 979.5 363.5C989.955 356.494 1004.07 353.133 1008.27 352.246C1009.06 352.08 1009.75 351.629 1010.19 350.955C1011.67 348.665 1015.06 343.159 1015.5 340C1016.06 335.981 1018.19 331.105 1020 327.522C1021.09 325.36 1024.09 325.529 1025.06 327.744L1047.88 379.471C1048.51 380.9 1050.14 381.606 1051.61 381.094L1108.03 361.53C1109.65 360.969 1110.47 359.171 1109.83 357.581L1096.09 323.237C1095.49 321.718 1093.77 320.966 1092.24 321.546L1058.14 334.496C1056.66 335.06 1054.99 334.369 1054.34 332.92L1012.65 240.052C1012 238.615 1012.58 236.923 1013.97 236.179L1022.97 231.355C1024.39 230.597 1024.95 228.86 1024.26 227.413L1003.33 183.768C1002.6 182.25 1000.76 181.628 999.263 182.391L943.335 210.813C941.997 211.493 940.363 211.08 939.509 209.847L933.433 201.07C932.604 199.873 931.036 199.443 929.713 200.051L804.316 257.705C802.776 258.413 802.128 260.256 802.886 261.772L807.654 271.308C808.397 272.793 807.791 274.599 806.303 275.337Z" fill="#EAEAEA" stroke="#989898"/>
<g id="interativo">
<g id="Gitem12">
<path id="item12" fill-rule="evenodd" clip-rule="evenodd" d="M1140.8 363.117C1140.4 362.087 1139.25 361.574 1138.22 361.972L1024.85 405.724C1023.82 406.122 1023.3 407.28 1023.7 408.31L1034.14 435.349C1034.53 436.379 1034.02 437.537 1032.99 437.935L1010.87 446.473C1009.84 446.871 1009.32 448.028 1009.72 449.059L1024.31 486.865C1024.71 487.895 1025.87 488.408 1026.9 488.01L1049.02 479.472C1050.05 479.074 1051.21 479.587 1051.61 480.618L1062.92 509.923C1063.31 510.953 1064.47 511.466 1065.5 511.069L1178.87 467.316C1179.9 466.918 1180.41 465.76 1180.02 464.73L1140.8 363.117Z" fill="#2F7B9A"/>
</g>
<g id="Gitem11">
<rect id="item11" x="1024" y="194.897" width="36" height="52" rx="2" transform="rotate(-19.2969 1024 194.897)" fill="#2F7B9A"/>
</g>
<g id="Gitem2">
<rect id="item2" x="1184" y="198.897" width="36" height="52" rx="2" transform="rotate(-19.2969 1184 198.897)" fill="#2F7B9A"/>
</g>
<g id="Gitem7">
<g id="item7">
<rect id="item7_2" x="1274" y="479.719" width="44.6856" height="34.8759" transform="rotate(-20.5955 1274 479.719)" fill="#2F7B9A"/>
<rect id="item11_2" x="1282.27" y="428.064" width="44.6856" height="178.683" transform="rotate(-20.5955 1282.27 428.064)" fill="#2F7B9A"/>
</g>
</g>
<g id="Gitem6">
<rect id="item6" x="1068" y="540.719" width="96.3629" height="30.911" rx="2" transform="rotate(-20.5955 1068 540.719)" fill="#2F7B9A"/>
</g>
<g id="Gitem5">
<rect id="item5" x="1091" y="612.898" width="96.3629" height="30.911" rx="2" transform="rotate(-20.5955 1091 612.898)" fill="#2F7B9A"/>
</g>
<g id="Gitem4">
<rect id="item4" x="1116" y="675.898" width="96.3629" height="30.911" rx="2" transform="rotate(-20.5955 1116 675.898)" fill="#2F7B9A"/>
</g>
<g id="Gitem3">
<path id="item3" fill-rule="evenodd" clip-rule="evenodd" d="M1419.32 515.476C1418.91 514.449 1417.75 513.945 1416.73 514.352L1378.89 529.313C1377.86 529.719 1377.36 530.881 1377.77 531.908L1414.96 625.956C1415.36 626.983 1414.86 628.145 1413.83 628.551L1393.46 636.609C1392.43 637.015 1391.93 638.177 1392.33 639.204L1403.69 667.917C1404.09 668.944 1405.25 669.447 1406.28 669.041L1426.66 660.984C1427.68 660.577 1428.85 661.081 1429.25 662.108L1463.95 749.858C1464.36 750.885 1465.52 751.388 1466.55 750.982L1504.38 736.021C1505.41 735.614 1505.91 734.453 1505.51 733.425L1419.32 515.476Z" fill="#2F7B9A"/>
</g>
<g id="Gitem13">
<rect id="item13" x="740" y="240.65" width="24.5917" height="9.27668" rx="2" transform="rotate(-6.18491 740 240.65)" fill="#2F7B9A"/>
</g>
<g id="Gitem14">
<rect id="item14" x="710.552" y="240.427" width="24.5917" height="9.27668" rx="2" transform="rotate(-6.18491 710.552 240.427)" fill="#2F7B9A"/>
</g>
<g id="Gitem1">
<rect id="item1" x="1062.49" y="288.323" width="31.2386" height="17.8077" rx="2" transform="rotate(-19.2969 1062.49 288.323)" fill="#2F7B9A"/>
</g>
</g>
<g id="Union">
<path fill-rule="evenodd" clip-rule="evenodd" d="M637.474 71.8271L826 599.5L898 810L983.5 1041.5L1040.4 1212.71C1040.74 1213.71 1040.23 1214.81 1039.24 1215.2L1008.95 1227.22C1007.89 1227.65 1006.69 1227.09 1006.32 1226.01L921.5 976.5L801 633L728.5 423.5L637 153.5L608.449 73.1698C607.986 71.8678 608.952 70.5 610.333 70.5H635.591C636.436 70.5 637.19 71.0312 637.474 71.8271ZM1283.45 70.5H1322.69C1323.49 70.5 1324.21 70.9719 1324.52 71.7016L1826.78 1225.2C1827.36 1226.52 1826.39 1228 1824.95 1228H1752.34C1751.53 1228 1750.8 1227.51 1750.49 1226.76L1395 358.5L1373.93 305.504L1220.64 363.945C1220.55 363.982 1220.45 364.01 1220.35 364.029C1219.34 364.214 1213.46 365.112 1213 361C1212.53 356.813 1216.83 355.223 1217.43 355.022C1217.48 355.006 1217.52 354.991 1217.57 354.973L1370.3 296.378L1281.59 73.2389C1281.07 71.9257 1282.03 70.5 1283.45 70.5Z" fill="#D6D6D6"/>
<path d="M826 599.5L826.946 599.176L826.942 599.164L826 599.5ZM637.474 71.8271L636.532 72.1635V72.1636L637.474 71.8271ZM898 810L897.054 810.324C897.056 810.331 897.059 810.339 897.062 810.346L898 810ZM983.5 1041.5L984.449 1041.18C984.446 1041.17 984.442 1041.16 984.438 1041.15L983.5 1041.5ZM1040.4 1212.71L1041.35 1212.39H1041.35L1040.4 1212.71ZM1039.24 1215.2L1039.61 1216.13H1039.61L1039.24 1215.2ZM1008.95 1227.22L1008.59 1226.29H1008.59L1008.95 1227.22ZM1006.32 1226.01L1005.38 1226.33L1006.32 1226.01ZM921.5 976.5L922.447 976.178L922.444 976.169L921.5 976.5ZM801 633L800.055 633.327L800.056 633.331L801 633ZM728.5 423.5L727.553 423.821L727.555 423.827L728.5 423.5ZM637 153.5L637.947 153.179C637.946 153.174 637.944 153.17 637.942 153.165L637 153.5ZM608.449 73.1698L609.391 72.8349L608.449 73.1698ZM1324.52 71.7016L1325.44 71.3023V71.3023L1324.52 71.7016ZM1826.78 1225.2L1827.7 1224.8L1826.78 1225.2ZM1750.49 1226.76L1751.42 1226.38L1750.49 1226.76ZM1395 358.5L1394.07 358.869L1394.07 358.879L1395 358.5ZM1373.93 305.504L1374.86 305.135C1374.66 304.627 1374.09 304.375 1373.57 304.57L1373.93 305.504ZM1220.64 363.945L1221 364.88L1221 364.88L1220.64 363.945ZM1220.35 364.029L1220.53 365.012L1220.53 365.012L1220.35 364.029ZM1213 361L1212.01 361.11L1213 361ZM1217.43 355.022L1217.11 354.074H1217.11L1217.43 355.022ZM1217.57 354.973L1217.93 355.907L1217.93 355.907L1217.57 354.973ZM1370.3 296.378L1370.66 297.311C1370.91 297.216 1371.11 297.024 1371.22 296.779C1371.33 296.534 1371.33 296.257 1371.23 296.008L1370.3 296.378ZM1281.59 73.2389L1280.66 73.6083V73.6083L1281.59 73.2389ZM826.942 599.164L638.416 71.4907L636.532 72.1636L825.058 599.836L826.942 599.164ZM898.946 809.676L826.946 599.176L825.054 599.824L897.054 810.324L898.946 809.676ZM984.438 1041.15L898.938 809.654L897.062 810.346L982.562 1041.85L984.438 1041.15ZM1041.35 1212.39L984.449 1041.18L982.551 1041.82L1039.46 1213.02L1041.35 1212.39ZM1039.61 1216.13C1041.09 1215.54 1041.85 1213.9 1041.35 1212.39L1039.46 1213.02C1039.62 1213.53 1039.37 1214.07 1038.88 1214.27L1039.61 1216.13ZM1009.32 1228.15L1039.61 1216.13L1038.88 1214.27L1008.59 1226.29L1009.32 1228.15ZM1005.38 1226.33C1005.93 1227.96 1007.73 1228.79 1009.32 1228.15L1008.59 1226.29C1008.05 1226.51 1007.45 1226.23 1007.27 1225.69L1005.38 1226.33ZM920.553 976.822L1005.38 1226.33L1007.27 1225.69L922.447 976.178L920.553 976.822ZM800.056 633.331L920.556 976.831L922.444 976.169L801.944 632.669L800.056 633.331ZM727.555 423.827L800.055 633.327L801.945 632.673L729.445 423.173L727.555 423.827ZM636.053 153.821L727.553 423.821L729.447 423.179L637.947 153.179L636.053 153.821ZM607.507 73.5047L636.058 153.835L637.942 153.165L609.391 72.8349L607.507 73.5047ZM610.333 69.5C608.261 69.5 606.813 71.5517 607.507 73.5047L609.391 72.8349C609.16 72.1839 609.643 71.5 610.333 71.5V69.5ZM635.591 69.5H610.333V71.5H635.591V69.5ZM638.416 71.4907C637.989 70.2968 636.858 69.5 635.591 69.5V71.5C636.013 71.5 636.39 71.7656 636.532 72.1635L638.416 71.4907ZM1322.69 69.5H1283.45V71.5H1322.69V69.5ZM1325.44 71.3023C1324.96 70.2078 1323.88 69.5 1322.69 69.5V71.5C1323.09 71.5 1323.45 71.7359 1323.61 72.1008L1325.44 71.3023ZM1827.7 1224.8L1325.44 71.3023L1323.61 72.1008L1825.86 1225.6L1827.7 1224.8ZM1824.95 1229C1827.11 1229 1828.56 1226.78 1827.7 1224.8L1825.86 1225.6C1826.15 1226.26 1825.67 1227 1824.95 1227V1229ZM1752.34 1229H1824.95V1227H1752.34V1229ZM1749.57 1227.14C1750.03 1228.26 1751.12 1229 1752.34 1229V1227C1751.94 1227 1751.57 1226.75 1751.42 1226.38L1749.57 1227.14ZM1394.07 358.879L1749.57 1227.14L1751.42 1226.38L1395.93 358.121L1394.07 358.879ZM1373 305.874L1394.07 358.869L1395.93 358.131L1374.86 305.135L1373 305.874ZM1221 364.88L1374.29 306.439L1373.57 304.57L1220.29 363.011L1221 364.88ZM1220.53 365.012C1220.71 364.981 1220.86 364.933 1221 364.88L1220.29 363.011C1220.24 363.03 1220.2 363.04 1220.17 363.045L1220.53 365.012ZM1212.01 361.11C1212.15 362.408 1212.74 363.367 1213.59 364.023C1214.4 364.656 1215.39 364.965 1216.31 365.113C1218.14 365.407 1220 365.11 1220.53 365.012L1220.17 363.045C1219.69 363.133 1218.11 363.377 1216.63 363.139C1215.89 363.02 1215.26 362.794 1214.81 362.445C1214.39 362.119 1214.08 361.648 1213.99 360.89L1212.01 361.11ZM1217.11 354.074C1216.76 354.192 1215.4 354.69 1214.16 355.761C1212.9 356.854 1211.73 358.599 1212.01 361.11L1213.99 360.89C1213.81 359.214 1214.55 358.07 1215.47 357.272C1216.42 356.451 1217.5 356.054 1217.75 355.971L1217.11 354.074ZM1217.21 354.039C1217.19 354.049 1217.16 354.059 1217.11 354.074L1217.75 355.971C1217.8 355.954 1217.86 355.933 1217.93 355.907L1217.21 354.039ZM1369.94 295.444L1217.21 354.04L1217.93 355.907L1370.66 297.311L1369.94 295.444ZM1280.66 73.6083L1369.37 296.747L1371.23 296.008L1282.52 72.8694L1280.66 73.6083ZM1283.45 69.5C1281.33 69.5 1279.88 71.6386 1280.66 73.6083L1282.52 72.8695C1282.26 72.2128 1282.74 71.5 1283.45 71.5V69.5Z" fill="#989898"/>
</g>
<path id="Vector 104" d="M892 505.5L906.5 498L941 509.5L1023 536.5L1039.5 531L1027 498L1006.5 505.5L985.5 453L1009.5 440.5L997 411L1014 403L997 357.5M1042 536.5L1050 552.5M953.5 509.5L926.5 435.5M937.5 479C937.5 479 915 447 894 453C873 459 831 477 831 477M1019.5 400.5L1123.5 364.5L1143.5 357.5L1165.5 410M699.5 236L714.5 264.5L747 313L775.5 400.5L808 475L906.5 515.5C906.5 515.5 1032 558 1052.5 557.5C1073 557 1068 552.5 1068 552.5M1361.5 292L1158 373M1497.5 608L1472 619.591L1464.5 623M1433 453L1411.5 461.958L1361.5 483.5M1331 410C1347.4 453.348 1363.5 519 1373 521C1382.5 523 1419 502.5 1419 502.5M1514.5 730L1473.89 624.5M1469.5 614.5L1413.5 469M1161 479L1148 505.5L1120.5 498L1045 526M1157.5 498L1223 671" stroke="#FA8334" stroke-width="4" stroke-linecap="round" stroke-linejoin="round" stroke-dasharray="2 8"/>
<g id="Group 18">
<path id="Vector 62" d="M751.574 410.765V407.242H756.671V410.765C756.671 410.765 756.671 412.356 753.936 412.356C751.201 412.356 751.574 410.765 751.574 410.765Z" fill="#152238"/>
<path id="Vector 63" d="M772.031 410.765V407.242H777.128V410.765C777.128 410.765 777.128 412.356 774.393 412.356C771.658 412.356 772.031 410.765 772.031 410.765Z" fill="#152238"/>
<path id="Exclude" fill-rule="evenodd" clip-rule="evenodd" d="M752.03 376.921C752.03 376.921 751.495 377.38 751.218 377.733C750.874 378.172 750.515 378.977 750.515 378.977L749 390.717V407.272H780V390.717L778.485 378.977C778.485 378.977 778.174 378.165 777.836 377.733C777.551 377.368 776.97 376.921 776.97 376.921C776.97 376.921 772.805 374 764.689 374C756.574 374 752.03 376.921 752.03 376.921ZM757.765 376.976C757.765 376.976 757.074 377.444 757.061 377.896C757.048 378.364 757.765 378.869 757.765 378.869H771.236C771.236 378.869 772.007 378.377 771.993 377.896C771.98 377.43 771.236 376.976 771.236 376.976H757.765ZM754.194 380.763H774.915C774.915 380.763 775.473 380.9 775.726 381.142C776.041 381.442 776.159 382.169 776.159 382.169L777.512 391.367C777.512 391.367 777.392 392.042 777.079 392.286C776.788 392.514 776.159 392.503 776.159 392.503H752.355C752.355 392.503 752.062 392.413 751.922 392.286C751.643 392.036 751.651 391.367 751.651 391.367L752.95 382.169C752.95 382.169 752.984 381.446 753.274 381.142C753.542 380.861 754.194 380.763 754.194 380.763ZM755.979 400.239C755.979 401.434 755.01 402.403 753.815 402.403C752.62 402.403 751.651 401.434 751.651 400.239C751.651 399.044 752.62 398.075 753.815 398.075C755.01 398.075 755.979 399.044 755.979 400.239ZM775.347 402.403C776.542 402.403 777.511 401.434 777.511 400.239C777.511 399.044 776.542 398.075 775.347 398.075C774.152 398.075 773.183 399.044 773.183 400.239C773.183 401.434 774.152 402.403 775.347 402.403Z" fill="#152238"/>
</g>
<path id="ESTACIONAMENTO" fill-rule="evenodd" clip-rule="evenodd" d="M898 330C908.493 330 917 321.493 917 311C917 300.507 908.493 292 898 292C887.507 292 879 300.507 879 311C879 321.493 887.507 330 898 330ZM895.889 299.037H907.148V303.259H895.889V308.889H905.741V313.111H895.889V320.148H907.148V324.37L895.889 324.37H890.259V303.259V299.037H895.889Z" fill="#152238"/>
</g>
</svg>
