<svg width="2418" height="1461" viewBox="0 0 2418 1461" fill="none" xmlns="http://www.w3.org/2000/svg">
<g id="Passo Fundo">
<rect width="2418" height="1461" />
<path id="&#195;&#129;RVORES" d="M816 503C825.657 483.161 941 538.5 956 538.5C970.151 538.5 983.159 555.358 989.5 556.5C1019 561.814 1007.36 599.877 1019 627.5C1027.99 648.817 1036.83 674.667 1041 682.5C1045.17 690.334 1057.5 712 1057.5 712C1078 727.5 1092 736 1092 736C1092 736 1118.67 744.667 1126.5 745.5C1134.33 746.334 1166 745.5 1166 745.5C1166 745.5 1183.17 739.5 1195 745.5C1206.83 751.5 1221.13 760.084 1235 773C1245.03 782.337 1245.45 793.988 1258 799.5C1269.8 804.684 1281.73 790.546 1291 799.5C1297.08 805.378 1299.67 813.167 1298 820C1296.33 826.833 1289.42 844.833 1291 861C1293.38 885.445 1310.16 894.212 1321.5 916C1333.92 939.861 1338.85 954.26 1351.5 978C1364.58 1002.56 1377.47 1013.54 1387.5 1039.5C1393.13 1054.09 1400.83 1063.83 1387.5 1068C1374.17 1072.17 1367.85 1080.83 1351.5 1090.5C1337.47 1098.8 1334.85 1110.16 1321.5 1119.5C1302.99 1132.45 1276.8 1138.3 1268 1141.5C1259.2 1144.7 1221.08 1159.45 1189.5 1162C1158.82 1164.48 1117.8 1155 1111 1155C1102.5 1155 1074.65 1162.54 1053.5 1155C1032.7 1147.59 1021.83 1131.33 1009.5 1119.5C997.167 1107.67 1026.45 1079.13 1026 1052C1025.58 1026.57 1019.19 1012.51 1009.5 989C998.446 962.189 995.826 940.49 971 925.5C962.526 920.383 955.598 921.693 947.5 916C928.454 902.611 913 870.5 913 870.5C913 870.5 888.099 853.018 892 829C895.431 807.878 879.812 807.485 884 786.5C887.364 769.649 869.506 766.921 872.5 750C874.674 737.716 852.683 718.472 853 706C853.528 685.221 834.905 666.097 831 649.5C827.095 632.903 826.905 573.097 823 556.5C819.095 539.903 811.3 512.657 816 503Z" fill="#00693E" fill-opacity="0.4"/>
<path id="Vector 105" d="M806.303 275.337L752.927 301.797C751.548 302.48 750.91 304.096 751.449 305.537L814.995 475.315C815.557 476.817 817.172 477.62 818.696 477.121C834.666 471.894 916.671 444.722 932 433C947.632 421.046 954.809 393.026 955.862 388.595C955.959 388.19 956.121 387.834 956.37 387.501C958.515 384.631 969.603 370.133 979.5 363.5C989.955 356.494 1004.07 353.133 1008.27 352.246C1009.06 352.08 1009.75 351.629 1010.19 350.955C1011.67 348.665 1015.06 343.159 1015.5 340C1016.06 335.981 1018.19 331.105 1020 327.522C1021.09 325.36 1024.09 325.529 1025.06 327.744L1047.88 379.471C1048.51 380.9 1050.14 381.606 1051.61 381.094L1108.03 361.53C1109.65 360.969 1110.47 359.171 1109.83 357.581L1096.09 323.237C1095.49 321.718 1093.77 320.966 1092.24 321.546L1058.14 334.496C1056.66 335.06 1054.99 334.369 1054.34 332.92L1012.65 240.052C1012 238.615 1012.58 236.923 1013.97 236.179L1022.97 231.355C1024.39 230.597 1024.95 228.86 1024.26 227.413L1003.33 183.768C1002.6 182.25 1000.76 181.628 999.263 182.391L943.335 210.813C941.997 211.493 940.363 211.08 939.509 209.847L933.433 201.07C932.604 199.873 931.036 199.443 929.713 200.051L804.316 257.705C802.776 258.413 802.128 260.256 802.886 261.772L807.654 271.308C808.397 272.793 807.791 274.599 806.303 275.337Z" fill="#EAEAEA" stroke="#989898"/>
<g id="interativo">
<g id="Gitem12" class="map">
<path id="item13" fill-rule="evenodd" clip-rule="evenodd" d="M1140.08 361.251L1022.98 406.444L1034.86 437.215L1009 447.193L1025.03 488.731L1050.89 478.752L1063.64 511.789L1180.74 466.596L1140.08 361.251Z" fill="#2F7B9A"/>
</g>
<g id="Gitem11" class="map">
<rect id="item12" x="1024" y="194.897" width="36" height="52" transform="rotate(-19.2969 1024 194.897)" fill="#2F7B9A"/>
</g>
<g id="Gitem10" class="map">
<rect id="item10" x="1300.5" y="863.839" width="38.8924" height="146.225" transform="rotate(-22.3243 1300.5 863.839)" fill="#2F7B9A"/>
</g>
<g id="Gitem9" class="map">
<rect id="item9" x="1194.38" y="903.631" width="84.2235" height="164.415" transform="rotate(-22.3243 1194.38 903.631)" fill="#2F7B9A"/>
</g>
<g id="Gitem8" class="map">
<rect id="item8" x="1396" y="730.773" width="45.6564" height="235.224" transform="rotate(-22.3243 1396 730.773)" fill="#2F7B9A"/>
</g>
<g id="Gitem7" class="map">
<g id="item7">
<rect id="item7_2" x="1274" y="479.719" width="44.6856" height="34.8759" transform="rotate(-20.5955 1274 479.719)" fill="#2F7B9A"/>
<rect id="item11" x="1282.27" y="428.064" width="44.6856" height="178.683" transform="rotate(-20.5955 1282.27 428.064)" fill="#2F7B9A"/>
</g>
</g>
<g id="Gitem6" class="map">
<rect id="item6" x="1068" y="540.719" width="96.3629" height="30.911" transform="rotate(-20.5955 1068 540.719)" fill="#2F7B9A"/>
</g>
<g id="Gitem5" class="map">
<rect id="item5" x="1091" y="612.898" width="96.3629" height="30.911" transform="rotate(-20.5955 1091 612.898)" fill="#2F7B9A"/>
</g>
<g id="Gitem4" class="map">
<rect id="item4" x="1116" y="675.898" width="96.3629" height="30.911" transform="rotate(-20.5955 1116 675.898)" fill="#2F7B9A"/>
</g>
<g id="Gitem3" class="map">
<path id="item3" fill-rule="evenodd" clip-rule="evenodd" d="M1418.59 513.616L1377.03 530.048L1415.69 627.816L1391.6 637.344L1404.42 669.776L1428.52 660.248L1464.69 751.717L1506.24 735.285L1418.59 513.616Z" fill="#2F7B9A"/>
</g>
<g id="Gitem2" class="map">
<rect id="item2" x="973.385" y="257.558" width="26.0404" height="49.7211" transform="rotate(-25.0297 973.385 257.558)" fill="#2F7B9A"/>
</g>
<g id="Gitem1" class="map">
<rect id="item1" x="1062.49" y="288.323" width="31.2386" height="17.8077" transform="rotate(-19.2969 1062.49 288.323)" fill="#2F7B9A"/>
</g>
</g>
<g id="Vector 103" filter="url(#filter0_d_474_168)">
<path d="M826 599.5L637.474 71.8271C637.19 71.0312 636.436 70.5 635.591 70.5H610.333C608.952 70.5 607.986 71.8678 608.449 73.1698L637 153.5L728.5 423.5L801 633L921.5 976.5L1006.32 1226.01C1006.69 1227.09 1007.89 1227.65 1008.95 1227.22L1039.24 1215.2C1040.23 1214.81 1040.74 1213.71 1040.4 1212.71L983.5 1041.5L898 810L826 599.5Z" fill="#D6D6D6"/>
<path d="M1322.69 70.5H1283.45C1282.03 70.5 1281.07 71.9257 1281.59 73.2389L1395 358.5L1750.49 1226.76C1750.8 1227.51 1751.53 1228 1752.34 1228H1824.95C1826.39 1228 1827.36 1226.52 1826.78 1225.2L1324.52 71.7016C1324.21 70.9719 1323.49 70.5 1322.69 70.5Z" fill="#D6D6D6"/>
<path d="M826 599.5L637.474 71.8271C637.19 71.0312 636.436 70.5 635.591 70.5H610.333C608.952 70.5 607.986 71.8678 608.449 73.1698L637 153.5L728.5 423.5L801 633L921.5 976.5L1006.32 1226.01C1006.69 1227.09 1007.89 1227.65 1008.95 1227.22L1039.24 1215.2C1040.23 1214.81 1040.74 1213.71 1040.4 1212.71L983.5 1041.5L898 810L826 599.5Z" stroke="#989898" stroke-width="2" stroke-linejoin="round"/>
<path d="M1322.69 70.5H1283.45C1282.03 70.5 1281.07 71.9257 1281.59 73.2389L1395 358.5L1750.49 1226.76C1750.8 1227.51 1751.53 1228 1752.34 1228H1824.95C1826.39 1228 1827.36 1226.52 1826.78 1225.2L1324.52 71.7016C1324.21 70.9719 1323.49 70.5 1322.69 70.5Z" stroke="#989898" stroke-width="2" stroke-linejoin="round"/>
</g>
<path id="Vector 104" d="M1052.5 557.5L906.5 515.5L808 475L775.5 400.5L747 313L714.5 264.5L699.5 236M892 505.5L906.5 498L941 509.5L1023 536.5L1039.5 531L1027 498L1006.5 505.5L985.5 453L1009.5 440.5L997 411L1014 403L997 357.5M1042 536.5L1050 552.5M953.5 509.5L926.5 435.5M894 453L937.5 479M1019.5 400.5L1123.5 364.5L1143.5 357.5L1165.5 410M1366 294.5L1158 373" stroke="#FA8334" stroke-width="4" stroke-linecap="round" stroke-linejoin="round" stroke-dasharray="2 8"/>
<g id="Group 18">
<path id="Vector 62" d="M751.574 410.765V407.242H756.671V410.765C756.671 410.765 756.671 412.356 753.936 412.356C751.201 412.356 751.574 410.765 751.574 410.765Z" fill="#152238"/>
<path id="Vector 63" d="M772.031 410.765V407.242H777.128V410.765C777.128 410.765 777.128 412.356 774.393 412.356C771.658 412.356 772.031 410.765 772.031 410.765Z" fill="#152238"/>
<path id="Exclude" fill-rule="evenodd" clip-rule="evenodd" d="M752.03 376.921C752.03 376.921 751.495 377.38 751.218 377.733C750.874 378.172 750.515 378.977 750.515 378.977L749 390.717V407.272H780V390.717L778.485 378.977C778.485 378.977 778.174 378.165 777.836 377.733C777.551 377.368 776.97 376.921 776.97 376.921C776.97 376.921 772.805 374 764.689 374C756.574 374 752.03 376.921 752.03 376.921ZM757.765 376.976C757.765 376.976 757.074 377.444 757.061 377.896C757.048 378.364 757.765 378.869 757.765 378.869H771.236C771.236 378.869 772.007 378.377 771.993 377.896C771.98 377.43 771.236 376.976 771.236 376.976H757.765ZM754.194 380.763H774.915C774.915 380.763 775.473 380.9 775.726 381.142C776.041 381.442 776.159 382.169 776.159 382.169L777.512 391.367C777.512 391.367 777.392 392.042 777.079 392.286C776.788 392.514 776.159 392.503 776.159 392.503H752.355C752.355 392.503 752.062 392.413 751.922 392.286C751.643 392.036 751.651 391.367 751.651 391.367L752.95 382.169C752.95 382.169 752.984 381.446 753.274 381.142C753.542 380.861 754.194 380.763 754.194 380.763ZM755.979 400.239C755.979 401.434 755.01 402.403 753.815 402.403C752.62 402.403 751.651 401.434 751.651 400.239C751.651 399.044 752.62 398.075 753.815 398.075C755.01 398.075 755.979 399.044 755.979 400.239ZM775.347 402.403C776.542 402.403 777.511 401.434 777.511 400.239C777.511 399.044 776.542 398.075 775.347 398.075C774.152 398.075 773.183 399.044 773.183 400.239C773.183 401.434 774.152 402.403 775.347 402.403Z" fill="#152238"/>
</g>
<path id="ESTACIONAMENTO" fill-rule="evenodd" clip-rule="evenodd" d="M898 330C908.493 330 917 321.493 917 311C917 300.507 908.493 292 898 292C887.507 292 879 300.507 879 311C879 321.493 887.507 330 898 330ZM895.889 299.037H907.148V303.259H895.889V308.889H905.741V313.111H895.889V320.148H907.148V324.37L895.889 324.37H890.259V303.259V299.037H895.889Z" fill="#152238"/>
<path id="BOLA" fill-rule="evenodd" clip-rule="evenodd" d="M1281.91 975.88C1278.05 980.3 1272.37 983.092 1266.05 983.092C1265.91 983.092 1265.78 983.091 1265.64 983.088V961.643H1273.97C1273.97 961.777 1273.96 961.912 1273.96 962.046C1273.96 965.733 1276.16 969.355 1278.28 972.004C1279.35 973.34 1280.42 974.452 1281.22 975.229C1281.48 975.483 1281.71 975.701 1281.91 975.88ZM1282.55 975.11C1285.39 971.521 1287.09 966.982 1287.09 962.046C1287.09 961.911 1287.09 961.777 1287.09 961.643L1274.97 961.643C1274.97 961.777 1274.96 961.912 1274.96 962.046C1274.96 965.375 1276.97 968.768 1279.06 971.38C1280.1 972.675 1281.14 973.756 1281.92 974.512C1282.15 974.743 1282.37 974.943 1282.55 975.11ZM1274.07 960.643C1274.52 957.453 1276.43 954.4 1278.28 952.088C1279.35 950.752 1280.42 949.64 1281.22 948.863C1281.48 948.609 1281.71 948.391 1281.91 948.212C1278.05 943.792 1272.37 941 1266.05 941C1265.91 941 1265.78 941.001 1265.64 941.004V960.643H1274.07ZM1282.55 948.982C1282.37 949.149 1282.15 949.349 1281.92 949.58C1281.14 950.337 1280.1 951.417 1279.06 952.712C1277.27 954.958 1275.53 957.78 1275.08 960.643L1287.05 960.643C1286.76 956.252 1285.12 952.228 1282.55 948.982ZM1264.64 960.643V941.046C1258.88 941.425 1253.76 944.122 1250.19 948.212C1250.38 948.391 1250.61 948.609 1250.87 948.863C1251.67 949.64 1252.74 950.752 1253.81 952.088C1255.66 954.4 1257.57 957.453 1258.03 960.643H1264.64ZM1250.18 949.58C1249.94 949.349 1249.73 949.149 1249.54 948.982C1246.97 952.228 1245.34 956.252 1245.05 960.643L1257.01 960.643C1256.56 957.78 1254.82 954.958 1253.03 952.712C1251.99 951.417 1250.95 950.337 1250.18 949.58ZM1245 961.643L1257.12 961.643C1257.12 961.777 1257.13 961.912 1257.13 962.046C1257.13 965.375 1255.12 968.768 1253.03 971.38C1251.99 972.675 1250.95 973.756 1250.18 974.512C1249.94 974.743 1249.73 974.943 1249.54 975.11C1246.7 971.521 1245 966.982 1245 962.046C1245 961.911 1245 961.777 1245 961.643ZM1264.64 983.046C1258.88 982.667 1253.76 979.97 1250.19 975.88C1250.38 975.701 1250.61 975.483 1250.87 975.229C1251.67 974.452 1252.74 973.34 1253.81 972.004C1255.93 969.355 1258.13 965.733 1258.13 962.046C1258.13 961.912 1258.12 961.777 1258.12 961.643H1264.64V983.046Z" fill="#152238"/>
</g>
<defs>
<filter id="filter0_d_474_168" x="603.331" y="69.5" width="1228.62" height="1167.5" filterUnits="userSpaceOnUse" color-interpolation-filters="sRGB">
<feFlood flood-opacity="0" result="BackgroundImageFix"/>
<feColorMatrix in="SourceAlpha" type="matrix" values="0 0 0 0 0 0 0 0 0 0 0 0 0 0 0 0 0 0 127 0" result="hardAlpha"/>
<feOffset dy="4"/>
<feGaussianBlur stdDeviation="2"/>
<feComposite in2="hardAlpha" operator="out"/>
<feColorMatrix type="matrix" values="0 0 0 0 0 0 0 0 0 0 0 0 0 0 0 0 0 0 0.25 0"/>
<feBlend mode="normal" in2="BackgroundImageFix" result="effect1_dropShadow_474_168"/>
<feBlend mode="normal" in="SourceGraphic" in2="effect1_dropShadow_474_168" result="shape"/>
</filter>
</defs>
</svg>
