<svg width="3794" height="1760" viewBox="0 0 3794 1760" fill="none" xmlns="http://www.w3.org/2000/svg">
<g id="Cerro Largo">
<g id="RUAS">
<path fill-rule="evenodd" clip-rule="evenodd" d="M3216.27 380.5C3217.34 380.5 3218.33 381.071 3218.87 381.997L3791.39 1371C3792.55 1373 3791.11 1375.5 3788.8 1375.5H3739.25C3738.17 1375.5 3737.17 1374.92 3736.64 1373.98L3640.32 1204.21C3639.91 1203.49 3639.23 1202.97 3638.42 1202.77C3627.97 1200.19 3611.76 1195.4 3601.5 1188.5C3592.29 1182.31 3587.76 1174.68 3583.18 1166.97C3578.84 1159.66 3574.46 1152.27 3566 1146C3564.65 1144.99 3563.37 1144.03 3562.15 1143.1C3554.64 1137.4 3549.13 1133.22 3539 1131C3530.76 1129.19 3517.71 1130.78 3516.15 1130.98C3516.05 1130.99 3515.95 1131 3515.84 1131L3366.5 1135.5L2471.5 1140H2278.5C2278.34 1140 2278.18 1140 2278.01 1140L2277.8 1140C2277.7 1140 2277.6 1140 2277.5 1140C2262.83 1140 2249.74 1133.21 2241.22 1122.59C2239.02 1120.48 2237.36 1118.04 2235.75 1115.7C2232.29 1110.63 2229.12 1106 2221.5 1106H2183L1926.58 1109C1926.53 1109 1926.48 1109 1926.43 1109C1925.11 1109.09 1906.59 1110.13 1892.5 1106C1879.13 1102.08 1870.82 1098.28 1862 1087.5C1854.1 1077.85 1852.57 1069.44 1851.58 1063.92C1851.58 1063.92 1851.58 1063.92 1851.58 1063.92V1063.92C1851.58 1063.92 1851.58 1063.92 1851.58 1063.92C1851.58 1063.92 1851.58 1063.92 1851.58 1063.92L1851.5 1063.5C1850.5 1058 1850 1049.95 1850 1046.5V795.5V694V682.177C1850 680.488 1848.61 679.132 1846.92 679.178L1613.03 685.499C1613.01 685.5 1613.01 685.5 1612.99 685.5C1612.32 685.505 1587.74 685.722 1578 691C1568.38 696.209 1566.75 698.767 1564.72 701.96C1564.21 702.751 1563.68 703.581 1563 704.5C1558.4 710.702 1557.56 718.803 1557.5 719.458C1557.5 719.489 1557.5 719.516 1557.5 719.548L1553 809C1551.86 820.954 1551.53 833.275 1551.27 842.754V842.755V842.757C1551.07 849.929 1550.92 855.474 1550.5 858C1549.51 863.943 1545.58 872.666 1542.1 878.824C1542.03 878.942 1541.96 879.048 1541.88 879.154C1540.92 880.373 1534.32 888.493 1526 892.5C1515.8 897.409 1497.68 897.98 1497.02 897.999C1497 898 1496.99 898 1496.97 898L1077 900.5H873.1C872.1 900.5 871.158 900.005 870.696 899.118C870.101 897.974 869.407 896.328 869.5 895C869.573 893.953 870.161 892.709 870.681 891.795C871.157 890.958 872.07 890.5 873.033 890.5H1077H1390H1498.41C1498.47 890.5 1498.52 890.499 1498.58 890.495C1499.71 890.422 1512.6 889.521 1520 886C1527.16 882.595 1531.49 880.025 1536 873.5C1540.57 866.881 1541.91 853.967 1541.99 853.051C1542 853.014 1542 852.981 1542 852.944L1549 725.015C1549 725.005 1549 725.005 1549 724.995C1549.01 724.676 1549.8 708.205 1555.5 700C1561 692.076 1565.35 687.777 1574 683.5C1586.85 677.145 1606.82 677.462 1608.4 677.498C1608.47 677.499 1608.54 677.498 1608.61 677.495L1653 675.5L1849.99 669.531C1849.99 669.531 1850 669.524 1850 669.515C1850 669.507 1850.01 669.5 1850.02 669.5H1851H1869H1994.5H2357.5L2658.95 672.499C2658.98 672.5 2659.01 672.5 2659.05 672.499C2660.17 672.474 2681.58 672.074 2692 678C2700.62 682.902 2706.26 693.982 2706.93 695.359C2706.98 695.453 2707.02 695.55 2707.05 695.649L2782.08 910.004C2782.5 911.201 2783.62 911.996 2784.89 912.06C2797.07 912.677 2808.02 917.981 2815.96 926.205C2816.86 927.144 2818.25 927.462 2819.45 926.94L3060.99 821.505C3061 821.502 3060.99 821.503 3061 821.5C3061.26 821.385 3135.43 788.229 3181.5 764C3221.87 742.77 3282.72 706.27 3283.98 705.512C3284.02 705.488 3284.01 705.492 3284.05 705.466C3285.24 704.674 3307.24 690.079 3322 681.5C3326.12 679.104 3331.31 676.227 3335.86 673.746C3337.33 672.941 3337.86 671.086 3337.03 669.626L3175.54 384.98C3174.41 382.98 3175.85 380.5 3178.15 380.5H3216.27ZM2828.9 955.449C2828.82 954.147 2829.52 952.906 2830.71 952.373C2836.45 949.804 2843.8 946.52 2849.5 944C2868.39 935.65 2882.77 929.58 2897.67 923.292C2909.59 918.26 2921.85 913.089 2937 906.5C2951.98 899.987 2965.65 894.089 2978.53 888.532L2978.53 888.531C3029.62 866.494 3068.25 849.829 3126.5 821.5C3205.64 783.012 3318.99 719.462 3351.48 701.109C3352.92 700.294 3354.73 700.815 3355.54 702.254L3565.85 1072.94C3566.4 1073.91 3566.36 1075.11 3565.75 1076.04C3562.92 1080.36 3559.44 1085.36 3556 1089.5C3550.74 1095.84 3546.82 1099.4 3539 1102C3531.65 1104.45 3509.01 1105.91 3507.57 1106C3507.52 1106 3507.48 1106 3507.43 1106L2846.5 1114.5L2523.5 1122H2351.17C2351.06 1122 2350.95 1122.01 2350.84 1122.01C2349.64 1122.08 2342.08 1122.13 2343 1112C2343.54 1106.05 2352.92 1106 2353 1106C2353 1106 2353 1106 2353 1106H2395.5L2751.92 1102C2751.97 1102 2752.02 1102 2752.07 1102C2753.34 1102.05 2771.56 1102.59 2782 1098C2787.7 1095.49 2791.09 1093.91 2795.5 1089.5C2806 1079 2810.18 1062.12 2813 1045.5C2815.13 1032.94 2811.36 1016.99 2811.02 1015.6C2811.01 1015.53 2810.99 1015.46 2810.98 1015.39L2808.23 999.406C2808.02 998.226 2808.54 997.046 2809.52 996.35C2821.31 987.915 2829 974.105 2829 958.5C2829 957.475 2828.97 956.457 2828.9 955.449ZM2784.61 1004.95C2786.05 1004.89 2787.38 1005.78 2787.77 1007.17C2789.11 1012 2790.43 1017.47 2791 1022L2791.09 1022.74L2791.17 1023.38C2792.39 1033.03 2793.16 1039.16 2791 1049C2789.38 1056.37 2787.94 1060.57 2784 1067L2783.95 1067.08C2780.79 1072.23 2778.87 1075.37 2774 1079C2769.37 1082.45 2756 1085 2752 1085H2721.5H2387C2378.23 1085 2372.62 1080.14 2366.48 1074.82C2363.17 1071.95 2359.7 1068.95 2355.5 1066.5C2343.5 1059.5 2330.5 1052.55 2312 1048.5C2301.85 1046.28 2291.3 1045.3 2280.5 1045C2269.55 1044.69 2262.56 1045.11 2252.5 1046.5C2236.83 1048.67 2228.47 1053.09 2214.5 1060.5C2205.96 1065.03 2198.11 1071.59 2190.97 1077.57C2182.5 1084.65 2175.01 1090.92 2168.5 1092C2156.53 1094 1922.59 1094 1921.5 1094C1921.47 1094 1921.49 1094 1921.45 1094C1920.42 1094.03 1902.19 1094.5 1892.5 1090C1884.09 1086.09 1878.48 1082.99 1873 1075.5C1868.46 1069.29 1867.52 1064.6 1866.05 1057.24L1866 1057C1864.51 1049.56 1865.98 1002.22 1866 1001.51C1866 1001.49 1866 1001.49 1866 1001.47L1868.75 696.973C1868.77 695.327 1870.11 694 1871.75 694H2482.5H2591.48C2591.49 694 2591.49 694 2591.5 694C2591.94 693.994 2664.93 693.018 2669.5 694C2670.91 694.304 2672.21 694.497 2673.42 694.676L2673.42 694.676C2678.82 695.478 2682.41 696.012 2686.5 705C2691.34 715.64 2698.98 747.799 2699.47 749.893C2699.49 749.967 2699.51 750.036 2699.53 750.109L2753.38 919.749C2753.76 920.948 2753.35 922.249 2752.39 923.063C2742.36 931.593 2736 944.303 2736 958.5C2736 984.181 2756.82 1005 2782.5 1005C2783.21 1005 2783.91 1004.98 2784.61 1004.95ZM3583.22 1103.56C3582.31 1101.97 3580.21 1101.55 3578.76 1102.67L3576.07 1104.77C3575.12 1105.52 3574.7 1106.75 3575.03 1107.91C3576.56 1113.4 3581.18 1129.43 3585.5 1140C3590.38 1151.92 3599.98 1158.74 3610.35 1166.11C3611.23 1166.74 3612.11 1167.36 3613 1168C3613.67 1168.48 3614.34 1168.94 3615.01 1169.37C3617.44 1170.95 3619.94 1168.29 3618.52 1165.78L3583.22 1103.56ZM2807 959.5C2807 973.031 2796.03 984 2782.5 984C2768.97 984 2758 973.031 2758 959.5C2758 945.969 2768.97 935 2782.5 935C2796.03 935 2807 945.969 2807 959.5ZM2284.5 1121C2300.24 1121 2313 1108.24 2313 1092.5C2313 1076.76 2300.24 1064 2284.5 1064C2268.76 1064 2256 1076.76 2256 1092.5C2256 1108.24 2268.76 1121 2284.5 1121Z" fill="#D9D9D9"/>
<path d="M3601.5 1188.5L3602.06 1187.67L3601.5 1188.5ZM3583.18 1166.97L3582.32 1167.48V1167.48L3583.18 1166.97ZM3566 1146L3566.6 1145.2L3566 1146ZM3562.15 1143.1L3561.55 1143.9L3562.15 1143.1ZM3539 1131L3539.21 1130.02L3539 1131ZM3366.5 1135.5L3366.51 1136.5C3366.51 1136.5 3366.52 1136.5 3366.53 1136.5L3366.5 1135.5ZM2471.5 1140V1141H2471.51L2471.5 1140ZM2278.01 1140L2278.03 1139C2278.02 1139 2278.01 1139 2278.01 1139L2278.01 1140ZM2277.8 1140L2277.81 1141L2277.81 1141L2277.8 1140ZM2241.22 1122.59L2242 1121.96C2241.97 1121.93 2241.95 1121.9 2241.91 1121.87L2241.22 1122.59ZM2235.75 1115.7L2236.58 1115.14H2236.58L2235.75 1115.7ZM2183 1106V1105L2182.99 1105L2183 1106ZM1892.5 1106L1892.78 1105.04L1892.5 1106ZM1862 1087.5L1862.77 1086.87L1862 1087.5ZM1851.5 1063.5L1852.48 1063.32L1852.48 1063.32L1851.5 1063.5ZM1578 691L1577.52 690.121L1578 691ZM1564.72 701.96L1563.87 701.422V701.422L1564.72 701.96ZM1563 704.5L1562.2 703.904H1562.2L1563 704.5ZM1553 809L1554 809.095C1554 809.08 1554 809.065 1554 809.05L1553 809ZM1551.27 842.754L1550.27 842.727C1550.27 842.736 1550.27 842.745 1550.27 842.754H1551.27ZM1551.27 842.757L1552.27 842.784C1552.27 842.775 1552.27 842.766 1552.27 842.757H1551.27ZM1550.5 858L1549.51 857.836V857.836L1550.5 858ZM1526 892.5L1526.43 893.401L1526 892.5ZM1077 900.5V901.5H1077.01L1077 900.5ZM869.5 895L868.502 894.931H868.502L869.5 895ZM1520 886L1519.57 885.097L1520 886ZM1536 873.5L1535.18 872.932L1536 873.5ZM1555.5 700L1556.32 700.57L1555.5 700ZM1574 683.5L1574.44 684.396L1574 683.5ZM1653 675.5L1652.97 674.5C1652.96 674.501 1652.96 674.501 1652.95 674.501L1653 675.5ZM2357.5 669.5L2357.51 668.5H2357.5V669.5ZM2692 678L2691.51 678.869L2692 678ZM3181.5 764L3181.03 763.115V763.115L3181.5 764ZM3322 681.5L3321.5 680.635L3322 681.5ZM2849.5 944L2849.9 944.915L2849.5 944ZM2897.67 923.292L2898.06 924.213L2897.67 923.292ZM2937 906.5L2936.6 905.583L2937 906.5ZM2978.53 888.532L2978.93 889.451C2978.94 889.446 2978.95 889.442 2978.96 889.438L2978.53 888.532ZM2978.53 888.531L2978.14 887.613C2978.13 887.617 2978.12 887.621 2978.11 887.626L2978.53 888.531ZM3126.5 821.5L3126.06 820.601L3126.5 821.5ZM3556 1089.5L3555.23 1088.86L3556 1089.5ZM3539 1102L3538.68 1101.05L3539 1102ZM2846.5 1114.5L2846.49 1113.5L2846.48 1113.5L2846.5 1114.5ZM2523.5 1122V1123C2523.51 1123 2523.52 1123 2523.52 1123L2523.5 1122ZM2343 1112L2344 1112.09L2343 1112ZM2395.5 1106V1107L2395.51 1107L2395.5 1106ZM2782 1098L2781.6 1097.08L2782 1098ZM2813 1045.5L2812.01 1045.33L2813 1045.5ZM2791 1022L2790.01 1022.12V1022.12L2791 1022ZM2791.09 1022.74L2790.1 1022.87V1022.87L2791.09 1022.74ZM2791.17 1023.38L2792.17 1023.25L2791.17 1023.38ZM2791 1049L2791.98 1049.21L2791 1049ZM2784 1067L2784.85 1067.52L2784.85 1067.52L2784 1067ZM2783.95 1067.08L2783.1 1066.55L2783.1 1066.55L2783.95 1067.08ZM2774 1079L2774.6 1079.8L2774 1079ZM2366.48 1074.82L2365.82 1075.58L2366.48 1074.82ZM2355.5 1066.5L2355 1067.36L2355.5 1066.5ZM2312 1048.5L2312.21 1047.52L2312 1048.5ZM2280.5 1045L2280.47 1046L2280.5 1045ZM2252.5 1046.5L2252.64 1047.49L2252.5 1046.5ZM2214.5 1060.5L2214.03 1059.62L2214.5 1060.5ZM2190.97 1077.57L2190.32 1076.8L2190.97 1077.57ZM2168.5 1092L2168.66 1092.99L2168.5 1092ZM1892.5 1090L1892.92 1089.09L1892.5 1090ZM1873 1075.5L1872.19 1076.09V1076.09L1873 1075.5ZM1866.05 1057.24L1867.03 1057.05V1057.05L1866.05 1057.24ZM1866 1057L1865.02 1057.2V1057.2L1866 1057ZM2669.5 694L2669.71 693.022L2669.5 694ZM2673.42 694.676L2673.58 693.69C2673.58 693.689 2673.57 693.688 2673.57 693.687L2673.42 694.676ZM2673.42 694.676L2673.26 695.663C2673.26 695.664 2673.27 695.664 2673.27 695.665L2673.42 694.676ZM2686.5 705L2687.41 704.586V704.586L2686.5 705ZM3585.5 1140L3586.43 1139.62L3585.5 1140ZM3610.35 1166.11L3610.93 1165.3L3610.35 1166.11ZM3613 1168L3613.58 1167.19L3613 1168ZM2699.47 749.893L2700.45 749.663L2699.47 749.893ZM2699.53 750.109L2700.49 749.807L2699.53 750.109ZM1613.03 685.499L1613.06 686.499L1613.03 685.499ZM1612.99 685.5L1612.98 684.5L1612.99 685.5ZM2591.5 694L2591.49 693L2591.5 694ZM1868.75 696.973L1867.75 696.964L1868.75 696.973ZM1851.58 1063.92L1850.59 1064.1L1851.58 1063.92ZM1921.5 1094V1095V1094ZM1921.45 1094L1921.48 1095L1921.45 1094ZM2787.77 1007.17L2786.81 1007.44L2787.77 1007.17ZM2784.61 1004.95L2784.56 1003.95L2784.61 1004.95ZM3736.64 1373.98L3735.77 1374.47L3736.64 1373.98ZM2808.23 999.406L2807.24 999.576L2808.23 999.406ZM2809.52 996.35L2808.94 995.536L2809.52 996.35ZM3218.87 381.997L3218 382.498L3218.87 381.997ZM2811.02 1015.6L2810.05 1015.83L2811.02 1015.6ZM2810.98 1015.39L2811.97 1015.22L2810.98 1015.39ZM2753.38 919.749L2754.33 919.447L2753.38 919.749ZM2752.39 923.063L2751.74 922.302L2752.39 923.063ZM3507.57 1106L3507.51 1105L3507.57 1106ZM3507.43 1106L3507.44 1107L3507.43 1106ZM3565.85 1072.94L3566.72 1072.44L3565.85 1072.94ZM3565.75 1076.04L3566.59 1076.59L3565.75 1076.04ZM3351.48 701.109L3351.97 701.979L3351.48 701.109ZM3355.54 702.254L3356.41 701.761L3355.54 702.254ZM3175.54 384.98L3176.41 384.487L3175.54 384.98ZM3335.86 673.746L3335.38 672.868L3335.86 673.746ZM3337.03 669.626L3336.16 670.12L3337.03 669.626ZM2815.96 926.205L2816.68 925.51L2815.96 926.205ZM2819.45 926.94L2819.05 926.023L2819.45 926.94ZM2782.08 910.004L2783.02 909.674L2782.08 910.004ZM2784.89 912.06L2784.84 913.059L2784.89 912.06ZM2658.95 672.499L2658.94 673.499L2658.95 672.499ZM2659.05 672.499L2659.07 673.499L2659.05 672.499ZM1849.99 669.531L1849.95 668.531L1849.99 669.531ZM1608.4 677.498L1608.38 678.497L1608.4 677.498ZM1608.61 677.495L1608.57 676.496L1608.61 677.495ZM3640.32 1204.21L3639.45 1204.71L3640.32 1204.21ZM3638.42 1202.77L3638.18 1203.74L3638.42 1202.77ZM1498.58 890.495L1498.51 889.497L1498.58 890.495ZM2353 1106L2353 1105L2353 1106ZM3615.01 1169.37L3615.56 1168.53L3615.01 1169.37ZM3618.52 1165.78L3619.39 1165.29L3618.52 1165.78ZM870.696 899.118L869.809 899.579L870.696 899.118ZM3578.76 1102.67L3578.15 1101.89L3578.76 1102.67ZM3583.22 1103.56L3584.09 1103.07L3583.22 1103.56ZM1542.1 878.824L1541.23 878.333L1542.1 878.824ZM1541.88 879.154L1541.09 878.536L1541.88 879.154ZM1557.5 719.458L1558.5 719.55L1557.5 719.458ZM1557.5 719.548L1558.5 719.598L1557.5 719.548ZM1541.99 853.051L1542.99 853.149L1541.99 853.051ZM1542 852.944L1541 852.889L1542 852.944ZM2830.71 952.373L2830.3 951.46L2830.71 952.373ZM1846.92 679.178L1846.89 678.178L1846.92 679.178ZM1549 725.015L1550 725.07L1549 725.015ZM1549 724.995L1548 724.949L1549 724.995ZM1866 1001.51L1867 1001.54L1866 1001.51ZM1866 1001.47L1865 1001.46L1866 1001.47ZM3576.07 1104.77L3575.46 1103.99L3576.07 1104.77ZM3575.03 1107.91L3575.99 1107.65L3575.03 1107.91ZM2350.84 1122.01L2350.9 1123.01L2350.84 1122.01ZM1497.02 897.999L1497.05 898.999L1497.02 897.999ZM1496.97 898L1496.96 897L1496.97 898ZM2706.93 695.359L2707.83 694.918L2706.93 695.359ZM2707.05 695.649L2708 695.318L2707.05 695.649ZM1926.58 1109L1926.57 1108L1926.58 1109ZM1926.43 1109L1926.49 1110L1926.43 1109ZM3516.15 1130.98L3516.03 1129.99L3516.15 1130.98ZM3515.84 1131L3515.87 1132L3515.84 1131ZM3283.98 705.512L3284.49 706.369L3283.98 705.512ZM3284.05 705.466L3284.6 706.299L3284.05 705.466ZM1851.58 1063.92L1850.59 1064.1L1851.58 1063.92ZM2751.92 1102L2751.91 1101L2751.92 1102ZM2752.07 1102L2752.04 1103L2752.07 1102ZM3791.39 1371L3792.26 1370.5L3791.39 1371ZM870.681 891.795L871.551 892.289L870.681 891.795ZM1851.58 1063.92L1850.63 1064.24L1851.58 1063.92ZM3060.99 821.505L3061.39 822.422L3060.99 821.505ZM3061 821.5L3061.41 822.413L3061 821.5ZM3792.26 1370.5L3219.73 381.496L3218 382.498L3790.53 1371.5L3792.26 1370.5ZM3739.25 1376.5H3788.8V1374.5H3739.25V1376.5ZM3639.45 1204.71L3735.77 1374.47L3737.51 1373.49L3641.19 1203.72L3639.45 1204.71ZM3600.94 1189.33C3611.37 1196.34 3627.73 1201.16 3638.18 1203.74L3638.66 1201.8C3628.21 1199.22 3612.16 1194.46 3602.06 1187.67L3600.94 1189.33ZM3582.32 1167.48C3586.9 1175.18 3591.53 1183 3600.94 1189.33L3602.06 1187.67C3593.06 1181.62 3588.62 1174.17 3584.04 1166.46L3582.32 1167.48ZM3565.4 1146.8C3573.68 1152.94 3577.98 1160.16 3582.32 1167.48L3584.04 1166.46C3579.7 1159.15 3575.23 1151.6 3566.6 1145.2L3565.4 1146.8ZM3561.55 1143.9C3562.77 1144.82 3564.04 1145.79 3565.4 1146.8L3566.6 1145.2C3565.25 1144.2 3563.98 1143.23 3562.76 1142.3L3561.55 1143.9ZM3538.79 1131.98C3548.69 1134.15 3554.05 1138.2 3561.55 1143.9L3562.76 1142.3C3555.24 1136.6 3549.58 1132.29 3539.21 1130.02L3538.79 1131.98ZM3516.28 1131.97C3517.04 1131.87 3520.66 1131.43 3525.11 1131.24C3529.58 1131.04 3534.8 1131.1 3538.79 1131.98L3539.21 1130.02C3534.96 1129.09 3529.53 1129.04 3525.03 1129.24C3520.5 1129.44 3516.82 1129.89 3516.03 1129.99L3516.28 1131.97ZM3366.53 1136.5L3515.87 1132L3515.81 1130.01L3366.47 1134.5L3366.53 1136.5ZM2471.51 1141L3366.51 1136.5L3366.49 1134.5L2471.49 1139L2471.51 1141ZM2278.5 1141H2471.5V1139H2278.5V1141ZM2278 1141C2278.17 1141 2278.33 1141 2278.5 1141V1139C2278.34 1139 2278.18 1139 2278.03 1139L2278 1141ZM2277.81 1141L2278.02 1141L2278.01 1139L2277.79 1139L2277.81 1141ZM2277.5 1141C2277.6 1141 2277.7 1141 2277.81 1141L2277.79 1139C2277.7 1139 2277.6 1139 2277.5 1139V1141ZM2240.44 1123.22C2249.15 1134.06 2262.51 1141 2277.5 1141V1139C2263.14 1139 2250.34 1132.35 2242 1121.96L2240.44 1123.22ZM2234.93 1116.27C2236.52 1118.6 2238.24 1121.12 2240.53 1123.31L2241.91 1121.87C2239.8 1119.84 2238.19 1117.49 2236.58 1115.14L2234.93 1116.27ZM2221.5 1107C2225.07 1107 2227.55 1108.08 2229.55 1109.72C2231.6 1111.41 2233.18 1113.71 2234.93 1116.27L2236.58 1115.14C2234.86 1112.63 2233.13 1110.08 2230.82 1108.18C2228.46 1106.24 2225.54 1105 2221.5 1105V1107ZM2183 1107H2221.5V1105H2183V1107ZM1926.59 1110L2183.01 1107L2182.99 1105L1926.57 1108L1926.59 1110ZM1892.22 1106.96C1906.49 1111.14 1925.18 1110.08 1926.49 1110L1926.36 1108.01C1925.04 1108.09 1906.68 1109.11 1892.78 1105.04L1892.22 1106.96ZM1861.23 1088.13C1870.23 1099.13 1878.75 1103.01 1892.22 1106.96L1892.78 1105.04C1879.51 1101.15 1871.42 1097.43 1862.77 1086.87L1861.23 1088.13ZM1850.59 1064.1C1851.6 1069.66 1853.16 1078.28 1861.23 1088.13L1862.77 1086.87C1855.04 1077.41 1853.55 1069.21 1852.56 1063.75L1850.59 1064.1ZM1850.63 1064.24L1852.53 1063.61V1063.61L1850.63 1064.24ZM1850.52 1063.68L1850.59 1064.1L1852.56 1063.74L1852.48 1063.32L1850.52 1063.68ZM1849 1046.5C1849 1049.99 1849.5 1058.11 1850.52 1063.68L1852.48 1063.32C1851.5 1057.89 1851 1049.9 1851 1046.5H1849ZM1849 795.5V1046.5H1851V795.5H1849ZM1849 694V795.5H1851V694H1849ZM1849 682.177V694H1851V682.177H1849ZM1613.06 686.499L1846.95 680.178L1846.89 678.178L1613 684.5L1613.06 686.499ZM1578.48 691.879C1580.78 690.629 1584.03 689.65 1587.69 688.894C1591.32 688.141 1595.29 687.623 1598.99 687.268C1606.39 686.557 1612.67 686.502 1612.99 686.5L1612.98 684.5C1612.63 684.503 1606.29 684.558 1598.8 685.277C1595.06 685.636 1591.01 686.163 1587.28 686.935C1583.56 687.705 1580.09 688.731 1577.52 690.121L1578.48 691.879ZM1565.56 702.497C1566.57 700.912 1567.43 699.571 1569.19 697.977C1570.97 696.364 1573.7 694.467 1578.48 691.879L1577.52 690.121C1572.68 692.742 1569.79 694.728 1567.84 696.495C1565.87 698.28 1564.9 699.814 1563.87 701.422L1565.56 702.497ZM1563.8 705.096C1564.51 704.145 1565.06 703.287 1565.56 702.497L1563.87 701.422C1563.37 702.214 1562.86 703.017 1562.2 703.904L1563.8 705.096ZM1558.5 719.55C1558.56 718.92 1559.38 711.061 1563.8 705.096L1562.2 703.904C1557.42 710.342 1556.57 718.686 1556.51 719.365L1558.5 719.55ZM1554 809.05L1558.5 719.598L1556.5 719.497L1552 808.95L1554 809.05ZM1552.27 842.781C1552.53 833.298 1552.86 821.01 1554 809.095L1552 808.905C1550.86 820.898 1550.53 833.252 1550.27 842.727L1552.27 842.781ZM1552.27 842.755V842.754H1550.27V842.755H1552.27ZM1552.27 842.757V842.755H1550.27V842.757H1552.27ZM1551.49 858.164C1551.92 855.55 1552.07 849.906 1552.27 842.784L1550.27 842.729C1550.07 849.951 1549.92 855.397 1549.51 857.836L1551.49 858.164ZM1542.97 879.316C1546.46 873.133 1550.47 864.285 1551.49 858.164L1549.51 857.836C1548.55 863.601 1544.69 872.2 1541.23 878.333L1542.97 879.316ZM1526.43 893.401C1534.98 889.286 1541.7 881.001 1542.66 879.773L1541.09 878.536C1540.14 879.745 1533.67 887.7 1525.57 891.599L1526.43 893.401ZM1497.05 898.999C1497.39 898.989 1502.13 898.84 1508.06 898.075C1513.97 897.314 1521.18 895.929 1526.43 893.401L1525.57 891.599C1520.62 893.98 1513.67 895.335 1507.8 896.092C1501.96 896.845 1497.3 896.991 1496.99 897L1497.05 898.999ZM1077.01 901.5L1496.97 899L1496.96 897L1076.99 899.5L1077.01 901.5ZM873.1 901.5H1077V899.5H873.1V901.5ZM868.502 894.931C868.443 895.778 868.635 896.662 868.89 897.439C869.149 898.229 869.496 898.978 869.809 899.579L871.583 898.656C871.301 898.113 871.004 897.468 870.79 896.816C870.573 896.153 870.464 895.55 870.497 895.069L868.502 894.931ZM869.812 891.3C869.287 892.225 868.592 893.64 868.502 894.931L870.497 895.069C870.553 894.267 871.036 893.194 871.551 892.289L869.812 891.3ZM1077 889.5H873.033V891.5H1077V889.5ZM1390 889.5H1077V891.5H1390V889.5ZM1498.41 889.5H1390V891.5H1498.41V889.5ZM1519.57 885.097C1516.01 886.792 1511.05 887.881 1506.78 888.552C1502.53 889.22 1499.06 889.462 1498.51 889.497L1498.64 891.493C1499.22 891.455 1502.76 891.209 1507.09 890.528C1511.4 889.851 1516.59 888.728 1520.43 886.903L1519.57 885.097ZM1535.18 872.932C1530.82 879.246 1526.67 881.722 1519.57 885.097L1520.43 886.903C1527.65 883.467 1532.17 880.804 1536.82 874.068L1535.18 872.932ZM1541 852.954C1540.96 853.391 1540.61 856.806 1539.7 860.922C1538.79 865.071 1537.35 869.792 1535.18 872.932L1536.82 874.068C1539.22 870.59 1540.73 865.544 1541.65 861.352C1542.58 857.128 1542.94 853.627 1542.99 853.149L1541 852.954ZM1548 724.96L1541 852.889L1543 852.998L1550 725.07L1548 724.96ZM1554.68 699.43C1551.7 703.723 1550.05 710.078 1549.13 715.282C1548.21 720.524 1548.01 724.768 1548 724.949L1550 725.041C1550.01 724.903 1550.2 720.753 1551.1 715.628C1552.01 710.465 1553.6 704.483 1556.32 700.57L1554.68 699.43ZM1573.56 682.604C1564.73 686.971 1560.25 691.399 1554.68 699.43L1556.32 700.57C1561.75 692.753 1565.98 688.583 1574.44 684.396L1573.56 682.604ZM1608.42 676.498C1607.61 676.479 1602.18 676.391 1595.32 677.108C1588.49 677.822 1580.14 679.346 1573.56 682.604L1574.44 684.396C1580.71 681.298 1588.77 679.803 1595.53 679.097C1602.27 678.392 1607.61 678.48 1608.38 678.497L1608.42 676.498ZM1652.95 674.501L1608.57 676.496L1608.66 678.494L1653.04 676.499L1652.95 674.501ZM1849.95 668.531L1652.97 674.5L1653.03 676.5L1850.02 670.53L1849.95 668.531ZM1851 668.5H1850.02V670.5H1851V668.5ZM1869 668.5H1851V670.5H1869V668.5ZM1994.5 668.5H1869V670.5H1994.5V668.5ZM2357.5 668.5H1994.5V670.5H2357.5V668.5ZM2658.96 671.5L2357.51 668.5L2357.49 670.5L2658.94 673.499L2658.96 671.5ZM2692.49 677.131C2687.08 674.053 2678.93 672.661 2672.13 672.022C2665.28 671.379 2659.6 671.486 2659.02 671.499L2659.07 673.499C2659.61 673.486 2665.2 673.381 2671.94 674.013C2678.73 674.65 2686.5 676.021 2691.51 678.869L2692.49 677.131ZM2707.83 694.918C2707.48 694.201 2705.87 691.032 2703.26 687.415C2700.65 683.812 2696.99 679.684 2692.49 677.131L2691.51 678.869C2695.64 681.217 2699.1 685.081 2701.64 688.587C2704.16 692.08 2705.71 695.141 2706.03 695.799L2707.83 694.918ZM2783.02 909.674L2708 695.318L2706.11 695.979L2781.13 910.335L2783.02 909.674ZM2816.68 925.51C2808.57 917.111 2797.39 911.692 2784.94 911.062L2784.84 913.059C2796.76 913.663 2807.47 918.851 2815.24 926.9L2816.68 925.51ZM3060.59 820.589L2819.05 926.023L2819.85 927.856L3061.39 822.422L3060.59 820.589ZM3181.03 763.115C3135 787.326 3060.86 820.469 3060.59 820.587L3061.41 822.413C3061.66 822.3 3135.86 789.131 3181.97 764.885L3181.03 763.115ZM3283.47 704.655C3282.2 705.416 3221.37 741.9 3181.03 763.115L3181.97 764.885C3222.36 743.639 3283.24 707.125 3284.49 706.369L3283.47 704.655ZM3321.5 680.635C3306.71 689.232 3284.69 703.844 3283.5 704.633L3284.6 706.299C3285.8 705.504 3307.77 690.926 3322.5 682.365L3321.5 680.635ZM3335.38 672.868C3330.83 675.35 3325.63 678.232 3321.5 680.635L3322.5 682.365C3326.61 679.975 3331.8 677.103 3336.34 674.624L3335.38 672.868ZM3174.67 385.474L3336.16 670.12L3337.9 669.133L3176.41 384.487L3174.67 385.474ZM3216.27 379.5H3178.15V381.5H3216.27V379.5ZM2849.1 943.085C2843.39 945.607 2836.04 948.891 2830.3 951.46L2831.11 953.286C2836.85 950.716 2844.21 947.434 2849.9 944.915L2849.1 943.085ZM2897.28 922.37C2882.38 928.659 2867.99 934.732 2849.1 943.085L2849.9 944.915C2868.78 936.568 2883.16 930.501 2898.06 924.213L2897.28 922.37ZM2936.6 905.583C2921.45 912.17 2909.2 917.339 2897.28 922.37L2898.06 924.213C2909.98 919.181 2922.24 914.009 2937.4 907.417L2936.6 905.583ZM2978.14 887.614C2965.25 893.171 2951.58 899.07 2936.6 905.583L2937.4 907.417C2952.38 900.905 2966.05 895.007 2978.93 889.451L2978.14 887.614ZM2978.11 887.626L2978.11 887.627L2978.96 889.438L2978.96 889.436L2978.11 887.626ZM3126.06 820.601C3067.83 848.919 3029.22 865.577 2978.14 887.613L2978.93 889.449C3030.01 867.412 3068.66 850.739 3126.94 822.399L3126.06 820.601ZM3350.99 700.238C3318.49 718.593 3205.17 782.128 3126.06 820.601L3126.94 822.399C3206.11 783.896 3319.48 720.331 3351.97 701.979L3350.99 700.238ZM3566.72 1072.44L3356.41 701.761L3354.67 702.748L3564.98 1073.43L3566.72 1072.44ZM3556.77 1090.14C3560.24 1085.95 3563.75 1080.92 3566.59 1076.59L3564.92 1075.49C3562.09 1079.8 3558.63 1084.76 3555.23 1088.86L3556.77 1090.14ZM3539.32 1102.95C3547.38 1100.26 3551.44 1096.56 3556.77 1090.14L3555.23 1088.86C3550.04 1095.12 3546.26 1098.53 3538.68 1101.05L3539.32 1102.95ZM3507.63 1106.99C3508.36 1106.95 3514.39 1106.56 3521.17 1105.88C3527.9 1105.2 3535.51 1104.22 3539.32 1102.95L3538.68 1101.05C3535.13 1102.23 3527.75 1103.2 3520.97 1103.89C3514.23 1104.57 3508.22 1104.95 3507.51 1105L3507.63 1106.99ZM2846.51 1115.5L3507.44 1107L3507.41 1105L2846.49 1113.5L2846.51 1115.5ZM2523.52 1123L2846.52 1115.5L2846.48 1113.5L2523.48 1121L2523.52 1123ZM2351.17 1123H2523.5V1121H2351.17V1123ZM2342 1111.91C2341.52 1117.26 2343.28 1120.18 2345.58 1121.67C2347.78 1123.09 2350.23 1123.05 2350.9 1123.01L2350.78 1121.01C2350.24 1121.05 2348.32 1121.06 2346.67 1119.99C2345.12 1118.99 2343.56 1116.87 2344 1112.09L2342 1111.91ZM2353 1105C2352.92 1105 2350.44 1105.01 2347.87 1105.81C2345.36 1106.6 2342.33 1108.3 2342 1111.91L2344 1112.09C2344.21 1109.75 2346.14 1108.45 2348.47 1107.72C2349.6 1107.37 2350.73 1107.19 2351.59 1107.1C2352.44 1107 2353.01 1107 2353 1107L2353 1105ZM2395.5 1105H2353V1107H2395.5V1105ZM2751.91 1101L2395.49 1105L2395.51 1107L2751.93 1103L2751.91 1101ZM2781.6 1097.08C2776.54 1099.31 2769.53 1100.31 2763.53 1100.74C2757.56 1101.17 2752.72 1101.02 2752.11 1101L2752.04 1103C2752.69 1103.02 2757.6 1103.17 2763.67 1102.74C2769.71 1102.3 2777.02 1101.29 2782.4 1098.92L2781.6 1097.08ZM2794.79 1088.79C2790.52 1093.06 2787.28 1094.59 2781.6 1097.08L2782.4 1098.92C2788.13 1096.39 2791.66 1094.75 2796.21 1090.21L2794.79 1088.79ZM2812.01 1045.33C2809.19 1061.98 2805.04 1078.54 2794.79 1088.79L2796.21 1090.21C2806.96 1079.46 2811.17 1062.27 2813.99 1045.67L2812.01 1045.33ZM2810.05 1015.83C2810.4 1017.24 2814.11 1033 2812.01 1045.33L2813.99 1045.67C2816.16 1032.88 2812.33 1016.74 2812 1015.36L2810.05 1015.83ZM2807.24 999.576L2810 1015.56L2811.97 1015.22L2809.21 999.236L2807.24 999.576ZM2828 958.5C2828 973.769 2820.48 987.282 2808.94 995.536L2810.1 997.163C2822.15 988.549 2830 974.442 2830 958.5H2828ZM2827.9 955.513C2827.97 956.5 2828 957.496 2828 958.5H2830C2830 957.453 2829.97 956.414 2829.9 955.384L2827.9 955.513ZM2791.99 1021.88C2791.42 1017.27 2790.08 1011.75 2788.73 1006.9L2786.81 1007.44C2788.14 1012.26 2789.45 1017.67 2790.01 1022.12L2791.99 1021.88ZM2792.09 1022.62L2791.99 1021.88L2790.01 1022.12L2790.1 1022.87L2792.09 1022.62ZM2792.17 1023.25L2792.09 1022.62L2790.1 1022.87L2790.18 1023.5L2792.17 1023.25ZM2791.98 1049.21C2794.18 1039.2 2793.38 1032.91 2792.17 1023.25L2790.18 1023.5C2791.4 1033.14 2792.15 1039.13 2790.02 1048.79L2791.98 1049.21ZM2784.85 1067.52C2788.87 1060.98 2790.34 1056.66 2791.98 1049.21L2790.02 1048.79C2788.42 1056.07 2787.02 1060.16 2783.15 1066.48L2784.85 1067.52ZM2784.81 1067.6L2784.85 1067.52L2783.15 1066.48L2783.1 1066.55L2784.81 1067.6ZM2774.6 1079.8C2779.63 1076.05 2781.64 1072.76 2784.81 1067.6L2783.1 1066.55C2779.94 1071.7 2778.1 1074.69 2773.4 1078.2L2774.6 1079.8ZM2752 1086C2754.12 1086 2758.55 1085.34 2763 1084.27C2765.24 1083.72 2767.51 1083.07 2769.52 1082.33C2771.52 1081.6 2773.33 1080.75 2774.6 1079.8L2773.4 1078.2C2772.36 1078.97 2770.76 1079.74 2768.83 1080.45C2766.91 1081.16 2764.72 1081.79 2762.53 1082.32C2758.13 1083.38 2753.88 1084 2752 1084V1086ZM2721.5 1086H2752V1084H2721.5V1086ZM2387 1086H2721.5V1084H2387V1086ZM2365.82 1075.58C2371.93 1080.87 2377.8 1086 2387 1086V1084C2378.65 1084 2373.31 1079.42 2367.13 1074.07L2365.82 1075.58ZM2355 1067.36C2359.11 1069.76 2362.51 1072.7 2365.82 1075.58L2367.13 1074.07C2363.83 1071.21 2360.3 1068.14 2356 1065.64L2355 1067.36ZM2311.79 1049.48C2330.13 1053.49 2343.03 1060.38 2355 1067.36L2356 1065.64C2343.97 1058.62 2330.87 1051.6 2312.21 1047.52L2311.79 1049.48ZM2280.47 1046C2291.23 1046.3 2301.71 1047.27 2311.79 1049.48L2312.21 1047.52C2301.98 1045.28 2291.37 1044.31 2280.53 1044L2280.47 1046ZM2252.64 1047.49C2262.64 1046.11 2269.58 1045.69 2280.47 1046L2280.53 1044C2269.53 1043.69 2262.48 1044.11 2252.36 1045.51L2252.64 1047.49ZM2214.97 1061.38C2228.93 1053.98 2237.16 1049.63 2252.64 1047.49L2252.36 1045.51C2236.51 1047.71 2228.01 1052.2 2214.03 1059.62L2214.97 1061.38ZM2191.61 1078.33C2198.77 1072.34 2206.53 1065.86 2214.97 1061.38L2214.03 1059.62C2205.38 1064.2 2197.45 1070.84 2190.32 1076.8L2191.61 1078.33ZM2168.66 1092.99C2172.14 1092.41 2175.79 1090.47 2179.57 1087.86C2183.36 1085.24 2187.38 1081.87 2191.61 1078.33L2190.32 1076.8C2186.08 1080.35 2182.13 1083.66 2178.43 1086.21C2174.72 1088.77 2171.37 1090.51 2168.34 1091.01L2168.66 1092.99ZM1921.5 1095C1922.05 1095 1980.81 1095 2040.92 1094.75C2070.98 1094.62 2101.39 1094.44 2125.02 1094.15C2136.84 1094.01 2146.97 1093.85 2154.52 1093.66C2162.02 1093.47 2167.08 1093.25 2168.66 1092.99L2168.34 1091.01C2166.93 1091.25 2162.06 1091.47 2154.47 1091.66C2146.93 1091.85 2136.81 1092.01 2125 1092.15C2101.37 1092.44 2070.97 1092.62 2040.92 1092.75C1980.8 1093 1922.05 1093 1921.5 1093V1095ZM1892.08 1090.91C1897.1 1093.24 1904.24 1094.26 1910.15 1094.7C1916.09 1095.14 1920.95 1095.02 1921.48 1095L1921.42 1093C1920.92 1093.02 1916.15 1093.14 1910.3 1092.7C1904.41 1092.26 1897.59 1091.26 1892.92 1089.09L1892.08 1090.91ZM1872.19 1076.09C1877.82 1083.78 1883.62 1086.97 1892.08 1090.91L1892.92 1089.09C1884.55 1085.2 1879.13 1082.19 1873.81 1074.91L1872.19 1076.09ZM1865.07 1057.44C1866.54 1064.81 1867.51 1069.69 1872.19 1076.09L1873.81 1074.91C1869.41 1068.9 1868.5 1064.4 1867.03 1057.05L1865.07 1057.44ZM1865.02 1057.2L1865.07 1057.44L1867.03 1057.05L1866.98 1056.8L1865.02 1057.2ZM1865 1001.48C1864.99 1001.84 1864.62 1013.85 1864.43 1026.72C1864.34 1033.15 1864.3 1039.79 1864.37 1045.3C1864.44 1050.77 1864.63 1055.22 1865.02 1057.2L1866.98 1056.8C1866.63 1055.05 1866.44 1050.8 1866.37 1045.28C1866.3 1039.79 1866.34 1033.17 1866.43 1026.74C1866.62 1013.9 1866.99 1001.89 1867 1001.54L1865 1001.48ZM1867.75 696.964L1865 1001.46L1867 1001.48L1869.75 696.982L1867.75 696.964ZM2482.5 693H1871.75V695H2482.5V693ZM2591.48 693H2482.5V695H2591.48V693ZM2669.71 693.022C2669.34 692.942 2668.71 692.886 2667.94 692.84C2667.13 692.792 2666.1 692.752 2664.88 692.718C2662.44 692.651 2659.2 692.608 2655.45 692.585C2647.95 692.538 2638.38 692.569 2628.94 692.63C2610.07 692.752 2591.71 692.997 2591.49 693L2591.52 695C2591.73 694.997 2610.09 694.751 2628.96 694.63C2638.39 694.569 2647.95 694.538 2655.44 694.585C2659.18 694.608 2662.4 694.65 2664.83 694.717C2666.04 694.751 2667.05 694.79 2667.82 694.836C2668.61 694.884 2669.09 694.935 2669.29 694.978L2669.71 693.022ZM2673.57 693.687C2672.36 693.507 2671.09 693.319 2669.71 693.022L2669.29 694.978C2670.74 695.289 2672.07 695.486 2673.27 695.665L2673.57 693.687ZM2673.58 693.69L2673.58 693.69L2673.25 695.662L2673.26 695.663L2673.58 693.69ZM2687.41 704.586C2685.33 700.012 2683.31 697.435 2681 695.93C2678.7 694.434 2676.23 694.082 2673.57 693.687L2673.27 695.665C2676.01 696.071 2678.03 696.387 2679.91 697.606C2681.76 698.815 2683.58 701 2685.59 705.414L2687.41 704.586ZM2700.45 749.663C2700.2 748.612 2698.16 740.038 2695.58 730.393C2693.01 720.781 2689.87 709.996 2687.41 704.586L2685.59 705.414C2687.97 710.644 2691.07 721.259 2693.65 730.91C2696.22 740.528 2698.25 749.08 2698.5 750.123L2700.45 749.663ZM2754.33 919.447L2700.49 749.807L2698.58 750.412L2752.43 920.052L2754.33 919.447ZM2737 958.5C2737 944.609 2743.22 932.173 2753.04 923.825L2751.74 922.302C2741.5 931.013 2735 943.998 2735 958.5H2737ZM2782.5 1004C2757.37 1004 2737 983.629 2737 958.5H2735C2735 984.734 2756.27 1006 2782.5 1006V1004ZM2784.56 1003.95C2783.88 1003.98 2783.19 1004 2782.5 1004V1006C2783.22 1006 2783.94 1005.98 2784.65 1005.95L2784.56 1003.95ZM3576.69 1105.56L3579.38 1103.46L3578.15 1101.89L3575.46 1103.99L3576.69 1105.56ZM3586.43 1139.62C3582.13 1129.11 3577.53 1113.13 3575.99 1107.65L3574.07 1108.18C3575.6 1113.66 3580.23 1129.75 3584.57 1140.38L3586.43 1139.62ZM3610.93 1165.3C3600.52 1157.9 3591.17 1151.23 3586.43 1139.62L3584.57 1140.38C3589.58 1152.61 3599.44 1159.59 3609.77 1166.93L3610.93 1165.3ZM3613.58 1167.19C3612.69 1166.55 3611.81 1165.92 3610.93 1165.3L3609.77 1166.93C3610.65 1167.55 3611.53 1168.18 3612.42 1168.81L3613.58 1167.19ZM3615.56 1168.53C3614.9 1168.11 3614.24 1167.66 3613.58 1167.19L3612.42 1168.81C3613.1 1169.3 3613.79 1169.77 3614.47 1170.21L3615.56 1168.53ZM3582.35 1104.05L3617.65 1166.27L3619.39 1165.29L3584.09 1103.07L3582.35 1104.05ZM2782.5 985C2796.58 985 2808 973.583 2808 959.5H2806C2806 972.479 2795.48 983 2782.5 983V985ZM2757 959.5C2757 973.583 2768.42 985 2782.5 985V983C2769.52 983 2759 972.479 2759 959.5H2757ZM2782.5 934C2768.42 934 2757 945.417 2757 959.5H2759C2759 946.521 2769.52 936 2782.5 936V934ZM2808 959.5C2808 945.417 2796.58 934 2782.5 934V936C2795.48 936 2806 946.521 2806 959.5H2808ZM2312 1092.5C2312 1107.69 2299.69 1120 2284.5 1120V1122C2300.79 1122 2314 1108.79 2314 1092.5H2312ZM2284.5 1065C2299.69 1065 2312 1077.31 2312 1092.5H2314C2314 1076.21 2300.79 1063 2284.5 1063V1065ZM2257 1092.5C2257 1077.31 2269.31 1065 2284.5 1065V1063C2268.21 1063 2255 1076.21 2255 1092.5H2257ZM2284.5 1120C2269.31 1120 2257 1107.69 2257 1092.5H2255C2255 1108.79 2268.21 1122 2284.5 1122V1120ZM2698.5 750.123C2698.53 750.223 2698.55 750.316 2698.58 750.412L2700.49 749.807C2700.47 749.757 2700.46 749.711 2700.45 749.663L2698.5 750.123ZM1613 684.5C1613 684.5 1612.99 684.5 1612.99 684.5C1612.99 684.5 1612.99 684.5 1612.98 684.5C1612.98 684.5 1612.98 684.5 1612.98 684.5C1612.98 684.5 1612.98 684.5 1612.98 684.5C1612.98 684.5 1612.98 684.5 1612.98 684.5L1612.99 686.5C1613.01 686.5 1613.02 686.5 1613.03 686.499C1613.04 686.499 1613.04 686.499 1613.05 686.499C1613.05 686.499 1613.05 686.499 1613.06 686.499L1613 684.5ZM2591.48 695C2591.48 695 2591.48 695 2591.48 695C2591.48 695 2591.48 695 2591.48 695C2591.48 695 2591.48 695 2591.48 695C2591.48 695 2591.48 695 2591.48 695C2591.49 695 2591.5 695 2591.5 695C2591.51 695 2591.51 695 2591.52 695L2591.49 693C2591.49 693 2591.49 693 2591.49 693C2591.49 693 2591.49 693 2591.49 693C2591.5 693 2591.5 693 2591.5 693C2591.5 693 2591.5 693 2591.5 693C2591.5 693 2591.5 693 2591.49 693C2591.49 693 2591.49 693 2591.48 693V695ZM1869.75 696.982C1869.76 695.884 1870.65 695 1871.75 695V693C1869.56 693 1867.77 694.769 1867.75 696.964L1869.75 696.982ZM1852.56 1063.75C1852.55 1063.7 1852.54 1063.65 1852.53 1063.61L1850.63 1064.24C1850.61 1064.2 1850.6 1064.15 1850.59 1064.1L1852.56 1063.75ZM1921.5 1093C1921.49 1093 1921.48 1093 1921.47 1093C1921.46 1093 1921.46 1093 1921.45 1093C1921.44 1093 1921.43 1093 1921.42 1093C1921.42 1093 1921.41 1093 1921.42 1093C1921.42 1093 1921.42 1093 1921.42 1093C1921.43 1093 1921.43 1093 1921.42 1093L1921.48 1095C1921.5 1095 1921.51 1095 1921.52 1095C1921.53 1095 1921.53 1095 1921.54 1095C1921.54 1095 1921.54 1095 1921.54 1095C1921.54 1095 1921.54 1095 1921.54 1095C1921.54 1095 1921.54 1095 1921.54 1095C1921.54 1095 1921.54 1095 1921.54 1095C1921.53 1095 1921.52 1095 1921.52 1095C1921.51 1095 1921.51 1095 1921.5 1095C1921.5 1095 1921.5 1095 1921.5 1095C1921.5 1095 1921.5 1095 1921.5 1095V1093ZM2788.73 1006.9C2788.21 1005.03 2786.43 1003.87 2784.56 1003.95L2784.65 1005.95C2785.67 1005.91 2786.55 1006.53 2786.81 1007.44L2788.73 1006.9ZM3739.25 1374.5C3738.53 1374.5 3737.86 1374.11 3737.51 1373.49L3735.77 1374.47C3736.48 1375.73 3737.81 1376.5 3739.25 1376.5V1374.5ZM2809.21 999.236C2809.08 998.458 2809.42 997.65 2810.1 997.163L2808.94 995.536C2807.67 996.442 2806.97 997.995 2807.24 999.576L2809.21 999.236ZM3219.73 381.496C3219.02 380.261 3217.7 379.5 3216.27 379.5V381.5C3216.98 381.5 3217.64 381.88 3218 382.498L3219.73 381.496ZM2812 1015.36C2811.98 1015.31 2811.98 1015.27 2811.97 1015.22L2810 1015.56C2810.01 1015.65 2810.03 1015.74 2810.05 1015.83L2812 1015.36ZM2752.43 920.052C2752.68 920.842 2752.41 921.731 2751.74 922.302L2753.04 923.825C2754.28 922.767 2754.84 921.053 2754.33 919.447L2752.43 920.052ZM3507.51 1105C3507.48 1105 3507.45 1105 3507.41 1105L3507.44 1107C3507.5 1107 3507.57 1107 3507.63 1106.99L3507.51 1105ZM3564.98 1073.43C3565.34 1074.08 3565.32 1074.88 3564.92 1075.49L3566.59 1076.59C3567.41 1075.34 3567.45 1073.74 3566.72 1072.44L3564.98 1073.43ZM3351.97 701.979C3352.92 701.442 3354.12 701.777 3354.67 702.748L3356.41 701.761C3355.33 699.852 3352.92 699.147 3350.99 700.238L3351.97 701.979ZM3176.41 384.487C3175.66 383.154 3176.62 381.5 3178.15 381.5V379.5C3175.09 379.5 3173.16 382.807 3174.67 385.474L3176.41 384.487ZM3336.34 674.624C3338.3 673.552 3339.01 671.08 3337.9 669.133L3336.16 670.12C3336.71 671.093 3336.36 672.331 3335.38 672.868L3336.34 674.624ZM2815.24 926.9C2816.41 928.119 2818.24 928.556 2819.85 927.856L2819.05 926.023C2818.26 926.367 2817.31 926.168 2816.68 925.51L2815.24 926.9ZM2781.13 910.335C2781.69 911.94 2783.19 912.976 2784.84 913.059L2784.94 911.062C2784.05 911.017 2783.3 910.463 2783.02 909.674L2781.13 910.335ZM2658.94 673.499C2658.98 673.5 2659.02 673.5 2659.07 673.499L2659.02 671.499C2659 671.5 2658.98 671.5 2658.96 671.5L2658.94 673.499ZM1851 669.515C1851 670.059 1850.56 670.5 1850.02 670.5V668.5C1849.45 668.5 1849 668.955 1849 669.515H1851ZM1850.02 670.53C1850.56 670.514 1851 670.064 1851 669.515H1849C1849 668.983 1849.42 668.547 1849.95 668.531L1850.02 670.53ZM1608.38 678.497C1608.48 678.499 1608.56 678.498 1608.66 678.494L1608.57 676.496C1608.51 676.498 1608.47 676.499 1608.42 676.498L1608.38 678.497ZM3641.19 1203.72C3640.65 1202.76 3639.73 1202.07 3638.66 1201.8L3638.18 1203.74C3638.72 1203.88 3639.18 1204.22 3639.45 1204.71L3641.19 1203.72ZM1498.41 891.5C1498.49 891.5 1498.56 891.498 1498.64 891.493L1498.51 889.497C1498.48 889.499 1498.45 889.5 1498.41 889.5V891.5ZM2353 1107H2353V1105C2353 1105 2353.01 1105 2353 1105C2353 1105 2353 1105 2353 1105L2353 1107ZM3614.47 1170.21C3616.09 1171.26 3617.85 1170.92 3618.93 1169.8C3619.99 1168.7 3620.32 1166.93 3619.39 1165.29L3617.65 1166.27C3618.14 1167.15 3617.93 1167.96 3617.49 1168.42C3617.07 1168.86 3616.36 1169.06 3615.56 1168.53L3614.47 1170.21ZM873.1 899.5C872.418 899.5 871.849 899.167 871.583 898.656L869.809 899.579C870.467 900.843 871.782 901.5 873.1 901.5V899.5ZM3579.38 1103.46C3580.34 1102.71 3581.75 1102.99 3582.35 1104.05L3584.09 1103.07C3582.88 1100.94 3580.07 1100.38 3578.15 1101.89L3579.38 1103.46ZM1541.23 878.333C1541.18 878.412 1541.14 878.474 1541.09 878.536L1542.66 879.773C1542.78 879.622 1542.88 879.473 1542.97 879.316L1541.23 878.333ZM1556.51 719.365C1556.5 719.416 1556.5 719.458 1556.5 719.497L1558.5 719.598C1558.5 719.574 1558.5 719.562 1558.5 719.55L1556.51 719.365ZM1542.99 853.149C1543 853.094 1543 853.046 1543 852.998L1541 852.889C1541 852.916 1541 852.934 1541 852.954L1542.99 853.149ZM2830.3 951.46C2828.7 952.175 2827.79 953.822 2827.9 955.513L2829.9 955.384C2829.84 954.471 2830.33 953.637 2831.11 953.286L2830.3 951.46ZM1851 682.177C1851 679.925 1849.14 678.117 1846.89 678.178L1846.95 680.178C1848.07 680.147 1849 681.051 1849 682.177H1851ZM1550 725.07C1550 725.068 1550 725.067 1550 725.065C1550 725.065 1550 725.062 1550 725.06C1550 725.053 1550 725.048 1550 725.041L1548 724.949C1548 724.953 1548 724.952 1548 724.951C1548 724.95 1548 724.951 1548 724.951C1548 724.951 1548 724.952 1548 724.953C1548 724.955 1548 724.957 1548 724.96L1550 725.07ZM1867 1001.54C1867 1001.52 1867 1001.51 1867 1001.49C1867 1001.49 1867 1001.49 1867 1001.49C1867 1001.48 1867 1001.48 1867 1001.48C1867 1001.48 1867 1001.48 1867 1001.48L1865 1001.46C1865 1001.47 1865 1001.47 1865 1001.48C1865 1001.48 1865 1001.48 1865 1001.48C1865 1001.48 1865 1001.48 1865 1001.48C1865 1001.48 1865 1001.48 1865 1001.48C1865 1001.48 1865 1001.47 1865 1001.47C1865 1001.47 1865 1001.47 1865 1001.48L1867 1001.54ZM3575.46 1103.99C3574.19 1104.97 3573.63 1106.62 3574.07 1108.18L3575.99 1107.65C3575.78 1106.88 3576.05 1106.06 3576.69 1105.56L3575.46 1103.99ZM2351.17 1121C2351.02 1121 2350.89 1121.01 2350.78 1121.01L2350.9 1123.01C2351.01 1123 2351.09 1123 2351.17 1123V1121ZM1496.99 897C1496.98 897 1496.98 897 1496.98 897C1496.98 897 1496.98 897 1496.98 897C1496.97 897 1496.97 897 1496.97 897C1496.97 897 1496.97 897 1496.96 897L1496.97 899C1496.99 899 1497.01 899 1497.05 898.999L1496.99 897ZM2706.03 695.799C2706.06 695.853 2706.08 695.912 2706.11 695.979L2708 695.318C2707.95 695.187 2707.9 695.053 2707.83 694.918L2706.03 695.799ZM1926.57 1108C1926.5 1108 1926.44 1108 1926.36 1108.01L1926.49 1110C1926.52 1110 1926.55 1110 1926.59 1110L1926.57 1108ZM3516.03 1129.99C3515.95 1130 3515.88 1130 3515.81 1130.01L3515.87 1132C3516.01 1132 3516.15 1131.99 3516.28 1131.97L3516.03 1129.99ZM3284.49 706.369C3284.52 706.356 3284.54 706.341 3284.57 706.323C3284.58 706.316 3284.59 706.309 3284.59 706.308C3284.59 706.306 3284.6 706.303 3284.6 706.299L3283.5 704.633C3283.48 704.642 3283.47 704.649 3283.47 704.654C3283.47 704.655 3283.46 704.656 3283.46 704.657C3283.46 704.657 3283.46 704.658 3283.46 704.658C3283.46 704.659 3283.46 704.658 3283.46 704.657C3283.46 704.656 3283.47 704.654 3283.47 704.652C3283.47 704.651 3283.47 704.649 3283.47 704.649C3283.48 704.648 3283.47 704.649 3283.47 704.655L3284.49 706.369ZM1852.58 1063.92C1852.58 1063.86 1852.57 1063.8 1852.56 1063.74L1850.59 1064.1C1850.58 1064.04 1850.58 1063.98 1850.58 1063.92H1852.58ZM2751.93 1103C2751.97 1103 2752 1103 2752.04 1103L2752.11 1101C2752.04 1101 2751.98 1101 2751.91 1101L2751.93 1103ZM3790.53 1371.5C3791.3 1372.83 3790.34 1374.5 3788.8 1374.5V1376.5C3791.88 1376.5 3793.8 1373.16 3792.26 1370.5L3790.53 1371.5ZM871.551 892.289C871.823 891.809 872.375 891.5 873.033 891.5V889.5C871.765 889.5 870.491 890.106 869.812 891.3L871.551 892.289ZM1852.53 1063.61C1852.56 1063.71 1852.58 1063.82 1852.58 1063.92H1850.58C1850.58 1064.03 1850.59 1064.14 1850.63 1064.24L1852.53 1063.61ZM3061.39 822.422C3061.39 822.421 3061.39 822.422 3061.39 822.422C3061.39 822.422 3061.39 822.422 3061.39 822.422C3061.39 822.422 3061.39 822.422 3061.39 822.422C3061.39 822.422 3061.39 822.422 3061.39 822.422C3061.39 822.422 3061.39 822.422 3061.39 822.422C3061.39 822.422 3061.39 822.422 3061.39 822.421C3061.39 822.42 3061.4 822.418 3061.4 822.416C3061.4 822.415 3061.41 822.414 3061.41 822.413L3060.59 820.587C3060.59 820.587 3060.59 820.587 3060.59 820.587C3060.59 820.586 3060.59 820.586 3060.6 820.585C3060.6 820.585 3060.6 820.584 3060.6 820.584C3060.6 820.583 3060.6 820.583 3060.6 820.583C3060.6 820.584 3060.6 820.584 3060.6 820.585C3060.59 820.586 3060.59 820.587 3060.59 820.589L3061.39 822.422Z" fill="#989898"/>
</g>
<path id="VEGETA&#195;&#135;&#195;&#131;O" d="M1581.5 1361.5C1567.12 1337.11 1604.96 1304.85 1581.5 1289C1564.15 1277.28 1545.22 1280.59 1528 1292.5C1505.28 1308.21 1528.03 1338.66 1512.5 1361.5C1481.71 1406.79 1428.76 1382.8 1374 1383.5C1314.41 1384.27 1282.54 1364.1 1223 1361.5C1197.25 1360.38 1182.32 1366.31 1157 1361.5C1124.98 1355.41 1100.98 1352.75 1081 1327C1061.73 1302.16 1069.2 1279.22 1065.5 1248C1059.73 1199.33 1117.5 1144.5 1065.5 1122.5C1013.5 1100.5 873.82 1122.5 751 1122.5C711.557 1122.5 669.386 1156.85 650 1122.5C639.06 1103.11 650 1087.76 650 1065.5V829.5C650 829.5 668.05 779.06 650 757.5C643.18 749.354 638.365 743.83 628 741.5C605.908 736.533 608.209 774.568 587 782.5C555.818 794.162 518.167 783.833 505.5 757.5C492.833 731.167 467.5 675.4 467.5 663C467.5 650.6 440.255 610.655 442.5 575C445.547 526.605 492.7 480.4 505.5 468C518.3 455.6 576.431 463.508 603 433C625.724 406.907 640.791 380.149 628 348C619.68 327.088 606.395 318.918 587 307.5C546.784 283.824 467.5 307.5 467.5 307.5C467.5 307.5 392.267 316.582 360.5 348C334.297 373.916 319.5 433 319.5 433V559V757.5C319.5 797.9 346.833 847.667 360.5 867.5C374.167 887.333 395.329 1008.32 401.5 1100.5C405.347 1157.97 401.5 1190.4 401.5 1248C401.5 1300.92 386.522 1332.75 401.5 1383.5C415.396 1430.59 431.745 1456.86 467.5 1490.5C527.544 1547 588.48 1535.78 669 1553.5C775.205 1576.87 946 1582 946 1582H1201H1449.5C1449.5 1582 1564.66 1588.38 1638 1582C1705.06 1576.17 1780 1559.5 1808 1553.5C1830.4 1548.7 1905.67 1534.83 1940.5 1528.5C1975.33 1522.17 2033.54 1490.41 2034.5 1440C2034.94 1416.79 2028.35 1403.16 2016 1383.5C1972.79 1314.72 1888.45 1394.75 1808 1383.5C1767.08 1377.78 1745.56 1366.14 1704.5 1361.5C1656.77 1356.1 1605.89 1402.88 1581.5 1361.5Z" fill="#00693E" fill-opacity="0.4"/>
<g id="interativo">
<g id="Gitem12">
<path id="item12" fill-rule="evenodd" clip-rule="evenodd" d="M2996.78 994.928C2997.28 993.941 2996.88 992.738 2995.89 992.242L2892.25 940.141C2891.26 939.645 2890.06 940.043 2889.57 941.03L2864.16 991.562C2863.67 992.549 2864.06 993.751 2865.05 994.247L2885.25 1004.4C2886.23 1004.9 2886.63 1006.1 2886.14 1007.08L2863.9 1051.32C2863.4 1052.31 2863.8 1053.51 2864.79 1054L2918.16 1080.84C2919.15 1081.33 2920.35 1080.93 2920.85 1079.95L2943.08 1035.71C2943.58 1034.73 2944.78 1034.33 2945.77 1034.82L2968.69 1046.35C2969.68 1046.84 2970.88 1046.45 2971.38 1045.46L2996.78 994.928Z" fill="#2F7B9A"/>
</g>
<g id="Gitem11">
<rect id="item11" x="1916" y="905" width="119" height="56" rx="2" fill="#2F7B9A"/>
</g>
<g id="Gitem10">
<path id="item10" fill-rule="evenodd" clip-rule="evenodd" d="M2071 967C2071 965.895 2071.9 965 2073 965H2147C2148.1 965 2149 965.895 2149 967V987C2149 988.105 2149.9 989 2151 989H2161C2162.1 989 2163 989.895 2163 991V1051C2163 1052.1 2162.1 1053 2161 1053H2151C2149.9 1053 2149 1053.9 2149 1055V1059C2149 1060.1 2148.1 1061 2147 1061H2073C2071.9 1061 2071 1060.1 2071 1059V1034C2071 1032.9 2070.1 1032 2069 1032H2061C2059.9 1032 2059 1031.1 2059 1030V981C2059 979.895 2059.9 979 2061 979H2069C2070.1 979 2071 978.105 2071 977V967Z" fill="#2F7B9A"/>
</g>
<g id="Gitem9">
<rect id="item9" x="1693" y="826" width="105" height="50" rx="2" fill="#2F7B9A"/>
</g>
<g id="Gitem8">
<rect id="item8" x="1737" y="705" width="61" height="38" rx="2" fill="#2F7B9A"/>
</g>
<g id="Gitem7">
<rect id="item7" x="1309" y="838" width="61" height="38" rx="2" fill="#2F7B9A"/>
</g>
<g id="Gitem3">
<rect id="item3" x="1660" y="856" width="20" height="35" rx="2" fill="#2F7B9A"/>
</g>
<g id="Gitem2">
<rect id="item2" x="1693" y="891" width="105" height="50" rx="2" fill="#2F7B9A"/>
</g>
<g id="Gitem1">
<rect id="item1" x="1693" y="961" width="105" height="52" rx="2" fill="#2F7B9A"/>
</g>
</g>
<g id="ret&#195;&#162;ngulo 4">
<rect id="item4" x="1717" y="1016" width="20" height="11" rx="2" fill="#2F7B9A"/>
</g>
<g id="ret&#195;&#162;ngulo 6">
<rect id="item6" x="1640" y="795" width="20" height="15" rx="2" fill="#2F7B9A"/>
</g>
<g id="ESTACIONAMENTOS">
<rect id="Rectangle 233" x="1679.5" y="1045.5" width="136" height="51" rx="2.5" fill="#EAEAEA" stroke="#989898"/>
<rect id="Rectangle 234" x="1883.5" y="975.5" width="143" height="91" rx="2.5" fill="#EAEAEA" stroke="#989898"/>
<rect id="Rectangle 235" x="1877.5" y="851.5" width="35" height="109" rx="2.5" fill="#EAEAEA" stroke="#989898"/>
</g>
<path id="ESTACIONAMENTO" fill-rule="evenodd" clip-rule="evenodd" d="M1949.5 1034C1956.96 1034 1963 1027.96 1963 1020.5C1963 1013.04 1956.96 1007 1949.5 1007C1942.04 1007 1936 1013.04 1936 1020.5C1936 1027.96 1942.04 1034 1949.5 1034ZM1948 1012H1956V1015H1948V1019H1955V1022H1948V1027H1956V1030H1947V1030H1944V1015V1012H1948Z" fill="#152238"/>
<path id="ESTACIONAMENTO_2" fill-rule="evenodd" clip-rule="evenodd" d="M1895.5 916C1902.96 916 1909 909.956 1909 902.5C1909 895.044 1902.96 889 1895.5 889C1888.04 889 1882 895.044 1882 902.5C1882 909.956 1888.04 916 1895.5 916ZM1894 894H1902V897H1894V901H1901V904H1894V909H1902V912H1893V912H1890V897V894H1894Z" fill="#152238"/>
<path id="ESTACIONAMENTO_3" fill-rule="evenodd" clip-rule="evenodd" d="M1745.5 1088C1752.96 1088 1759 1081.96 1759 1074.5C1759 1067.04 1752.96 1061 1745.5 1061C1738.04 1061 1732 1067.04 1732 1074.5C1732 1081.96 1738.04 1088 1745.5 1088ZM1744 1066H1752V1069H1744V1073H1751V1076H1744V1081H1752V1084H1743V1084H1740V1069V1066H1744Z" fill="#152238"/>
<path id="Vector 111" d="M2251.5 1041.5C2251.5 1041.5 2240.87 1035.29 2233.5 1030.5C2209.41 1014.85 2173 1008.5 2173 1008.5M2245 1045.5C2245 1045.5 2235.79 1048.36 2230 1050.5C2212.71 1056.88 2202 1059.62 2187.5 1071C2180.44 1076.54 2171 1087 2171 1087M2171 1087L2168 1002.5C2168 986.293 2171.5 970 2168 965.5C2164.5 961 2150 961 2150 961H2064.5M2171 1087H2042.5C2042.5 1087 1915.5 1087 1905.5 1087C1895.5 1087 1886.49 1080.8 1880 1071C1875.91 1064.82 1874 1053 1874 1053V1023V986.5M2164.5 1071C2164.5 1071 2051.5 1075 2042.5 1071C2033.5 1067 2032 1067.5 2030.5 1060C2029 1052.5 2030.5 968.5 2030.5 968.5C2030.5 968.5 1882.5 970 1874 972.5C1865.5 975 1875.5 979.5 1868 986.5C1860.5 993.5 1811.5 986.5 1811.5 986.5M2037 975H2062.5M2037 938L2064.5 968.5M1753.5 1044L1749.5 1020.5M1686.5 834C1686.5 834 1672.89 828.68 1668 834M1668 834C1663.51 838.888 1668 851 1668 851M1668 834C1668 834 1663.42 808.045 1668 792.5C1673.38 774.255 1686.71 769.311 1696.5 753C1706.88 735.701 1713.34 717.239 1719 706.5C1724.66 695.761 1723.34 696.739 1729 686M1686.5 841.5L1690 1015.5H1805.5V1007.5L1809 836.5C1809 836.5 1810 820.5 1805.5 820.5C1801 820.5 1668 820.5 1668 820.5M2037 968.5V899.5H1913.5M2259.5 1041.5C2259.5 1041.5 2288.07 1040.95 2306 1044C2326.76 1047.53 2357.5 1060 2357.5 1060C2357.5 1060 2382.68 1066.94 2389.5 1080C2395.74 1091.94 2373 1114.5 2389.5 1114.5C2406 1114.5 2572 1114.5 2572 1114.5L2876.5 1105H3009C3009 1105 2975 1054.5 2979 1045.5C2983 1036.5 3005.5 995.5 3004 988C3002.5 980.5 2898.5 929.5 2888 931M2888 931C2877.5 932.5 2867.5 970.5 2867.5 970.5M2888 931L2870.5 898L2846 908C2846 908 2827.23 920.149 2814.5 918C2803.5 916.142 2801.35 905.099 2790.5 902.5C2771.42 897.93 2747 925 2744 921.5C2741 918 2700.96 778 2669 702.5H2606H2239.5L1926.5 699C1926.5 699 1896.25 694.701 1885.5 702.5C1880.32 706.262 1880 700 1875.5 715.5C1871 731 1874 863 1874 863V965.5M2888 931C2888 931 2846 951 2838 954C2830 957 2834 970.5 2834 970.5C2834 970.5 2816.44 988.988 2814.5 1004C2812.97 1015.81 2819.23 1022.11 2820 1034C2821.2 1052.44 2823.49 1064.85 2814.5 1081C2808.05 1092.58 2790.5 1105 2790.5 1105M1801.5 885H1691.5M1694 955H1801.5M1844 680C1844 680 1849.96 763.263 1847 816.5C1845.51 843.33 1841.41 858.144 1840.5 885C1839.99 900.027 1839.09 908.531 1840.5 923.5C1841.35 932.545 1842.94 937.477 1844 946.5C1847.65 977.528 1844 1026.5 1844 1026.5C1844 1026.5 1845.82 1040.15 1840.5 1045.5C1836.54 1049.49 1827 1050.5 1827 1050.5H1816M1812.5 885H1836" stroke="#FA8334" stroke-width="4" stroke-linecap="round" stroke-linejoin="round" stroke-dasharray="2 8"/>
<g id="Group 18">
<path id="Vector 62" d="M2204.25 1062.01V1059.44H2207.97V1062.01C2207.97 1062.01 2207.97 1063.17 2205.97 1063.17C2203.98 1063.17 2204.25 1062.01 2204.25 1062.01Z" fill="#152238"/>
<path id="Vector 63" d="M2219.18 1062.01V1059.44H2222.9V1062.01C2222.9 1062.01 2222.9 1063.17 2220.91 1063.17C2218.91 1063.17 2219.18 1062.01 2219.18 1062.01Z" fill="#152238"/>
<path id="Exclude" fill-rule="evenodd" clip-rule="evenodd" d="M2204.58 1037.3C2204.58 1037.3 2204.19 1037.64 2203.99 1037.89C2203.74 1038.22 2203.48 1038.8 2203.48 1038.8L2202.37 1047.37V1059.46H2225V1047.37L2223.89 1038.8C2223.89 1038.8 2223.67 1038.21 2223.42 1037.89C2223.21 1037.63 2222.79 1037.3 2222.79 1037.3C2222.79 1037.3 2219.75 1035.17 2213.82 1035.17C2207.9 1035.17 2204.58 1037.3 2204.58 1037.3ZM2208.77 1037.34C2208.77 1037.34 2208.26 1037.68 2208.26 1038.01C2208.25 1038.36 2208.77 1038.72 2208.77 1038.72H2218.6C2218.6 1038.72 2219.16 1038.36 2219.16 1038.01C2219.15 1037.67 2218.6 1037.34 2218.6 1037.34H2208.77ZM2206.16 1040.11H2221.29C2221.29 1040.11 2221.7 1040.21 2221.88 1040.38C2222.11 1040.6 2222.2 1041.13 2222.2 1041.13L2223.18 1047.85C2223.18 1047.85 2223.1 1048.34 2222.87 1048.52C2222.66 1048.68 2222.2 1048.68 2222.2 1048.68H2204.82C2204.82 1048.68 2204.61 1048.61 2204.5 1048.52C2204.3 1048.34 2204.31 1047.85 2204.31 1047.85L2205.25 1041.13C2205.25 1041.13 2205.28 1040.61 2205.49 1040.38C2205.69 1040.18 2206.16 1040.11 2206.16 1040.11ZM2207.47 1054.32C2207.47 1055.2 2206.76 1055.9 2205.89 1055.9C2205.01 1055.9 2204.31 1055.2 2204.31 1054.32C2204.31 1053.45 2205.01 1052.74 2205.89 1052.74C2206.76 1052.74 2207.47 1053.45 2207.47 1054.32ZM2221.6 1055.9C2222.48 1055.9 2223.18 1055.2 2223.18 1054.32C2223.18 1053.45 2222.48 1052.74 2221.6 1052.74C2220.73 1052.74 2220.02 1053.45 2220.02 1054.32C2220.02 1055.2 2220.73 1055.9 2221.6 1055.9Z" fill="#152238"/>
</g>
<g id="Group 19">
<path id="Vector 62_2" d="M1830.88 926.838V924.266H1834.6V926.838C1834.6 926.838 1834.6 927.999 1832.6 927.999C1830.61 927.999 1830.88 926.838 1830.88 926.838Z" fill="#152238"/>
<path id="Vector 63_2" d="M1845.81 926.838V924.266H1849.53V926.838C1849.53 926.838 1849.53 927.999 1847.54 927.999C1845.54 927.999 1845.81 926.838 1845.81 926.838Z" fill="#152238"/>
<path id="Exclude_2" fill-rule="evenodd" clip-rule="evenodd" d="M1831.21 902.133C1831.21 902.133 1830.82 902.468 1830.62 902.725C1830.37 903.046 1830.11 903.633 1830.11 903.633L1829 912.203V924.288H1851.63V912.203L1850.52 903.633C1850.52 903.633 1850.3 903.04 1850.05 902.725C1849.84 902.459 1849.42 902.133 1849.42 902.133C1849.42 902.133 1846.38 900 1840.45 900C1834.53 900 1831.21 902.133 1831.21 902.133ZM1835.4 902.172C1835.4 902.172 1834.89 902.514 1834.88 902.844C1834.88 903.186 1835.4 903.555 1835.4 903.555H1845.23C1845.23 903.555 1845.79 903.195 1845.78 902.844C1845.78 902.504 1845.23 902.172 1845.23 902.172H1835.4ZM1832.79 904.937H1847.92C1847.92 904.937 1848.33 905.037 1848.51 905.213C1848.74 905.433 1848.83 905.964 1848.83 905.964L1849.81 912.678C1849.81 912.678 1849.73 913.171 1849.5 913.349C1849.28 913.515 1848.83 913.507 1848.83 913.507H1831.45C1831.45 913.507 1831.24 913.441 1831.13 913.349C1830.93 913.166 1830.94 912.678 1830.94 912.678L1831.88 905.964C1831.88 905.964 1831.91 905.436 1832.12 905.213C1832.32 905.008 1832.79 904.937 1832.79 904.937ZM1834.09 919.154C1834.09 920.027 1833.39 920.734 1832.52 920.734C1831.64 920.734 1830.94 920.027 1830.94 919.154C1830.94 918.282 1831.64 917.575 1832.52 917.575C1833.39 917.575 1834.09 918.282 1834.09 919.154ZM1848.23 920.734C1849.11 920.734 1849.81 920.027 1849.81 919.154C1849.81 918.282 1849.11 917.575 1848.23 917.575C1847.36 917.575 1846.65 918.282 1846.65 919.154C1846.65 920.027 1847.36 920.734 1848.23 920.734Z" fill="#152238"/>
</g>
<g id="Group">
<path id="Vector" fill-rule="evenodd" clip-rule="evenodd" d="M2911.22 1002.06C2911.47 1002.18 2911.66 1002.43 2911.64 1002.71C2911.37 1008.7 2910.96 1009.53 2909.4 1019.13C2908.02 1027.94 2915.68 1029.06 2914.8 1019.4C2913.86 1009.67 2913.68 1008.82 2913.57 1002.79C2913.56 1002.52 2913.74 1002.28 2913.99 1002.18C2915.34 1001.64 2916.45 1000.44 2916.43 998.244L2916.06 987.343C2916.08 986.688 2916.09 986.196 2915.9 985.856C2915.69 985.502 2915.25 985.794 2915.24 986.197L2915.01 997.857C2914.99 998.49 2914.05 998.443 2914.06 997.81L2914.4 985.681C2914.4 985.445 2914.22 985.244 2913.98 985.232C2913.75 985.221 2913.55 985.402 2913.54 985.638L2913.21 997.768C2913.19 998.401 2912.15 998.349 2912.17 997.716L2912.5 985.539C2912.51 985.33 2912.34 985.151 2912.13 985.141C2911.92 985.13 2911.75 985.292 2911.74 985.502L2911.41 997.679C2911.39 998.312 2910.44 998.265 2910.46 997.632L2910.78 985.97C2910.79 985.569 2910.36 985.239 2910.16 985.583C2909.97 985.904 2909.97 986.393 2909.9 987.038L2908.93 997.979C2908.88 1000.07 2909.91 1001.44 2911.22 1002.06Z" fill="#152238"/>
<path id="Vector_2" fill-rule="evenodd" clip-rule="evenodd" d="M2926.1 1005.09C2928.66 1004.69 2930.72 1001.73 2930.91 998.15C2931.02 994.038 2928.7 985.897 2925.68 985.747C2922.58 985.592 2919.92 993.274 2919.8 997.386C2919.7 1001.18 2921.5 1004.33 2924.12 1004.99C2923.76 1011.31 2923.51 1010.03 2922.02 1019.88C2920.56 1028.47 2927.98 1029.47 2927.2 1020.14C2926.15 1010.16 2926.02 1011.53 2926.1 1005.09L2926.1 1005.09Z" fill="#152238"/>
</g>
</g>
</svg>
