<svg width="3794" height="1985" viewBox="0 0 3794 1985" fill="none" xmlns="http://www.w3.org/2000/svg">
<g id="Cerro Largo">
<g id="RUAS">
<path fill-rule="evenodd" clip-rule="evenodd" d="M2940.77 432.523C2941.84 432.523 2942.83 433.093 2943.37 434.02L3515.89 1423.02C3517.05 1425.02 3515.61 1427.52 3513.3 1427.52H3463.75C3462.67 1427.52 3461.67 1426.94 3461.14 1426L3364.82 1256.23C3364.41 1255.51 3363.73 1254.99 3362.92 1254.8C3352.47 1252.22 3336.26 1247.42 3326 1240.52C3316.79 1234.33 3312.26 1226.7 3307.68 1218.99C3303.34 1211.68 3298.96 1204.3 3290.5 1198.02C3289.15 1197.02 3287.87 1196.05 3286.65 1195.12C3279.14 1189.42 3273.63 1185.24 3263.5 1183.02C3255.26 1181.22 3242.21 1182.8 3240.65 1183C3240.55 1183.02 3240.45 1183.02 3240.34 1183.03L3091 1187.52L2196 1192.02H2003C2002.84 1192.02 2002.68 1192.02 2002.51 1192.02L2002.3 1192.02C2002.2 1192.02 2002.1 1192.02 2002 1192.02C1987.33 1192.02 1974.24 1185.23 1965.72 1174.61C1963.52 1172.5 1961.86 1170.07 1960.25 1167.72C1956.79 1162.66 1953.62 1158.02 1946 1158.02H1907.5L1651.08 1161.02C1651.03 1161.02 1650.98 1161.02 1650.93 1161.03C1649.61 1161.11 1631.09 1162.15 1617 1158.02C1603.63 1154.1 1595.32 1150.3 1586.5 1139.52C1578.6 1129.87 1577.07 1121.46 1576.08 1115.95C1576.08 1115.95 1576.08 1115.95 1576.08 1115.95V1115.95C1576.08 1115.95 1576.08 1115.95 1576.08 1115.94C1576.08 1115.94 1576.08 1115.94 1576.08 1115.94L1576 1115.52C1575 1110.02 1574.5 1101.97 1574.5 1098.52V847.523V746.023V734.199C1574.5 732.511 1573.11 731.155 1571.42 731.201L1337.53 737.522C1337.51 737.522 1337.51 737.523 1337.49 737.523C1336.82 737.528 1312.24 737.744 1302.5 743.023C1292.88 748.232 1291.25 750.79 1289.22 753.982C1288.71 754.773 1288.18 755.604 1287.5 756.523C1282.9 762.725 1282.06 770.826 1282 771.48C1282 771.512 1282 771.539 1282 771.57L1277.5 861.023C1276.36 872.976 1276.03 885.297 1275.77 894.776V894.778V894.779C1275.57 901.952 1275.42 907.496 1275 910.023C1274.01 915.966 1270.08 924.689 1266.6 930.847C1266.53 930.965 1266.46 931.071 1266.38 931.177C1265.42 932.396 1258.82 940.516 1250.5 944.523C1240.3 949.432 1222.18 950.003 1221.52 950.022C1221.5 950.023 1221.49 950.023 1221.47 950.023L801.5 952.523H597.6C596.6 952.523 595.658 952.028 595.196 951.14C594.601 949.997 593.907 948.35 594 947.023C594.073 945.976 594.661 944.732 595.181 943.817C595.657 942.98 596.57 942.523 597.533 942.523H801.5H1114.5H1222.91C1222.97 942.523 1223.02 942.522 1223.08 942.518C1224.21 942.445 1237.1 941.543 1244.5 938.023C1251.66 934.617 1255.99 932.048 1260.5 925.523C1265.07 918.904 1266.41 905.99 1266.49 905.074C1266.5 905.037 1266.5 905.004 1266.5 904.966L1273.5 777.038C1273.5 777.028 1273.5 777.028 1273.5 777.018C1273.51 776.699 1274.3 760.228 1280 752.023C1285.5 744.099 1289.85 739.799 1298.5 735.523C1311.35 729.167 1331.32 729.485 1332.9 729.52C1332.97 729.522 1333.04 729.521 1333.11 729.518L1377.5 727.523L1574.49 721.553C1574.49 721.553 1574.5 721.546 1574.5 721.538C1574.5 721.53 1574.51 721.523 1574.52 721.523H1575.5H1593.5H1719H2082L2383.45 724.522C2383.48 724.523 2383.51 724.522 2383.55 724.522C2384.67 724.496 2406.08 724.097 2416.5 730.023C2425.12 734.924 2430.76 746.005 2431.43 747.382C2431.48 747.476 2431.52 747.572 2431.55 747.671L2506.58 962.027C2507 963.224 2508.12 964.019 2509.39 964.083C2521.57 964.7 2532.52 970.004 2540.46 978.228C2541.36 979.167 2542.75 979.484 2543.95 978.962L2785.49 873.528C2785.5 873.524 2785.49 873.526 2785.5 873.522C2785.76 873.407 2859.93 840.252 2906 816.023C2946.37 794.792 3007.22 758.293 3008.48 757.535C3008.52 757.511 3008.51 757.515 3008.55 757.489C3009.74 756.697 3031.74 742.102 3046.5 733.523C3050.62 731.126 3055.81 728.25 3060.36 725.769C3061.83 724.964 3062.36 723.109 3061.53 721.649L2900.04 437.003C2898.91 435.003 2900.35 432.523 2902.65 432.523H2940.77ZM2553.4 1007.47C2553.32 1006.17 2554.02 1004.93 2555.21 1004.4C2560.95 1001.83 2568.3 998.543 2574 996.023C2592.89 987.673 2607.27 981.602 2622.17 975.314C2634.09 970.283 2646.35 965.112 2661.5 958.523C2676.48 952.01 2690.15 946.112 2703.03 940.555L2703.03 940.554C2754.12 918.517 2792.75 901.851 2851 873.523C2930.14 835.035 3043.49 771.485 3075.98 753.131C3077.42 752.317 3079.23 752.837 3080.04 754.277L3290.35 1124.96C3290.9 1125.93 3290.86 1127.13 3290.25 1128.06C3287.42 1132.38 3283.94 1137.38 3280.5 1141.52C3275.24 1147.86 3271.32 1151.42 3263.5 1154.02C3256.15 1156.47 3233.51 1157.93 3232.07 1158.02C3232.02 1158.02 3231.98 1158.02 3231.93 1158.02L2571 1166.52L2248 1174.02H2075.67C2075.56 1174.02 2075.45 1174.03 2075.34 1174.04C2074.14 1174.11 2066.58 1174.15 2067.5 1164.02C2068.04 1158.07 2077.42 1158.02 2077.5 1158.02C2077.5 1158.02 2077.5 1158.02 2077.5 1158.02H2120L2476.42 1154.02C2476.47 1154.02 2476.52 1154.02 2476.57 1154.03C2477.84 1154.07 2496.06 1154.62 2506.5 1150.02C2512.2 1147.51 2515.59 1145.93 2520 1141.52C2530.5 1131.02 2534.68 1114.15 2537.5 1097.52C2539.63 1084.97 2535.86 1069.02 2535.52 1067.62C2535.51 1067.55 2535.49 1067.49 2535.48 1067.41L2532.73 1051.43C2532.52 1050.25 2533.04 1049.07 2534.02 1048.37C2545.81 1039.94 2553.5 1026.13 2553.5 1010.52C2553.5 1009.5 2553.47 1008.48 2553.4 1007.47ZM2509.11 1056.98C2510.55 1056.91 2511.88 1057.8 2512.27 1059.19C2513.61 1064.02 2514.93 1069.5 2515.5 1074.02L2515.59 1074.76L2515.67 1075.4C2516.89 1085.05 2517.66 1091.18 2515.5 1101.02C2513.88 1108.39 2512.44 1112.59 2508.5 1119.02L2508.45 1119.1C2505.29 1124.25 2503.37 1127.39 2498.5 1131.02C2493.87 1134.47 2480.5 1137.02 2476.5 1137.02H2446H2111.5C2102.73 1137.02 2097.12 1132.17 2090.98 1126.84C2087.67 1123.98 2084.2 1120.97 2080 1118.52C2068 1111.52 2055 1104.57 2036.5 1100.52C2026.35 1098.3 2015.8 1097.33 2005 1097.02C1994.05 1096.71 1987.06 1097.13 1977 1098.52C1961.33 1100.69 1952.97 1105.12 1939 1112.52C1930.46 1117.05 1922.61 1123.61 1915.47 1129.59C1907 1136.67 1899.51 1142.94 1893 1144.02C1881.03 1146.02 1647.09 1146.02 1646 1146.02C1645.97 1146.02 1645.99 1146.02 1645.95 1146.02C1644.92 1146.05 1626.69 1146.53 1617 1142.02C1608.59 1138.11 1602.98 1135.01 1597.5 1127.52C1592.96 1121.32 1592.02 1116.62 1590.55 1109.26L1590.5 1109.02C1589.01 1101.58 1590.48 1054.24 1590.5 1053.53C1590.5 1053.51 1590.5 1053.51 1590.5 1053.49L1593.25 748.996C1593.27 747.349 1594.61 746.023 1596.25 746.023H2207H2315.98C2315.99 746.023 2315.99 746.023 2316 746.023C2316.44 746.017 2389.43 745.041 2394 746.023C2395.41 746.327 2396.71 746.519 2397.92 746.699L2397.92 746.699C2403.32 747.5 2406.91 748.035 2411 757.023C2415.84 767.663 2423.48 799.822 2423.97 801.915C2423.99 801.99 2424.01 802.059 2424.03 802.132L2477.88 971.772C2478.26 972.97 2477.85 974.272 2476.89 975.086C2466.86 983.615 2460.5 996.326 2460.5 1010.52C2460.5 1036.2 2481.32 1057.02 2507 1057.02C2507.71 1057.02 2508.41 1057.01 2509.11 1056.98ZM3307.72 1155.58C3306.81 1153.99 3304.71 1153.57 3303.26 1154.7L3300.57 1156.8C3299.62 1157.54 3299.2 1158.77 3299.53 1159.94C3301.06 1165.42 3305.68 1181.45 3310 1192.02C3314.88 1203.94 3324.48 1210.77 3334.85 1218.13C3335.73 1218.76 3336.61 1219.39 3337.5 1220.02C3338.17 1220.5 3338.84 1220.96 3339.51 1221.4C3341.94 1222.97 3344.44 1220.32 3343.02 1217.8L3307.72 1155.58ZM2531.5 1011.52C2531.5 1025.05 2520.53 1036.02 2507 1036.02C2493.47 1036.02 2482.5 1025.05 2482.5 1011.52C2482.5 997.992 2493.47 987.023 2507 987.023C2520.53 987.023 2531.5 997.992 2531.5 1011.52ZM2009 1173.02C2024.74 1173.02 2037.5 1160.26 2037.5 1144.52C2037.5 1128.78 2024.74 1116.02 2009 1116.02C1993.26 1116.02 1980.5 1128.78 1980.5 1144.52C1980.5 1160.26 1993.26 1173.02 2009 1173.02Z" fill="#D9D9D9"/>
<path d="M3326 1240.52L3326.56 1239.69L3326 1240.52ZM3307.68 1218.99L3306.82 1219.5V1219.5L3307.68 1218.99ZM3290.5 1198.02L3291.1 1197.22L3290.5 1198.02ZM3286.65 1195.12L3286.05 1195.92L3286.65 1195.12ZM3263.5 1183.02L3263.71 1182.05L3263.5 1183.02ZM3091 1187.52L3091.01 1188.52C3091.01 1188.52 3091.02 1188.52 3091.03 1188.52L3091 1187.52ZM2196 1192.02V1193.02H2196.01L2196 1192.02ZM2002.51 1192.02L2002.53 1191.02C2002.52 1191.02 2002.51 1191.02 2002.51 1191.02L2002.51 1192.02ZM2002.3 1192.02L2002.31 1193.02L2002.31 1193.02L2002.3 1192.02ZM1965.72 1174.61L1966.5 1173.99C1966.47 1173.95 1966.45 1173.92 1966.41 1173.89L1965.72 1174.61ZM1960.25 1167.72L1961.08 1167.16H1961.08L1960.25 1167.72ZM1907.5 1158.02V1157.02L1907.49 1157.02L1907.5 1158.02ZM1617 1158.02L1617.28 1157.06L1617 1158.02ZM1586.5 1139.52L1587.27 1138.89L1586.5 1139.52ZM1576 1115.52L1576.98 1115.34L1576.98 1115.34L1576 1115.52ZM1302.5 743.023L1302.02 742.143L1302.5 743.023ZM1289.22 753.982L1288.37 753.444V753.445L1289.22 753.982ZM1287.5 756.523L1286.7 755.927H1286.7L1287.5 756.523ZM1277.5 861.023L1278.5 861.118C1278.5 861.103 1278.5 861.088 1278.5 861.073L1277.5 861.023ZM1275.77 894.776L1274.77 894.749C1274.77 894.758 1274.77 894.767 1274.77 894.776H1275.77ZM1275.77 894.779L1276.77 894.807C1276.77 894.797 1276.77 894.788 1276.77 894.779H1275.77ZM1275 910.023L1274.01 909.858V909.858L1275 910.023ZM1250.5 944.523L1250.93 945.424L1250.5 944.523ZM801.5 952.523V953.523H801.506L801.5 952.523ZM594 947.023L593.002 946.953H593.002L594 947.023ZM1244.5 938.023L1244.07 937.12L1244.5 938.023ZM1260.5 925.523L1259.68 924.954L1260.5 925.523ZM1280 752.023L1280.82 752.593L1280 752.023ZM1298.5 735.523L1298.94 736.419L1298.5 735.523ZM1377.5 727.523L1377.47 726.523C1377.46 726.523 1377.46 726.523 1377.45 726.524L1377.5 727.523ZM2082 721.523L2082.01 720.523H2082V721.523ZM2416.5 730.023L2416.01 730.892L2416.5 730.023ZM2906 816.023L2905.53 815.138V815.138L2906 816.023ZM3046.5 733.523L3046 732.658L3046.5 733.523ZM2574 996.023L2574.4 996.937L2574 996.023ZM2622.17 975.314L2622.56 976.236L2622.17 975.314ZM2661.5 958.523L2661.1 957.606L2661.5 958.523ZM2703.03 940.555L2703.43 941.473C2703.44 941.469 2703.45 941.465 2703.46 941.461L2703.03 940.555ZM2703.03 940.554L2702.64 939.635C2702.63 939.64 2702.62 939.644 2702.61 939.648L2703.03 940.554ZM2851 873.523L2850.56 872.623L2851 873.523ZM3280.5 1141.52L3279.73 1140.88L3280.5 1141.52ZM3263.5 1154.02L3263.18 1153.07L3263.5 1154.02ZM2571 1166.52L2570.99 1165.52L2570.98 1165.52L2571 1166.52ZM2248 1174.02V1175.02C2248.01 1175.02 2248.02 1175.02 2248.02 1175.02L2248 1174.02ZM2067.5 1164.02L2068.5 1164.11L2067.5 1164.02ZM2120 1158.02V1159.02L2120.01 1159.02L2120 1158.02ZM2506.5 1150.02L2506.1 1149.11L2506.5 1150.02ZM2537.5 1097.52L2536.51 1097.36L2537.5 1097.52ZM2515.5 1074.02L2514.51 1074.15V1074.15L2515.5 1074.02ZM2515.59 1074.76L2514.6 1074.89V1074.89L2515.59 1074.76ZM2515.67 1075.4L2516.67 1075.27L2515.67 1075.4ZM2515.5 1101.02L2516.48 1101.24L2515.5 1101.02ZM2508.5 1119.02L2509.35 1119.55L2509.35 1119.55L2508.5 1119.02ZM2508.45 1119.1L2507.6 1118.58L2507.6 1118.58L2508.45 1119.1ZM2498.5 1131.02L2499.1 1131.82L2498.5 1131.02ZM2090.98 1126.84L2090.32 1127.6L2090.98 1126.84ZM2080 1118.52L2079.5 1119.39L2080 1118.52ZM2036.5 1100.52L2036.71 1099.55L2036.5 1100.52ZM2005 1097.02L2004.97 1098.02L2005 1097.02ZM1977 1098.52L1977.14 1099.51L1977 1098.52ZM1939 1112.52L1938.53 1111.64L1939 1112.52ZM1915.47 1129.59L1914.82 1128.82L1915.47 1129.59ZM1893 1144.02L1893.16 1145.01L1893 1144.02ZM1617 1142.02L1617.42 1141.12L1617 1142.02ZM1597.5 1127.52L1596.69 1128.11V1128.11L1597.5 1127.52ZM1590.55 1109.26L1591.53 1109.07V1109.07L1590.55 1109.26ZM1590.5 1109.02L1589.52 1109.22V1109.22L1590.5 1109.02ZM2394 746.023L2394.21 745.045L2394 746.023ZM2397.92 746.699L2398.08 745.712C2398.08 745.711 2398.07 745.71 2398.07 745.71L2397.92 746.699ZM2397.92 746.699L2397.76 747.685C2397.76 747.686 2397.77 747.687 2397.77 747.688L2397.92 746.699ZM2411 757.023L2411.91 756.609V756.609L2411 757.023ZM3310 1192.02L3310.93 1191.64L3310 1192.02ZM3334.85 1218.13L3335.43 1217.32L3334.85 1218.13ZM3337.5 1220.02L3338.08 1219.21L3337.5 1220.02ZM2423.97 801.915L2424.95 801.685L2423.97 801.915ZM2424.03 802.132L2424.99 801.829L2424.03 802.132ZM1337.53 737.522L1337.56 738.521L1337.53 737.522ZM1337.49 737.523L1337.48 736.523L1337.49 737.523ZM2316 746.023L2315.99 745.023L2316 746.023ZM1593.25 748.996L1592.25 748.987L1593.25 748.996ZM1576.08 1115.95L1575.09 1116.12L1576.08 1115.95ZM1646 1146.02V1147.02V1146.02ZM1645.95 1146.02L1645.98 1147.02L1645.95 1146.02ZM2512.27 1059.19L2511.31 1059.46L2512.27 1059.19ZM2509.11 1056.98L2509.06 1055.98L2509.11 1056.98ZM3461.14 1426L3460.27 1426.5L3461.14 1426ZM2532.73 1051.43L2531.74 1051.6L2532.73 1051.43ZM2534.02 1048.37L2533.44 1047.56L2534.02 1048.37ZM2943.37 434.02L2942.5 434.521L2943.37 434.02ZM2535.52 1067.62L2534.55 1067.86L2535.52 1067.62ZM2535.48 1067.41L2536.47 1067.24L2535.48 1067.41ZM2477.88 971.772L2478.83 971.469L2477.88 971.772ZM2476.89 975.086L2476.24 974.324L2476.89 975.086ZM3232.07 1158.02L3232.01 1157.02L3232.07 1158.02ZM3231.93 1158.02L3231.94 1159.02L3231.93 1158.02ZM3290.35 1124.96L3291.22 1124.47L3290.35 1124.96ZM3290.25 1128.06L3291.09 1128.61L3290.25 1128.06ZM3075.98 753.131L3076.47 754.002L3075.98 753.131ZM3080.04 754.277L3080.91 753.784L3080.04 754.277ZM2900.04 437.003L2900.91 436.51L2900.04 437.003ZM3060.36 725.769L3059.88 724.891L3060.36 725.769ZM3061.53 721.649L3060.66 722.142L3061.53 721.649ZM2540.46 978.228L2541.18 977.533L2540.46 978.228ZM2543.95 978.962L2543.55 978.046L2543.95 978.962ZM2506.58 962.027L2507.52 961.697L2506.58 962.027ZM2509.39 964.083L2509.34 965.082L2509.39 964.083ZM2383.45 724.522L2383.44 725.522L2383.45 724.522ZM2383.55 724.522L2383.57 725.521L2383.55 724.522ZM1574.49 721.553L1574.45 720.554L1574.49 721.553ZM1332.9 729.52L1332.88 730.52L1332.9 729.52ZM1333.11 729.518L1333.07 728.519L1333.11 729.518ZM3364.82 1256.23L3363.95 1256.73L3364.82 1256.23ZM3362.92 1254.8L3362.68 1255.77L3362.92 1254.8ZM1223.08 942.518L1223.01 941.52L1223.08 942.518ZM2077.5 1158.02L2077.5 1157.02L2077.5 1158.02ZM3339.51 1221.4L3340.06 1220.56L3339.51 1221.4ZM3343.02 1217.8L3343.89 1217.31L3343.02 1217.8ZM595.196 951.14L594.309 951.602L595.196 951.14ZM3303.26 1154.7L3302.65 1153.91L3303.26 1154.7ZM3307.72 1155.58L3308.59 1155.09L3307.72 1155.58ZM1266.6 930.847L1265.73 930.355L1266.6 930.847ZM1266.38 931.177L1265.59 930.558L1266.38 931.177ZM1282 771.48L1283 771.573L1282 771.48ZM1282 771.57L1283 771.621L1282 771.57ZM1266.49 905.074L1267.49 905.172L1266.49 905.074ZM1266.5 904.966L1265.5 904.912L1266.5 904.966ZM2555.21 1004.4L2554.8 1003.48L2555.21 1004.4ZM1571.42 731.201L1571.39 730.201L1571.42 731.201ZM1273.5 777.038L1274.5 777.092L1273.5 777.038ZM1273.5 777.018L1272.5 776.972L1273.5 777.018ZM1590.5 1053.53L1591.5 1053.56L1590.5 1053.53ZM1590.5 1053.49L1589.5 1053.48L1590.5 1053.49ZM3300.57 1156.8L3299.96 1156.01L3300.57 1156.8ZM3299.53 1159.94L3300.49 1159.67L3299.53 1159.94ZM2075.34 1174.04L2075.4 1175.03L2075.34 1174.04ZM1221.52 950.022L1221.55 951.022L1221.52 950.022ZM1221.47 950.023L1221.46 949.023L1221.47 950.023ZM2431.43 747.382L2432.33 746.941L2431.43 747.382ZM2431.55 747.671L2432.5 747.341L2431.55 747.671ZM1651.08 1161.02L1651.07 1160.02L1651.08 1161.02ZM1650.93 1161.03L1650.99 1162.03L1650.93 1161.03ZM3240.65 1183L3240.53 1182.01L3240.65 1183ZM3240.34 1183.03L3240.37 1184.03L3240.34 1183.03ZM3008.48 757.535L3008.99 758.392L3008.48 757.535ZM3008.55 757.489L3009.1 758.322L3008.55 757.489ZM1576.08 1115.94L1575.09 1116.12L1576.08 1115.94ZM2476.42 1154.02L2476.41 1153.02L2476.42 1154.02ZM2476.57 1154.03L2476.54 1155.02L2476.57 1154.03ZM3515.89 1423.02L3516.76 1422.52L3515.89 1423.02ZM595.181 943.817L596.051 944.312L595.181 943.817ZM1576.08 1115.95L1575.13 1116.26L1576.08 1115.95ZM2785.49 873.528L2785.89 874.444L2785.49 873.528ZM2785.5 873.522L2785.91 874.435L2785.5 873.522ZM3516.76 1422.52L2944.23 433.519L2942.5 434.521L3515.03 1423.52L3516.76 1422.52ZM3463.75 1428.52H3513.3V1426.52H3463.75V1428.52ZM3363.95 1256.73L3460.27 1426.5L3462.01 1425.51L3365.69 1255.74L3363.95 1256.73ZM3325.44 1241.35C3335.87 1248.36 3352.23 1253.19 3362.68 1255.77L3363.16 1253.82C3352.71 1251.25 3336.66 1246.48 3326.56 1239.69L3325.44 1241.35ZM3306.82 1219.5C3311.4 1227.21 3316.03 1235.03 3325.44 1241.35L3326.56 1239.69C3317.56 1233.64 3313.12 1226.19 3308.54 1218.48L3306.82 1219.5ZM3289.9 1198.83C3298.18 1204.97 3302.48 1212.18 3306.82 1219.5L3308.54 1218.48C3304.2 1211.17 3299.73 1203.63 3291.1 1197.22L3289.9 1198.83ZM3286.05 1195.92C3287.27 1196.85 3288.54 1197.82 3289.9 1198.83L3291.1 1197.22C3289.75 1196.22 3288.48 1195.25 3287.26 1194.33L3286.05 1195.92ZM3263.29 1184C3273.19 1186.17 3278.55 1190.23 3286.05 1195.92L3287.26 1194.33C3279.74 1188.62 3274.08 1184.32 3263.71 1182.05L3263.29 1184ZM3240.78 1183.99C3241.54 1183.9 3245.16 1183.45 3249.61 1183.26C3254.08 1183.07 3259.3 1183.13 3263.29 1184L3263.71 1182.05C3259.46 1181.11 3254.03 1181.07 3249.53 1181.26C3245 1181.46 3241.32 1181.91 3240.53 1182.01L3240.78 1183.99ZM3091.03 1188.52L3240.37 1184.03L3240.31 1182.03L3090.97 1186.52L3091.03 1188.52ZM2196.01 1193.02L3091.01 1188.52L3090.99 1186.52L2195.99 1191.02L2196.01 1193.02ZM2003 1193.02H2196V1191.02H2003V1193.02ZM2002.5 1193.02C2002.67 1193.02 2002.83 1193.02 2003 1193.02V1191.02C2002.84 1191.02 2002.68 1191.02 2002.53 1191.02L2002.5 1193.02ZM2002.31 1193.02L2002.52 1193.02L2002.51 1191.02L2002.29 1191.02L2002.31 1193.02ZM2002 1193.02C2002.1 1193.02 2002.2 1193.02 2002.31 1193.02L2002.29 1191.02C2002.2 1191.02 2002.1 1191.02 2002 1191.02V1193.02ZM1964.94 1175.24C1973.65 1186.08 1987.01 1193.02 2002 1193.02V1191.02C1987.64 1191.02 1974.84 1184.38 1966.5 1173.99L1964.94 1175.24ZM1959.43 1168.29C1961.02 1170.62 1962.74 1173.14 1965.03 1175.33L1966.41 1173.89C1964.3 1171.86 1962.69 1169.51 1961.08 1167.16L1959.43 1168.29ZM1946 1159.02C1949.57 1159.02 1952.05 1160.1 1954.05 1161.74C1956.1 1163.43 1957.68 1165.73 1959.43 1168.29L1961.08 1167.16C1959.36 1164.65 1957.63 1162.1 1955.32 1160.2C1952.96 1158.26 1950.04 1157.02 1946 1157.02V1159.02ZM1907.5 1159.02H1946V1157.02H1907.5V1159.02ZM1651.09 1162.02L1907.51 1159.02L1907.49 1157.02L1651.07 1160.02L1651.09 1162.02ZM1616.72 1158.98C1630.99 1163.17 1649.68 1162.11 1650.99 1162.03L1650.86 1160.03C1649.54 1160.11 1631.18 1161.14 1617.28 1157.06L1616.72 1158.98ZM1585.73 1140.16C1594.73 1151.15 1603.25 1155.04 1616.72 1158.98L1617.28 1157.06C1604.01 1153.17 1595.92 1149.45 1587.27 1138.89L1585.73 1140.16ZM1575.09 1116.12C1576.1 1121.69 1577.66 1130.3 1585.73 1140.16L1587.27 1138.89C1579.54 1129.43 1578.05 1121.23 1577.06 1115.77L1575.09 1116.12ZM1575.13 1116.26L1577.03 1115.63V1115.63L1575.13 1116.26ZM1575.02 1115.7L1575.09 1116.12L1577.06 1115.77L1576.98 1115.34L1575.02 1115.7ZM1573.5 1098.52C1573.5 1102.02 1574 1110.13 1575.02 1115.7L1576.98 1115.34C1576 1109.92 1575.5 1101.93 1575.5 1098.52H1573.5ZM1573.5 847.523V1098.52H1575.5V847.523H1573.5ZM1573.5 746.023V847.523H1575.5V746.023H1573.5ZM1573.5 734.199V746.023H1575.5V734.199H1573.5ZM1337.56 738.521L1571.45 732.2L1571.39 730.201L1337.5 736.522L1337.56 738.521ZM1302.98 743.902C1305.28 742.652 1308.53 741.672 1312.19 740.916C1315.82 740.164 1319.79 739.646 1323.49 739.291C1330.89 738.58 1337.17 738.525 1337.49 738.523L1337.48 736.523C1337.13 736.525 1330.79 736.581 1323.3 737.3C1319.56 737.659 1315.51 738.185 1311.78 738.958C1308.06 739.727 1304.59 740.754 1302.02 742.143L1302.98 743.902ZM1290.06 754.52C1291.07 752.935 1291.93 751.594 1293.69 750C1295.47 748.387 1298.2 746.49 1302.98 743.902L1302.02 742.143C1297.18 744.765 1294.29 746.751 1292.34 748.518C1290.37 750.303 1289.4 751.837 1288.37 753.444L1290.06 754.52ZM1288.3 757.119C1289.01 756.168 1289.56 755.31 1290.06 754.52L1288.37 753.445C1287.87 754.237 1287.36 755.039 1286.7 755.927L1288.3 757.119ZM1283 771.573C1283.06 770.943 1283.88 763.084 1288.3 757.119L1286.7 755.927C1281.92 762.365 1281.07 770.709 1281.01 771.388L1283 771.573ZM1278.5 861.073L1283 771.621L1281 771.52L1276.5 860.973L1278.5 861.073ZM1276.77 894.804C1277.03 885.32 1277.36 873.032 1278.5 861.118L1276.5 860.928C1275.36 872.92 1275.03 885.275 1274.77 894.749L1276.77 894.804ZM1276.77 894.778V894.776H1274.77V894.778H1276.77ZM1276.77 894.779V894.778H1274.77V894.779H1276.77ZM1275.99 910.187C1276.42 907.573 1276.57 901.929 1276.77 894.807L1274.77 894.752C1274.57 901.974 1274.42 907.42 1274.01 909.858L1275.99 910.187ZM1267.47 931.339C1270.96 925.156 1274.97 916.308 1275.99 910.187L1274.01 909.858C1273.05 915.624 1269.19 924.223 1265.73 930.355L1267.47 931.339ZM1250.93 945.424C1259.48 941.309 1266.2 933.024 1267.16 931.796L1265.59 930.558C1264.64 931.767 1258.17 939.722 1250.07 943.622L1250.93 945.424ZM1221.55 951.022C1221.89 951.012 1226.63 950.863 1232.56 950.098C1238.47 949.337 1245.68 947.952 1250.93 945.424L1250.07 943.622C1245.12 946.003 1238.17 947.358 1232.3 948.114C1226.46 948.867 1221.8 949.014 1221.49 949.023L1221.55 951.022ZM801.506 953.523L1221.47 951.023L1221.46 949.023L801.494 951.523L801.506 953.523ZM597.6 953.523H801.5V951.523H597.6V953.523ZM593.002 946.953C592.943 947.8 593.135 948.684 593.39 949.462C593.649 950.251 593.996 951.001 594.309 951.602L596.083 950.679C595.801 950.136 595.504 949.491 595.29 948.839C595.073 948.176 594.964 947.573 594.997 947.092L593.002 946.953ZM594.312 943.323C593.787 944.247 593.092 945.663 593.002 946.953L594.997 947.092C595.053 946.289 595.536 945.216 596.051 944.312L594.312 943.323ZM801.5 941.523H597.533V943.523H801.5V941.523ZM1114.5 941.523H801.5V943.523H1114.5V941.523ZM1222.91 941.523H1114.5V943.523H1222.91V941.523ZM1244.07 937.12C1240.51 938.815 1235.55 939.904 1231.28 940.575C1227.03 941.243 1223.56 941.484 1223.01 941.52L1223.14 943.516C1223.72 943.478 1227.26 943.232 1231.59 942.551C1235.9 941.873 1241.09 940.751 1244.93 938.926L1244.07 937.12ZM1259.68 924.954C1255.32 931.268 1251.17 933.745 1244.07 937.12L1244.93 938.926C1252.15 935.49 1256.67 932.827 1261.32 926.091L1259.68 924.954ZM1265.5 904.977C1265.46 905.414 1265.11 908.828 1264.2 912.945C1263.29 917.094 1261.85 921.814 1259.68 924.954L1261.32 926.091C1263.72 922.612 1265.23 917.566 1266.15 913.374C1267.08 909.15 1267.44 905.65 1267.49 905.172L1265.5 904.977ZM1272.5 776.983L1265.5 904.912L1267.5 905.021L1274.5 777.092L1272.5 776.983ZM1279.18 751.452C1276.2 755.745 1274.55 762.101 1273.63 767.305C1272.71 772.546 1272.51 776.791 1272.5 776.972L1274.5 777.064C1274.51 776.926 1274.7 772.775 1275.6 767.651C1276.51 762.488 1278.1 756.505 1280.82 752.593L1279.18 751.452ZM1298.06 734.626C1289.23 738.993 1284.75 743.421 1279.18 751.452L1280.82 752.593C1286.25 744.776 1290.48 740.605 1298.94 736.419L1298.06 734.626ZM1332.92 728.52C1332.11 728.502 1326.68 728.414 1319.82 729.13C1312.99 729.845 1304.64 731.369 1298.06 734.626L1298.94 736.419C1305.21 733.321 1313.27 731.826 1320.03 731.119C1326.77 730.415 1332.11 730.503 1332.88 730.52L1332.92 728.52ZM1377.45 726.524L1333.07 728.519L1333.16 730.517L1377.54 728.522L1377.45 726.524ZM1574.45 720.554L1377.47 726.523L1377.53 728.522L1574.52 722.553L1574.45 720.554ZM1575.5 720.523H1574.52V722.523H1575.5V720.523ZM1593.5 720.523H1575.5V722.523H1593.5V720.523ZM1719 720.523H1593.5V722.523H1719V720.523ZM2082 720.523H1719V722.523H2082V720.523ZM2383.46 723.522L2082.01 720.523L2081.99 722.523L2383.44 725.522L2383.46 723.522ZM2416.99 729.153C2411.58 726.076 2403.43 724.684 2396.63 724.045C2389.78 723.402 2384.1 723.509 2383.52 723.522L2383.57 725.521C2384.11 725.509 2389.7 725.404 2396.44 726.036C2403.23 726.673 2411 728.043 2416.01 730.892L2416.99 729.153ZM2432.33 746.941C2431.98 746.223 2430.37 743.055 2427.76 739.438C2425.15 735.834 2421.49 731.707 2416.99 729.153L2416.01 730.892C2420.14 733.24 2423.6 737.104 2426.14 740.61C2428.66 744.103 2430.21 747.163 2430.53 747.822L2432.33 746.941ZM2507.52 961.697L2432.5 747.341L2430.61 748.002L2505.63 962.357L2507.52 961.697ZM2541.18 977.533C2533.07 969.134 2521.89 963.715 2509.44 963.084L2509.34 965.082C2521.26 965.685 2531.97 970.874 2539.74 978.922L2541.18 977.533ZM2785.09 872.611L2543.55 978.046L2544.35 979.879L2785.89 874.444L2785.09 872.611ZM2905.53 815.138C2859.5 839.349 2785.36 872.492 2785.09 872.609L2785.91 874.435C2786.16 874.323 2860.36 841.154 2906.47 816.908L2905.53 815.138ZM3007.97 756.677C3006.7 757.438 2945.87 793.923 2905.53 815.138L2906.47 816.908C2946.86 795.662 3007.74 759.148 3008.99 758.392L3007.97 756.677ZM3046 732.658C3031.21 741.255 3009.19 755.867 3008 756.656L3009.1 758.322C3010.3 757.527 3032.27 742.949 3047 734.387L3046 732.658ZM3059.88 724.891C3055.33 727.373 3050.13 730.255 3046 732.658L3047 734.387C3051.11 731.998 3056.3 729.126 3060.84 726.646L3059.88 724.891ZM2899.17 437.497L3060.66 722.142L3062.4 721.155L2900.91 436.51L2899.17 437.497ZM2940.77 431.523H2902.65V433.523H2940.77V431.523ZM2573.6 995.108C2567.89 997.629 2560.54 1000.91 2554.8 1003.48L2555.61 1005.31C2561.35 1002.74 2568.71 999.457 2574.4 996.937L2573.6 995.108ZM2621.78 974.393C2606.88 980.681 2592.49 986.755 2573.6 995.108L2574.4 996.937C2593.28 988.591 2607.66 982.524 2622.56 976.236L2621.78 974.393ZM2661.1 957.606C2645.95 964.193 2633.7 969.362 2621.78 974.393L2622.56 976.236C2634.48 971.204 2646.74 966.031 2661.9 959.44L2661.1 957.606ZM2702.64 939.637C2689.75 945.193 2676.08 951.092 2661.1 957.606L2661.9 959.44C2676.88 952.928 2690.55 947.03 2703.43 941.473L2702.64 939.637ZM2702.61 939.648L2702.61 939.65L2703.46 941.461L2703.46 941.459L2702.61 939.648ZM2850.56 872.623C2792.33 900.941 2753.72 917.6 2702.64 939.635L2703.43 941.472C2754.51 919.434 2793.16 902.761 2851.44 874.422L2850.56 872.623ZM3075.49 752.261C3042.99 770.616 2929.67 834.151 2850.56 872.623L2851.44 874.422C2930.61 835.919 3043.98 772.354 3076.47 754.002L3075.49 752.261ZM3291.22 1124.47L3080.91 753.784L3079.17 754.771L3289.48 1125.45L3291.22 1124.47ZM3281.27 1142.16C3284.74 1137.98 3288.25 1132.94 3291.09 1128.61L3289.42 1127.52C3286.59 1131.82 3283.13 1136.78 3279.73 1140.88L3281.27 1142.16ZM3263.82 1154.97C3271.88 1152.29 3275.94 1148.58 3281.27 1142.16L3279.73 1140.88C3274.54 1147.15 3270.76 1150.55 3263.18 1153.07L3263.82 1154.97ZM3232.13 1159.02C3232.86 1158.97 3238.89 1158.58 3245.67 1157.9C3252.4 1157.22 3260.01 1156.24 3263.82 1154.97L3263.18 1153.07C3259.63 1154.26 3252.25 1155.23 3245.47 1155.91C3238.73 1156.59 3232.72 1156.98 3232.01 1157.02L3232.13 1159.02ZM2571.01 1167.52L3231.94 1159.02L3231.91 1157.02L2570.99 1165.52L2571.01 1167.52ZM2248.02 1175.02L2571.02 1167.52L2570.98 1165.52L2247.98 1173.02L2248.02 1175.02ZM2075.67 1175.02H2248V1173.02H2075.67V1175.02ZM2066.5 1163.93C2066.02 1169.28 2067.78 1172.2 2070.08 1173.69C2072.28 1175.11 2074.73 1175.07 2075.4 1175.03L2075.28 1173.04C2074.74 1173.07 2072.82 1173.08 2071.17 1172.01C2069.62 1171.01 2068.06 1168.89 2068.5 1164.11L2066.5 1163.93ZM2077.5 1157.02C2077.42 1157.02 2074.94 1157.04 2072.37 1157.84C2069.86 1158.62 2066.83 1160.32 2066.5 1163.93L2068.5 1164.11C2068.71 1161.78 2070.64 1160.47 2072.97 1159.75C2074.1 1159.39 2075.23 1159.21 2076.09 1159.12C2076.94 1159.02 2077.51 1159.02 2077.5 1159.02L2077.5 1157.02ZM2120 1157.02H2077.5V1159.02H2120V1157.02ZM2476.41 1153.02L2119.99 1157.02L2120.01 1159.02L2476.43 1155.02L2476.41 1153.02ZM2506.1 1149.11C2501.04 1151.33 2494.03 1152.34 2488.03 1152.77C2482.06 1153.19 2477.22 1153.05 2476.61 1153.03L2476.54 1155.02C2477.19 1155.05 2482.1 1155.2 2488.17 1154.76C2494.21 1154.33 2501.52 1153.31 2506.9 1150.94L2506.1 1149.11ZM2519.29 1140.82C2515.02 1145.08 2511.78 1146.61 2506.1 1149.11L2506.9 1150.94C2512.63 1148.42 2516.16 1146.77 2520.71 1142.23L2519.29 1140.82ZM2536.51 1097.36C2533.69 1114 2529.54 1130.57 2519.29 1140.82L2520.71 1142.23C2531.46 1131.48 2535.67 1114.29 2538.49 1097.69L2536.51 1097.36ZM2534.55 1067.86C2534.9 1069.26 2538.61 1085.03 2536.51 1097.36L2538.49 1097.69C2540.66 1084.91 2536.83 1068.77 2536.5 1067.38L2534.55 1067.86ZM2531.74 1051.6L2534.5 1067.58L2536.47 1067.24L2533.71 1051.26L2531.74 1051.6ZM2552.5 1010.52C2552.5 1025.79 2544.98 1039.3 2533.44 1047.56L2534.6 1049.19C2546.65 1040.57 2554.5 1026.46 2554.5 1010.52H2552.5ZM2552.4 1007.54C2552.47 1008.52 2552.5 1009.52 2552.5 1010.52H2554.5C2554.5 1009.48 2554.47 1008.44 2554.4 1007.41L2552.4 1007.54ZM2516.49 1073.9C2515.92 1069.3 2514.58 1063.77 2513.23 1058.92L2511.31 1059.46C2512.64 1064.28 2513.95 1069.69 2514.51 1074.15L2516.49 1073.9ZM2516.59 1074.64L2516.49 1073.9L2514.51 1074.15L2514.6 1074.89L2516.59 1074.64ZM2516.67 1075.27L2516.59 1074.64L2514.6 1074.89L2514.68 1075.52L2516.67 1075.27ZM2516.48 1101.24C2518.68 1091.22 2517.88 1084.94 2516.67 1075.27L2514.68 1075.52C2515.9 1085.16 2516.65 1091.15 2514.52 1100.81L2516.48 1101.24ZM2509.35 1119.55C2513.37 1113 2514.84 1108.68 2516.48 1101.24L2514.52 1100.81C2512.92 1108.09 2511.52 1112.19 2507.65 1118.5L2509.35 1119.55ZM2509.31 1119.62L2509.35 1119.55L2507.65 1118.5L2507.6 1118.58L2509.31 1119.62ZM2499.1 1131.82C2504.13 1128.07 2506.14 1124.79 2509.31 1119.62L2507.6 1118.58C2504.44 1123.72 2502.6 1126.72 2497.9 1130.22L2499.1 1131.82ZM2476.5 1138.02C2478.62 1138.02 2483.05 1137.36 2487.5 1136.29C2489.74 1135.75 2492.01 1135.09 2494.02 1134.35C2496.02 1133.62 2497.83 1132.77 2499.1 1131.82L2497.9 1130.22C2496.86 1131 2495.26 1131.76 2493.33 1132.48C2491.41 1133.18 2489.22 1133.82 2487.03 1134.34C2482.63 1135.41 2478.38 1136.02 2476.5 1136.02V1138.02ZM2446 1138.02H2476.5V1136.02H2446V1138.02ZM2111.5 1138.02H2446V1136.02H2111.5V1138.02ZM2090.32 1127.6C2096.43 1132.89 2102.3 1138.02 2111.5 1138.02V1136.02C2103.15 1136.02 2097.81 1131.44 2091.63 1126.09L2090.32 1127.6ZM2079.5 1119.39C2083.61 1121.78 2087.01 1124.73 2090.32 1127.6L2091.63 1126.09C2088.33 1123.23 2084.8 1120.16 2080.5 1117.66L2079.5 1119.39ZM2036.29 1101.5C2054.63 1105.51 2067.53 1112.4 2079.5 1119.39L2080.5 1117.66C2068.47 1110.64 2055.37 1103.63 2036.71 1099.55L2036.29 1101.5ZM2004.97 1098.02C2015.73 1098.32 2026.21 1099.3 2036.29 1101.5L2036.71 1099.55C2026.48 1097.31 2015.87 1096.33 2005.03 1096.02L2004.97 1098.02ZM1977.14 1099.51C1987.14 1098.13 1994.08 1097.72 2004.97 1098.02L2005.03 1096.02C1994.03 1095.71 1986.98 1096.13 1976.86 1097.53L1977.14 1099.51ZM1939.47 1113.41C1953.43 1106 1961.66 1101.66 1977.14 1099.51L1976.86 1097.53C1961.01 1099.73 1952.51 1104.23 1938.53 1111.64L1939.47 1113.41ZM1916.11 1130.36C1923.27 1124.37 1931.03 1117.88 1939.47 1113.41L1938.53 1111.64C1929.88 1116.23 1921.95 1122.86 1914.82 1128.82L1916.11 1130.36ZM1893.16 1145.01C1896.64 1144.43 1900.29 1142.49 1904.07 1139.88C1907.86 1137.26 1911.88 1133.89 1916.11 1130.36L1914.82 1128.82C1910.58 1132.37 1906.63 1135.68 1902.93 1138.23C1899.22 1140.8 1895.87 1142.53 1892.84 1143.04L1893.16 1145.01ZM1646 1147.02C1646.55 1147.02 1705.31 1147.02 1765.42 1146.77C1795.48 1146.65 1825.89 1146.46 1849.52 1146.18C1861.34 1146.04 1871.47 1145.87 1879.02 1145.68C1886.52 1145.49 1891.58 1145.27 1893.16 1145.01L1892.84 1143.04C1891.43 1143.27 1886.56 1143.49 1878.97 1143.68C1871.43 1143.87 1861.31 1144.04 1849.5 1144.18C1825.87 1144.46 1795.47 1144.65 1765.42 1144.77C1705.3 1145.02 1646.55 1145.02 1646 1145.02V1147.02ZM1616.58 1142.93C1621.6 1145.26 1628.74 1146.28 1634.65 1146.72C1640.59 1147.17 1645.45 1147.04 1645.98 1147.02L1645.92 1145.02C1645.42 1145.04 1640.65 1145.16 1634.8 1144.73C1628.91 1144.29 1622.09 1143.29 1617.42 1141.12L1616.58 1142.93ZM1596.69 1128.11C1602.32 1135.81 1608.12 1139 1616.58 1142.93L1617.42 1141.12C1609.05 1137.23 1603.63 1134.21 1598.31 1126.93L1596.69 1128.11ZM1589.57 1109.46C1591.04 1116.83 1592.01 1121.72 1596.69 1128.11L1598.31 1126.93C1593.91 1120.92 1593 1116.42 1591.53 1109.07L1589.57 1109.46ZM1589.52 1109.22L1589.57 1109.46L1591.53 1109.07L1591.48 1108.83L1589.52 1109.22ZM1589.5 1053.5C1589.49 1053.86 1589.12 1065.88 1588.93 1078.74C1588.84 1085.17 1588.8 1091.82 1588.87 1097.33C1588.94 1102.79 1589.13 1107.25 1589.52 1109.22L1591.48 1108.83C1591.13 1107.08 1590.94 1102.83 1590.87 1097.3C1590.8 1091.82 1590.84 1085.19 1590.93 1078.77C1591.12 1065.92 1591.49 1053.92 1591.5 1053.56L1589.5 1053.5ZM1592.25 748.987L1589.5 1053.48L1591.5 1053.5L1594.25 749.005L1592.25 748.987ZM2207 745.023H1596.25V747.023H2207V745.023ZM2315.98 745.023H2207V747.023H2315.98V745.023ZM2394.21 745.045C2393.84 744.965 2393.21 744.909 2392.44 744.863C2391.63 744.815 2390.6 744.775 2389.38 744.741C2386.94 744.673 2383.7 744.631 2379.95 744.608C2372.45 744.561 2362.88 744.591 2353.44 744.652C2334.57 744.774 2316.21 745.02 2315.99 745.023L2316.02 747.023C2316.23 747.02 2334.59 746.774 2353.46 746.652C2362.89 746.591 2372.45 746.561 2379.94 746.608C2383.68 746.631 2386.9 746.673 2389.33 746.74C2390.54 746.774 2391.55 746.813 2392.32 746.859C2393.11 746.906 2393.59 746.958 2393.79 747L2394.21 745.045ZM2398.07 745.71C2396.86 745.53 2395.59 745.341 2394.21 745.045L2393.79 747C2395.24 747.312 2396.57 747.509 2397.77 747.688L2398.07 745.71ZM2398.08 745.712L2398.08 745.712L2397.75 747.685L2397.76 747.685L2398.08 745.712ZM2411.91 756.609C2409.83 752.035 2407.81 749.458 2405.5 747.953C2403.2 746.457 2400.73 746.105 2398.07 745.71L2397.77 747.688C2400.51 748.094 2402.53 748.41 2404.41 749.629C2406.26 750.838 2408.08 753.023 2410.09 757.437L2411.91 756.609ZM2424.95 801.685C2424.7 800.635 2422.66 792.061 2420.08 782.416C2417.51 772.803 2414.37 762.019 2411.91 756.609L2410.09 757.436C2412.47 762.667 2415.57 773.282 2418.15 782.933C2420.72 792.55 2422.75 801.103 2423 802.146L2424.95 801.685ZM2478.83 971.469L2424.99 801.829L2423.08 802.434L2476.93 972.074L2478.83 971.469ZM2461.5 1010.52C2461.5 996.632 2467.72 984.195 2477.54 975.848L2476.24 974.324C2466 983.036 2459.5 996.021 2459.5 1010.52H2461.5ZM2507 1056.02C2481.87 1056.02 2461.5 1035.65 2461.5 1010.52H2459.5C2459.5 1036.76 2480.77 1058.02 2507 1058.02V1056.02ZM2509.06 1055.98C2508.38 1056.01 2507.69 1056.02 2507 1056.02V1058.02C2507.72 1058.02 2508.44 1058.01 2509.15 1057.97L2509.06 1055.98ZM3301.19 1157.58L3303.88 1155.49L3302.65 1153.91L3299.96 1156.01L3301.19 1157.58ZM3310.93 1191.64C3306.63 1181.14 3302.03 1165.15 3300.49 1159.67L3298.57 1160.21C3300.1 1165.68 3304.73 1181.77 3309.07 1192.4L3310.93 1191.64ZM3335.43 1217.32C3325.02 1209.93 3315.67 1203.26 3310.93 1191.64L3309.07 1192.4C3314.08 1204.63 3323.94 1211.61 3334.27 1218.95L3335.43 1217.32ZM3338.08 1219.21C3337.19 1218.57 3336.31 1217.94 3335.43 1217.32L3334.27 1218.95C3335.15 1219.57 3336.03 1220.2 3336.92 1220.84L3338.08 1219.21ZM3340.06 1220.56C3339.4 1220.13 3338.74 1219.68 3338.08 1219.21L3336.92 1220.84C3337.6 1221.33 3338.29 1221.79 3338.97 1222.23L3340.06 1220.56ZM3306.85 1156.08L3342.15 1218.3L3343.89 1217.31L3308.59 1155.09L3306.85 1156.08ZM2507 1037.02C2521.08 1037.02 2532.5 1025.61 2532.5 1011.52H2530.5C2530.5 1024.5 2519.98 1035.02 2507 1035.02V1037.02ZM2481.5 1011.52C2481.5 1025.61 2492.92 1037.02 2507 1037.02V1035.02C2494.02 1035.02 2483.5 1024.5 2483.5 1011.52H2481.5ZM2507 986.023C2492.92 986.023 2481.5 997.439 2481.5 1011.52H2483.5C2483.5 998.544 2494.02 988.023 2507 988.023V986.023ZM2532.5 1011.52C2532.5 997.439 2521.08 986.023 2507 986.023V988.023C2519.98 988.023 2530.5 998.544 2530.5 1011.52H2532.5ZM2036.5 1144.52C2036.5 1159.71 2024.19 1172.02 2009 1172.02V1174.02C2025.29 1174.02 2038.5 1160.82 2038.5 1144.52H2036.5ZM2009 1117.02C2024.19 1117.02 2036.5 1129.33 2036.5 1144.52H2038.5C2038.5 1128.23 2025.29 1115.02 2009 1115.02V1117.02ZM1981.5 1144.52C1981.5 1129.33 1993.81 1117.02 2009 1117.02V1115.02C1992.71 1115.02 1979.5 1128.23 1979.5 1144.52H1981.5ZM2009 1172.02C1993.81 1172.02 1981.5 1159.71 1981.5 1144.52H1979.5C1979.5 1160.82 1992.71 1174.02 2009 1174.02V1172.02ZM2423 802.146C2423.03 802.245 2423.05 802.339 2423.08 802.434L2424.99 801.829C2424.97 801.779 2424.96 801.734 2424.95 801.685L2423 802.146ZM1337.5 736.522C1337.5 736.522 1337.49 736.523 1337.49 736.523C1337.49 736.523 1337.49 736.523 1337.48 736.523C1337.48 736.523 1337.48 736.523 1337.48 736.523C1337.48 736.523 1337.48 736.523 1337.48 736.523C1337.48 736.523 1337.48 736.523 1337.48 736.523L1337.49 738.523C1337.51 738.523 1337.52 738.523 1337.53 738.522C1337.54 738.522 1337.54 738.522 1337.55 738.522C1337.55 738.522 1337.55 738.522 1337.56 738.521L1337.5 736.522ZM2315.98 747.023C2315.98 747.023 2315.98 747.023 2315.98 747.023C2315.98 747.023 2315.98 747.023 2315.98 747.023C2315.98 747.023 2315.98 747.023 2315.98 747.023C2315.98 747.023 2315.98 747.023 2315.98 747.023C2315.99 747.023 2316 747.023 2316 747.023C2316.01 747.023 2316.01 747.023 2316.02 747.023L2315.99 745.023C2315.99 745.023 2315.99 745.023 2315.99 745.023C2315.99 745.023 2315.99 745.023 2315.99 745.023C2316 745.023 2316 745.023 2316 745.023C2316 745.023 2316 745.023 2316 745.023C2316 745.023 2316 745.023 2315.99 745.023C2315.99 745.023 2315.99 745.023 2315.98 745.023V747.023ZM1594.25 749.005C1594.26 747.907 1595.15 747.023 1596.25 747.023V745.023C1594.06 745.023 1592.27 746.792 1592.25 748.987L1594.25 749.005ZM1577.06 1115.77C1577.05 1115.72 1577.04 1115.67 1577.03 1115.63L1575.13 1116.26C1575.11 1116.22 1575.1 1116.17 1575.09 1116.12L1577.06 1115.77ZM1646 1145.02C1645.99 1145.02 1645.98 1145.02 1645.97 1145.02C1645.96 1145.02 1645.96 1145.02 1645.95 1145.02C1645.94 1145.02 1645.93 1145.02 1645.92 1145.02C1645.92 1145.02 1645.91 1145.03 1645.92 1145.03C1645.92 1145.02 1645.92 1145.02 1645.92 1145.02C1645.93 1145.02 1645.93 1145.02 1645.92 1145.02L1645.98 1147.02C1646 1147.02 1646.01 1147.02 1646.02 1147.02C1646.03 1147.02 1646.03 1147.02 1646.04 1147.02C1646.04 1147.02 1646.04 1147.02 1646.04 1147.02C1646.04 1147.02 1646.04 1147.02 1646.04 1147.02C1646.04 1147.02 1646.04 1147.02 1646.04 1147.02C1646.04 1147.02 1646.04 1147.02 1646.04 1147.02C1646.03 1147.02 1646.02 1147.02 1646.02 1147.02C1646.01 1147.02 1646.01 1147.02 1646 1147.02C1646 1147.02 1646 1147.02 1646 1147.02C1646 1147.02 1646 1147.02 1646 1147.02V1145.02ZM2513.23 1058.92C2512.71 1057.05 2510.93 1055.89 2509.06 1055.98L2509.15 1057.97C2510.17 1057.93 2511.05 1058.56 2511.31 1059.46L2513.23 1058.92ZM3463.75 1426.52C3463.03 1426.52 3462.36 1426.14 3462.01 1425.51L3460.27 1426.5C3460.98 1427.75 3462.31 1428.52 3463.75 1428.52V1426.52ZM2533.71 1051.26C2533.58 1050.48 2533.92 1049.67 2534.6 1049.19L2533.44 1047.56C2532.17 1048.46 2531.47 1050.02 2531.74 1051.6L2533.71 1051.26ZM2944.23 433.519C2943.52 432.283 2942.2 431.523 2940.77 431.523V433.523C2941.48 433.523 2942.14 433.903 2942.5 434.521L2944.23 433.519ZM2536.5 1067.38C2536.48 1067.33 2536.48 1067.29 2536.47 1067.24L2534.5 1067.58C2534.51 1067.68 2534.53 1067.76 2534.55 1067.86L2536.5 1067.38ZM2476.93 972.074C2477.18 972.865 2476.91 973.754 2476.24 974.324L2477.54 975.848C2478.78 974.789 2479.34 973.076 2478.83 971.469L2476.93 972.074ZM3232.01 1157.02C3231.98 1157.02 3231.95 1157.02 3231.91 1157.02L3231.94 1159.02C3232 1159.02 3232.07 1159.02 3232.13 1159.02L3232.01 1157.02ZM3289.48 1125.45C3289.84 1126.1 3289.82 1126.9 3289.42 1127.52L3291.09 1128.61C3291.91 1127.36 3291.95 1125.76 3291.22 1124.47L3289.48 1125.45ZM3076.47 754.002C3077.42 753.465 3078.62 753.8 3079.17 754.771L3080.91 753.784C3079.83 751.875 3077.42 751.169 3075.49 752.261L3076.47 754.002ZM2900.91 436.51C2900.16 435.176 2901.12 433.523 2902.65 433.523V431.523C2899.59 431.523 2897.66 434.83 2899.17 437.497L2900.91 436.51ZM3060.84 726.646C3062.8 725.574 3063.51 723.102 3062.4 721.155L3060.66 722.142C3061.21 723.115 3060.86 724.353 3059.88 724.891L3060.84 726.646ZM2539.74 978.922C2540.91 980.142 2542.74 980.579 2544.35 979.879L2543.55 978.046C2542.76 978.39 2541.81 978.191 2541.18 977.533L2539.74 978.922ZM2505.63 962.357C2506.19 963.962 2507.69 964.998 2509.34 965.082L2509.44 963.084C2508.55 963.039 2507.8 962.486 2507.52 961.697L2505.63 962.357ZM2383.44 725.522C2383.48 725.523 2383.52 725.522 2383.57 725.521L2383.52 723.522C2383.5 723.522 2383.48 723.522 2383.46 723.522L2383.44 725.522ZM1575.5 721.538C1575.5 722.082 1575.06 722.523 1574.52 722.523V720.523C1573.95 720.523 1573.5 720.977 1573.5 721.538H1575.5ZM1574.52 722.553C1575.06 722.536 1575.5 722.087 1575.5 721.538H1573.5C1573.5 721.006 1573.92 720.57 1574.45 720.554L1574.52 722.553ZM1332.88 730.52C1332.98 730.522 1333.06 730.521 1333.16 730.517L1333.07 728.519C1333.01 728.521 1332.97 728.522 1332.92 728.52L1332.88 730.52ZM3365.69 1255.74C3365.15 1254.78 3364.23 1254.09 3363.16 1253.82L3362.68 1255.77C3363.22 1255.9 3363.68 1256.25 3363.95 1256.73L3365.69 1255.74ZM1222.91 943.523C1222.99 943.523 1223.06 943.521 1223.14 943.516L1223.01 941.52C1222.98 941.522 1222.95 941.523 1222.91 941.523V943.523ZM2077.5 1159.02H2077.5V1157.02C2077.5 1157.02 2077.51 1157.02 2077.5 1157.02C2077.5 1157.02 2077.5 1157.02 2077.5 1157.02L2077.5 1159.02ZM3338.97 1222.23C3340.59 1223.29 3342.35 1222.94 3343.43 1221.83C3344.49 1220.72 3344.82 1218.95 3343.89 1217.31L3342.15 1218.3C3342.64 1219.17 3342.43 1219.98 3341.99 1220.44C3341.57 1220.88 3340.86 1221.08 3340.06 1220.56L3338.97 1222.23ZM597.6 951.523C596.918 951.523 596.349 951.189 596.083 950.679L594.309 951.602C594.967 952.866 596.282 953.523 597.6 953.523V951.523ZM3303.88 1155.49C3304.84 1154.73 3306.25 1155.01 3306.85 1156.08L3308.59 1155.09C3307.38 1152.97 3304.57 1152.41 3302.65 1153.91L3303.88 1155.49ZM1265.73 930.355C1265.68 930.435 1265.64 930.497 1265.59 930.558L1267.16 931.796C1267.28 931.645 1267.38 931.495 1267.47 931.339L1265.73 930.355ZM1281.01 771.388C1281 771.439 1281 771.481 1281 771.52L1283 771.621C1283 771.596 1283 771.585 1283 771.573L1281.01 771.388ZM1267.49 905.172C1267.5 905.117 1267.5 905.069 1267.5 905.021L1265.5 904.912C1265.5 904.939 1265.5 904.957 1265.5 904.977L1267.49 905.172ZM2554.8 1003.48C2553.2 1004.2 2552.29 1005.85 2552.4 1007.54L2554.4 1007.41C2554.34 1006.49 2554.83 1005.66 2555.61 1005.31L2554.8 1003.48ZM1575.5 734.199C1575.5 731.948 1573.64 730.14 1571.39 730.201L1571.45 732.2C1572.57 732.17 1573.5 733.074 1573.5 734.199H1575.5ZM1274.5 777.092C1274.5 777.091 1274.5 777.089 1274.5 777.088C1274.5 777.087 1274.5 777.085 1274.5 777.082C1274.5 777.076 1274.5 777.071 1274.5 777.064L1272.5 776.972C1272.5 776.975 1272.5 776.975 1272.5 776.973C1272.5 776.973 1272.5 776.973 1272.5 776.974C1272.5 776.974 1272.5 776.974 1272.5 776.975C1272.5 776.977 1272.5 776.98 1272.5 776.983L1274.5 777.092ZM1591.5 1053.56C1591.5 1053.55 1591.5 1053.53 1591.5 1053.52C1591.5 1053.51 1591.5 1053.51 1591.5 1053.51C1591.5 1053.51 1591.5 1053.51 1591.5 1053.5C1591.5 1053.5 1591.5 1053.5 1591.5 1053.5L1589.5 1053.48C1589.5 1053.49 1589.5 1053.49 1589.5 1053.5C1589.5 1053.5 1589.5 1053.5 1589.5 1053.5C1589.5 1053.51 1589.5 1053.51 1589.5 1053.5C1589.5 1053.5 1589.5 1053.5 1589.5 1053.5C1589.5 1053.5 1589.5 1053.5 1589.5 1053.5C1589.5 1053.5 1589.5 1053.5 1589.5 1053.5L1591.5 1053.56ZM3299.96 1156.01C3298.69 1157 3298.13 1158.65 3298.57 1160.21L3300.49 1159.67C3300.28 1158.9 3300.55 1158.08 3301.19 1157.58L3299.96 1156.01ZM2075.67 1173.02C2075.52 1173.02 2075.39 1173.03 2075.28 1173.04L2075.4 1175.03C2075.51 1175.03 2075.59 1175.02 2075.67 1175.02V1173.02ZM1221.49 949.023C1221.48 949.023 1221.48 949.023 1221.48 949.023C1221.48 949.023 1221.48 949.023 1221.48 949.023C1221.47 949.023 1221.47 949.023 1221.47 949.023C1221.47 949.023 1221.47 949.023 1221.46 949.023L1221.47 951.023C1221.49 951.023 1221.51 951.023 1221.55 951.022L1221.49 949.023ZM2430.53 747.822C2430.56 747.876 2430.58 747.935 2430.61 748.002L2432.5 747.341C2432.45 747.209 2432.4 747.075 2432.33 746.941L2430.53 747.822ZM1651.07 1160.02C1651 1160.02 1650.94 1160.02 1650.86 1160.03L1650.99 1162.03C1651.02 1162.02 1651.05 1162.02 1651.09 1162.02L1651.07 1160.02ZM3240.53 1182.01C3240.45 1182.02 3240.38 1182.03 3240.31 1182.03L3240.37 1184.03C3240.51 1184.02 3240.65 1184.01 3240.78 1183.99L3240.53 1182.01ZM3008.99 758.392C3009.02 758.379 3009.04 758.364 3009.07 758.346C3009.08 758.339 3009.09 758.332 3009.09 758.331C3009.09 758.329 3009.1 758.326 3009.1 758.322L3008 756.656C3007.98 756.665 3007.97 756.671 3007.97 756.676C3007.97 756.678 3007.96 756.679 3007.96 756.679C3007.96 756.68 3007.96 756.681 3007.96 756.681C3007.96 756.682 3007.96 756.681 3007.96 756.68C3007.96 756.678 3007.97 756.677 3007.97 756.675C3007.97 756.673 3007.97 756.672 3007.97 756.672C3007.98 756.671 3007.97 756.672 3007.97 756.677L3008.99 758.392ZM1577.08 1115.94C1577.08 1115.89 1577.07 1115.83 1577.06 1115.77L1575.09 1116.12C1575.08 1116.06 1575.08 1116 1575.08 1115.94H1577.08ZM2476.43 1155.02C2476.47 1155.02 2476.5 1155.02 2476.54 1155.02L2476.61 1153.03C2476.54 1153.02 2476.48 1153.02 2476.41 1153.02L2476.43 1155.02ZM3515.03 1423.52C3515.8 1424.85 3514.84 1426.52 3513.3 1426.52V1428.52C3516.38 1428.52 3518.3 1425.19 3516.76 1422.52L3515.03 1423.52ZM596.051 944.312C596.323 943.832 596.875 943.523 597.533 943.523V941.523C596.265 941.523 594.991 942.129 594.312 943.323L596.051 944.312ZM1577.03 1115.63C1577.06 1115.73 1577.08 1115.84 1577.08 1115.94H1575.08C1575.08 1116.05 1575.09 1116.16 1575.13 1116.26L1577.03 1115.63ZM2785.89 874.444C2785.89 874.444 2785.89 874.444 2785.89 874.445C2785.89 874.445 2785.89 874.445 2785.89 874.445C2785.89 874.445 2785.89 874.445 2785.89 874.445C2785.89 874.445 2785.89 874.445 2785.89 874.445C2785.89 874.445 2785.89 874.445 2785.89 874.445C2785.89 874.445 2785.89 874.444 2785.89 874.444C2785.89 874.443 2785.9 874.441 2785.9 874.439C2785.9 874.438 2785.91 874.436 2785.91 874.435L2785.09 872.609C2785.09 872.61 2785.09 872.61 2785.09 872.609C2785.09 872.609 2785.09 872.609 2785.1 872.608C2785.1 872.607 2785.1 872.607 2785.1 872.606C2785.1 872.606 2785.1 872.606 2785.1 872.606C2785.1 872.606 2785.1 872.607 2785.1 872.608C2785.09 872.609 2785.09 872.61 2785.09 872.611L2785.89 874.444Z" fill="#989898"/>
</g>
<path id="VEGETA&#195;&#135;&#195;&#131;O" d="M1306 1413.52C1291.62 1389.13 1329.46 1356.87 1306 1341.02C1288.65 1329.3 1269.72 1332.61 1252.5 1344.52C1229.78 1360.23 1252.53 1390.68 1237 1413.52C1206.21 1458.81 1153.26 1434.82 1098.5 1435.52C1038.91 1436.29 1007.04 1416.12 947.5 1413.52C921.75 1412.4 906.821 1418.33 881.5 1413.52C849.478 1407.44 825.482 1404.77 805.5 1379.02C786.226 1354.18 793.704 1331.24 790 1300.02C784.226 1251.35 842 1196.52 790 1174.52C738 1152.52 598.32 1174.52 475.5 1174.52C436.057 1174.52 393.886 1208.87 374.5 1174.52C363.56 1155.14 374.5 1139.78 374.5 1117.52V881.523C374.5 881.523 392.55 831.082 374.5 809.523C367.68 801.377 362.865 795.853 352.5 793.523C330.408 788.555 332.709 826.591 311.5 834.523C280.318 846.184 242.667 835.856 230 809.523C217.333 783.189 192 727.423 192 715.023C192 702.623 164.755 662.678 167 627.023C170.047 578.627 217.2 532.423 230 520.023C242.8 507.623 300.931 515.53 327.5 485.023C350.224 458.93 365.291 432.172 352.5 400.023C344.18 379.111 330.895 370.941 311.5 359.523C271.284 335.847 192 359.523 192 359.523C192 359.523 116.767 368.604 85 400.023C58.7968 425.939 44 485.023 44 485.023V611.023V809.523C44 849.923 71.3333 899.689 85 919.523C98.6667 939.356 119.829 1060.34 126 1152.52C129.847 1210 126 1242.42 126 1300.02C126 1352.94 111.022 1384.77 126 1435.52C139.896 1482.61 156.245 1508.88 192 1542.52C252.044 1599.02 312.98 1587.8 393.5 1605.52C499.705 1628.89 670.5 1634.02 670.5 1634.02H925.5H1174C1174 1634.02 1289.16 1640.4 1362.5 1634.02C1429.56 1628.19 1504.5 1611.52 1532.5 1605.52C1554.9 1600.72 1630.17 1586.86 1665 1580.52C1699.83 1574.19 1758.04 1542.43 1759 1492.02C1759.44 1468.81 1752.85 1455.18 1740.5 1435.52C1697.29 1366.74 1612.95 1446.77 1532.5 1435.52C1491.58 1429.8 1470.06 1418.17 1429 1413.52C1381.27 1408.12 1330.39 1454.9 1306 1413.52Z" fill="#0C7047" fill-opacity="0.4"/>
<g id="interativo">
<g id="Gitem12">
<path id="item12" fill-rule="evenodd" clip-rule="evenodd" d="M2721.28 1046.95C2721.78 1045.96 2721.38 1044.76 2720.39 1044.27L2616.75 992.164C2615.76 991.668 2614.56 992.065 2614.07 993.052L2588.66 1043.58C2588.17 1044.57 2588.56 1045.77 2589.55 1046.27L2609.75 1056.42C2610.73 1056.92 2611.13 1058.12 2610.64 1059.11L2588.4 1103.34C2587.9 1104.33 2588.3 1105.53 2589.29 1106.03L2642.66 1132.86C2643.65 1133.35 2644.85 1132.96 2645.35 1131.97L2667.58 1087.73C2668.08 1086.75 2669.28 1086.35 2670.27 1086.85L2693.19 1098.37C2694.18 1098.87 2695.38 1098.47 2695.88 1097.48L2721.28 1046.95Z" fill="#2F7B9A"/>
</g>
<g id="Gitem11">
<rect id="item11" x="1640.5" y="957.023" width="119" height="56" rx="2" fill="#2F7B9A"/>
</g>
<g id="Gitem10">
<path id="item10" fill-rule="evenodd" clip-rule="evenodd" d="M1795.5 1019.02C1795.5 1017.92 1796.4 1017.02 1797.5 1017.02H1871.5C1872.6 1017.02 1873.5 1017.92 1873.5 1019.02V1039.02C1873.5 1040.13 1874.4 1041.02 1875.5 1041.02H1885.5C1886.6 1041.02 1887.5 1041.92 1887.5 1043.02V1103.02C1887.5 1104.13 1886.6 1105.02 1885.5 1105.02H1875.5C1874.4 1105.02 1873.5 1105.92 1873.5 1107.02V1111.02C1873.5 1112.13 1872.6 1113.02 1871.5 1113.02H1797.5C1796.4 1113.02 1795.5 1112.13 1795.5 1111.02V1086.02C1795.5 1084.92 1794.6 1084.02 1793.5 1084.02H1785.5C1784.4 1084.02 1783.5 1083.13 1783.5 1082.02V1033.02C1783.5 1031.92 1784.4 1031.02 1785.5 1031.02H1793.5C1794.6 1031.02 1795.5 1030.13 1795.5 1029.02V1019.02Z" fill="#2F7B9A"/>
</g>
<g id="Gitem9">
<rect id="item9" x="1417.5" y="878.023" width="105" height="50" rx="2" fill="#2F7B9A"/>
</g>
<g id="Gitem8">
<rect id="item8" x="1461.5" y="757.023" width="61" height="38" rx="2" fill="#2F7B9A"/>
</g>
<g id="Gitem7">
<rect id="item7" x="1033.5" y="890.023" width="61" height="38" rx="2" fill="#2F7B9A"/>
</g>
<g id="Gitem3">
<rect id="item3" x="1384.5" y="908.023" width="20" height="35" rx="2" fill="#2F7B9A"/>
</g>
<g id="Gitem2">
<rect id="item2" x="1417.5" y="943.023" width="105" height="50" rx="2" fill="#2F7B9A"/>
</g>
<g id="Gitem1">
<rect id="item1" x="1417.5" y="1013.02" width="105" height="52" rx="2" fill="#2F7B9A"/>
</g>
</g>
<g id="ret&#195;&#162;ngulo 4">
<rect id="item4" x="1441.5" y="1068.02" width="20" height="11" rx="2" fill="#2F7B9A"/>
</g>
<g id="ret&#195;&#162;ngulo 6">
<rect id="item6" x="1364.5" y="847.023" width="20" height="15" rx="2" fill="#2F7B9A"/>
</g>
<g id="ESTACIONAMENTOS">
<rect id="Rectangle 233" x="1404" y="1097.52" width="136" height="51" rx="2.5" fill="#EAEAEA" stroke="#989898"/>
<rect id="Rectangle 234" x="1608" y="1027.52" width="143" height="91" rx="2.5" fill="#EAEAEA" stroke="#989898"/>
<rect id="Rectangle 235" x="1602" y="903.523" width="35" height="109" rx="2.5" fill="#EAEAEA" stroke="#989898"/>
</g>
<path id="ESTACIONAMENTO" fill-rule="evenodd" clip-rule="evenodd" d="M1674 1086.02C1681.46 1086.02 1687.5 1079.98 1687.5 1072.52C1687.5 1065.07 1681.46 1059.02 1674 1059.02C1666.54 1059.02 1660.5 1065.07 1660.5 1072.52C1660.5 1079.98 1666.54 1086.02 1674 1086.02ZM1672.5 1064.02H1680.5V1067.02H1672.5V1071.02H1679.5V1074.02H1672.5V1079.02H1680.5V1082.02H1671.5V1082.02H1668.5V1067.02V1064.02H1672.5Z" fill="#152238"/>
<path id="ESTACIONAMENTO_2" fill-rule="evenodd" clip-rule="evenodd" d="M1620 968.023C1627.46 968.023 1633.5 961.979 1633.5 954.523C1633.5 947.067 1627.46 941.023 1620 941.023C1612.54 941.023 1606.5 947.067 1606.5 954.523C1606.5 961.979 1612.54 968.023 1620 968.023ZM1618.5 946.023H1626.5V949.023H1618.5V953.023H1625.5V956.023H1618.5V961.023H1626.5V964.023H1617.5V964.023H1614.5V949.023V946.023H1618.5Z" fill="#152238"/>
<path id="ESTACIONAMENTO_3" fill-rule="evenodd" clip-rule="evenodd" d="M1470 1140.02C1477.46 1140.02 1483.5 1133.98 1483.5 1126.52C1483.5 1119.07 1477.46 1113.02 1470 1113.02C1462.54 1113.02 1456.5 1119.07 1456.5 1126.52C1456.5 1133.98 1462.54 1140.02 1470 1140.02ZM1468.5 1118.02H1476.5V1121.02H1468.5V1125.02H1475.5V1128.02H1468.5V1133.02H1476.5V1136.02H1467.5V1136.02H1464.5V1121.02V1118.02H1468.5Z" fill="#152238"/>
<path id="Vector 111" d="M1976 1093.52C1976 1093.52 1965.37 1087.31 1958 1082.52C1933.91 1066.87 1897.5 1060.52 1897.5 1060.52M1969.5 1097.52C1969.5 1097.52 1960.29 1100.38 1954.5 1102.52C1937.21 1108.91 1926.5 1111.65 1912 1123.02C1904.94 1128.56 1895.5 1139.02 1895.5 1139.02M1895.5 1139.02L1892.5 1054.52C1892.5 1038.32 1896 1022.02 1892.5 1017.52C1889 1013.02 1874.5 1013.02 1874.5 1013.02H1789M1895.5 1139.02H1767C1767 1139.02 1640 1139.02 1630 1139.02C1620 1139.02 1610.99 1132.82 1604.5 1123.02C1600.41 1116.84 1598.5 1105.02 1598.5 1105.02V1075.02V1038.52M1889 1123.02C1889 1123.02 1776 1127.02 1767 1123.02C1758 1119.02 1756.5 1119.52 1755 1112.02C1753.5 1104.52 1755 1020.52 1755 1020.52C1755 1020.52 1607 1022.02 1598.5 1024.52C1590 1027.02 1600 1031.52 1592.5 1038.52C1585 1045.52 1536 1038.52 1536 1038.52M1761.5 1027.02H1787M1761.5 990.023L1789 1020.52M1478 1096.02L1474 1072.52M1411 886.023C1411 886.023 1397.39 880.703 1392.5 886.023M1392.5 886.023C1388.01 890.911 1392.5 903.023 1392.5 903.023M1392.5 886.023C1392.5 886.023 1387.92 860.068 1392.5 844.523C1397.88 826.277 1411.21 821.334 1421 805.023C1431.38 787.724 1437.84 769.262 1443.5 758.523C1449.16 747.783 1447.84 748.762 1453.5 738.023M1411 893.523L1414.5 1067.52H1530V1059.52L1533.5 888.523C1533.5 888.523 1534.5 872.523 1530 872.523C1525.5 872.523 1392.5 872.523 1392.5 872.523M1761.5 1020.52V951.523H1638M1984 1093.52C1984 1093.52 2012.57 1092.98 2030.5 1096.02C2051.26 1099.55 2082 1112.02 2082 1112.02C2082 1112.02 2107.18 1118.96 2114 1132.02C2120.24 1143.97 2097.5 1166.52 2114 1166.52C2130.5 1166.52 2296.5 1166.52 2296.5 1166.52L2601 1157.02H2733.5C2733.5 1157.02 2699.5 1106.52 2703.5 1097.52C2707.5 1088.52 2730 1047.52 2728.5 1040.02C2727 1032.52 2623 981.523 2612.5 983.023M2612.5 983.023C2602 984.523 2592 1022.52 2592 1022.52M2612.5 983.023L2595 950.023L2570.5 960.023C2570.5 960.023 2551.73 972.171 2539 970.023C2528 968.165 2525.85 957.122 2515 954.523C2495.92 949.952 2471.5 977.023 2468.5 973.523C2465.5 970.023 2425.46 830.023 2393.5 754.523H2330.5H1964L1651 751.023C1651 751.023 1620.75 746.724 1610 754.523C1604.82 758.285 1604.5 752.023 1600 767.523C1595.5 783.023 1598.5 915.023 1598.5 915.023V1017.52M2612.5 983.023C2612.5 983.023 2570.5 1003.02 2562.5 1006.02C2554.5 1009.02 2558.5 1022.52 2558.5 1022.52C2558.5 1022.52 2540.94 1041.01 2539 1056.02C2537.47 1067.83 2543.73 1074.14 2544.5 1086.02C2545.7 1104.46 2547.99 1116.88 2539 1133.02C2532.55 1144.6 2515 1157.02 2515 1157.02M1526 937.023H1416M1418.5 1007.02H1526M1568.5 732.023C1568.5 732.023 1574.46 815.286 1571.5 868.523C1570.01 895.352 1565.91 910.167 1565 937.023C1564.49 952.049 1563.59 960.554 1565 975.523C1565.85 984.568 1567.44 989.499 1568.5 998.523C1572.15 1029.55 1568.5 1078.52 1568.5 1078.52C1568.5 1078.52 1570.32 1092.17 1565 1097.52C1561.04 1101.51 1551.5 1102.52 1551.5 1102.52H1540.5M1537 937.023H1560.5" stroke="#FA8334" stroke-width="4" stroke-linecap="round" stroke-linejoin="round" stroke-dasharray="2 8"/>
<g id="Group 18">
<path id="Vector 62" d="M1928.75 1114.03V1111.46H1932.47V1114.03C1932.47 1114.03 1932.47 1115.19 1930.47 1115.19C1928.48 1115.19 1928.75 1114.03 1928.75 1114.03Z" fill="#152238"/>
<path id="Vector 63" d="M1943.68 1114.03V1111.46H1947.4V1114.03C1947.4 1114.03 1947.4 1115.19 1945.41 1115.19C1943.41 1115.19 1943.68 1114.03 1943.68 1114.03Z" fill="#152238"/>
<path id="Exclude" fill-rule="evenodd" clip-rule="evenodd" d="M1929.08 1089.32C1929.08 1089.32 1928.69 1089.66 1928.49 1089.92C1928.24 1090.24 1927.98 1090.83 1927.98 1090.83L1926.87 1099.4V1111.48H1949.5V1099.4L1948.39 1090.83C1948.39 1090.83 1948.17 1090.23 1947.92 1089.92C1947.71 1089.65 1947.29 1089.32 1947.29 1089.32C1947.29 1089.32 1944.25 1087.19 1938.32 1087.19C1932.4 1087.19 1929.08 1089.32 1929.08 1089.32ZM1933.27 1089.36C1933.27 1089.36 1932.76 1089.71 1932.76 1090.04C1932.75 1090.38 1933.27 1090.75 1933.27 1090.75H1943.1C1943.1 1090.75 1943.66 1090.39 1943.66 1090.04C1943.65 1089.7 1943.1 1089.36 1943.1 1089.36H1933.27ZM1930.66 1092.13H1945.79C1945.79 1092.13 1946.2 1092.23 1946.38 1092.41C1946.61 1092.63 1946.7 1093.16 1946.7 1093.16L1947.68 1099.87C1947.68 1099.87 1947.6 1100.36 1947.37 1100.54C1947.16 1100.71 1946.7 1100.7 1946.7 1100.7H1929.32C1929.32 1100.7 1929.11 1100.63 1929 1100.54C1928.8 1100.36 1928.81 1099.87 1928.81 1099.87L1929.75 1093.16C1929.75 1093.16 1929.78 1092.63 1929.99 1092.41C1930.19 1092.2 1930.66 1092.13 1930.66 1092.13ZM1931.97 1106.35C1931.97 1107.22 1931.26 1107.93 1930.39 1107.93C1929.51 1107.93 1928.81 1107.22 1928.81 1106.35C1928.81 1105.47 1929.51 1104.77 1930.39 1104.77C1931.26 1104.77 1931.97 1105.47 1931.97 1106.35ZM1946.1 1107.93C1946.98 1107.93 1947.68 1107.22 1947.68 1106.35C1947.68 1105.47 1946.98 1104.77 1946.1 1104.77C1945.23 1104.77 1944.52 1105.47 1944.52 1106.35C1944.52 1107.22 1945.23 1107.93 1946.1 1107.93Z" fill="#152238"/>
</g>
<g id="Group 19">
<path id="Vector 62_2" d="M1555.38 978.86V976.289H1559.1V978.86C1559.1 978.86 1559.1 980.022 1557.1 980.022C1555.11 980.022 1555.38 978.86 1555.38 978.86Z" fill="#152238"/>
<path id="Vector 63_2" d="M1570.31 978.86V976.289H1574.03V978.86C1574.03 978.86 1574.03 980.022 1572.04 980.022C1570.04 980.022 1570.31 978.86 1570.31 978.86Z" fill="#152238"/>
<path id="Exclude_2" fill-rule="evenodd" clip-rule="evenodd" d="M1555.71 954.155C1555.71 954.155 1555.32 954.49 1555.12 954.748C1554.87 955.068 1554.61 955.656 1554.61 955.656L1553.5 964.226V976.311H1576.13V964.226L1575.02 955.656C1575.02 955.656 1574.8 955.063 1574.55 954.748C1574.34 954.481 1573.92 954.155 1573.92 954.155C1573.92 954.155 1570.88 952.023 1564.95 952.023C1559.03 952.023 1555.71 954.155 1555.71 954.155ZM1559.9 954.195C1559.9 954.195 1559.39 954.537 1559.38 954.866C1559.38 955.209 1559.9 955.577 1559.9 955.577H1569.73C1569.73 955.577 1570.29 955.218 1570.28 954.866C1570.28 954.527 1569.73 954.195 1569.73 954.195H1559.9ZM1557.29 956.96H1572.42C1572.42 956.96 1572.83 957.06 1573.01 957.236C1573.24 957.456 1573.33 957.986 1573.33 957.986L1574.31 964.7C1574.31 964.7 1574.23 965.193 1574 965.372C1573.78 965.538 1573.33 965.53 1573.33 965.53H1555.95C1555.95 965.53 1555.74 965.464 1555.63 965.372C1555.43 965.189 1555.44 964.7 1555.44 964.7L1556.38 957.986C1556.38 957.986 1556.41 957.458 1556.62 957.236C1556.82 957.031 1557.29 956.96 1557.29 956.96ZM1558.59 971.177C1558.59 972.049 1557.89 972.757 1557.02 972.757C1556.14 972.757 1555.44 972.049 1555.44 971.177C1555.44 970.305 1556.14 969.597 1557.02 969.597C1557.89 969.597 1558.59 970.305 1558.59 971.177ZM1572.73 972.757C1573.61 972.757 1574.31 972.049 1574.31 971.177C1574.31 970.305 1573.61 969.597 1572.73 969.597C1571.86 969.597 1571.15 970.305 1571.15 971.177C1571.15 972.049 1571.86 972.757 1572.73 972.757Z" fill="#152238"/>
</g>
<g id="Group">
<path id="Vector" fill-rule="evenodd" clip-rule="evenodd" d="M2636.46 1056.12C2636.63 1056.33 2636.74 1056.6 2636.72 1056.84C2636.06 1063.49 2635.74 1064.27 2633.99 1074.61C2632.42 1084.04 2637.03 1086.68 2637.28 1075.9C2637.5 1064.95 2637.46 1064.04 2637.89 1057.27C2637.91 1057.04 2638.04 1056.88 2638.22 1056.8C2639.08 1056.44 2639.85 1055.34 2640.01 1052.93L2640.68 1040.88C2640.73 1040.33 2640.77 1039.88 2640.74 1039.52C2640.71 1039.05 2640.3 1039.09 2640.26 1039.53L2639.17 1052.25C2639.11 1052.94 2638.53 1052.71 2638.6 1052.02L2639.81 1038.56C2639.82 1038.4 2639.72 1038.23 2639.57 1038.18C2639.43 1038.12 2639.3 1038.2 2639.29 1038.35L2638.07 1051.82C2638.01 1052.51 2637.38 1052.26 2637.44 1051.57L2638.65 1038.07C2638.67 1037.94 2638.57 1037.79 2638.45 1037.74C2638.32 1037.69 2638.2 1037.76 2638.19 1037.89L2636.98 1051.39C2636.91 1052.08 2636.33 1051.86 2636.4 1051.16L2637.54 1038.46C2637.58 1038.02 2637.22 1037.7 2637.12 1038.11C2637.04 1038.43 2636.99 1038.87 2636.92 1039.41L2635.43 1051.26C2635.23 1053.51 2635.73 1055.19 2636.46 1056.12Z" fill="#152238"/>
<path id="Vector_2" fill-rule="evenodd" clip-rule="evenodd" d="M2650.41 1059.96C2652.23 1060.01 2653.93 1057.2 2654.4 1053.36C2654.85 1048.93 2653.98 1039.68 2651.9 1038.95C2649.75 1038.19 2647.19 1045.99 2646.74 1050.42C2646.32 1054.51 2647.28 1058.26 2649.04 1059.47C2648.21 1066.24 2648.16 1064.81 2646.21 1075.18C2644.41 1084.2 2649.48 1086.69 2649.79 1076.45C2649.98 1065.45 2649.76 1066.91 2650.41 1059.96L2650.41 1059.96Z" fill="#152238"/>
</g>
<path id="RS-165" d="M3452.12 1353.89L3455.01 1358.96C3455.6 1360 3455.96 1360.98 3456.07 1361.9C3456.19 1362.83 3456.06 1363.67 3455.68 1364.43C3455.3 1365.18 3454.67 1365.81 3453.78 1366.32C3453.05 1366.73 3452.36 1366.96 3451.69 1367.01C3451.04 1367.07 3450.41 1366.97 3449.8 1366.72C3449.21 1366.47 3448.64 1366.11 3448.09 1365.63L3447.12 1365.01L3444.61 1360.61L3446.78 1359.34L3448.65 1362.61C3448.93 1363.11 3449.25 1363.46 3449.61 1363.69C3449.97 1363.91 3450.35 1364.02 3450.75 1364C3451.16 1363.99 3451.57 1363.87 3451.98 1363.63C3452.41 1363.39 3452.74 1363.09 3452.97 1362.75C3453.19 1362.4 3453.29 1362.02 3453.27 1361.59C3453.25 1361.17 3453.1 1360.71 3452.82 1360.21L3451.52 1357.94L3440.13 1364.45L3438.53 1361.65L3452.12 1353.89ZM3442.87 1369.24L3447.16 1362.69L3448.86 1365.63L3444.71 1372.16L3444.58 1372.24L3442.87 1369.24ZM3453.12 1378.93C3453.36 1378.79 3453.55 1378.63 3453.7 1378.44C3453.86 1378.26 3453.97 1378.03 3454.02 1377.74C3454.08 1377.45 3454.09 1377.09 3454.05 1376.65C3454.02 1376.21 3453.93 1375.66 3453.78 1375.01C3453.63 1374.28 3453.52 1373.57 3453.45 1372.87C3453.39 1372.18 3453.4 1371.53 3453.49 1370.92C3453.59 1370.31 3453.79 1369.76 3454.09 1369.27C3454.4 1368.78 3454.84 1368.37 3455.43 1368.03C3455.99 1367.71 3456.58 1367.54 3457.18 1367.53C3457.79 1367.51 3458.39 1367.63 3458.97 1367.89C3459.56 1368.15 3460.12 1368.53 3460.65 1369.03C3461.18 1369.55 3461.66 1370.17 3462.08 1370.9C3462.65 1371.91 3462.97 1372.88 3463.03 1373.83C3463.1 1374.79 3462.93 1375.65 3462.54 1376.42C3462.15 1377.19 3461.55 1377.81 3460.74 1378.27L3459.16 1375.49C3459.55 1375.26 3459.85 1374.98 3460.06 1374.64C3460.27 1374.31 3460.37 1373.92 3460.35 1373.49C3460.33 1373.06 3460.18 1372.59 3459.9 1372.09C3459.62 1371.6 3459.31 1371.24 3458.98 1371C3458.65 1370.76 3458.32 1370.63 3457.98 1370.61C3457.64 1370.59 3457.32 1370.66 3457.02 1370.84C3456.79 1370.97 3456.61 1371.14 3456.49 1371.36C3456.37 1371.59 3456.29 1371.86 3456.26 1372.18C3456.23 1372.51 3456.24 1372.87 3456.29 1373.29C3456.34 1373.71 3456.42 1374.18 3456.54 1374.7C3456.74 1375.57 3456.86 1376.36 3456.9 1377.08C3456.94 1377.81 3456.89 1378.46 3456.76 1379.04C3456.63 1379.61 3456.4 1380.13 3456.07 1380.57C3455.74 1381.01 3455.29 1381.4 3454.73 1381.72C3454.14 1382.05 3453.55 1382.24 3452.95 1382.28C3452.35 1382.31 3451.77 1382.21 3451.19 1381.96C3450.62 1381.7 3450.08 1381.33 3449.57 1380.82C3449.06 1380.31 3448.59 1379.68 3448.16 1378.94C3447.78 1378.27 3447.49 1377.55 3447.29 1376.8C3447.09 1376.05 3447.03 1375.3 3447.08 1374.56C3447.14 1373.82 3447.36 1373.14 3447.74 1372.5C3448.12 1371.86 3448.69 1371.33 3449.45 1370.89L3451.06 1373.7C3450.63 1373.94 3450.31 1374.21 3450.09 1374.51C3449.88 1374.8 3449.75 1375.12 3449.7 1375.46C3449.66 1375.81 3449.69 1376.17 3449.8 1376.54C3449.91 1376.92 3450.08 1377.31 3450.31 1377.71C3450.58 1378.2 3450.88 1378.56 3451.19 1378.79C3451.51 1379.03 3451.83 1379.15 3452.16 1379.16C3452.49 1379.18 3452.81 1379.1 3453.12 1378.93ZM3462.06 1386.86L3459.95 1388.06L3456.94 1382.79L3459.05 1381.59L3462.06 1386.86ZM3473.74 1391.69L3460.13 1399.47L3458.6 1396.78L3469.11 1390.78L3466.24 1388.13L3468.36 1386.93L3473.57 1391.41L3473.74 1391.69ZM3480.33 1402.98L3480.56 1403.37L3478.41 1404.6L3478.32 1404.44C3477.92 1403.73 3477.45 1403.16 3476.92 1402.73C3476.4 1402.3 3475.83 1402 3475.21 1401.84C3474.61 1401.68 3473.98 1401.65 3473.31 1401.76C3472.65 1401.87 3471.98 1402.12 3471.31 1402.51L3469.05 1403.8C3468.56 1404.08 3468.16 1404.37 3467.84 1404.67C3467.53 1404.98 3467.3 1405.3 3467.16 1405.62C3467.02 1405.95 3466.96 1406.27 3466.98 1406.59C3467 1406.9 3467.1 1407.22 3467.28 1407.53C3467.45 1407.82 3467.66 1408.05 3467.92 1408.22C3468.18 1408.39 3468.48 1408.49 3468.8 1408.53C3469.12 1408.58 3469.47 1408.55 3469.82 1408.47C3470.19 1408.38 3470.55 1408.24 3470.92 1408.03C3471.28 1407.82 3471.6 1407.58 3471.85 1407.31C3472.12 1407.04 3472.31 1406.76 3472.43 1406.46C3472.56 1406.15 3472.62 1405.84 3472.6 1405.52C3472.59 1405.2 3472.49 1404.88 3472.31 1404.57C3472.07 1404.15 3471.76 1403.83 3471.37 1403.62C3471 1403.42 3470.61 1403.31 3470.2 1403.3C3469.79 1403.3 3469.42 1403.38 3469.07 1403.56L3469.13 1402.45C3469.62 1402.2 3470.13 1402.04 3470.67 1401.97C3471.2 1401.91 3471.73 1401.95 3472.24 1402.09C3472.76 1402.23 3473.25 1402.47 3473.7 1402.83C3474.16 1403.18 3474.55 1403.64 3474.88 1404.22C3475.24 1404.85 3475.44 1405.48 3475.47 1406.1C3475.5 1406.72 3475.4 1407.31 3475.16 1407.88C3474.92 1408.44 3474.58 1408.96 3474.11 1409.44C3473.65 1409.92 3473.11 1410.34 3472.48 1410.7C3471.82 1411.07 3471.15 1411.31 3470.46 1411.42C3469.77 1411.53 3469.1 1411.51 3468.45 1411.34C3467.8 1411.19 3467.19 1410.9 3466.64 1410.47C3466.08 1410.05 3465.6 1409.49 3465.21 1408.79C3464.79 1408.07 3464.55 1407.34 3464.47 1406.6C3464.41 1405.86 3464.49 1405.14 3464.73 1404.45C3464.97 1403.75 3465.35 1403.1 3465.88 1402.49C3466.41 1401.89 3467.07 1401.37 3467.85 1400.92L3468.89 1400.32C3469.99 1399.7 3471.08 1399.29 3472.17 1399.08C3473.27 1398.89 3474.32 1398.9 3475.33 1399.12C3476.35 1399.34 3477.28 1399.77 3478.14 1400.41C3478.99 1401.06 3479.72 1401.91 3480.33 1402.98ZM3476.55 1413.85L3475.83 1411.42L3483.16 1408.26L3487.52 1415.89L3485.35 1417.13L3482.25 1411.71L3479.05 1413.1C3479.25 1413.22 3479.52 1413.43 3479.85 1413.72C3480.18 1414.02 3480.48 1414.4 3480.74 1414.85C3481.12 1415.51 3481.35 1416.15 3481.43 1416.78C3481.52 1417.41 3481.47 1418.01 3481.28 1418.59C3481.09 1419.17 3480.77 1419.72 3480.31 1420.23C3479.85 1420.74 3479.26 1421.2 3478.55 1421.61C3477.95 1421.95 3477.32 1422.19 3476.66 1422.31C3476.02 1422.43 3475.37 1422.43 3474.72 1422.29C3474.08 1422.16 3473.48 1421.87 3472.91 1421.44C3472.34 1421 3471.83 1420.39 3471.38 1419.61C3471.05 1419.03 3470.81 1418.41 3470.68 1417.76C3470.54 1417.12 3470.52 1416.49 3470.61 1415.86C3470.71 1415.23 3470.93 1414.65 3471.26 1414.11C3471.61 1413.58 3472.09 1413.12 3472.71 1412.75L3474.24 1415.42C3473.87 1415.68 3473.6 1415.97 3473.41 1416.29C3473.23 1416.61 3473.15 1416.95 3473.15 1417.31C3473.16 1417.67 3473.27 1418.04 3473.48 1418.4C3473.67 1418.74 3473.91 1419 3474.18 1419.17C3474.44 1419.34 3474.74 1419.43 3475.05 1419.45C3475.37 1419.46 3475.71 1419.41 3476.06 1419.3C3476.42 1419.2 3476.78 1419.04 3477.15 1418.83C3477.52 1418.62 3477.82 1418.39 3478.07 1418.13C3478.32 1417.87 3478.5 1417.59 3478.62 1417.29C3478.73 1416.98 3478.77 1416.66 3478.73 1416.31C3478.69 1415.97 3478.57 1415.61 3478.36 1415.25C3478.07 1414.75 3477.77 1414.41 3477.46 1414.22C3477.15 1414.04 3476.85 1413.92 3476.55 1413.85Z" fill="#989898"/>
<path id="RS-165_2" d="M3207.1 920.899L3210 925.96C3210.6 926.998 3210.95 927.978 3211.07 928.902C3211.19 929.832 3211.06 930.673 3210.68 931.426C3210.31 932.179 3209.67 932.81 3208.78 933.319C3208.06 933.736 3207.36 933.969 3206.7 934.02C3206.04 934.073 3205.41 933.976 3204.81 933.728C3204.21 933.482 3203.64 933.12 3203.1 932.641L3202.12 932.023L3199.6 927.623L3201.77 926.355L3203.65 929.626C3203.93 930.117 3204.25 930.474 3204.61 930.698C3204.97 930.921 3205.35 931.025 3205.75 931.008C3206.16 930.998 3206.57 930.875 3206.98 930.64C3207.41 930.391 3207.74 930.095 3207.97 929.752C3208.19 929.409 3208.29 929.024 3208.27 928.599C3208.25 928.173 3208.1 927.712 3207.81 927.215L3206.51 924.95L3195.13 931.472L3193.53 928.675L3207.1 920.899ZM3197.88 936.262L3202.16 929.702L3203.87 932.645L3199.72 939.179L3199.59 939.254L3197.88 936.262ZM3208.14 945.934C3208.38 945.795 3208.58 945.633 3208.73 945.448C3208.89 945.266 3208.99 945.032 3209.04 944.747C3209.1 944.458 3209.11 944.093 3209.07 943.653C3209.04 943.212 3208.95 942.666 3208.8 942.013C3208.65 941.284 3208.54 940.572 3208.47 939.876C3208.4 939.187 3208.42 938.537 3208.5 937.925C3208.6 937.317 3208.8 936.765 3209.1 936.27C3209.41 935.781 3209.85 935.369 3210.44 935.034C3211 934.71 3211.59 934.541 3212.19 934.526C3212.8 934.507 3213.39 934.628 3213.98 934.886C3214.57 935.141 3215.13 935.522 3215.66 936.027C3216.19 936.539 3216.67 937.162 3217.09 937.895C3217.66 938.895 3217.98 939.872 3218.05 940.824C3218.12 941.776 3217.95 942.637 3217.56 943.407C3217.17 944.183 3216.57 944.802 3215.77 945.265L3214.17 942.487C3214.57 942.259 3214.87 941.976 3215.07 941.638C3215.29 941.301 3215.38 940.916 3215.37 940.481C3215.35 940.052 3215.2 939.585 3214.91 939.082C3214.63 938.598 3214.33 938.236 3213.99 937.999C3213.66 937.757 3213.33 937.627 3212.99 937.608C3212.65 937.586 3212.33 937.661 3212.03 937.836C3211.8 937.968 3211.62 938.143 3211.5 938.361C3211.38 938.586 3211.31 938.86 3211.28 939.183C3211.25 939.505 3211.26 939.875 3211.31 940.292C3211.36 940.71 3211.44 941.178 3211.56 941.698C3211.76 942.565 3211.88 943.359 3211.92 944.078C3211.96 944.804 3211.92 945.456 3211.79 946.034C3211.66 946.613 3211.43 947.125 3211.1 947.57C3210.76 948.016 3210.32 948.399 3209.76 948.719C3209.17 949.057 3208.58 949.245 3207.98 949.282C3207.38 949.319 3206.8 949.213 3206.22 948.963C3205.65 948.713 3205.11 948.335 3204.59 947.829C3204.08 947.322 3203.61 946.696 3203.18 945.95C3202.8 945.279 3202.51 944.568 3202.31 943.816C3202.11 943.06 3202.04 942.312 3202.1 941.571C3202.16 940.836 3202.37 940.15 3202.75 939.513C3203.13 938.875 3203.7 938.338 3204.46 937.9L3206.07 940.705C3205.65 940.947 3205.33 941.217 3205.11 941.515C3204.89 941.813 3204.76 942.132 3204.72 942.471C3204.68 942.816 3204.71 943.177 3204.82 943.553C3204.93 943.934 3205.1 944.324 3205.33 944.722C3205.61 945.207 3205.9 945.565 3206.22 945.797C3206.53 946.036 3206.86 946.16 3207.19 946.171C3207.52 946.187 3207.83 946.108 3208.14 945.934ZM3217.1 953.851L3214.99 955.058L3211.97 949.792L3214.08 948.585L3217.1 953.851ZM3228.78 958.668L3215.18 966.46L3213.65 963.776L3224.15 957.757L3221.28 955.119L3223.39 953.907L3228.62 958.379L3228.78 958.668ZM3235.39 969.946L3235.62 970.338L3233.48 971.566L3233.38 971.408C3232.98 970.699 3232.51 970.129 3231.98 969.697C3231.46 969.265 3230.89 968.969 3230.27 968.808C3229.67 968.65 3229.04 968.625 3228.37 968.733C3227.71 968.848 3227.04 969.099 3226.37 969.487L3224.11 970.78C3223.63 971.057 3223.22 971.35 3222.9 971.656C3222.59 971.966 3222.37 972.282 3222.22 972.605C3222.09 972.93 3222.03 973.252 3222.05 973.572C3222.07 973.888 3222.17 974.202 3222.35 974.512C3222.52 974.804 3222.73 975.033 3222.99 975.198C3223.25 975.369 3223.54 975.474 3223.86 975.514C3224.19 975.556 3224.54 975.533 3224.89 975.446C3225.25 975.361 3225.62 975.214 3225.99 975.004C3226.35 974.794 3226.66 974.553 3226.92 974.282C3227.18 974.017 3227.38 973.733 3227.5 973.431C3227.63 973.125 3227.69 972.812 3227.67 972.493C3227.65 972.173 3227.55 971.858 3227.37 971.547C3227.13 971.125 3226.82 970.809 3226.43 970.6C3226.06 970.393 3225.67 970.287 3225.26 970.281C3224.85 970.275 3224.48 970.363 3224.14 970.542L3224.19 969.432C3224.68 969.177 3225.19 969.016 3225.72 968.951C3226.26 968.892 3226.79 968.929 3227.3 969.064C3227.82 969.201 3228.31 969.446 3228.76 969.799C3229.22 970.148 3229.61 970.612 3229.94 971.189C3230.3 971.823 3230.5 972.449 3230.53 973.066C3230.57 973.69 3230.47 974.284 3230.23 974.849C3229.99 975.414 3229.64 975.936 3229.18 976.415C3228.72 976.893 3228.18 977.312 3227.55 977.672C3226.89 978.049 3226.22 978.291 3225.53 978.398C3224.84 978.511 3224.17 978.486 3223.52 978.324C3222.87 978.169 3222.26 977.879 3221.71 977.455C3221.15 977.031 3220.67 976.471 3220.28 975.775C3219.86 975.055 3219.62 974.324 3219.54 973.584C3219.47 972.847 3219.56 972.13 3219.79 971.434C3220.03 970.737 3220.41 970.085 3220.94 969.478C3221.47 968.877 3222.12 968.352 3222.91 967.903L3223.95 967.305C3225.05 966.678 3226.14 966.263 3227.23 966.06C3228.32 965.86 3229.38 965.871 3230.39 966.092C3231.4 966.311 3232.34 966.74 3233.19 967.382C3234.05 968.023 3234.78 968.878 3235.39 969.946ZM3231.62 980.823L3230.91 978.386L3238.23 975.218L3242.6 982.842L3240.43 984.086L3237.32 978.671L3234.12 980.061C3234.33 980.181 3234.6 980.39 3234.93 980.689C3235.26 980.984 3235.56 981.359 3235.82 981.812C3236.2 982.471 3236.43 983.114 3236.51 983.741C3236.6 984.368 3236.55 984.971 3236.36 985.549C3236.18 986.134 3235.86 986.681 3235.4 987.192C3234.94 987.702 3234.35 988.162 3233.64 988.572C3233.03 988.917 3232.41 989.153 3231.75 989.28C3231.11 989.403 3230.46 989.398 3229.81 989.265C3229.17 989.128 3228.57 988.843 3228 988.411C3227.43 987.978 3226.92 987.37 3226.47 986.587C3226.14 986.003 3225.9 985.388 3225.76 984.741C3225.62 984.101 3225.6 983.465 3225.69 982.835C3225.79 982.21 3226.01 981.628 3226.34 981.09C3226.69 980.554 3227.17 980.1 3227.79 979.728L3229.32 982.393C3228.95 982.651 3228.68 982.941 3228.49 983.263C3228.31 983.587 3228.23 983.929 3228.24 984.288C3228.24 984.647 3228.35 985.009 3228.56 985.376C3228.76 985.718 3228.99 985.972 3229.26 986.14C3229.53 986.307 3229.82 986.4 3230.14 986.417C3230.46 986.431 3230.79 986.383 3231.14 986.274C3231.5 986.166 3231.87 986.008 3232.23 985.798C3232.6 985.588 3232.91 985.354 3233.16 985.096C3233.4 984.838 3233.59 984.557 3233.7 984.252C3233.81 983.947 3233.85 983.621 3233.81 983.274C3233.77 982.933 3233.65 982.579 3233.44 982.212C3233.15 981.715 3232.85 981.374 3232.54 981.19C3232.23 981.012 3231.93 980.89 3231.62 980.823Z" fill="#989898"/>
<path id="RS-165_3" d="M2934.12 443.893L2937.01 448.958C2937.6 449.997 2937.96 450.978 2938.07 451.902C2938.19 452.832 2938.06 453.673 2937.68 454.425C2937.3 455.178 2936.67 455.808 2935.78 456.316C2935.05 456.731 2934.36 456.964 2933.69 457.013C2933.04 457.065 2932.41 456.967 2931.8 456.718C2931.21 456.472 2930.64 456.109 2930.09 455.629L2929.12 455.009L2926.61 450.606L2928.78 449.341L2930.65 452.615C2930.93 453.107 2931.25 453.464 2931.61 453.688C2931.97 453.912 2932.35 454.016 2932.75 454C2933.16 453.991 2933.57 453.869 2933.98 453.634C2934.41 453.386 2934.74 453.09 2934.97 452.747C2935.19 452.404 2935.29 452.02 2935.27 451.595C2935.25 451.169 2935.1 450.708 2934.82 450.21L2933.52 447.943L2922.13 454.447L2920.53 451.649L2934.12 443.893ZM2924.87 459.242L2929.16 452.688L2930.86 455.635L2926.71 462.162L2926.58 462.237L2924.87 459.242ZM2935.12 468.929C2935.36 468.791 2935.55 468.629 2935.7 468.444C2935.86 468.262 2935.97 468.029 2936.02 467.744C2936.08 467.455 2936.09 467.09 2936.05 466.65C2936.02 466.209 2935.93 465.662 2935.78 465.009C2935.63 464.28 2935.52 463.568 2935.45 462.872C2935.39 462.183 2935.4 461.533 2935.49 460.922C2935.59 460.313 2935.79 459.762 2936.09 459.267C2936.4 458.778 2936.84 458.367 2937.43 458.033C2937.99 457.71 2938.58 457.542 2939.18 457.528C2939.79 457.51 2940.39 457.631 2940.97 457.891C2941.56 458.147 2942.12 458.528 2942.65 459.034C2943.18 459.547 2943.66 460.17 2944.08 460.904C2944.65 461.905 2944.97 462.882 2945.03 463.834C2945.1 464.787 2944.93 465.647 2944.54 466.416C2944.15 467.192 2943.55 467.81 2942.74 468.272L2941.16 465.492C2941.55 465.265 2941.85 464.982 2942.06 464.644C2942.27 464.308 2942.37 463.922 2942.35 463.487C2942.33 463.058 2942.18 462.592 2941.9 462.088C2941.62 461.603 2941.31 461.241 2940.98 461.003C2940.65 460.761 2940.32 460.631 2939.98 460.611C2939.64 460.588 2939.32 460.663 2939.02 460.837C2938.79 460.969 2938.61 461.144 2938.49 461.362C2938.37 461.587 2938.29 461.86 2938.26 462.183C2938.23 462.505 2938.24 462.875 2938.29 463.293C2938.34 463.71 2938.42 464.179 2938.54 464.698C2938.74 465.566 2938.86 466.36 2938.9 467.08C2938.94 467.805 2938.89 468.457 2938.76 469.036C2938.63 469.614 2938.4 470.125 2938.07 470.57C2937.74 471.015 2937.29 471.397 2936.73 471.717C2936.14 472.054 2935.55 472.241 2934.95 472.277C2934.35 472.314 2933.77 472.206 2933.19 471.956C2932.62 471.705 2932.08 471.326 2931.57 470.819C2931.06 470.311 2930.59 469.685 2930.16 468.938C2929.78 468.267 2929.49 467.555 2929.29 466.802C2929.09 466.046 2929.03 465.298 2929.08 464.557C2929.14 463.823 2929.36 463.137 2929.74 462.5C2930.12 461.863 2930.69 461.326 2931.45 460.89L2933.06 463.698C2932.63 463.939 2932.31 464.209 2932.09 464.506C2931.88 464.804 2931.75 465.122 2931.7 465.461C2931.66 465.807 2931.69 466.167 2931.8 466.543C2931.91 466.925 2932.08 467.315 2932.31 467.713C2932.58 468.198 2932.88 468.557 2933.19 468.79C2933.51 469.029 2933.83 469.154 2934.16 469.165C2934.49 469.182 2934.81 469.103 2935.12 468.929ZM2944.06 476.86L2941.95 478.064L2938.94 472.793L2941.05 471.589L2944.06 476.86ZM2955.74 481.694L2942.13 489.466L2940.6 486.78L2951.11 480.776L2948.24 478.135L2950.36 476.926L2955.57 481.405L2955.74 481.694ZM2962.33 492.983L2962.56 493.375L2960.41 494.6L2960.32 494.442C2959.92 493.733 2959.45 493.162 2958.92 492.729C2958.4 492.296 2957.83 491.999 2957.21 491.837C2956.61 491.678 2955.98 491.652 2955.31 491.759C2954.65 491.873 2953.98 492.123 2953.31 492.51L2951.05 493.799C2950.56 494.076 2950.16 494.368 2949.84 494.674C2949.53 494.983 2949.3 495.299 2949.16 495.621C2949.02 495.947 2948.96 496.269 2948.98 496.589C2949 496.905 2949.1 497.219 2949.28 497.529C2949.45 497.822 2949.66 498.051 2949.92 498.216C2950.18 498.387 2950.48 498.493 2950.8 498.533C2951.12 498.576 2951.47 498.554 2951.82 498.467C2952.19 498.383 2952.55 498.236 2952.92 498.026C2953.28 497.817 2953.6 497.577 2953.85 497.306C2954.12 497.041 2954.31 496.758 2954.43 496.456C2954.56 496.15 2954.62 495.838 2954.6 495.518C2954.59 495.198 2954.49 494.883 2954.31 494.572C2954.07 494.149 2953.76 493.833 2953.37 493.623C2953 493.416 2952.61 493.309 2952.2 493.303C2951.79 493.296 2951.42 493.383 2951.07 493.562L2951.13 492.452C2951.62 492.197 2952.13 492.038 2952.67 491.973C2953.2 491.915 2953.73 491.953 2954.24 492.088C2954.76 492.226 2955.25 492.472 2955.7 492.825C2956.16 493.175 2956.55 493.64 2956.88 494.218C2957.24 494.852 2957.44 495.478 2957.47 496.096C2957.5 496.719 2957.4 497.313 2957.16 497.878C2956.92 498.443 2956.58 498.964 2956.11 499.442C2955.65 499.92 2955.11 500.338 2954.48 500.697C2953.82 501.073 2953.15 501.314 2952.46 501.42C2951.77 501.531 2951.1 501.506 2950.45 501.343C2949.8 501.187 2949.19 500.896 2948.64 500.471C2948.08 500.046 2947.6 499.486 2947.21 498.789C2946.79 498.068 2946.55 497.337 2946.47 496.597C2946.41 495.86 2946.49 495.143 2946.73 494.447C2946.97 493.751 2947.35 493.099 2947.88 492.493C2948.41 491.892 2949.07 491.368 2949.85 490.921L2950.89 490.324C2951.99 489.699 2953.08 489.286 2954.17 489.085C2955.27 488.886 2956.32 488.898 2957.33 489.122C2958.35 489.341 2959.28 489.773 2960.14 490.415C2960.99 491.057 2961.72 491.914 2962.33 492.983ZM2958.55 503.855L2957.83 501.416L2965.16 498.259L2969.52 505.89L2967.35 507.131L2964.25 501.711L2961.05 503.096C2961.25 503.216 2961.52 503.425 2961.85 503.725C2962.18 504.021 2962.48 504.396 2962.74 504.85C2963.12 505.509 2963.35 506.152 2963.43 506.779C2963.52 507.406 2963.47 508.009 2963.28 508.587C2963.09 509.172 2962.77 509.719 2962.31 510.229C2961.85 510.738 2961.26 511.197 2960.55 511.606C2959.95 511.95 2959.32 512.185 2958.66 512.311C2958.02 512.434 2957.37 512.428 2956.72 512.293C2956.08 512.156 2955.48 511.87 2954.91 511.436C2954.34 511.002 2953.83 510.394 2953.38 509.61C2953.05 509.026 2952.81 508.41 2952.68 507.763C2952.54 507.123 2952.52 506.487 2952.61 505.857C2952.71 505.232 2952.93 504.651 2953.26 504.113C2953.61 503.577 2954.09 503.124 2954.71 502.753L2956.24 505.421C2955.87 505.678 2955.6 505.968 2955.41 506.289C2955.23 506.613 2955.15 506.955 2955.15 507.314C2955.16 507.673 2955.27 508.036 2955.48 508.402C2955.67 508.744 2955.91 508.999 2956.18 509.167C2956.44 509.335 2956.74 509.428 2957.05 509.446C2957.37 509.46 2957.71 509.413 2958.06 509.304C2958.42 509.197 2958.78 509.039 2959.15 508.83C2959.52 508.62 2959.82 508.387 2960.07 508.129C2960.32 507.872 2960.5 507.591 2960.62 507.286C2960.73 506.981 2960.77 506.655 2960.73 506.308C2960.69 505.967 2960.57 505.613 2960.36 505.246C2960.07 504.749 2959.77 504.407 2959.46 504.223C2959.15 504.044 2958.85 503.921 2958.55 503.855Z" fill="#989898"/>
</g>
</svg>
