<svg width="627" height="1074" viewBox="0 0 627 1074" fill="none" xmlns="http://www.w3.org/2000/svg">
<g clip-path="url(#clip0_29_249)">
<rect width="627" height="1074" fill="white"/>
<rect width="631" height="1083" fill="#E4F3E8"/>
<path d="M-324.279 461.041L-214.306 424.383L-115.613 401.824L-73.3153 382.086C-63.9159 375.036 -44.2712 359.809 -40.8874 355.297C-37.5036 350.786 128.772 99.6336 211.486 -25.3784" stroke="#FBFF3C" stroke-width="14.0991"/>
<path d="M-324.279 461.041L-214.306 424.383L-115.613 401.824L-73.3153 382.086C-63.9159 375.036 -44.2712 359.809 -40.8874 355.297C-37.5036 350.786 128.772 99.6336 211.486 -25.3784" stroke="#FBFF3C" stroke-width="14.0991"/>
<path d="M243.209 518.847C246.748 524.561 251.755 526.357 253.079 532.946C254.973 542.373 249.084 547.892 243.209 555.505C237.588 562.789 230.43 562.97 224.88 570.309C219.451 577.488 215.716 591.457 215.716 591.457L205.142 609.786C205.142 609.786 202.748 621.996 200.207 629.525C197.016 638.98 193.233 643.481 189.633 652.788C185.675 663.02 180.593 668.621 181.173 679.577C181.671 688.972 188.564 692.787 189.633 702.135C191.179 715.668 182.575 722.424 181.173 735.973C180.153 745.831 178.353 757.827 181.173 761.351C183.993 764.876 187.941 772.631 181.173 775.45C174.406 778.27 164.254 776.625 160.025 775.45C155.795 774.276 146.422 771.334 139.581 775.45C131.868 780.091 128.916 787.724 130.417 796.599C131.511 803.074 137.834 804.368 139.581 810.698C141.119 816.271 135.94 821.012 139.581 825.502C144.716 831.835 156.309 814.016 160.025 821.273C161.781 824.703 160.025 826.63 160.025 831.142C160.025 835.654 170.364 836.312 175.534 836.077C180.703 835.842 182.79 826.245 189.633 825.502C200.083 824.368 201.05 837.291 208.667 844.536C214.879 850.445 216.388 858.157 224.88 859.34C232.578 860.412 238.745 850.646 243.209 851.586C247.674 852.526 257.167 855.392 259.423 859.34C262.243 864.275 315.82 854.405 303.835 864.275C294.248 872.17 319.579 873.204 333.444 872.734C347.308 872.264 345.632 871.18 353.182 872.734C362.829 874.72 366.11 881.95 375.741 884.013C383.817 885.744 389.654 887.996 396.889 884.013C402.017 881.191 402.883 877.12 406.759 872.734C411.407 867.475 412.348 862.233 418.743 859.34C425.265 856.39 430.055 857.927 437.072 859.34C437.072 859.34 445.969 860.981 450.466 864.275C457.521 869.442 460.821 875.271 461.04 884.013C461.2 890.367 454.48 893.378 456.106 899.523C457.024 902.993 461.04 907.277 461.04 907.277C461.04 907.277 468.372 916.723 469.5 920.671C470.628 924.619 470.655 943.387 474.435 957.329C476.416 964.64 481.828 968.156 480.779 975.658C479.323 986.076 467.62 989.287 461.04 993.987C454.461 998.686 450.122 1006.73 443.417 1015.14C437.784 1022.19 418.743 1074.35 418.743 1074.35H224.88H-0.00012207L-5.63977 648.559C-5.63977 648.559 4.38959 641.008 10.5742 635.869C20.6165 627.526 33.1328 615.426 35.2476 613.311C37.3625 611.196 41.1009 606.709 45.117 602.736C54.7159 593.242 66.9706 584.408 71.9053 580.883C75.853 578.063 78.2498 570.309 78.9548 566.784C82.0096 557.854 87.8372 538.586 86.7093 532.946C85.2994 525.896 75.4301 520.257 71.9053 513.207C68.3805 506.158 62.7408 500.518 59.2161 497.698C56.3963 495.442 24.2792 500.148 2.11472 497.698C-18.6022 495.408 -33.9939 499.707 -50.0519 486.419C-58.7065 479.257 -57.4592 469.132 -66.9709 463.155C-89.6396 448.912 -123.931 493.75 -126.187 497.698C-128.443 501.646 -138.406 499.343 -143.106 497.698C-147.806 496.053 -152.49 510.638 -158.615 518.847C-169.416 533.322 -185.873 539.76 -186.813 555.505C-187.753 571.248 -190.761 602.736 -195.273 602.736C-199.784 602.736 -235.218 597.113 -253.079 580.883C-262.248 572.551 -270.421 563.964 -272.113 555.505C-273.805 547.045 -282.217 490.414 -286.212 463.155C-290.207 435.897 -282.692 458.501 -279.867 456.106C-274.514 451.566 -270.578 449.5 -263.653 448.351C-259.579 447.676 -257.208 448.351 -253.079 448.351C-249.566 448.351 -243.358 448.233 -240.962 448.248C-241.265 447.643 -236.16 444.827 -236.16 444.827C-236.16 444.827 -217.059 435.02 -203.732 433.547C-197.165 432.822 -202.322 437.777 -186.813 433.547C-171.304 429.318 -165.665 417.333 -158.615 419.448C-151.565 421.563 -149.159 419.65 -143.106 419.448C-125.905 418.874 -115.114 420.824 -99.3988 413.809C-88.2352 408.825 -81.0699 398.3 -74.0204 395.48C-66.9709 392.66 -66.9709 392.66 -61.3312 388.43C-55.6916 384.2 -54.2817 381.381 -50.0519 379.266C-45.8222 377.151 -44.4447 371.594 -40.1826 367.282C-35.6479 362.694 -27.4934 356.707 -27.4934 356.707C-27.4934 356.707 -13.6311 340.801 -5.63977 329.919C10.0663 308.532 19.9736 286.917 28.903 271.408C28.903 271.408 51.4616 234.985 52.1665 234.75C52.8715 234.515 55.2683 233.199 59.2161 229.815C63.1638 226.432 71.9053 213.601 71.9053 213.601L81.0697 203.732C81.0697 203.732 89.6877 197.928 93.0539 192.453C95.5179 188.445 93.7589 184.698 97.2836 181.173C100.808 177.649 104.264 170.532 111.383 168.484C115.881 167.191 120.312 169.189 123.367 168.484C126.422 167.779 154.243 172.012 171.304 181.173C178.3 184.93 182.174 187.308 188.223 192.453C199.296 201.87 207.022 212.661 210.781 222.061C214.541 231.46 222.343 251.105 223.471 254.489C224.599 257.872 229.11 293.026 231.225 310.18C233.34 327.334 226.67 327.415 223.471 338.378C219.836 350.833 214.541 359.292 213.601 370.101C212.661 380.911 210.781 403.234 210.781 406.054C210.781 408.874 207.022 426.498 205.142 434.957C203.262 443.417 210.991 452.386 215.716 463.155C218.536 469.583 221.642 472.593 223.471 479.369C225.341 486.3 221.057 491.622 224.88 497.698C227.813 502.358 232.528 502.019 236.16 506.158C239.899 510.418 240.225 514.027 243.209 518.847Z" fill="#196042"/>
<path d="M151.565 139.581C151.565 139.581 129.836 132.716 128.302 121.252C128.01 119.069 126.422 113.733 128.302 115.613C130.182 117.492 136.056 115.613 136.056 115.613C136.056 115.613 139.581 102.923 144.516 93.054C149.45 83.1846 156.088 81.8198 162.844 74.0202C169.911 65.8625 171.304 59.2162 179.763 52.1666C188.223 45.1171 188.139 37.542 194.567 28.9031C196.441 26.385 199.972 22.5585 199.502 22.5585C199.502 22.5585 206.934 18.5153 210.781 14.804C219.472 6.41998 207.257 -7.75458 223.471 -13.3942C239.685 -19.0338 394.352 -7.75458 406.759 -7.75458C422.268 -7.75458 418.743 -10.5744 438.482 -7.75458C458.221 -4.93476 449.056 -1.40998 471.615 9.16434C494.173 19.7387 479.369 12.6891 503.338 19.0337C527.306 25.3783 509.682 19.0337 523.781 22.5585C537.88 26.0833 549.865 30.313 562.554 42.2972C575.243 54.2815 573.833 55.6914 578.063 69.0855C582.293 82.4797 573.833 74.0202 568.194 109.268V121.252C568.194 121.252 588.637 139.581 604.146 168.484C619.655 197.387 595.687 198.797 588.637 208.667C581.588 218.536 578.768 213.601 573.833 213.601C568.898 213.601 565.374 217.126 562.554 222.061C559.734 226.995 556.209 222.061 549.865 227.7C543.52 233.34 533.651 198.797 533.651 198.797L523.781 181.173C523.781 181.173 515.792 168.014 513.912 164.959C512.032 161.905 521.156 158.911 523.781 153.68C530.67 139.954 528.833 119.251 513.912 115.613C509.9 114.634 503.338 115.613 503.338 115.613H479.369C479.369 115.613 472.555 111.383 471.615 109.268C469.03 107.153 464.817 102.165 459.63 98.6936C441.236 86.3822 423.843 101.127 403.234 93.054C396.356 90.3598 391.25 86.0044 386.315 84.5945C382.367 83.4666 380.911 81.3047 380.676 80.3648C379.031 78.2499 372.216 74.0202 372.216 74.0202H328.509C314.41 74.0202 313.185 70.0025 303.13 69.0855C294.083 68.2604 290.441 69.7905 279.867 69.0855C269.293 68.3806 270.001 71.096 264.358 74.0202C254.85 78.9471 250.964 86.0045 244.619 93.054C238.275 100.104 236.16 102.923 236.16 102.923L231.225 109.268C231.225 109.268 223.471 117.022 214.306 121.252C205.142 125.482 204.437 126.187 204.437 126.187C204.437 126.187 188.223 126.892 175.534 126.187C162.844 125.482 171.304 132.531 171.304 139.581C171.304 146.631 165.664 139.581 157.91 139.581H151.565Z" fill="#196042"/>
<path d="M109.973 138.171L203.027 170.599M203.027 170.599C203.027 170.599 220.213 164.584 231.225 160.73M203.027 170.599L214.105 186.108C214.105 186.108 226.072 202.863 231.225 210.077M231.225 160.73C234.529 151.92 239.685 138.171 239.685 138.171C239.685 138.171 242.835 125.629 246.734 118.432C252.32 108.123 266.473 95.807 266.473 95.807C266.473 95.807 279.041 79.9303 290.441 78.9549C296.586 78.4292 299.894 80.7666 305.95 81.9275C361.286 92.5335 393.557 93.3085 447.646 109.086C455.108 111.262 466.68 114.908 466.68 114.908C466.68 114.908 468.616 119.127 469.5 121.957C470.837 126.235 470.834 128.823 471.615 133.236C477.401 165.929 480.074 217.831 480.074 217.831L487.829 321.459L495.583 377.856L498.403 413.809L500.518 438.482C500.518 438.482 502.237 444.927 503.338 449.056M231.225 160.73C235.578 163.341 237.769 165.898 239.685 170.599C241.97 176.208 240.954 176.263 239.685 186.108C238.416 195.953 236.417 201.616 231.225 210.077M493.468 466.68C434.554 483.749 397.415 482.846 342.608 510.387C317.21 523.15 280.572 548.455 280.572 548.455M493.468 466.68C494.802 473.604 498.285 477.958 504.748 480.779C510.299 483.202 514.95 483.698 520.257 480.779C520.257 480.779 524.124 476.912 526.601 474.435M493.468 466.68C493.468 466.68 496.413 461.06 498.403 457.516C500.275 454.181 501.356 452.328 503.338 449.056M280.572 548.455C280.572 548.455 257.448 516.293 246.734 493.468C239.478 478.009 234.303 469.379 231.225 452.581C228.149 435.792 230.369 425.921 231.225 408.874C232.534 382.818 238.401 368.665 239.685 342.608C240.497 326.11 239.685 316.829 239.685 300.311C239.685 277.185 243.66 263.876 239.685 241.095C237.526 228.726 234.529 222.19 231.225 210.077M280.572 548.455C280.572 548.455 263.582 571.455 255.899 587.932C247.84 605.213 245.444 615.895 241.095 634.459C238.286 646.447 236.485 653.209 235.455 665.477C234.557 676.177 234.557 682.272 235.455 692.971M280.572 548.455L299.44 578.063M526.601 474.435C532.107 479.941 540.7 488.534 540.7 488.534L563.259 568.194C563.259 568.194 571.516 584.923 574.538 596.392C576.534 603.964 577.678 608.31 578.063 616.131C578.595 626.942 576.823 633.043 574.538 643.624C572.663 652.31 570.783 656.976 568.194 665.477C564.313 678.22 557.619 687.169 557.619 697.905C557.619 708.642 557.619 714.662 557.619 725.399C557.619 725.399 556.534 748.211 557.619 762.761C558.717 777.477 563.259 800.124 563.259 800.124C563.259 800.124 565.988 824.96 557.619 836.781C553.906 842.027 551.095 844.67 545.635 848.061C540.38 851.325 536.844 852.244 530.831 853.7C519.593 856.423 512.77 854.296 501.223 853.7C484.036 852.814 457.516 848.061 457.516 848.061M526.601 474.435C526.063 470.195 525.426 467.805 523.781 463.86C521.783 459.066 519.972 456.641 516.732 452.581C513.492 448.521 508.569 450.433 503.338 449.056M235.455 692.971C237.657 705.635 237.292 713.12 241.095 725.399C245.139 738.458 248.788 745.445 255.899 757.122C263.949 770.342 269.659 777.163 280.572 788.14C294.004 801.651 302.804 808.293 319.345 817.748C332.401 825.211 340.371 828.366 354.592 833.257C373.794 839.86 385.252 841.637 405.349 844.536C425.559 847.452 457.516 848.061 457.516 848.061M235.455 692.971C242.269 694.616 253.784 696.918 253.784 692.971M457.516 848.061L462.45 858.635L496.288 970.723C496.288 970.723 504.517 971.548 509.682 970.723C518.682 969.286 528.335 969.619 530.831 960.854C531.736 957.676 530.831 952.394 530.831 952.394M326.394 620.36L299.44 578.063M299.44 578.063L310.18 571.718" stroke="#424242" stroke-width="7.04955" stroke-linecap="round" stroke-linejoin="round"/>
<rect x="404.644" y="516.492" width="45.7876" height="21.1486" transform="rotate(-11.24 404.644 516.492)" fill="#EA0000"/>
<rect x="458.221" y="503.803" width="45.7876" height="21.1486" transform="rotate(-11.24 458.221 503.803)" fill="#EA0000"/>
<rect x="324.11" y="580.351" width="88.4405" height="28.1982" transform="rotate(-14.7724 324.11 580.351)" fill="#EA0000"/>
<rect x="413.01" y="558.143" width="48.136" height="23.7932" transform="rotate(-13.8561 413.01 558.143)" fill="#EA0000"/>
<rect x="480.005" y="547.045" width="45.1171" height="22.6078" transform="rotate(14.2693 480.005 547.045)" fill="#EA0000"/>
<rect x="344.581" y="618.228" width="44.985" height="36.1041" transform="rotate(-11.4019 344.581 618.228)" fill="#EA0000"/>
<rect x="403.351" y="605.848" width="44.491" height="34.6009" transform="rotate(-12.0424 403.351 605.848)" fill="#EA0000"/>
<rect x="479.369" y="602.032" width="71.9054" height="29.6081" fill="#EA0000"/>
<circle cx="348.248" cy="611.901" r="2.81982" fill="#006239"/>
<circle cx="349.658" cy="611.901" r="2.81982" fill="#66B577"/>
<circle cx="561.144" cy="626" r="2.81982" fill="#006239"/>
<circle cx="562.554" cy="626" r="2.81982" fill="#66B577"/>
<circle cx="563.964" cy="609.081" r="2.81982" fill="#006239"/>
<circle cx="565.374" cy="609.081" r="2.81982" fill="#66B577"/>
<circle cx="513.207" cy="548.455" r="2.81982" fill="#006239"/>
<circle cx="514.617" cy="548.455" r="2.81982" fill="#66B577"/>
<circle cx="527.306" cy="542.815" r="2.81982" fill="#006239"/>
<circle cx="528.716" cy="542.815" r="2.81982" fill="#66B577"/>
<circle cx="535.766" cy="572.423" r="2.81982" fill="#006239"/>
<circle cx="537.176" cy="572.423" r="2.81982" fill="#66B577"/>
<circle cx="318.64" cy="762.761" r="4.22973" fill="#006239"/>
<circle cx="320.755" cy="762.761" r="4.22973" fill="#66B577"/>
<circle cx="341.198" cy="783.91" r="4.22973" fill="#006239"/>
<circle cx="343.313" cy="783.91" r="4.22973" fill="#66B577"/>
<circle cx="349.658" cy="779.68" r="4.22973" fill="#006239"/>
<circle cx="351.773" cy="779.68" r="4.22973" fill="#66B577"/>
<circle cx="370.806" cy="783.91" r="4.22973" fill="#006239"/>
<circle cx="372.921" cy="783.91" r="4.22973" fill="#66B577"/>
<circle cx="384.905" cy="788.14" r="4.22973" fill="#006239"/>
<circle cx="387.02" cy="788.14" r="4.22973" fill="#66B577"/>
<circle cx="363.757" cy="609.081" r="2.81982" fill="#006239"/>
<circle cx="365.167" cy="609.081" r="2.81982" fill="#66B577"/>
<circle cx="363.757" cy="657.018" r="2.81982" fill="#006239"/>
<circle cx="365.167" cy="657.018" r="2.81982" fill="#66B577"/>
<circle cx="406.054" cy="599.212" r="2.81982" fill="#006239"/>
<circle cx="407.464" cy="599.212" r="2.81982" fill="#66B577"/>
<circle cx="422.973" cy="593.572" r="2.81982" fill="#006239"/>
<circle cx="424.383" cy="593.572" r="2.81982" fill="#66B577"/>
<circle cx="384.905" cy="651.378" r="2.81982" fill="#006239"/>
<circle cx="386.315" cy="651.378" r="2.81982" fill="#66B577"/>
<circle cx="407.464" cy="645.739" r="2.81982" fill="#006239"/>
<circle cx="408.874" cy="645.739" r="2.81982" fill="#66B577"/>
<circle cx="415.923" cy="644.329" r="1.40991" fill="#006239"/>
<circle cx="416.628" cy="644.329" r="1.40991" fill="#66B577"/>
<circle cx="421.563" cy="642.919" r="1.40991" fill="#006239"/>
<circle cx="422.268" cy="642.919" r="1.40991" fill="#66B577"/>
<circle cx="427.203" cy="641.509" r="1.40991" fill="#006239"/>
<circle cx="427.908" cy="641.509" r="1.40991" fill="#66B577"/>
<circle cx="432.842" cy="640.099" r="1.40991" fill="#006239"/>
<circle cx="433.547" cy="640.099" r="1.40991" fill="#66B577"/>
<circle cx="437.072" cy="638.689" r="1.40991" fill="#006239"/>
<circle cx="437.777" cy="638.689" r="1.40991" fill="#66B577"/>
<circle cx="446.941" cy="635.869" r="1.40991" fill="#006239"/>
<circle cx="447.646" cy="635.869" r="1.40991" fill="#66B577"/>
<circle cx="452.581" cy="635.869" r="1.40991" fill="#006239"/>
<circle cx="453.286" cy="635.869" r="1.40991" fill="#66B577"/>
<circle cx="393.365" cy="602.032" r="2.81982" fill="#006239"/>
<circle cx="394.775" cy="602.032" r="2.81982" fill="#66B577"/>
<circle cx="377.856" cy="606.261" r="2.81982" fill="#006239"/>
<circle cx="379.266" cy="606.261" r="2.81982" fill="#66B577"/>
<circle cx="351.068" cy="669.707" r="2.81982" fill="#006239"/>
<circle cx="352.478" cy="669.707" r="2.81982" fill="#66B577"/>
<circle cx="434.252" cy="589.342" r="2.81982" fill="#006239"/>
<circle cx="435.662" cy="589.342" r="2.81982" fill="#66B577"/>
<path d="M485.009 897.408L499.108 884.014L490.649 871.324L506.158 876.964L499.108 865.685L509.682 871.324V854.405L502.633 840.306L430.023 766.991L427.908 711.3M427.908 711.3L461.041 692.971L468.795 694.714M427.908 711.3L454.696 688.036M427.908 711.3L426.498 668.297M490.649 709.89L468.795 694.714M454.696 688.036L468.795 678.872M454.696 688.036L400.414 648.559M468.795 678.872V669.707V630.935V621.065M468.795 678.872V690.151M468.795 621.065L461.041 622.475L455.401 623.18M468.795 621.065L469.5 588.637H456.811L467.385 585.818C463.39 585.348 455.542 583.562 456.106 582.998C456.67 582.434 464.8 581.588 468.795 580.883V567.489L451.876 506.158M400.414 648.559L377.856 678.872M400.414 648.559V633.755L394.775 613.311L378.561 597.097M468.795 694.714V690.151M468.795 690.151L544.93 701.43" stroke="#6C6C6C" stroke-width="2.81982" stroke-linecap="round" stroke-linejoin="round"/>
<path d="M295.376 752.892C295.376 752.892 299.042 759.659 299.606 761.351V763.466C299.606 764.641 302.534 771.276 306.655 774.041C309.765 776.126 310.18 775.45 315.82 776.86C321.459 778.27 322.869 780.385 325.689 783.91C328.509 787.435 336.969 790.255 336.969 790.255C336.969 790.255 339.788 790.255 342.608 792.369C345.428 794.484 352.135 791.423 358.117 792.369C361.481 792.902 363.192 794.112 366.577 794.484C369.313 794.785 373.626 794.484 373.626 794.484H386.315C391.25 794.484 390.947 792.048 394.07 792.369C397.132 792.684 399.709 795.189 401.119 795.894C402.529 796.599 404.258 793.069 406.759 792.369C411.457 791.056 411.694 792.369 418.743 795.894C425.793 799.419 422.898 798.106 425.088 800.124C427.396 802.251 427.908 804.354 430.023 806.468C431.714 808.16 432.607 808.583 432.842 808.583C434.252 808.583 437.354 808.16 438.482 806.468C439.61 804.777 446.61 805.397 449.761 808.583C452.21 811.059 454.563 814.18 452.581 817.043C451.798 818.175 451.171 819.393 449.761 819.158C449.761 819.158 444.161 819.482 440.597 819.158C436.403 818.776 434.233 816.985 430.023 817.043C426.081 817.097 424.058 819.699 420.153 819.158C416.495 818.651 415.343 815.5 411.694 814.928C407.533 814.275 404.753 819.171 401.119 817.043C399.264 815.956 399.132 814.316 397.595 812.813C395.626 810.888 393.86 810.571 391.955 808.583C389.894 806.434 390.632 802.886 387.725 802.239C385.429 801.727 384.425 804.6 382.086 804.354C380.249 804.16 379.697 802.097 377.856 802.239C375.527 802.418 375.753 805.502 373.626 806.468C371.12 807.608 369.276 805.929 366.577 806.468C362.955 807.193 361.681 809.726 358.117 810.698C353.336 812.002 350.355 810.17 345.428 810.698C341.241 811.147 339.048 812.432 334.854 812.813C331.289 813.137 329.157 813.697 325.689 812.813C321.249 811.681 319.607 809.047 315.82 806.468C310.449 802.812 307.153 801.056 302.426 796.599C297.732 792.174 295.846 788.845 291.851 783.91C287.857 778.975 278.143 775.187 279.162 766.991C279.757 762.212 283.157 759.237 285.507 756.417L295.376 752.892Z" fill="#006239"/>
<path d="M306.655 725.399C306.655 725.399 312.658 720.431 310.18 719.054C308.977 718.386 307.836 719.762 306.655 719.054C305.162 718.158 304.904 716.532 305.246 714.824C305.627 712.915 310.885 712.004 308.77 711.3C306.655 710.595 301.862 708.903 299.606 707.775C296.786 706.365 300.37 703.198 302.426 701.43C305.557 698.738 310.18 701.43 313 701.43C315.82 701.43 322.061 701.309 325.689 704.955C327.689 706.964 325.689 709.89 329.214 711.3C332.034 712.427 329.214 719.054 329.214 719.054C329.214 719.054 327.381 725.822 325.689 727.514C323.574 729.628 322.869 730.333 321.459 730.333H313C309.972 730.333 306.373 730.897 305.246 730.333C304.118 729.769 305.715 726.809 306.655 725.399Z" fill="#006239"/>
<path d="M505.453 661.953C507.098 662.658 508.963 662.516 511.092 661.953C513.238 661.385 512.079 659.133 516.027 659.133H520.962C523.077 659.133 524.487 653.493 524.487 651.378C524.487 649.263 520.257 645.034 518.847 645.739C517.437 646.444 515.322 647.854 513.912 649.263C512.502 650.673 512.816 652.508 511.092 653.493C509.18 654.586 507.285 652.272 505.453 653.493C502.704 655.326 503.808 661.248 505.453 661.953Z" fill="#006239"/>
<path d="M471.615 1030.64L460.336 1034.17C460.336 1034.17 457.939 1037.98 456.811 1039.1C455.401 1040.51 456.811 1041.92 456.811 1044.74C456.811 1047 453.991 1048.5 452.581 1048.97C449.761 1050.15 444.862 1054.65 439.187 1054.61C435.782 1054.59 432.137 1053.91 430.728 1052.5C429.6 1051.37 432.607 1046.86 434.252 1044.74L436.367 1039.1L439.187 1034.17C440.597 1032.29 441.883 1028.4 444.122 1025C445.638 1022.71 446.941 1021.48 448.351 1019.36C449.479 1017.67 451.044 1017.8 452.581 1016.55C456.546 1013.3 458.08 1007.66 460.336 1005.97C463.155 1003.86 462.696 1003.82 464.565 1003.15C467.158 1002.22 468.09 1003.15 471.615 1003.15C475.14 1003.15 479.369 1001.04 479.369 998.216C479.369 995.396 477.652 992.192 479.369 989.052C481.32 985.486 488.534 984.117 488.534 984.117L495.583 981.297C495.583 981.297 500.8 977.35 504.748 975.658C509.682 973.543 509.682 979.887 512.502 981.297C514.758 982.425 516.732 986.937 517.437 989.052C517.437 989.052 518.916 1000.83 514.617 1005.97C513.867 1006.87 513.587 1007.65 512.502 1008.09C509.749 1009.19 512.569 1001.71 509.682 1001.04C506.411 1000.27 507.841 1006.77 504.748 1008.09C502.467 1009.05 499.409 1005.82 498.403 1008.09C497.302 1010.56 503.426 1008.54 504.748 1010.91C505.821 1012.83 505.849 1014.64 504.748 1016.55C503.638 1018.47 499.813 1019.36 499.813 1019.36C499.813 1019.36 496.486 1026.99 492.059 1028.53C489.198 1029.52 487.299 1028.08 484.304 1028.53C481.462 1028.96 480.074 1030.64 477.255 1030.64H471.615Z" fill="#006239"/>
<path d="M298.27 750.15C298.27 750.15 301.936 756.918 302.5 758.61V760.725C302.5 761.9 305.428 768.534 309.55 771.299C312.659 773.385 313.074 772.709 318.714 774.119C324.354 775.529 325.764 777.644 328.583 781.168C331.403 784.693 339.863 787.513 339.863 787.513C339.863 787.513 342.682 787.513 345.502 789.628C348.322 791.743 355.029 788.681 361.011 789.628C364.375 790.16 366.086 791.371 369.471 791.743C372.207 792.044 376.52 791.743 376.52 791.743H389.21C394.144 791.743 393.842 789.307 396.964 789.628C400.026 789.943 402.604 792.448 404.014 793.153C405.423 793.858 407.152 790.327 409.653 789.628C414.352 788.315 414.588 789.628 421.637 793.153C428.687 796.677 425.792 795.364 427.982 797.382C430.29 799.51 430.802 801.612 432.917 803.727C434.609 805.419 435.502 805.842 435.737 805.842C437.146 805.842 440.248 805.419 441.376 803.727C442.504 802.035 449.504 802.656 452.655 805.842C455.104 808.318 457.457 811.438 455.475 814.301C454.692 815.433 454.065 816.651 452.655 816.416C452.655 816.416 447.055 816.74 443.491 816.416C439.297 816.035 437.128 814.244 432.917 814.301C428.975 814.355 426.952 816.957 423.047 816.416C419.389 815.909 418.237 812.759 414.588 812.186C410.427 811.534 407.648 816.429 404.014 814.301C402.158 813.215 402.026 811.575 400.489 810.072C398.52 808.147 396.754 807.829 394.849 805.842C392.788 803.692 393.526 800.145 390.619 799.497C388.323 798.986 387.319 801.858 384.98 801.612C383.143 801.419 382.591 799.356 380.75 799.497C378.421 799.676 378.647 802.76 376.52 803.727C374.014 804.866 372.17 803.187 369.471 803.727C365.849 804.451 364.575 806.985 361.011 807.957C356.23 809.261 353.249 807.429 348.322 807.957C344.135 808.405 341.942 809.69 337.748 810.072C334.184 810.396 332.051 810.956 328.583 810.072C324.143 808.94 322.502 806.305 318.714 803.727C313.343 800.071 310.047 798.315 305.32 793.858C300.626 789.433 298.74 786.103 294.746 781.168C290.751 776.234 281.037 772.445 282.056 764.25C282.651 759.471 286.051 756.495 288.401 753.675L298.27 750.15Z" fill="#5A9B69"/>
<path d="M309.55 722.657C309.55 722.657 315.552 717.689 313.074 716.313C311.871 715.644 310.73 717.021 309.55 716.313C308.057 715.417 307.798 713.79 308.14 712.083C308.521 710.174 313.779 709.263 311.664 708.558C309.55 707.853 304.756 706.161 302.5 705.033C299.68 703.623 303.264 700.457 305.32 698.689C308.451 695.996 313.074 698.689 315.894 698.689C318.714 698.689 324.956 698.568 328.583 702.214C330.583 704.223 328.583 707.148 332.108 708.558C334.928 709.686 332.108 716.313 332.108 716.313C332.108 716.313 330.275 723.08 328.583 724.772C326.469 726.887 325.764 727.592 324.354 727.592H315.894C312.866 727.592 309.268 728.156 308.14 727.592C307.012 727.028 308.61 724.067 309.55 722.657Z" fill="#5A9B69"/>
<path d="M508.347 659.211C509.992 659.916 511.857 659.774 513.987 659.211C516.132 658.644 514.973 656.391 518.921 656.391H523.856C525.971 656.391 527.381 650.752 527.381 648.637C527.381 646.522 523.151 642.292 521.741 642.997C520.331 643.702 518.216 645.112 516.806 646.522C515.396 647.932 515.71 649.767 513.987 650.752C512.074 651.844 510.179 649.53 508.347 650.752C505.598 652.584 506.702 658.506 508.347 659.211Z" fill="#5A9B69"/>
<path d="M474.509 1027.9L463.23 1031.43C463.23 1031.43 460.833 1035.23 459.705 1036.36C458.295 1037.77 459.705 1039.18 459.705 1042C459.705 1044.26 456.885 1045.76 455.475 1046.23C452.655 1047.41 447.757 1051.91 442.081 1051.87C438.676 1051.85 435.032 1051.17 433.622 1049.76C432.494 1048.63 435.502 1044.12 437.146 1042L439.261 1036.36L442.081 1031.43C443.491 1029.55 444.778 1025.66 447.016 1022.26C448.532 1019.96 449.836 1018.74 451.246 1016.62C452.373 1014.93 453.938 1015.06 455.475 1013.8C459.441 1010.56 460.974 1004.92 463.23 1003.23C466.05 1001.11 465.59 1001.08 467.46 1000.41C470.052 999.483 470.984 1000.41 474.509 1000.41C478.034 1000.41 482.264 998.295 482.264 995.475C482.264 992.655 480.546 989.45 482.264 986.31C484.214 982.744 491.428 981.376 491.428 981.376L498.478 978.556C498.478 978.556 503.694 974.608 507.642 972.916C512.577 970.801 512.577 977.146 515.396 978.556C517.652 979.684 519.626 984.195 520.331 986.31C520.331 986.31 521.81 998.093 517.511 1003.23C516.762 1004.12 516.481 1004.91 515.396 1005.34C512.643 1006.45 515.463 998.971 512.577 998.295C509.305 997.528 510.735 1004.03 507.642 1005.34C505.361 1006.31 502.304 1003.08 501.297 1005.34C500.196 1007.82 506.32 1005.8 507.642 1008.16C508.715 1010.09 508.743 1011.9 507.642 1013.8C506.532 1015.73 502.707 1016.62 502.707 1016.62C502.707 1016.62 499.381 1024.25 494.953 1025.79C492.093 1026.78 490.193 1025.34 487.198 1025.79C484.356 1026.22 482.969 1027.9 480.149 1027.9H474.509Z" fill="#5A9B69"/>
<path d="M298.27 752.97C298.27 752.97 301.936 759.738 302.5 761.43V763.545C302.5 764.719 305.428 771.354 309.55 774.119C312.659 776.205 313.074 775.529 318.714 776.939C324.354 778.349 325.764 780.463 328.583 783.988C331.403 787.513 339.863 790.333 339.863 790.333C339.863 790.333 342.682 790.333 345.502 792.448C348.322 794.563 355.029 791.501 361.011 792.448C364.375 792.98 366.086 794.191 369.471 794.563C372.207 794.863 376.52 794.563 376.52 794.563H389.21C394.144 794.563 393.842 792.127 396.964 792.448C400.026 792.762 402.604 795.268 404.014 795.972C405.423 796.677 407.152 793.147 409.653 792.448C414.352 791.135 414.588 792.448 421.637 795.972C428.687 799.497 425.792 798.184 427.982 800.202C430.29 802.329 430.802 804.432 432.917 806.547C434.609 808.239 435.502 808.662 435.737 808.662C437.146 808.662 440.248 808.239 441.376 806.547C442.504 804.855 449.504 805.475 452.655 808.662C455.104 811.138 457.457 814.258 455.475 817.121C454.692 818.253 454.065 819.471 452.655 819.236C452.655 819.236 447.055 819.56 443.491 819.236C439.297 818.855 437.128 817.063 432.917 817.121C428.975 817.175 426.952 819.777 423.047 819.236C419.389 818.729 418.237 815.579 414.588 815.006C410.427 814.354 407.648 819.249 404.014 817.121C402.158 816.035 402.026 814.395 400.489 812.891C398.52 810.967 396.754 810.649 394.849 808.662C392.788 806.512 393.526 802.964 390.619 802.317C388.323 801.806 387.319 804.678 384.98 804.432C383.143 804.239 382.591 802.175 380.75 802.317C378.421 802.496 378.647 805.58 376.52 806.547C374.014 807.686 372.17 806.007 369.471 806.547C365.849 807.271 364.575 809.805 361.011 810.777C356.23 812.08 353.249 810.249 348.322 810.777C344.135 811.225 341.942 812.51 337.748 812.891C334.184 813.215 332.051 813.775 328.583 812.891C324.143 811.76 322.502 809.125 318.714 806.547C313.343 802.891 310.047 801.135 305.32 796.677C300.626 792.252 298.74 788.923 294.746 783.988C290.751 779.054 281.037 775.265 282.056 767.069C282.651 762.29 286.051 759.315 288.401 756.495L298.27 752.97Z" fill="#66B577"/>
<path d="M309.55 725.477C309.55 725.477 315.552 720.509 313.074 719.132C311.871 718.464 310.73 719.841 309.55 719.132C308.057 718.237 307.798 716.61 308.14 714.903C308.521 712.994 313.779 712.083 311.664 711.378C309.55 710.673 304.756 708.981 302.5 707.853C299.68 706.443 303.264 703.276 305.32 701.509C308.451 698.816 313.074 701.509 315.894 701.509C318.714 701.509 324.956 701.388 328.583 705.033C330.583 707.042 328.583 709.968 332.108 711.378C334.928 712.506 332.108 719.132 332.108 719.132C332.108 719.132 330.275 725.9 328.583 727.592C326.469 729.707 325.764 730.412 324.354 730.412H315.894C312.866 730.412 309.268 730.976 308.14 730.412C307.012 729.848 308.61 726.887 309.55 725.477Z" fill="#66B577"/>
<path d="M508.347 662.031C509.992 662.736 511.857 662.594 513.987 662.031C516.132 661.464 514.973 659.211 518.921 659.211H523.856C525.971 659.211 527.381 653.572 527.381 651.457C527.381 649.342 523.151 645.112 521.741 645.817C520.331 646.522 518.216 647.932 516.806 649.342C515.396 650.752 515.71 652.587 513.987 653.572C512.074 654.664 510.179 652.35 508.347 653.572C505.598 655.404 506.702 661.326 508.347 662.031Z" fill="#66B577"/>
<path d="M474.509 1030.72L463.23 1034.25C463.23 1034.25 460.833 1038.05 459.705 1039.18C458.295 1040.59 459.705 1042 459.705 1044.82C459.705 1047.08 456.885 1048.58 455.475 1049.05C452.655 1050.23 447.757 1054.73 442.081 1054.69C438.676 1054.67 435.032 1053.99 433.622 1052.58C432.494 1051.45 435.502 1046.94 437.146 1044.82L439.261 1039.18L442.081 1034.25C443.491 1032.37 444.778 1028.48 447.016 1025.08C448.532 1022.78 449.836 1021.56 451.246 1019.44C452.373 1017.75 453.938 1017.88 455.475 1016.62C459.441 1013.38 460.974 1007.74 463.23 1006.05C466.05 1003.93 465.59 1003.9 467.46 1003.23C470.052 1002.3 470.984 1003.23 474.509 1003.23C478.034 1003.23 482.264 1001.11 482.264 998.294C482.264 995.475 480.546 992.27 482.264 989.13C484.214 985.564 491.428 984.195 491.428 984.195L498.478 981.376C498.478 981.376 503.694 977.428 507.642 975.736C512.577 973.621 512.577 979.966 515.396 981.376C517.652 982.503 519.626 987.015 520.331 989.13C520.331 989.13 521.81 1000.91 517.511 1006.05C516.762 1006.94 516.481 1007.73 515.396 1008.16C512.643 1009.27 515.463 1001.79 512.577 1001.11C509.305 1000.35 510.735 1006.85 507.642 1008.16C505.361 1009.13 502.304 1005.9 501.297 1008.16C500.196 1010.64 506.32 1008.62 507.642 1010.98C508.715 1012.91 508.743 1014.72 507.642 1016.62C506.532 1018.55 502.707 1019.44 502.707 1019.44C502.707 1019.44 499.381 1027.07 494.953 1028.61C492.093 1029.6 490.193 1028.16 487.198 1028.61C484.356 1029.04 482.969 1030.72 480.149 1030.72H474.509Z" fill="#66B577"/>
<path d="M455.401 688.741C450.231 693.206 439.751 702.276 439.187 702.84L438.482 704.25L460.336 692.266L467.385 692.971V680.987L455.401 688.741Z" fill="#6C6C6C"/>
<path d="M537.881 899.523L498.403 910.802L495.583 911.507L502.633 934.065L513.912 930.541L520.962 950.984L539.996 946.755L533.651 923.491L544.93 919.966L537.881 899.523Z" fill="#EA0000"/>
<rect x="517.437" y="991.167" width="32.4279" height="18.3288" fill="#EA0000"/>
<rect x="436.083" y="716.04" width="104.333" height="42.2973" transform="rotate(-2.85637 436.083 716.04)" fill="#E5E5E5"/>
<rect x="303.087" y="548.399" width="94.4804" height="33.0827" transform="rotate(-19.8602 303.087 548.399)" fill="#E5E5E5"/>
<rect x="539.995" y="528.765" width="5.63964" height="12.6892" transform="rotate(-14.9941 539.995 528.765)" fill="#D9E979"/>
<rect x="544.225" y="706.365" width="7.04955" height="18.3288" fill="#D9E979"/>
<rect x="414.251" y="498.465" width="9.86937" height="4.22973" transform="rotate(-8.66014 414.251 498.465)" fill="#EA0000"/>
<rect x="462.553" y="485.711" width="14.1454" height="10.3501" transform="rotate(-10.4146 462.553 485.711)" fill="#EA0000"/>
<rect x="489.18" y="490.421" width="10.4114" height="3.92399" transform="rotate(-9.5579 489.18 490.421)" fill="#EA0000"/>
<path d="M279.162 689.446C273.993 691.091 263.089 694.381 260.833 694.381L253.784 687.331V652.083L294.671 596.392L307.36 620.36L279.162 659.838V689.446Z" fill="#E5E5E5"/>
<path d="M109.973 138.171L203.027 170.599M203.027 170.599C203.027 170.599 220.213 164.584 231.225 160.73M203.027 170.599L214.105 186.108C214.105 186.108 226.072 202.863 231.225 210.077M231.225 160.73C234.529 151.92 239.685 138.171 239.685 138.171C239.685 138.171 242.835 125.629 246.734 118.432C252.32 108.123 266.473 95.807 266.473 95.807C266.473 95.807 279.041 79.9303 290.441 78.9549C296.586 78.4292 299.894 80.7666 305.95 81.9275C361.286 92.5335 393.557 93.3085 447.646 109.086C455.108 111.262 466.68 114.908 466.68 114.908C466.68 114.908 468.616 119.127 469.5 121.957C470.837 126.235 470.834 128.823 471.615 133.236C477.401 165.929 480.074 217.831 480.074 217.831L487.829 321.459L495.583 377.856L498.403 413.809L500.518 438.482C500.518 438.482 502.237 444.927 503.338 449.056M231.225 160.73C235.578 163.341 237.769 165.898 239.685 170.599C241.97 176.208 240.954 176.263 239.685 186.108C238.416 195.953 236.417 201.616 231.225 210.077M493.468 466.68C434.554 483.749 397.415 482.846 342.608 510.387C317.21 523.15 280.572 548.455 280.572 548.455M493.468 466.68C494.802 473.604 498.285 477.958 504.748 480.779C510.299 483.202 514.95 483.698 520.257 480.779C520.257 480.779 524.124 476.912 526.601 474.435M493.468 466.68C493.468 466.68 496.413 461.06 498.403 457.516C500.275 454.181 501.356 452.328 503.338 449.056M280.572 548.455C280.572 548.455 257.448 516.293 246.734 493.468C239.478 478.009 234.303 469.379 231.225 452.581C228.149 435.792 230.369 425.921 231.225 408.874C232.534 382.818 238.401 368.665 239.685 342.608C240.497 326.11 239.685 316.829 239.685 300.311C239.685 277.185 243.66 263.876 239.685 241.095C237.526 228.726 234.529 222.19 231.225 210.077M280.572 548.455C280.572 548.455 263.582 571.455 255.899 587.932C247.84 605.213 245.444 615.895 241.095 634.459C238.286 646.447 236.485 653.209 235.455 665.477C234.557 676.177 234.557 682.272 235.455 692.971M280.572 548.455L299.44 578.063M526.601 474.435C532.107 479.941 540.7 488.534 540.7 488.534L563.259 568.194C563.259 568.194 571.516 584.923 574.538 596.392C576.534 603.964 577.678 608.31 578.063 616.131C578.595 626.942 576.823 633.043 574.538 643.624C572.663 652.31 570.783 656.976 568.194 665.477C564.313 678.22 557.619 687.169 557.619 697.905C557.619 708.642 557.619 714.662 557.619 725.399C557.619 725.399 556.534 748.211 557.619 762.761C558.717 777.477 563.259 800.124 563.259 800.124C563.259 800.124 565.988 824.96 557.619 836.781C553.906 842.027 551.095 844.67 545.635 848.061C540.38 851.325 536.844 852.244 530.831 853.7C519.593 856.423 512.77 854.296 501.223 853.7C484.036 852.814 457.516 848.061 457.516 848.061M526.601 474.435C526.063 470.195 525.426 467.805 523.781 463.86C521.783 459.066 519.972 456.641 516.732 452.581C513.492 448.521 508.569 450.433 503.338 449.056M235.455 692.971C237.657 705.635 237.292 713.12 241.095 725.399C245.139 738.458 248.788 745.445 255.899 757.122C263.949 770.342 269.659 777.163 280.572 788.14C294.004 801.651 302.804 808.293 319.345 817.748C332.401 825.211 340.371 828.366 354.592 833.257C373.794 839.86 385.252 841.637 405.349 844.536C425.559 847.452 457.516 848.061 457.516 848.061M235.455 692.971C242.269 694.616 253.784 696.918 253.784 692.971M457.516 848.061L462.45 858.635L496.288 970.723C496.288 970.723 504.517 971.548 509.682 970.723C518.682 969.286 528.335 969.619 530.831 960.854C531.736 957.676 530.831 952.394 530.831 952.394M326.394 620.36L299.44 578.063M299.44 578.063L310.18 571.718" stroke="#424242" stroke-width="7.04955" stroke-linecap="round" stroke-linejoin="round"/>
<rect x="404.644" y="516.492" width="45.7876" height="21.1486" transform="rotate(-11.24 404.644 516.492)" fill="#EA0000"/>
<rect x="458.221" y="503.803" width="45.7876" height="21.1486" transform="rotate(-11.24 458.221 503.803)" fill="#EA0000"/>
<rect x="324.11" y="580.351" width="88.4405" height="28.1982" transform="rotate(-14.7724 324.11 580.351)" fill="#EA0000"/>
<rect x="413.01" y="558.143" width="48.136" height="23.7932" transform="rotate(-13.8561 413.01 558.143)" fill="#EA0000"/>
<rect x="480.005" y="547.045" width="45.1171" height="22.6078" transform="rotate(14.2693 480.005 547.045)" fill="#EA0000"/>
<rect x="316.778" y="671.799" width="59.2162" height="23.9685" transform="rotate(4.20292 316.778 671.799)" fill="#EA0000"/>
<rect x="344.581" y="618.228" width="44.985" height="36.1041" transform="rotate(-11.4019 344.581 618.228)" fill="#EA0000"/>
<rect x="403.351" y="605.848" width="44.491" height="34.6009" transform="rotate(-12.0424 403.351 605.848)" fill="#EA0000"/>
<rect x="479.369" y="602.032" width="71.9054" height="29.6081" fill="#EA0000"/>
<circle cx="348.248" cy="611.901" r="2.81982" fill="#006239"/>
<circle cx="349.658" cy="611.901" r="2.81982" fill="#66B577"/>
<circle cx="224.176" cy="176.239" r="5.63964" fill="#006239"/>
<circle cx="226.995" cy="176.239" r="5.63964" fill="#66B577"/>
<circle cx="561.144" cy="626" r="2.81982" fill="#006239"/>
<circle cx="562.554" cy="626" r="2.81982" fill="#66B577"/>
<circle cx="563.964" cy="609.081" r="2.81982" fill="#006239"/>
<circle cx="565.374" cy="609.081" r="2.81982" fill="#66B577"/>
<circle cx="513.207" cy="548.455" r="2.81982" fill="#006239"/>
<circle cx="514.617" cy="548.455" r="2.81982" fill="#66B577"/>
<circle cx="527.306" cy="542.815" r="2.81982" fill="#006239"/>
<circle cx="528.716" cy="542.815" r="2.81982" fill="#66B577"/>
<circle cx="535.766" cy="572.423" r="2.81982" fill="#006239"/>
<circle cx="537.176" cy="572.423" r="2.81982" fill="#66B577"/>
<circle cx="318.64" cy="762.761" r="4.22973" fill="#006239"/>
<circle cx="320.755" cy="762.761" r="4.22973" fill="#66B577"/>
<circle cx="341.198" cy="783.91" r="4.22973" fill="#006239"/>
<circle cx="343.313" cy="783.91" r="4.22973" fill="#66B577"/>
<circle cx="349.658" cy="779.68" r="4.22973" fill="#006239"/>
<circle cx="351.773" cy="779.68" r="4.22973" fill="#66B577"/>
<circle cx="370.806" cy="783.91" r="4.22973" fill="#006239"/>
<circle cx="372.921" cy="783.91" r="4.22973" fill="#66B577"/>
<circle cx="384.905" cy="788.14" r="4.22973" fill="#006239"/>
<circle cx="387.02" cy="788.14" r="4.22973" fill="#66B577"/>
<circle cx="363.757" cy="609.081" r="2.81982" fill="#006239"/>
<circle cx="365.167" cy="609.081" r="2.81982" fill="#66B577"/>
<circle cx="363.757" cy="657.018" r="2.81982" fill="#006239"/>
<circle cx="365.167" cy="657.018" r="2.81982" fill="#66B577"/>
<circle cx="406.054" cy="599.212" r="2.81982" fill="#006239"/>
<circle cx="407.464" cy="599.212" r="2.81982" fill="#66B577"/>
<circle cx="422.973" cy="593.572" r="2.81982" fill="#006239"/>
<circle cx="424.383" cy="593.572" r="2.81982" fill="#66B577"/>
<circle cx="384.905" cy="651.378" r="2.81982" fill="#006239"/>
<circle cx="386.315" cy="651.378" r="2.81982" fill="#66B577"/>
<circle cx="407.464" cy="645.739" r="2.81982" fill="#006239"/>
<circle cx="408.874" cy="645.739" r="2.81982" fill="#66B577"/>
<circle cx="415.923" cy="644.329" r="1.40991" fill="#006239"/>
<circle cx="416.628" cy="644.329" r="1.40991" fill="#66B577"/>
<circle cx="421.563" cy="642.919" r="1.40991" fill="#006239"/>
<circle cx="422.268" cy="642.919" r="1.40991" fill="#66B577"/>
<circle cx="427.203" cy="641.509" r="1.40991" fill="#006239"/>
<circle cx="427.908" cy="641.509" r="1.40991" fill="#66B577"/>
<circle cx="432.842" cy="640.099" r="1.40991" fill="#006239"/>
<circle cx="433.547" cy="640.099" r="1.40991" fill="#66B577"/>
<circle cx="437.072" cy="638.689" r="1.40991" fill="#006239"/>
<circle cx="437.777" cy="638.689" r="1.40991" fill="#66B577"/>
<circle cx="446.941" cy="635.869" r="1.40991" fill="#006239"/>
<circle cx="447.646" cy="635.869" r="1.40991" fill="#66B577"/>
<circle cx="452.581" cy="635.869" r="1.40991" fill="#006239"/>
<circle cx="453.286" cy="635.869" r="1.40991" fill="#66B577"/>
<circle cx="393.365" cy="602.032" r="2.81982" fill="#006239"/>
<circle cx="394.775" cy="602.032" r="2.81982" fill="#66B577"/>
<circle cx="377.856" cy="606.261" r="2.81982" fill="#006239"/>
<circle cx="379.266" cy="606.261" r="2.81982" fill="#66B577"/>
<circle cx="351.068" cy="669.707" r="2.81982" fill="#006239"/>
<circle cx="352.478" cy="669.707" r="2.81982" fill="#66B577"/>
<circle cx="434.252" cy="589.342" r="2.81982" fill="#006239"/>
<circle cx="435.662" cy="589.342" r="2.81982" fill="#66B577"/>
<path d="M485.009 897.408L499.108 884.014L490.649 871.324L506.158 876.964L499.108 865.685L509.682 871.324V854.405L502.633 840.306L430.023 766.991L427.908 711.3M427.908 711.3L461.041 692.971L468.795 694.714M427.908 711.3L454.696 688.036M427.908 711.3L426.498 668.297M490.649 709.89L468.795 694.714M454.696 688.036L468.795 678.872M454.696 688.036L400.414 648.559M468.795 678.872V669.707V630.935V621.065M468.795 678.872V690.151M468.795 621.065L461.041 622.475L455.401 623.18M468.795 621.065L469.5 588.637H456.811L467.385 585.818C463.39 585.348 455.542 583.562 456.106 582.998C456.67 582.434 464.8 581.588 468.795 580.883V567.489L451.876 506.158M400.414 648.559L377.856 678.872M400.414 648.559V633.755L394.775 613.311L378.561 597.097M468.795 694.714V690.151M468.795 690.151L544.93 701.43M169.894 800.124L256.604 766.991" stroke="#6C6C6C" stroke-width="2.81982" stroke-linecap="round" stroke-linejoin="round"/>
<path d="M295.376 752.892C295.376 752.892 299.042 759.659 299.606 761.351V763.466C299.606 764.641 302.534 771.276 306.655 774.041C309.765 776.126 310.18 775.45 315.82 776.86C321.459 778.27 322.869 780.385 325.689 783.91C328.509 787.435 336.969 790.255 336.969 790.255C336.969 790.255 339.788 790.255 342.608 792.369C345.428 794.484 352.135 791.423 358.117 792.369C361.481 792.902 363.192 794.112 366.577 794.484C369.313 794.785 373.626 794.484 373.626 794.484H386.315C391.25 794.484 390.947 792.048 394.07 792.369C397.132 792.684 399.709 795.189 401.119 795.894C402.529 796.599 404.258 793.069 406.759 792.369C411.457 791.056 411.694 792.369 418.743 795.894C425.793 799.419 422.898 798.106 425.088 800.124C427.396 802.251 427.908 804.354 430.023 806.468C431.714 808.16 432.607 808.583 432.842 808.583C434.252 808.583 437.354 808.16 438.482 806.468C439.61 804.777 446.61 805.397 449.761 808.583C452.21 811.059 454.563 814.18 452.581 817.043C451.798 818.175 451.171 819.393 449.761 819.158C449.761 819.158 444.161 819.482 440.597 819.158C436.403 818.776 434.233 816.985 430.023 817.043C426.081 817.097 424.058 819.699 420.153 819.158C416.495 818.651 415.343 815.5 411.694 814.928C407.533 814.275 404.753 819.171 401.119 817.043C399.264 815.956 399.132 814.316 397.595 812.813C395.626 810.888 393.86 810.571 391.955 808.583C389.894 806.434 390.632 802.886 387.725 802.239C385.429 801.727 384.425 804.6 382.086 804.354C380.249 804.16 379.697 802.097 377.856 802.239C375.527 802.418 375.753 805.502 373.626 806.468C371.12 807.608 369.276 805.929 366.577 806.468C362.955 807.193 361.681 809.726 358.117 810.698C353.336 812.002 350.355 810.17 345.428 810.698C341.241 811.147 339.048 812.432 334.854 812.813C331.289 813.137 329.157 813.697 325.689 812.813C321.249 811.681 319.607 809.047 315.82 806.468C310.449 802.812 307.153 801.056 302.426 796.599C297.732 792.174 295.846 788.845 291.851 783.91C287.857 778.975 278.143 775.187 279.162 766.991C279.757 762.212 283.157 759.237 285.507 756.417L295.376 752.892Z" fill="#006239"/>
<path d="M306.655 725.399C306.655 725.399 312.658 720.431 310.18 719.054C308.977 718.386 307.836 719.762 306.655 719.054C305.162 718.158 304.904 716.532 305.246 714.824C305.627 712.915 310.885 712.004 308.77 711.3C306.655 710.595 301.862 708.903 299.606 707.775C296.786 706.365 300.37 703.198 302.426 701.43C305.557 698.738 310.18 701.43 313 701.43C315.82 701.43 322.061 701.309 325.689 704.955C327.689 706.964 325.689 709.89 329.214 711.3C332.034 712.427 329.214 719.054 329.214 719.054C329.214 719.054 327.381 725.822 325.689 727.514C323.574 729.628 322.869 730.333 321.459 730.333H313C309.972 730.333 306.373 730.897 305.246 730.333C304.118 729.769 305.715 726.809 306.655 725.399Z" fill="#006239"/>
<path d="M505.453 661.953C507.098 662.658 508.963 662.516 511.092 661.953C513.238 661.385 512.079 659.133 516.027 659.133H520.962C523.077 659.133 524.487 653.493 524.487 651.378C524.487 649.263 520.257 645.034 518.847 645.739C517.437 646.444 515.322 647.854 513.912 649.263C512.502 650.673 512.816 652.508 511.092 653.493C509.18 654.586 507.285 652.272 505.453 653.493C502.704 655.326 503.808 661.248 505.453 661.953Z" fill="#006239"/>
<path d="M471.615 1030.64L460.336 1034.17C460.336 1034.17 457.939 1037.98 456.811 1039.1C455.401 1040.51 456.811 1041.92 456.811 1044.74C456.811 1047 453.991 1048.5 452.581 1048.97C449.761 1050.15 444.862 1054.65 439.187 1054.61C435.782 1054.59 432.137 1053.91 430.728 1052.5C429.6 1051.37 432.607 1046.86 434.252 1044.74L436.367 1039.1L439.187 1034.17C440.597 1032.29 441.883 1028.4 444.122 1025C445.638 1022.71 446.941 1021.48 448.351 1019.36C449.479 1017.67 451.044 1017.8 452.581 1016.55C456.546 1013.3 458.08 1007.66 460.336 1005.97C463.155 1003.86 462.696 1003.82 464.565 1003.15C467.158 1002.22 468.09 1003.15 471.615 1003.15C475.14 1003.15 479.369 1001.04 479.369 998.216C479.369 995.396 477.652 992.192 479.369 989.052C481.32 985.486 488.534 984.117 488.534 984.117L495.583 981.297C495.583 981.297 500.8 977.35 504.748 975.658C509.682 973.543 509.682 979.887 512.502 981.297C514.758 982.425 516.732 986.937 517.437 989.052C517.437 989.052 518.916 1000.83 514.617 1005.97C513.867 1006.87 513.587 1007.65 512.502 1008.09C509.749 1009.19 512.569 1001.71 509.682 1001.04C506.411 1000.27 507.841 1006.77 504.748 1008.09C502.467 1009.05 499.409 1005.82 498.403 1008.09C497.302 1010.56 503.426 1008.54 504.748 1010.91C505.821 1012.83 505.849 1014.64 504.748 1016.55C503.638 1018.47 499.813 1019.36 499.813 1019.36C499.813 1019.36 496.486 1026.99 492.059 1028.53C489.198 1029.52 487.299 1028.08 484.304 1028.53C481.462 1028.96 480.074 1030.64 477.255 1030.64H471.615Z" fill="#006239"/>
<path d="M298.27 750.15C298.27 750.15 301.936 756.918 302.5 758.61V760.725C302.5 761.9 305.428 768.534 309.55 771.299C312.659 773.385 313.074 772.709 318.714 774.119C324.354 775.529 325.764 777.644 328.583 781.168C331.403 784.693 339.863 787.513 339.863 787.513C339.863 787.513 342.682 787.513 345.502 789.628C348.322 791.743 355.029 788.681 361.011 789.628C364.375 790.16 366.086 791.371 369.471 791.743C372.207 792.044 376.52 791.743 376.52 791.743H389.21C394.144 791.743 393.842 789.307 396.964 789.628C400.026 789.943 402.604 792.448 404.014 793.153C405.423 793.858 407.152 790.327 409.653 789.628C414.352 788.315 414.588 789.628 421.637 793.153C428.687 796.677 425.792 795.364 427.982 797.382C430.29 799.51 430.802 801.612 432.917 803.727C434.609 805.419 435.502 805.842 435.737 805.842C437.146 805.842 440.248 805.419 441.376 803.727C442.504 802.035 449.504 802.656 452.655 805.842C455.104 808.318 457.457 811.438 455.475 814.301C454.692 815.433 454.065 816.651 452.655 816.416C452.655 816.416 447.055 816.74 443.491 816.416C439.297 816.035 437.128 814.244 432.917 814.301C428.975 814.355 426.952 816.957 423.047 816.416C419.389 815.909 418.237 812.759 414.588 812.186C410.427 811.534 407.648 816.429 404.014 814.301C402.158 813.215 402.026 811.575 400.489 810.072C398.52 808.147 396.754 807.829 394.849 805.842C392.788 803.692 393.526 800.145 390.619 799.497C388.323 798.986 387.319 801.858 384.98 801.612C383.143 801.419 382.591 799.356 380.75 799.497C378.421 799.676 378.647 802.76 376.52 803.727C374.014 804.866 372.17 803.187 369.471 803.727C365.849 804.451 364.575 806.985 361.011 807.957C356.23 809.261 353.249 807.429 348.322 807.957C344.135 808.405 341.942 809.69 337.748 810.072C334.184 810.396 332.051 810.956 328.583 810.072C324.143 808.94 322.502 806.305 318.714 803.727C313.343 800.071 310.047 798.315 305.32 793.858C300.626 789.433 298.74 786.103 294.746 781.168C290.751 776.234 281.037 772.445 282.056 764.25C282.651 759.471 286.051 756.495 288.401 753.675L298.27 750.15Z" fill="#5A9B69"/>
<path d="M309.55 722.657C309.55 722.657 315.552 717.689 313.074 716.313C311.871 715.644 310.73 717.021 309.55 716.313C308.057 715.417 307.798 713.79 308.14 712.083C308.521 710.174 313.779 709.263 311.664 708.558C309.55 707.853 304.756 706.161 302.5 705.033C299.68 703.623 303.264 700.457 305.32 698.689C308.451 695.996 313.074 698.689 315.894 698.689C318.714 698.689 324.956 698.568 328.583 702.214C330.583 704.223 328.583 707.148 332.108 708.558C334.928 709.686 332.108 716.313 332.108 716.313C332.108 716.313 330.275 723.08 328.583 724.772C326.469 726.887 325.764 727.592 324.354 727.592H315.894C312.866 727.592 309.268 728.156 308.14 727.592C307.012 727.028 308.61 724.067 309.55 722.657Z" fill="#5A9B69"/>
<path d="M508.347 659.211C509.992 659.916 511.857 659.774 513.987 659.211C516.132 658.644 514.973 656.391 518.921 656.391H523.856C525.971 656.391 527.381 650.752 527.381 648.637C527.381 646.522 523.151 642.292 521.741 642.997C520.331 643.702 518.216 645.112 516.806 646.522C515.396 647.932 515.71 649.767 513.987 650.752C512.074 651.844 510.179 649.53 508.347 650.752C505.598 652.584 506.702 658.506 508.347 659.211Z" fill="#5A9B69"/>
<path d="M474.509 1027.9L463.23 1031.43C463.23 1031.43 460.833 1035.23 459.705 1036.36C458.295 1037.77 459.705 1039.18 459.705 1042C459.705 1044.26 456.885 1045.76 455.475 1046.23C452.655 1047.41 447.757 1051.91 442.081 1051.87C438.676 1051.85 435.032 1051.17 433.622 1049.76C432.494 1048.63 435.502 1044.12 437.146 1042L439.261 1036.36L442.081 1031.43C443.491 1029.55 444.778 1025.66 447.016 1022.26C448.532 1019.96 449.836 1018.74 451.246 1016.62C452.373 1014.93 453.938 1015.06 455.475 1013.8C459.441 1010.56 460.974 1004.92 463.23 1003.23C466.05 1001.11 465.59 1001.08 467.46 1000.41C470.052 999.483 470.984 1000.41 474.509 1000.41C478.034 1000.41 482.264 998.295 482.264 995.475C482.264 992.655 480.546 989.45 482.264 986.31C484.214 982.744 491.428 981.376 491.428 981.376L498.478 978.556C498.478 978.556 503.694 974.608 507.642 972.916C512.577 970.801 512.577 977.146 515.396 978.556C517.652 979.684 519.626 984.195 520.331 986.31C520.331 986.31 521.81 998.093 517.511 1003.23C516.762 1004.12 516.481 1004.91 515.396 1005.34C512.643 1006.45 515.463 998.971 512.577 998.295C509.305 997.528 510.735 1004.03 507.642 1005.34C505.361 1006.31 502.304 1003.08 501.297 1005.34C500.196 1007.82 506.32 1005.8 507.642 1008.16C508.715 1010.09 508.743 1011.9 507.642 1013.8C506.532 1015.73 502.707 1016.62 502.707 1016.62C502.707 1016.62 499.381 1024.25 494.953 1025.79C492.093 1026.78 490.193 1025.34 487.198 1025.79C484.356 1026.22 482.969 1027.9 480.149 1027.9H474.509Z" fill="#5A9B69"/>
<path d="M298.27 752.97C298.27 752.97 301.936 759.738 302.5 761.43V763.545C302.5 764.719 305.428 771.354 309.55 774.119C312.659 776.205 313.074 775.529 318.714 776.939C324.354 778.349 325.764 780.463 328.583 783.988C331.403 787.513 339.863 790.333 339.863 790.333C339.863 790.333 342.682 790.333 345.502 792.448C348.322 794.563 355.029 791.501 361.011 792.448C364.375 792.98 366.086 794.191 369.471 794.563C372.207 794.863 376.52 794.563 376.52 794.563H389.21C394.144 794.563 393.842 792.127 396.964 792.448C400.026 792.762 402.604 795.268 404.014 795.972C405.423 796.677 407.152 793.147 409.653 792.448C414.352 791.135 414.588 792.448 421.637 795.972C428.687 799.497 425.792 798.184 427.982 800.202C430.29 802.329 430.802 804.432 432.917 806.547C434.609 808.239 435.502 808.662 435.737 808.662C437.146 808.662 440.248 808.239 441.376 806.547C442.504 804.855 449.504 805.475 452.655 808.662C455.104 811.138 457.457 814.258 455.475 817.121C454.692 818.253 454.065 819.471 452.655 819.236C452.655 819.236 447.055 819.56 443.491 819.236C439.297 818.855 437.128 817.063 432.917 817.121C428.975 817.175 426.952 819.777 423.047 819.236C419.389 818.729 418.237 815.579 414.588 815.006C410.427 814.354 407.648 819.249 404.014 817.121C402.158 816.035 402.026 814.395 400.489 812.891C398.52 810.967 396.754 810.649 394.849 808.662C392.788 806.512 393.526 802.964 390.619 802.317C388.323 801.806 387.319 804.678 384.98 804.432C383.143 804.239 382.591 802.175 380.75 802.317C378.421 802.496 378.647 805.58 376.52 806.547C374.014 807.686 372.17 806.007 369.471 806.547C365.849 807.271 364.575 809.805 361.011 810.777C356.23 812.08 353.249 810.249 348.322 810.777C344.135 811.225 341.942 812.51 337.748 812.891C334.184 813.215 332.051 813.775 328.583 812.891C324.143 811.76 322.502 809.125 318.714 806.547C313.343 802.891 310.047 801.135 305.32 796.677C300.626 792.252 298.74 788.923 294.746 783.988C290.751 779.054 281.037 775.265 282.056 767.069C282.651 762.29 286.051 759.315 288.401 756.495L298.27 752.97Z" fill="#66B577"/>
<path d="M309.55 725.477C309.55 725.477 315.552 720.509 313.074 719.132C311.871 718.464 310.73 719.841 309.55 719.132C308.057 718.237 307.798 716.61 308.14 714.903C308.521 712.994 313.779 712.083 311.664 711.378C309.55 710.673 304.756 708.981 302.5 707.853C299.68 706.443 303.264 703.276 305.32 701.509C308.451 698.816 313.074 701.509 315.894 701.509C318.714 701.509 324.956 701.388 328.583 705.033C330.583 707.042 328.583 709.968 332.108 711.378C334.928 712.506 332.108 719.132 332.108 719.132C332.108 719.132 330.275 725.9 328.583 727.592C326.469 729.707 325.764 730.412 324.354 730.412H315.894C312.866 730.412 309.268 730.976 308.14 730.412C307.012 729.848 308.61 726.887 309.55 725.477Z" fill="#66B577"/>
<path d="M508.347 662.031C509.992 662.736 511.857 662.594 513.987 662.031C516.132 661.464 514.973 659.211 518.921 659.211H523.856C525.971 659.211 527.381 653.572 527.381 651.457C527.381 649.342 523.151 645.112 521.741 645.817C520.331 646.522 518.216 647.932 516.806 649.342C515.396 650.752 515.71 652.587 513.987 653.572C512.074 654.664 510.179 652.35 508.347 653.572C505.598 655.404 506.702 661.326 508.347 662.031Z" fill="#66B577"/>
<path d="M474.509 1030.72L463.23 1034.25C463.23 1034.25 460.833 1038.05 459.705 1039.18C458.295 1040.59 459.705 1042 459.705 1044.82C459.705 1047.08 456.885 1048.58 455.475 1049.05C452.655 1050.23 447.757 1054.73 442.081 1054.69C438.676 1054.67 435.032 1053.99 433.622 1052.58C432.494 1051.45 435.502 1046.94 437.146 1044.82L439.261 1039.18L442.081 1034.25C443.491 1032.37 444.778 1028.48 447.016 1025.08C448.532 1022.78 449.836 1021.56 451.246 1019.44C452.373 1017.75 453.938 1017.88 455.475 1016.62C459.441 1013.38 460.974 1007.74 463.23 1006.05C466.05 1003.93 465.59 1003.9 467.46 1003.23C470.052 1002.3 470.984 1003.23 474.509 1003.23C478.034 1003.23 482.264 1001.11 482.264 998.294C482.264 995.475 480.546 992.27 482.264 989.13C484.214 985.564 491.428 984.195 491.428 984.195L498.478 981.376C498.478 981.376 503.694 977.428 507.642 975.736C512.577 973.621 512.577 979.966 515.396 981.376C517.652 982.503 519.626 987.015 520.331 989.13C520.331 989.13 521.81 1000.91 517.511 1006.05C516.762 1006.94 516.481 1007.73 515.396 1008.16C512.643 1009.27 515.463 1001.79 512.577 1001.11C509.305 1000.35 510.735 1006.85 507.642 1008.16C505.361 1009.13 502.304 1005.9 501.297 1008.16C500.196 1010.64 506.32 1008.62 507.642 1010.98C508.715 1012.91 508.743 1014.72 507.642 1016.62C506.532 1018.55 502.707 1019.44 502.707 1019.44C502.707 1019.44 499.381 1027.07 494.953 1028.61C492.093 1029.6 490.193 1028.16 487.198 1028.61C484.356 1029.04 482.969 1030.72 480.149 1030.72H474.509Z" fill="#66B577"/>
<path d="M455.401 688.741C450.231 693.206 439.751 702.276 439.187 702.84L438.482 704.25L460.336 692.266L467.385 692.971V680.987L455.401 688.741Z" fill="#6C6C6C"/>
<path d="M537.881 899.523L498.403 910.802L495.583 911.507L502.633 934.065L513.912 930.541L520.962 950.984L539.996 946.755L533.651 923.491L544.93 919.966L537.881 899.523Z" fill="#EA0000"/>
<rect x="517.437" y="991.167" width="32.4279" height="18.3288" fill="#EA0000"/>
<rect x="436.083" y="716.04" width="104.333" height="42.2973" transform="rotate(-2.85637 436.083 716.04)" fill="#BBBBBB"/>
<rect x="303.087" y="548.399" width="94.4804" height="33.0827" transform="rotate(-19.8602 303.087 548.399)" fill="#BBBBBB"/>
<rect x="539.995" y="528.765" width="5.63964" height="12.6892" transform="rotate(-14.9941 539.995 528.765)" fill="#8E0000"/>
<rect x="544.225" y="706.365" width="7.04955" height="18.3288" fill="#8E0000"/>
<rect x="414.251" y="498.465" width="9.86937" height="4.22973" transform="rotate(-8.66014 414.251 498.465)" fill="#FF8A00"/>
<rect x="462.553" y="485.711" width="14.1454" height="10.3501" transform="rotate(-10.4146 462.553 485.711)" fill="#FF8A00"/>
<rect x="489.18" y="490.421" width="10.4114" height="3.92399" transform="rotate(-9.5579 489.18 490.421)" fill="#FF8A00"/>
<path d="M279.162 689.446C273.993 691.091 263.089 694.381 260.833 694.381L253.784 687.331V652.083L294.671 596.392L307.36 620.36L279.162 659.838V689.446Z" fill="#BBBBBB"/>
<rect x="415.677" y="505.337" width="8.45946" height="4.22973" transform="rotate(-7.74777 415.677 505.337)" fill="#FF8A00"/>
<rect x="427.203" y="496.019" width="8.45946" height="4.22973" transform="rotate(-7.74777 427.203 496.019)" fill="#FF8A00"/>
<rect x="268.028" y="586.156" width="4.22973" height="13.9925" transform="rotate(32.3127 268.028 586.156)" fill="#8E0000"/>
<rect x="171.836" y="165.99" width="7.23776" height="13.9925" transform="rotate(106.403 171.836 165.99)" fill="#8E0000"/>
<rect x="177.246" y="146.816" width="6.45525" height="13.9925" transform="rotate(106.403 177.246 146.816)" fill="#8E0000"/>
<rect x="139.581" y="792.366" width="20.3839" height="21.1196" transform="rotate(-22.0164 139.581 792.366)" fill="#EA0000"/>
<rect x="477.959" y="840.306" width="8.45946" height="4.22973" fill="#8E0000"/>
<rect x="422.973" y="821.977" width="15.509" height="8.45946" fill="#EA0000"/>
<path d="M194 1016.55V1031.35H377.993V1016.55" stroke="white" stroke-width="4.22973"/>
<circle cx="538.034" cy="65.0338" r="17.5338" stroke="white" stroke-width="3"/>
<line x1="538.41" y1="47" x2="538.41" y2="63.9189" stroke="white" stroke-width="2.81982"/>
<path d="M316.364 1010.48C317.484 1010.48 318.371 1010.81 319.024 1011.46C319.691 1012.11 320.024 1012.95 320.024 1013.98C320.024 1014.85 319.844 1015.66 319.484 1016.42C319.124 1017.18 318.558 1018.01 317.784 1018.92C317.024 1019.83 315.791 1021.18 314.084 1022.98H320.384L320.224 1024H312.724V1023.02C314.551 1021.07 315.858 1019.63 316.644 1018.7C317.444 1017.75 318.004 1016.94 318.324 1016.26C318.658 1015.57 318.824 1014.83 318.824 1014.04C318.824 1013.25 318.591 1012.63 318.124 1012.16C317.671 1011.69 317.064 1011.46 316.304 1011.46C315.691 1011.46 315.144 1011.59 314.664 1011.84C314.198 1012.09 313.751 1012.47 313.324 1012.98L312.524 1012.38C313.058 1011.73 313.631 1011.25 314.244 1010.94C314.871 1010.63 315.578 1010.48 316.364 1010.48ZM326.935 1010.48C328.308 1010.48 329.348 1011.07 330.055 1012.24C330.761 1013.4 331.115 1015.11 331.115 1017.36C331.115 1019.6 330.755 1021.31 330.035 1022.48C329.328 1023.64 328.295 1024.22 326.935 1024.22C325.561 1024.22 324.521 1023.64 323.815 1022.48C323.108 1021.31 322.755 1019.59 322.755 1017.34C322.755 1015.09 323.108 1013.38 323.815 1012.22C324.521 1011.06 325.561 1010.48 326.935 1010.48ZM326.935 1011.44C324.948 1011.44 323.955 1013.41 323.955 1017.34C323.955 1021.29 324.948 1023.26 326.935 1023.26C327.908 1023.26 328.641 1022.78 329.135 1021.82C329.641 1020.86 329.895 1019.37 329.895 1017.36C329.895 1015.35 329.641 1013.86 329.135 1012.9C328.641 1011.93 327.908 1011.44 326.935 1011.44ZM337.931 1010.48C339.304 1010.48 340.344 1011.07 341.051 1012.24C341.757 1013.4 342.111 1015.11 342.111 1017.36C342.111 1019.6 341.751 1021.31 341.031 1022.48C340.324 1023.64 339.291 1024.22 337.931 1024.22C336.557 1024.22 335.517 1023.64 334.811 1022.48C334.104 1021.31 333.751 1019.59 333.751 1017.34C333.751 1015.09 334.104 1013.38 334.811 1012.22C335.517 1011.06 336.557 1010.48 337.931 1010.48ZM337.931 1011.44C335.944 1011.44 334.951 1013.41 334.951 1017.34C334.951 1021.29 335.944 1023.26 337.931 1023.26C338.904 1023.26 339.637 1022.78 340.131 1021.82C340.637 1020.86 340.891 1019.37 340.891 1017.36C340.891 1015.35 340.637 1013.86 340.131 1012.9C339.637 1011.93 338.904 1011.44 337.931 1011.44ZM361.333 1013.32C362.173 1013.32 362.833 1013.61 363.313 1014.18C363.806 1014.75 364.053 1015.53 364.053 1016.52V1024H362.893V1016.68C362.893 1015.85 362.733 1015.25 362.413 1014.86C362.106 1014.46 361.673 1014.26 361.113 1014.26C360.526 1014.26 359.999 1014.45 359.533 1014.82C359.066 1015.19 358.613 1015.73 358.173 1016.42V1024H357.013V1016.68C357.013 1015.85 356.853 1015.25 356.533 1014.86C356.226 1014.46 355.793 1014.26 355.233 1014.26C354.633 1014.26 354.099 1014.45 353.633 1014.82C353.166 1015.19 352.719 1015.73 352.293 1016.42V1024H351.133V1013.54H352.133L352.233 1015.32C352.633 1014.69 353.106 1014.21 353.653 1013.86C354.199 1013.5 354.799 1013.32 355.453 1013.32C356.119 1013.32 356.679 1013.51 357.133 1013.88C357.586 1014.24 357.893 1014.75 358.053 1015.4C358.466 1014.75 358.946 1014.24 359.493 1013.88C360.053 1013.51 360.666 1013.32 361.333 1013.32Z" fill="white"/>
<circle cx="499" cy="564" r="5" fill="black"/>
<path d="M500.473 561.533H498.268V562.811C498.55 562.679 498.85 562.613 499.168 562.613C499.504 562.613 499.804 562.691 500.068 562.847C500.332 563.003 500.539 563.231 500.689 563.531C500.839 563.831 500.914 564.185 500.914 564.593C500.914 565.019 500.815 565.397 500.617 565.727C500.425 566.051 500.146 566.303 499.78 566.483C499.42 566.663 499.003 566.753 498.529 566.753C497.707 566.753 497.032 566.447 496.504 565.835L497.296 565.097C497.626 565.487 498.019 565.682 498.475 565.682C498.787 565.682 499.027 565.589 499.195 565.403C499.369 565.217 499.456 564.95 499.456 564.602C499.456 563.924 499.171 563.585 498.601 563.585C498.481 563.585 498.364 563.603 498.25 563.639C498.136 563.669 498.01 563.723 497.872 563.801H496.909V560.516H500.635L500.473 561.533Z" fill="white"/>
<circle cx="373" cy="582" r="5" fill="black"/>
<path d="M372.613 578.39C373.039 578.39 373.402 578.459 373.702 578.597C374.008 578.735 374.239 578.921 374.395 579.155C374.557 579.389 374.638 579.65 374.638 579.938C374.638 580.304 374.533 580.61 374.323 580.856C374.119 581.102 373.828 581.279 373.45 581.387C373.858 581.429 374.191 581.576 374.449 581.828C374.707 582.074 374.836 582.425 374.836 582.881C374.836 583.223 374.746 583.538 374.566 583.826C374.386 584.108 374.119 584.333 373.765 584.501C373.417 584.669 373 584.753 372.514 584.753C371.626 584.753 370.93 584.447 370.426 583.835L371.191 583.088C371.395 583.292 371.593 583.442 371.785 583.538C371.983 583.628 372.199 583.673 372.433 583.673C372.715 583.673 372.943 583.595 373.117 583.439C373.291 583.283 373.378 583.067 373.378 582.791C373.378 582.479 373.294 582.257 373.126 582.125C372.964 581.987 372.718 581.918 372.388 581.918H371.884L372.037 580.937H372.388C372.658 580.937 372.871 580.868 373.027 580.73C373.183 580.592 373.261 580.397 373.261 580.145C373.261 579.923 373.189 579.752 373.045 579.632C372.901 579.506 372.703 579.443 372.451 579.443C372.025 579.443 371.629 579.62 371.263 579.974L370.561 579.209C371.137 578.663 371.821 578.39 372.613 578.39Z" fill="white"/>
<circle cx="439" cy="564" r="5" fill="black"/>
<path d="M441.151 564.224V565.286H440.467V566.6H439.081L439.072 565.286H436.507V564.341L438.235 560.363L439.441 560.813L437.974 564.224H439.09L439.243 562.784H440.467V564.224H441.151Z" fill="white"/>
<circle cx="429" cy="618" r="5" fill="black"/>
<path d="M430.745 614.516V615.479L428.513 620.744L427.226 620.312L429.269 615.587H426.812V614.516H430.745Z" fill="white"/>
<circle cx="345" cy="686" r="5" fill="black"/>
<path d="M344.775 682.39C345.507 682.39 346.068 682.606 346.458 683.038C346.848 683.464 347.043 684.034 347.043 684.748C347.043 685.57 346.908 686.251 346.638 686.791C346.374 687.331 345.966 687.766 345.414 688.096C344.862 688.42 344.142 688.672 343.254 688.852L342.966 687.862C343.752 687.67 344.343 687.43 344.739 687.142C345.135 686.848 345.393 686.437 345.513 685.909C345.195 686.299 344.775 686.494 344.253 686.494C343.935 686.494 343.644 686.413 343.38 686.251C343.116 686.089 342.906 685.855 342.75 685.549C342.594 685.243 342.516 684.889 342.516 684.487C342.516 684.073 342.615 683.707 342.813 683.389C343.011 683.071 343.281 682.825 343.623 682.651C343.971 682.477 344.355 682.39 344.775 682.39ZM344.694 685.495C344.868 685.495 345.03 685.45 345.18 685.36C345.336 685.264 345.474 685.129 345.594 684.955C345.6 684.391 345.54 683.992 345.414 683.758C345.288 683.524 345.075 683.407 344.775 683.407C344.517 683.407 344.313 683.497 344.163 683.677C344.019 683.851 343.947 684.106 343.947 684.442C343.947 684.814 344.013 685.084 344.145 685.252C344.283 685.414 344.466 685.495 344.694 685.495Z" fill="white"/>
<circle cx="153" cy="798" r="5" fill="black"/>
<path d="M151.718 794.916V801H150.323V796.302L149.018 797.103L148.397 796.158L150.449 794.916H151.718ZM155.092 794.79C155.836 794.79 156.403 795.063 156.793 795.609C157.189 796.155 157.387 796.941 157.387 797.967C157.387 798.987 157.189 799.773 156.793 800.325C156.403 800.877 155.836 801.153 155.092 801.153C154.348 801.153 153.778 800.877 153.382 800.325C152.992 799.773 152.797 798.987 152.797 797.967C152.797 796.941 152.992 796.155 153.382 795.609C153.778 795.063 154.348 794.79 155.092 794.79ZM155.092 795.843C154.888 795.843 154.726 795.909 154.606 796.041C154.486 796.173 154.396 796.392 154.336 796.698C154.282 797.004 154.255 797.427 154.255 797.967C154.255 798.507 154.282 798.933 154.336 799.245C154.396 799.551 154.486 799.77 154.606 799.902C154.726 800.034 154.888 800.1 155.092 800.1C155.296 800.1 155.458 800.037 155.578 799.911C155.698 799.779 155.785 799.56 155.839 799.254C155.899 798.942 155.929 798.513 155.929 797.967C155.929 797.421 155.899 796.995 155.839 796.689C155.785 796.377 155.698 796.158 155.578 796.032C155.458 795.906 155.296 795.843 155.092 795.843Z" fill="white"/>
<circle cx="431" cy="826" r="5" fill="black"/>
<path d="M429.842 822.916V829H428.447V824.302L427.142 825.103L426.521 824.158L428.573 822.916H429.842ZM433.859 822.916V829H432.464V824.302L431.159 825.103L430.538 824.158L432.59 822.916H433.859Z" fill="white"/>
<circle cx="522" cy="920" r="5" fill="black"/>
<path d="M520.526 916.916V923H519.131V918.302L517.826 919.103L517.205 918.158L519.257 916.916H520.526ZM523.405 916.79C523.843 916.79 524.218 916.868 524.53 917.024C524.848 917.18 525.088 917.39 525.25 917.654C525.418 917.918 525.502 918.209 525.502 918.527C525.502 918.851 525.436 919.16 525.304 919.454C525.172 919.748 524.938 920.087 524.602 920.471C524.266 920.849 523.777 921.329 523.135 921.911H525.628L525.484 923H521.524V921.992C522.262 921.266 522.799 920.72 523.135 920.354C523.471 919.982 523.705 919.673 523.837 919.427C523.975 919.181 524.044 918.929 524.044 918.671C524.044 918.425 523.972 918.233 523.828 918.095C523.69 917.951 523.501 917.879 523.261 917.879C523.045 917.879 522.853 917.93 522.685 918.032C522.517 918.128 522.34 918.287 522.154 918.509L521.317 917.843C521.569 917.513 521.869 917.255 522.217 917.069C522.571 916.883 522.967 916.79 523.405 916.79Z" fill="white"/>
<circle cx="534" cy="1000" r="5" fill="black"/>
<path d="M532.513 996.916V1003H531.118V998.302L529.813 999.103L529.192 998.158L531.244 996.916H532.513ZM535.401 996.79C535.827 996.79 536.19 996.859 536.49 996.997C536.796 997.135 537.027 997.321 537.183 997.555C537.345 997.789 537.426 998.05 537.426 998.338C537.426 998.704 537.321 999.01 537.111 999.256C536.907 999.502 536.616 999.679 536.238 999.787C536.646 999.829 536.979 999.976 537.237 1000.23C537.495 1000.47 537.624 1000.82 537.624 1001.28C537.624 1001.62 537.534 1001.94 537.354 1002.23C537.174 1002.51 536.907 1002.73 536.553 1002.9C536.205 1003.07 535.788 1003.15 535.302 1003.15C534.414 1003.15 533.718 1002.85 533.214 1002.23L533.979 1001.49C534.183 1001.69 534.381 1001.84 534.573 1001.94C534.771 1002.03 534.987 1002.07 535.221 1002.07C535.503 1002.07 535.731 1001.99 535.905 1001.84C536.079 1001.68 536.166 1001.47 536.166 1001.19C536.166 1000.88 536.082 1000.66 535.914 1000.52C535.752 1000.39 535.506 1000.32 535.176 1000.32H534.672L534.825 999.337H535.176C535.446 999.337 535.659 999.268 535.815 999.13C535.971 998.992 536.049 998.797 536.049 998.545C536.049 998.323 535.977 998.152 535.833 998.032C535.689 997.906 535.491 997.843 535.239 997.843C534.813 997.843 534.417 998.02 534.051 998.374L533.349 997.609C533.925 997.063 534.609 996.79 535.401 996.79Z" fill="white"/>
<circle cx="428" cy="522" r="5" fill="black"/>
<path d="M429.351 518.916V525H427.956V520.302L426.651 521.103L426.03 520.158L428.082 518.916H429.351Z" fill="white"/>
<circle cx="515" cy="617" r="5" fill="black"/>
<path d="M515.938 616.333C516.346 616.531 516.649 616.765 516.847 617.035C517.045 617.299 517.144 617.605 517.144 617.953C517.144 618.283 517.048 618.586 516.856 618.862C516.67 619.132 516.397 619.348 516.037 619.51C515.677 619.672 515.254 619.753 514.768 619.753C514.294 619.753 513.88 619.675 513.526 619.519C513.178 619.357 512.911 619.144 512.725 618.88C512.539 618.61 512.446 618.31 512.446 617.98C512.446 617.302 512.824 616.798 513.58 616.468C512.986 616.12 512.689 615.64 512.689 615.028C512.689 614.704 512.779 614.419 512.959 614.173C513.139 613.927 513.388 613.735 513.706 613.597C514.03 613.459 514.396 613.39 514.804 613.39C515.422 613.39 515.926 613.531 516.316 613.813C516.712 614.089 516.91 614.47 516.91 614.956C516.91 615.226 516.829 615.481 516.667 615.721C516.511 615.955 516.268 616.159 515.938 616.333ZM514.813 614.353C514.585 614.353 514.402 614.413 514.264 614.533C514.132 614.653 514.066 614.824 514.066 615.046C514.066 615.25 514.123 615.418 514.237 615.55C514.357 615.676 514.546 615.793 514.804 615.901L514.993 615.973C515.197 615.841 515.338 615.703 515.416 615.559C515.494 615.409 515.533 615.232 515.533 615.028C515.533 614.824 515.47 614.662 515.344 614.542C515.224 614.416 515.047 614.353 514.813 614.353ZM514.813 618.736C515.101 618.736 515.323 618.664 515.479 618.52C515.641 618.37 515.722 618.178 515.722 617.944C515.722 617.698 515.653 617.506 515.515 617.368C515.377 617.224 515.134 617.089 514.786 616.963L514.489 616.855C514.081 617.083 513.877 617.434 513.877 617.908C513.877 618.16 513.961 618.361 514.129 618.511C514.297 618.661 514.525 618.736 514.813 618.736Z" fill="white"/>
<circle cx="370" cy="632" r="5" fill="black"/>
<path d="M370.365 630.505C370.701 630.505 371.001 630.586 371.265 630.748C371.529 630.904 371.736 631.135 371.886 631.441C372.036 631.741 372.111 632.101 372.111 632.521C372.111 632.935 372.021 633.313 371.841 633.655C371.661 633.991 371.403 634.258 371.067 634.456C370.737 634.654 370.35 634.753 369.906 634.753C369.126 634.753 368.547 634.492 368.169 633.97C367.791 633.448 367.602 632.731 367.602 631.819C367.602 631.135 367.707 630.535 367.917 630.019C368.133 629.503 368.439 629.104 368.835 628.822C369.237 628.534 369.708 628.39 370.248 628.39C370.77 628.39 371.232 628.525 371.634 628.795L371.112 629.641C370.842 629.485 370.566 629.407 370.284 629.407C369.942 629.407 369.666 629.551 369.456 629.839C369.246 630.127 369.12 630.535 369.078 631.063C369.444 630.691 369.873 630.505 370.365 630.505ZM369.924 633.736C370.176 633.736 370.365 633.631 370.491 633.421C370.623 633.205 370.689 632.911 370.689 632.539C370.689 632.161 370.629 631.891 370.509 631.729C370.389 631.567 370.209 631.486 369.969 631.486C369.645 631.486 369.348 631.645 369.078 631.963C369.09 632.605 369.159 633.061 369.285 633.331C369.411 633.601 369.624 633.736 369.924 633.736Z" fill="white"/>
<circle cx="483" cy="510" r="5" fill="black"/>
<path d="M482.617 506.39C483.055 506.39 483.43 506.468 483.742 506.624C484.06 506.78 484.3 506.99 484.462 507.254C484.63 507.518 484.714 507.809 484.714 508.127C484.714 508.451 484.648 508.76 484.516 509.054C484.384 509.348 484.15 509.687 483.814 510.071C483.478 510.449 482.989 510.929 482.347 511.511H484.84L484.696 512.6H480.736V511.592C481.474 510.866 482.011 510.32 482.347 509.954C482.683 509.582 482.917 509.273 483.049 509.027C483.187 508.781 483.256 508.529 483.256 508.271C483.256 508.025 483.184 507.833 483.04 507.695C482.902 507.551 482.713 507.479 482.473 507.479C482.257 507.479 482.065 507.53 481.897 507.632C481.729 507.728 481.552 507.887 481.366 508.109L480.529 507.443C480.781 507.113 481.081 506.855 481.429 506.669C481.783 506.483 482.179 506.39 482.617 506.39Z" fill="white"/>
</g>
<defs>
<clipPath id="clip0_29_249">
<rect width="627" height="1074" fill="white"/>
</clipPath>
</defs>
</svg>
