<svg width="3794" height="1985" viewBox="0 0 3794 1985" fill="none" xmlns="http://www.w3.org/2000/svg">
<path fill-rule="evenodd" clip-rule="evenodd" d="M2940.77 432.523C2941.84 432.523 2942.83 433.093 2943.37 434.02L3515.89 1423.02C3517.05 1425.02 3515.61 1427.52 3513.3 1427.52H3463.75C3462.67 1427.52 3461.67 1426.94 3461.14 1426L3364.82 1256.23C3364.41 1255.51 3363.73 1254.99 3362.92 1254.8C3352.47 1252.22 3336.26 1247.42 3326 1240.52C3316.79 1234.33 3312.26 1226.7 3307.68 1218.99C3303.34 1211.68 3298.96 1204.3 3290.5 1198.02C3289.15 1197.02 3287.87 1196.05 3286.65 1195.12C3279.14 1189.42 3273.63 1185.24 3263.5 1183.02C3255.26 1181.22 3242.21 1182.8 3240.65 1183C3240.55 1183.02 3240.45 1183.02 3240.34 1183.03L3091 1187.52L2196 1192.02H2003C2002.84 1192.02 2002.68 1192.02 2002.51 1192.02L2002.3 1192.02C2002.2 1192.02 2002.1 1192.02 2002 1192.02C1987.33 1192.02 1974.24 1185.23 1965.72 1174.61C1963.52 1172.5 1961.86 1170.07 1960.25 1167.72C1956.79 1162.66 1953.62 1158.02 1946 1158.02H1907.5L1651.08 1161.02C1651.03 1161.02 1650.98 1161.02 1650.93 1161.03C1649.61 1161.11 1631.09 1162.15 1617 1158.02C1603.63 1154.1 1595.32 1150.3 1586.5 1139.52C1578.6 1129.87 1577.07 1121.46 1576.08 1115.95C1576.08 1115.95 1576.08 1115.95 1576.08 1115.95L1576.08 1115.95C1576.08 1115.95 1576.08 1115.95 1576.08 1115.94V1115.94C1576.08 1115.94 1576.08 1115.94 1576.08 1115.94L1576 1115.52C1575 1110.02 1574.5 1101.97 1574.5 1098.52V847.523V746.023V734.199C1574.5 732.511 1573.11 731.155 1571.42 731.201L1337.53 737.522C1337.51 737.522 1337.51 737.523 1337.49 737.523C1336.82 737.528 1312.24 737.744 1302.5 743.023C1292.88 748.232 1291.25 750.79 1289.22 753.982C1288.71 754.773 1288.18 755.604 1287.5 756.523C1282.9 762.725 1282.06 770.826 1282 771.48C1282 771.512 1282 771.539 1282 771.57L1277.5 861.023C1276.36 872.976 1276.03 885.297 1275.77 894.776V894.778V894.779C1275.57 901.952 1275.42 907.496 1275 910.023C1274.01 915.966 1270.08 924.689 1266.6 930.847C1266.53 930.965 1266.46 931.071 1266.38 931.177C1265.42 932.396 1258.82 940.516 1250.5 944.523C1240.3 949.432 1222.18 950.003 1221.52 950.022C1221.5 950.023 1221.49 950.023 1221.47 950.023L801.5 952.523H597.6C596.6 952.523 595.658 952.028 595.196 951.14C594.601 949.997 593.907 948.35 594 947.023C594.073 945.976 594.661 944.732 595.181 943.817C595.657 942.98 596.57 942.523 597.533 942.523H801.5H1114.5H1222.91C1222.97 942.523 1223.02 942.522 1223.08 942.518C1224.21 942.445 1237.1 941.543 1244.5 938.023C1251.66 934.617 1255.99 932.048 1260.5 925.523C1265.07 918.904 1266.41 905.99 1266.49 905.074C1266.5 905.037 1266.5 905.004 1266.5 904.966L1273.5 777.038C1273.5 777.028 1273.5 777.028 1273.5 777.018C1273.51 776.699 1274.3 760.228 1280 752.023C1285.5 744.099 1289.85 739.799 1298.5 735.523C1311.35 729.167 1331.32 729.485 1332.9 729.52C1332.97 729.522 1333.04 729.521 1333.11 729.518L1377.5 727.523L1574.49 721.553C1574.49 721.553 1574.5 721.546 1574.5 721.538V721.538C1574.5 721.53 1574.51 721.523 1574.52 721.523H1575.5H1593.5H1719H2082L2383.45 724.522C2383.48 724.523 2383.51 724.522 2383.55 724.522C2384.67 724.496 2406.08 724.097 2416.5 730.023C2425.12 734.924 2430.76 746.005 2431.43 747.382C2431.48 747.476 2431.52 747.572 2431.55 747.671L2506.58 962.027C2507 963.224 2508.12 964.019 2509.39 964.083C2521.57 964.7 2532.52 970.004 2540.46 978.228C2541.36 979.166 2542.75 979.484 2543.95 978.962L2785.49 873.528C2785.5 873.524 2785.49 873.526 2785.5 873.522C2785.76 873.407 2859.93 840.252 2906 816.023C2946.37 794.792 3007.22 758.293 3008.48 757.535C3008.52 757.511 3008.51 757.515 3008.55 757.489C3009.74 756.697 3031.74 742.102 3046.5 733.523C3050.62 731.126 3055.81 728.25 3060.36 725.769C3061.83 724.964 3062.36 723.109 3061.53 721.649L2900.04 437.003C2898.91 435.003 2900.35 432.523 2902.65 432.523H2940.77ZM2553.4 1007.47C2553.32 1006.17 2554.02 1004.93 2555.21 1004.4C2560.95 1001.83 2568.3 998.543 2574 996.023C2592.89 987.673 2607.27 981.602 2622.17 975.314C2634.09 970.283 2646.35 965.112 2661.5 958.523C2676.48 952.01 2690.15 946.112 2703.03 940.555L2703.03 940.554C2754.12 918.517 2792.75 901.851 2851 873.523C2930.14 835.035 3043.49 771.485 3075.98 753.131C3077.42 752.317 3079.23 752.837 3080.04 754.277L3290.35 1124.96C3290.9 1125.93 3290.86 1127.13 3290.25 1128.06C3287.42 1132.38 3283.94 1137.38 3280.5 1141.52C3275.24 1147.86 3271.32 1151.42 3263.5 1154.02C3256.15 1156.47 3233.51 1157.93 3232.07 1158.02C3232.02 1158.02 3231.98 1158.02 3231.93 1158.02L2571 1166.52L2248 1174.02H2075.67C2075.56 1174.02 2075.45 1174.03 2075.34 1174.04C2074.14 1174.11 2066.58 1174.15 2067.5 1164.02C2068.04 1158.07 2077.42 1158.02 2077.5 1158.02C2077.5 1158.02 2077.5 1158.02 2077.5 1158.02H2120L2476.42 1154.02C2476.47 1154.02 2476.52 1154.02 2476.57 1154.03C2477.84 1154.07 2496.06 1154.62 2506.5 1150.02C2512.2 1147.51 2515.59 1145.93 2520 1141.52C2530.5 1131.02 2534.68 1114.15 2537.5 1097.52C2539.63 1084.97 2535.86 1069.02 2535.52 1067.62C2535.51 1067.55 2535.49 1067.49 2535.48 1067.41L2532.73 1051.43C2532.52 1050.25 2533.04 1049.07 2534.02 1048.37C2545.81 1039.94 2553.5 1026.13 2553.5 1010.52C2553.5 1009.5 2553.47 1008.48 2553.4 1007.47ZM2509.11 1056.98C2510.55 1056.91 2511.88 1057.8 2512.27 1059.19C2513.61 1064.02 2514.93 1069.5 2515.5 1074.02L2515.59 1074.76L2515.67 1075.4C2516.89 1085.05 2517.66 1091.18 2515.5 1101.02C2513.88 1108.39 2512.44 1112.59 2508.5 1119.02L2508.45 1119.1C2505.29 1124.25 2503.37 1127.39 2498.5 1131.02C2493.87 1134.47 2480.5 1137.02 2476.5 1137.02H2446H2111.5C2102.73 1137.02 2097.12 1132.17 2090.98 1126.84C2087.67 1123.98 2084.2 1120.97 2080 1118.52C2068 1111.52 2055 1104.57 2036.5 1100.52C2026.35 1098.3 2015.8 1097.33 2005 1097.02C1994.05 1096.71 1987.06 1097.13 1977 1098.52C1961.33 1100.69 1952.97 1105.12 1939 1112.52C1930.46 1117.05 1922.61 1123.61 1915.47 1129.59C1907 1136.67 1899.51 1142.94 1893 1144.02C1881.03 1146.02 1647.09 1146.02 1646 1146.02C1645.97 1146.02 1645.99 1146.02 1645.95 1146.02C1644.92 1146.05 1626.69 1146.53 1617 1142.02C1608.59 1138.11 1602.98 1135.01 1597.5 1127.52C1592.96 1121.32 1592.02 1116.62 1590.55 1109.26L1590.5 1109.02C1589.01 1101.58 1590.48 1054.24 1590.5 1053.53C1590.5 1053.51 1590.5 1053.51 1590.5 1053.49L1593.25 748.996C1593.27 747.349 1594.61 746.023 1596.25 746.023H2207H2315.98C2315.99 746.023 2315.99 746.023 2316 746.023C2316.44 746.017 2389.43 745.041 2394 746.023C2395.41 746.327 2396.71 746.519 2397.92 746.699L2397.92 746.699C2403.32 747.5 2406.91 748.035 2411 757.023C2415.84 767.663 2423.48 799.822 2423.97 801.915C2423.99 801.99 2424.01 802.059 2424.03 802.132L2477.88 971.772C2478.26 972.97 2477.85 974.272 2476.89 975.086C2466.86 983.615 2460.5 996.326 2460.5 1010.52C2460.5 1036.2 2481.32 1057.02 2507 1057.02C2507.71 1057.02 2508.41 1057.01 2509.11 1056.98ZM3307.72 1155.58C3306.81 1153.99 3304.71 1153.57 3303.26 1154.7L3300.57 1156.8C3299.62 1157.54 3299.2 1158.77 3299.53 1159.94C3301.06 1165.42 3305.68 1181.45 3310 1192.02C3314.88 1203.94 3324.48 1210.77 3334.85 1218.13C3335.73 1218.76 3336.61 1219.39 3337.5 1220.02C3338.17 1220.5 3338.84 1220.96 3339.51 1221.4C3341.94 1222.97 3344.44 1220.32 3343.02 1217.8L3307.72 1155.58ZM2531.5 1011.52C2531.5 1025.05 2520.53 1036.02 2507 1036.02C2493.47 1036.02 2482.5 1025.05 2482.5 1011.52C2482.5 997.992 2493.47 987.023 2507 987.023C2520.53 987.023 2531.5 997.992 2531.5 1011.52ZM2009 1173.02C2024.74 1173.02 2037.5 1160.26 2037.5 1144.52C2037.5 1128.78 2024.74 1116.02 2009 1116.02C1993.26 1116.02 1980.5 1128.78 1980.5 1144.52C1980.5 1160.26 1993.26 1173.02 2009 1173.02Z" fill="#D9D9D9"/>
<path d="M3326 1240.52L3326.56 1239.69L3326.56 1239.69L3326 1240.52ZM3307.68 1218.99L3306.82 1219.5L3306.82 1219.5L3307.68 1218.99ZM3290.5 1198.02L3291.1 1197.22L3291.1 1197.22L3290.5 1198.02ZM3286.65 1195.12L3286.05 1195.92L3286.05 1195.92L3286.65 1195.12ZM3263.5 1183.02L3263.71 1182.05L3263.71 1182.05L3263.5 1183.02ZM3091 1187.52L3091.01 1188.52C3091.01 1188.52 3091.02 1188.52 3091.03 1188.52L3091 1187.52ZM2196 1192.02V1193.02L2196.01 1193.02L2196 1192.02ZM2002.51 1192.02L2002.53 1191.02C2002.52 1191.02 2002.51 1191.02 2002.51 1191.02L2002.51 1192.02ZM2002.3 1192.02L2002.31 1193.02L2002.31 1193.02L2002.3 1192.02ZM1965.72 1174.61L1966.5 1173.99C1966.47 1173.95 1966.45 1173.92 1966.41 1173.89L1965.72 1174.61ZM1960.25 1167.72L1961.08 1167.16L1961.08 1167.16L1960.25 1167.72ZM1907.5 1158.02V1157.02L1907.49 1157.02L1907.5 1158.02ZM1617 1158.02L1617.28 1157.06L1617.28 1157.06L1617 1158.02ZM1586.5 1139.52L1587.27 1138.89L1587.27 1138.89L1586.5 1139.52ZM1576 1115.52L1576.98 1115.34L1576.98 1115.34L1576 1115.52ZM1302.5 743.023L1302.02 742.143L1302.02 742.143L1302.5 743.023ZM1289.22 753.982L1288.37 753.445L1288.37 753.445L1289.22 753.982ZM1287.5 756.523L1286.7 755.927L1286.7 755.927L1287.5 756.523ZM1277.5 861.023L1278.5 861.118C1278.5 861.103 1278.5 861.088 1278.5 861.073L1277.5 861.023ZM1275.77 894.776L1274.77 894.749C1274.77 894.758 1274.77 894.767 1274.77 894.776H1275.77ZM1275.77 894.779L1276.77 894.807C1276.77 894.797 1276.77 894.788 1276.77 894.779H1275.77ZM1275 910.023L1274.01 909.858L1274.01 909.858L1275 910.023ZM1250.5 944.523L1250.93 945.424L1250.93 945.424L1250.5 944.523ZM801.5 952.523V953.523L801.506 953.523L801.5 952.523ZM594 947.023L593.002 946.953L593.002 946.953L594 947.023ZM1244.5 938.023L1244.07 937.12L1244.07 937.12L1244.5 938.023ZM1260.5 925.523L1259.68 924.954L1259.68 924.955L1260.5 925.523ZM1280 752.023L1280.82 752.593L1280.82 752.593L1280 752.023ZM1298.5 735.523L1298.94 736.419L1298.94 736.419L1298.5 735.523ZM1377.5 727.523L1377.47 726.523C1377.46 726.523 1377.46 726.523 1377.45 726.524L1377.5 727.523ZM2082 721.523L2082.01 720.523H2082V721.523ZM2416.5 730.023L2416.01 730.892L2416.01 730.892L2416.5 730.023ZM2906 816.023L2905.53 815.138L2905.53 815.138L2906 816.023ZM3046.5 733.523L3046 732.658L3046 732.658L3046.5 733.523ZM2574 996.023L2574.4 996.937L2574.4 996.937L2574 996.023ZM2622.17 975.314L2622.56 976.236L2622.56 976.236L2622.17 975.314ZM2661.5 958.523L2661.1 957.606L2661.1 957.606L2661.5 958.523ZM2703.03 940.555L2703.43 941.473C2703.44 941.469 2703.45 941.465 2703.46 941.461L2703.03 940.555ZM2703.03 940.554L2702.64 939.636C2702.63 939.64 2702.62 939.644 2702.61 939.648L2703.03 940.554ZM2851 873.523L2850.56 872.623L2850.56 872.623L2851 873.523ZM3280.5 1141.52L3279.73 1140.88L3279.73 1140.88L3280.5 1141.52ZM3263.5 1154.02L3263.18 1153.07L3263.18 1153.07L3263.5 1154.02ZM2571 1166.52L2570.99 1165.52L2570.98 1165.52L2571 1166.52ZM2248 1174.02V1175.02C2248.01 1175.02 2248.02 1175.02 2248.02 1175.02L2248 1174.02ZM2067.5 1164.02L2068.5 1164.11L2067.5 1164.02ZM2120 1158.02V1159.02L2120.01 1159.02L2120 1158.02ZM2506.5 1150.02L2506.1 1149.11L2506.1 1149.11L2506.5 1150.02ZM2537.5 1097.52L2536.51 1097.36L2536.51 1097.36L2537.5 1097.52ZM2515.5 1074.02L2514.51 1074.15L2514.51 1074.15L2515.5 1074.02ZM2515.59 1074.76L2514.6 1074.89L2514.6 1074.89L2515.59 1074.76ZM2515.67 1075.4L2516.67 1075.27L2516.67 1075.27L2515.67 1075.4ZM2515.5 1101.02L2516.48 1101.24L2516.48 1101.24L2515.5 1101.02ZM2508.5 1119.02L2509.35 1119.55L2509.35 1119.55L2508.5 1119.02ZM2508.45 1119.1L2507.6 1118.58L2507.6 1118.58L2508.45 1119.1ZM2498.5 1131.02L2499.1 1131.82L2499.1 1131.82L2498.5 1131.02ZM2090.98 1126.84L2090.32 1127.6L2090.32 1127.6L2090.98 1126.84ZM2080 1118.52L2079.5 1119.39L2079.5 1119.39L2080 1118.52ZM2036.5 1100.52L2036.71 1099.55L2036.71 1099.55L2036.5 1100.52ZM2005 1097.02L2004.97 1098.02L2004.97 1098.02L2005 1097.02ZM1977 1098.52L1977.14 1099.51L1977.14 1099.51L1977 1098.52ZM1939 1112.52L1938.53 1111.64L1938.53 1111.64L1939 1112.52ZM1915.47 1129.59L1914.82 1128.82L1914.82 1128.82L1915.47 1129.59ZM1893 1144.02L1893.16 1145.01L1893.16 1145.01L1893 1144.02ZM1617 1142.02L1617.42 1141.12L1617.42 1141.12L1617 1142.02ZM1597.5 1127.52L1596.69 1128.11L1596.69 1128.11L1597.5 1127.52ZM1590.55 1109.26L1591.53 1109.07L1591.53 1109.07L1590.55 1109.26ZM1590.5 1109.02L1589.52 1109.22L1589.52 1109.22L1590.5 1109.02ZM2394 746.023L2394.21 745.045L2394.21 745.045L2394 746.023ZM2397.92 746.699L2398.08 745.712C2398.08 745.711 2398.07 745.71 2398.07 745.71L2397.92 746.699ZM2397.92 746.699L2397.76 747.685C2397.76 747.686 2397.77 747.687 2397.77 747.688L2397.92 746.699ZM2411 757.023L2411.91 756.609L2411.91 756.609L2411 757.023ZM3310 1192.02L3310.93 1191.64L3310.93 1191.64L3310 1192.02ZM3334.85 1218.13L3335.43 1217.32L3335.43 1217.32L3334.85 1218.13ZM3337.5 1220.02L3338.08 1219.21L3338.08 1219.21L3337.5 1220.02ZM2423.97 801.915L2424.95 801.685L2423.97 801.915ZM2424.03 802.132L2424.99 801.829L2424.03 802.132ZM1337.53 737.522L1337.56 738.521L1337.53 737.522ZM1337.49 737.523L1337.48 736.523L1337.49 737.523ZM2316 746.023L2315.99 745.023L2316 746.023ZM1593.25 748.996L1592.25 748.987L1593.25 748.996ZM1576.08 1115.95L1575.09 1116.12L1576.08 1115.95ZM1646 1146.02L1646 1147.02L1646 1146.02ZM1645.95 1146.02L1645.98 1147.02L1645.95 1146.02ZM2512.27 1059.19L2511.31 1059.46L2512.27 1059.19ZM2509.11 1056.98L2509.06 1055.98L2509.11 1056.98ZM3461.14 1426L3460.27 1426.5L3461.14 1426ZM2532.73 1051.43L2531.74 1051.6L2532.73 1051.43ZM2534.02 1048.37L2533.44 1047.56L2534.02 1048.37ZM2943.37 434.02L2942.5 434.521L2943.37 434.02ZM2535.52 1067.62L2534.55 1067.86L2535.52 1067.62ZM2535.48 1067.41L2536.47 1067.24L2535.48 1067.41ZM2477.88 971.772L2478.83 971.469L2477.88 971.772ZM2476.89 975.086L2476.24 974.324L2476.24 974.324L2476.89 975.086ZM3232.07 1158.02L3232.01 1157.02L3232.07 1158.02ZM3231.93 1158.02L3231.94 1159.02L3231.93 1158.02ZM3290.35 1124.96L3291.22 1124.47L3290.35 1124.96ZM3290.25 1128.06L3291.09 1128.61L3290.25 1128.06ZM3075.98 753.131L3076.47 754.002L3075.98 753.131ZM3080.04 754.277L3080.91 753.784L3080.04 754.277ZM2900.04 437.003L2900.91 436.51L2900.04 437.003ZM3060.36 725.769L3059.88 724.891L3060.36 725.769ZM3061.53 721.649L3060.66 722.142L3061.53 721.649ZM2540.46 978.228L2541.18 977.533L2540.46 978.228ZM2543.95 978.962L2543.55 978.046L2543.95 978.962ZM2506.58 962.027L2507.52 961.697L2506.58 962.027ZM2509.39 964.083L2509.34 965.082L2509.39 964.083ZM2383.45 724.522L2383.44 725.522L2383.45 724.522ZM2383.55 724.522L2383.57 725.521L2383.55 724.522ZM1574.49 721.553L1574.45 720.554L1574.49 721.553ZM1332.9 729.52L1332.88 730.52L1332.9 729.52ZM1333.11 729.518L1333.07 728.519L1333.11 729.518ZM3364.82 1256.23L3363.95 1256.73L3364.82 1256.23ZM3362.92 1254.8L3362.68 1255.77L3362.92 1254.8ZM1223.08 942.518L1223.01 941.52L1223.08 942.518ZM2077.5 1158.02L2077.5 1157.02L2077.5 1158.02ZM3339.51 1221.4L3340.06 1220.56L3339.51 1221.4ZM3343.02 1217.8L3343.89 1217.31L3343.02 1217.8ZM595.196 951.14L594.309 951.602L595.196 951.14ZM3303.26 1154.7L3302.65 1153.91L3303.26 1154.7ZM3307.72 1155.58L3308.59 1155.09L3307.72 1155.58ZM1266.6 930.847L1265.73 930.355L1266.6 930.847ZM1266.38 931.177L1265.59 930.558L1266.38 931.177ZM1282 771.48L1283 771.573L1282 771.48ZM1282 771.57L1283 771.621L1282 771.57ZM1266.49 905.074L1267.49 905.172L1266.49 905.074ZM1266.5 904.966L1265.5 904.912L1266.5 904.966ZM2555.21 1004.4L2554.8 1003.48L2555.21 1004.4ZM1571.42 731.201L1571.39 730.201L1571.42 731.201ZM1273.5 777.038L1274.5 777.092L1273.5 777.038ZM1273.5 777.018L1272.5 776.972L1273.5 777.018ZM1590.5 1053.53L1591.5 1053.56L1590.5 1053.53ZM1590.5 1053.49L1589.5 1053.48L1590.5 1053.49ZM3300.57 1156.8L3299.96 1156.01L3300.57 1156.8ZM3299.53 1159.94L3300.49 1159.67L3299.53 1159.94ZM2075.34 1174.04L2075.4 1175.03L2075.34 1174.04ZM1221.52 950.022L1221.55 951.022L1221.52 950.022ZM1221.47 950.023L1221.46 949.023L1221.47 950.023ZM2431.43 747.382L2432.33 746.941L2431.43 747.382ZM2431.55 747.671L2432.5 747.341L2431.55 747.671ZM1651.08 1161.02L1651.07 1160.02L1651.08 1161.02ZM1650.93 1161.03L1650.99 1162.03L1650.93 1161.03ZM3240.65 1183L3240.53 1182.01L3240.65 1183ZM3240.34 1183.03L3240.37 1184.03L3240.34 1183.03ZM3008.48 757.535L3008.99 758.392L3008.48 757.535ZM3008.55 757.489L3009.1 758.322L3008.55 757.489ZM1576.08 1115.94L1575.09 1116.12L1576.08 1115.94ZM2476.42 1154.02L2476.41 1153.02L2476.42 1154.02ZM2476.57 1154.03L2476.54 1155.02L2476.57 1154.03ZM3515.89 1423.02L3516.76 1422.52L3515.89 1423.02ZM595.181 943.817L596.051 944.312L595.181 943.817ZM1576.08 1115.95L1575.13 1116.26L1576.08 1115.95ZM2785.49 873.528L2785.89 874.444L2785.49 873.528ZM2785.5 873.522L2785.91 874.435L2785.5 873.522ZM3516.76 1422.52L2944.23 433.519L2942.5 434.521L3515.03 1423.52L3516.76 1422.52ZM3463.75 1428.52H3513.3V1426.52H3463.75V1428.52ZM3363.95 1256.73L3460.27 1426.5L3462.01 1425.51L3365.69 1255.74L3363.95 1256.73ZM3325.44 1241.35C3335.87 1248.36 3352.23 1253.19 3362.68 1255.77L3363.16 1253.82C3352.71 1251.25 3336.66 1246.48 3326.56 1239.69L3325.44 1241.35ZM3306.82 1219.5C3311.4 1227.21 3316.03 1235.03 3325.44 1241.35L3326.56 1239.69C3317.56 1233.64 3313.12 1226.19 3308.54 1218.48L3306.82 1219.5ZM3289.9 1198.83C3298.18 1204.97 3302.48 1212.18 3306.82 1219.5L3308.54 1218.48C3304.2 1211.17 3299.73 1203.63 3291.1 1197.22L3289.9 1198.83ZM3286.05 1195.92C3287.27 1196.85 3288.54 1197.82 3289.9 1198.83L3291.1 1197.22C3289.75 1196.22 3288.48 1195.25 3287.26 1194.33L3286.05 1195.92ZM3263.29 1184C3273.19 1186.17 3278.55 1190.23 3286.05 1195.92L3287.26 1194.33C3279.74 1188.62 3274.08 1184.32 3263.71 1182.05L3263.29 1184ZM3240.78 1183.99C3241.54 1183.9 3245.16 1183.45 3249.61 1183.26C3254.08 1183.07 3259.3 1183.13 3263.29 1184L3263.71 1182.05C3259.46 1181.11 3254.03 1181.07 3249.53 1181.26C3245 1181.46 3241.32 1181.91 3240.53 1182.01L3240.78 1183.99ZM3091.03 1188.52L3240.37 1184.03L3240.31 1182.03L3090.97 1186.52L3091.03 1188.52ZM2196.01 1193.02L3091.01 1188.52L3090.99 1186.52L2195.99 1191.02L2196.01 1193.02ZM2003 1193.02H2196V1191.02H2003V1193.02ZM2002.5 1193.02C2002.67 1193.02 2002.83 1193.02 2003 1193.02V1191.02C2002.84 1191.02 2002.68 1191.02 2002.53 1191.02L2002.5 1193.02ZM2002.31 1193.02L2002.52 1193.02L2002.51 1191.02L2002.29 1191.02L2002.31 1193.02ZM2002 1193.02C2002.1 1193.02 2002.2 1193.02 2002.31 1193.02L2002.29 1191.02C2002.2 1191.02 2002.1 1191.02 2002 1191.02V1193.02ZM1964.94 1175.24C1973.65 1186.08 1987.01 1193.02 2002 1193.02V1191.02C1987.64 1191.02 1974.84 1184.38 1966.5 1173.99L1964.94 1175.24ZM1959.43 1168.29C1961.02 1170.62 1962.74 1173.14 1965.03 1175.33L1966.41 1173.89C1964.3 1171.86 1962.69 1169.51 1961.08 1167.16L1959.43 1168.29ZM1946 1159.02C1949.57 1159.02 1952.05 1160.1 1954.05 1161.74C1956.1 1163.43 1957.68 1165.73 1959.43 1168.29L1961.08 1167.16C1959.36 1164.65 1957.63 1162.1 1955.32 1160.2C1952.96 1158.26 1950.04 1157.02 1946 1157.02V1159.02ZM1907.5 1159.02H1946V1157.02H1907.5V1159.02ZM1651.09 1162.02L1907.51 1159.02L1907.49 1157.02L1651.07 1160.02L1651.09 1162.02ZM1616.72 1158.98C1630.99 1163.17 1649.68 1162.11 1650.99 1162.03L1650.86 1160.03C1649.54 1160.11 1631.18 1161.14 1617.28 1157.06L1616.72 1158.98ZM1585.73 1140.16C1594.73 1151.15 1603.25 1155.04 1616.72 1158.98L1617.28 1157.06C1604.01 1153.17 1595.92 1149.45 1587.27 1138.89L1585.73 1140.16ZM1575.09 1116.12C1576.1 1121.69 1577.66 1130.3 1585.73 1140.16L1587.27 1138.89C1579.54 1129.43 1578.05 1121.23 1577.06 1115.77L1575.09 1116.12ZM1575.13 1116.26L1575.13 1116.26L1577.03 1115.63L1577.03 1115.63L1575.13 1116.26ZM1575.02 1115.7L1575.09 1116.12L1577.06 1115.77L1576.98 1115.34L1575.02 1115.7ZM1573.5 1098.52C1573.5 1102.02 1574 1110.13 1575.02 1115.7L1576.98 1115.34C1576 1109.92 1575.5 1101.93 1575.5 1098.52H1573.5ZM1573.5 847.523V1098.52H1575.5V847.523H1573.5ZM1573.5 746.023V847.523H1575.5V746.023H1573.5ZM1573.5 734.199V746.023H1575.5V734.199H1573.5ZM1337.56 738.521L1571.45 732.2L1571.39 730.201L1337.5 736.522L1337.56 738.521ZM1302.98 743.902C1305.28 742.652 1308.53 741.672 1312.19 740.916C1315.82 740.164 1319.79 739.646 1323.49 739.291C1330.89 738.58 1337.17 738.525 1337.49 738.523L1337.48 736.523C1337.13 736.525 1330.79 736.581 1323.3 737.3C1319.56 737.659 1315.51 738.185 1311.78 738.958C1308.06 739.727 1304.59 740.754 1302.02 742.143L1302.98 743.902ZM1290.06 754.52C1291.07 752.935 1291.93 751.594 1293.69 750C1295.47 748.387 1298.2 746.49 1302.98 743.902L1302.02 742.143C1297.18 744.765 1294.29 746.751 1292.34 748.518C1290.37 750.303 1289.4 751.837 1288.37 753.445L1290.06 754.52ZM1288.3 757.119C1289.01 756.168 1289.56 755.31 1290.06 754.52L1288.37 753.445C1287.87 754.237 1287.36 755.04 1286.7 755.927L1288.3 757.119ZM1283 771.573C1283.06 770.943 1283.88 763.084 1288.3 757.119L1286.7 755.927C1281.92 762.365 1281.07 770.709 1281.01 771.388L1283 771.573ZM1278.5 861.073L1283 771.621L1281 771.52L1276.5 860.972L1278.5 861.073ZM1276.77 894.804C1277.03 885.32 1277.36 873.032 1278.5 861.118L1276.5 860.928C1275.36 872.92 1275.03 885.275 1274.77 894.749L1276.77 894.804ZM1276.77 894.778V894.776H1274.77V894.778H1276.77ZM1276.77 894.779V894.778H1274.77V894.779H1276.77ZM1275.99 910.187C1276.42 907.573 1276.57 901.929 1276.77 894.807L1274.77 894.752C1274.57 901.974 1274.42 907.42 1274.01 909.858L1275.99 910.187ZM1267.47 931.339C1270.96 925.156 1274.97 916.308 1275.99 910.187L1274.01 909.858C1273.05 915.624 1269.19 924.223 1265.73 930.355L1267.47 931.339ZM1250.93 945.424C1259.48 941.309 1266.2 933.024 1267.16 931.796L1265.59 930.558C1264.64 931.767 1258.17 939.722 1250.07 943.622L1250.93 945.424ZM1221.55 951.022C1221.89 951.012 1226.63 950.863 1232.56 950.098C1238.47 949.337 1245.68 947.952 1250.93 945.424L1250.07 943.622C1245.12 946.003 1238.17 947.358 1232.3 948.114C1226.46 948.867 1221.8 949.014 1221.49 949.023L1221.55 951.022ZM801.506 953.523L1221.47 951.023L1221.46 949.023L801.494 951.523L801.506 953.523ZM597.6 953.523H801.5V951.523H597.6V953.523ZM593.002 946.953C592.943 947.8 593.135 948.684 593.39 949.462C593.649 950.251 593.996 951.001 594.309 951.602L596.083 950.679C595.801 950.136 595.504 949.491 595.29 948.839C595.073 948.176 594.964 947.573 594.997 947.092L593.002 946.953ZM594.312 943.323C593.787 944.247 593.092 945.663 593.002 946.953L594.997 947.092C595.053 946.289 595.536 945.216 596.051 944.312L594.312 943.323ZM801.5 941.523H597.533V943.523H801.5V941.523ZM1114.5 941.523H801.5V943.523H1114.5V941.523ZM1222.91 941.523H1114.5V943.523H1222.91V941.523ZM1244.07 937.12C1240.51 938.815 1235.55 939.904 1231.28 940.575C1227.03 941.243 1223.56 941.484 1223.01 941.52L1223.14 943.516C1223.72 943.478 1227.26 943.232 1231.59 942.551C1235.9 941.873 1241.09 940.751 1244.93 938.926L1244.07 937.12ZM1259.68 924.955C1255.32 931.268 1251.17 933.745 1244.07 937.12L1244.93 938.926C1252.15 935.49 1256.67 932.827 1261.32 926.091L1259.68 924.955ZM1265.5 904.977C1265.46 905.414 1265.11 908.828 1264.2 912.945C1263.29 917.094 1261.85 921.814 1259.68 924.954L1261.32 926.091C1263.72 922.612 1265.23 917.566 1266.15 913.374C1267.08 909.15 1267.44 905.65 1267.49 905.172L1265.5 904.977ZM1272.5 776.983L1265.5 904.912L1267.5 905.021L1274.5 777.092L1272.5 776.983ZM1279.18 751.452C1276.2 755.745 1274.55 762.101 1273.63 767.305C1272.71 772.546 1272.51 776.791 1272.5 776.972L1274.5 777.064C1274.51 776.926 1274.7 772.775 1275.6 767.651C1276.51 762.488 1278.1 756.505 1280.82 752.593L1279.18 751.452ZM1298.06 734.626C1289.23 738.993 1284.75 743.421 1279.18 751.452L1280.82 752.593C1286.25 744.776 1290.48 740.605 1298.94 736.419L1298.06 734.626ZM1332.92 728.52C1332.11 728.502 1326.68 728.414 1319.82 729.13C1312.99 729.845 1304.64 731.369 1298.06 734.626L1298.94 736.419C1305.21 733.321 1313.27 731.826 1320.03 731.119C1326.77 730.415 1332.11 730.503 1332.88 730.52L1332.92 728.52ZM1377.45 726.524L1333.07 728.519L1333.16 730.517L1377.54 728.522L1377.45 726.524ZM1574.45 720.554L1377.47 726.523L1377.53 728.522L1574.52 722.553L1574.45 720.554ZM1575.5 720.523H1574.52V722.523H1575.5V720.523ZM1593.5 720.523H1575.5V722.523H1593.5V720.523ZM1719 720.523H1593.5V722.523H1719V720.523ZM2082 720.523H1719V722.523H2082V720.523ZM2383.46 723.522L2082.01 720.523L2081.99 722.523L2383.44 725.522L2383.46 723.522ZM2416.99 729.153C2411.58 726.076 2403.43 724.683 2396.63 724.045C2389.78 723.402 2384.1 723.509 2383.52 723.522L2383.57 725.521C2384.11 725.509 2389.7 725.403 2396.44 726.036C2403.23 726.673 2411 728.043 2416.01 730.892L2416.99 729.153ZM2432.33 746.941C2431.98 746.223 2430.37 743.055 2427.76 739.438C2425.15 735.834 2421.49 731.707 2416.99 729.153L2416.01 730.892C2420.14 733.24 2423.6 737.104 2426.14 740.61C2428.66 744.103 2430.21 747.163 2430.53 747.822L2432.33 746.941ZM2507.52 961.697L2432.5 747.341L2430.61 748.002L2505.63 962.357L2507.52 961.697ZM2541.18 977.533C2533.07 969.134 2521.89 963.715 2509.44 963.084L2509.34 965.082C2521.26 965.685 2531.97 970.874 2539.74 978.922L2541.18 977.533ZM2785.09 872.611L2543.55 978.046L2544.35 979.879L2785.89 874.444L2785.09 872.611ZM2905.53 815.138C2859.5 839.349 2785.36 872.492 2785.09 872.609L2785.91 874.435C2786.16 874.323 2860.36 841.154 2906.47 816.908L2905.53 815.138ZM3007.97 756.677C3006.7 757.438 2945.87 793.923 2905.53 815.138L2906.47 816.908C2946.86 795.662 3007.74 759.148 3008.99 758.392L3007.97 756.677ZM3046 732.658C3031.21 741.255 3009.19 755.867 3008 756.656L3009.1 758.322C3010.3 757.527 3032.27 742.949 3047 734.387L3046 732.658ZM3059.88 724.891C3055.33 727.373 3050.13 730.255 3046 732.658L3047 734.387C3051.11 731.998 3056.3 729.126 3060.84 726.646L3059.88 724.891ZM2899.17 437.497L3060.66 722.142L3062.4 721.155L2900.91 436.51L2899.17 437.497ZM2940.77 431.523H2902.65V433.523H2940.77V431.523ZM2573.6 995.108C2567.89 997.629 2560.54 1000.91 2554.8 1003.48L2555.61 1005.31C2561.35 1002.74 2568.71 999.457 2574.4 996.937L2573.6 995.108ZM2621.78 974.393C2606.88 980.681 2592.49 986.755 2573.6 995.108L2574.4 996.937C2593.28 988.591 2607.66 982.524 2622.56 976.236L2621.78 974.393ZM2661.1 957.606C2645.95 964.193 2633.7 969.362 2621.78 974.393L2622.56 976.236C2634.48 971.204 2646.74 966.031 2661.9 959.44L2661.1 957.606ZM2702.64 939.637C2689.75 945.194 2676.08 951.092 2661.1 957.606L2661.9 959.44C2676.88 952.928 2690.55 947.03 2703.43 941.473L2702.64 939.637ZM2702.61 939.648L2702.61 939.65L2703.46 941.461L2703.46 941.459L2702.61 939.648ZM2850.56 872.623C2792.33 900.942 2753.72 917.6 2702.64 939.636L2703.43 941.472C2754.51 919.434 2793.16 902.761 2851.44 874.422L2850.56 872.623ZM3075.49 752.261C3042.99 770.616 2929.67 834.151 2850.56 872.623L2851.44 874.422C2930.61 835.919 3043.98 772.354 3076.47 754.002L3075.49 752.261ZM3291.22 1124.47L3080.91 753.784L3079.17 754.771L3289.48 1125.45L3291.22 1124.47ZM3281.27 1142.16C3284.74 1137.98 3288.25 1132.94 3291.09 1128.61L3289.42 1127.52C3286.59 1131.82 3283.13 1136.78 3279.73 1140.88L3281.27 1142.16ZM3263.82 1154.97C3271.88 1152.29 3275.94 1148.58 3281.27 1142.16L3279.73 1140.88C3274.54 1147.15 3270.76 1150.55 3263.18 1153.07L3263.82 1154.97ZM3232.13 1159.02C3232.86 1158.97 3238.89 1158.58 3245.67 1157.9C3252.4 1157.22 3260.01 1156.24 3263.82 1154.97L3263.18 1153.07C3259.63 1154.26 3252.25 1155.23 3245.47 1155.91C3238.73 1156.59 3232.72 1156.98 3232.01 1157.02L3232.13 1159.02ZM2571.01 1167.52L3231.94 1159.02L3231.91 1157.02L2570.99 1165.52L2571.01 1167.52ZM2248.02 1175.02L2571.02 1167.52L2570.98 1165.52L2247.98 1173.02L2248.02 1175.02ZM2075.67 1175.02H2248V1173.02H2075.67V1175.02ZM2066.5 1163.93C2066.02 1169.28 2067.78 1172.2 2070.08 1173.69C2072.28 1175.11 2074.73 1175.07 2075.4 1175.03L2075.28 1173.04C2074.74 1173.07 2072.82 1173.08 2071.17 1172.01C2069.62 1171.01 2068.06 1168.89 2068.5 1164.11L2066.5 1163.93ZM2077.5 1157.02C2077.42 1157.02 2074.94 1157.04 2072.37 1157.84C2069.86 1158.62 2066.83 1160.32 2066.5 1163.93L2068.5 1164.11C2068.71 1161.78 2070.64 1160.47 2072.97 1159.75C2074.1 1159.39 2075.23 1159.21 2076.09 1159.12C2076.94 1159.02 2077.51 1159.02 2077.5 1159.02L2077.5 1157.02ZM2120 1157.02H2077.5V1159.02H2120V1157.02ZM2476.41 1153.02L2119.99 1157.02L2120.01 1159.02L2476.43 1155.02L2476.41 1153.02ZM2506.1 1149.11C2501.04 1151.33 2494.03 1152.34 2488.03 1152.77C2482.06 1153.19 2477.22 1153.05 2476.61 1153.03L2476.54 1155.02C2477.19 1155.05 2482.1 1155.2 2488.17 1154.76C2494.21 1154.33 2501.52 1153.31 2506.9 1150.94L2506.1 1149.11ZM2519.29 1140.82C2515.02 1145.08 2511.78 1146.61 2506.1 1149.11L2506.9 1150.94C2512.63 1148.42 2516.16 1146.77 2520.71 1142.23L2519.29 1140.82ZM2536.51 1097.36C2533.69 1114 2529.54 1130.57 2519.29 1140.82L2520.71 1142.23C2531.46 1131.48 2535.67 1114.29 2538.49 1097.69L2536.51 1097.36ZM2534.55 1067.86C2534.89 1069.26 2538.61 1085.03 2536.51 1097.36L2538.49 1097.69C2540.66 1084.91 2536.83 1068.77 2536.5 1067.38L2534.55 1067.86ZM2531.74 1051.6L2534.5 1067.58L2536.47 1067.24L2533.71 1051.26L2531.74 1051.6ZM2552.5 1010.52C2552.5 1025.79 2544.98 1039.3 2533.44 1047.56L2534.6 1049.19C2546.65 1040.57 2554.5 1026.46 2554.5 1010.52H2552.5ZM2552.4 1007.54C2552.47 1008.52 2552.5 1009.52 2552.5 1010.52H2554.5C2554.5 1009.48 2554.47 1008.44 2554.4 1007.41L2552.4 1007.54ZM2516.49 1073.9C2515.92 1069.3 2514.58 1063.77 2513.23 1058.92L2511.31 1059.46C2512.64 1064.28 2513.95 1069.69 2514.51 1074.15L2516.49 1073.9ZM2516.59 1074.64L2516.49 1073.9L2514.51 1074.15L2514.6 1074.89L2516.59 1074.64ZM2516.67 1075.27L2516.59 1074.64L2514.6 1074.89L2514.68 1075.52L2516.67 1075.27ZM2516.48 1101.24C2518.68 1091.22 2517.88 1084.94 2516.67 1075.27L2514.68 1075.52C2515.9 1085.16 2516.65 1091.15 2514.52 1100.81L2516.48 1101.24ZM2509.35 1119.55C2513.37 1113 2514.84 1108.68 2516.48 1101.24L2514.52 1100.81C2512.92 1108.09 2511.52 1112.19 2507.65 1118.5L2509.35 1119.55ZM2509.31 1119.62L2509.35 1119.55L2507.65 1118.5L2507.6 1118.58L2509.31 1119.62ZM2499.1 1131.82C2504.13 1128.07 2506.14 1124.79 2509.31 1119.62L2507.6 1118.58C2504.44 1123.72 2502.6 1126.72 2497.9 1130.22L2499.1 1131.82ZM2476.5 1138.02C2478.62 1138.02 2483.05 1137.36 2487.5 1136.29C2489.74 1135.75 2492.01 1135.09 2494.02 1134.35C2496.02 1133.62 2497.83 1132.77 2499.1 1131.82L2497.9 1130.22C2496.86 1131 2495.26 1131.76 2493.33 1132.48C2491.41 1133.18 2489.22 1133.82 2487.03 1134.34C2482.63 1135.41 2478.38 1136.02 2476.5 1136.02V1138.02ZM2446 1138.02H2476.5V1136.02H2446V1138.02ZM2111.5 1138.02H2446V1136.02H2111.5V1138.02ZM2090.32 1127.6C2096.43 1132.89 2102.3 1138.02 2111.5 1138.02V1136.02C2103.15 1136.02 2097.81 1131.44 2091.63 1126.09L2090.32 1127.6ZM2079.5 1119.39C2083.61 1121.78 2087.01 1124.73 2090.32 1127.6L2091.63 1126.09C2088.33 1123.23 2084.8 1120.16 2080.5 1117.66L2079.5 1119.39ZM2036.29 1101.5C2054.63 1105.51 2067.53 1112.4 2079.5 1119.39L2080.5 1117.66C2068.47 1110.64 2055.37 1103.63 2036.71 1099.55L2036.29 1101.5ZM2004.97 1098.02C2015.73 1098.32 2026.21 1099.3 2036.29 1101.5L2036.71 1099.55C2026.48 1097.31 2015.87 1096.33 2005.03 1096.02L2004.97 1098.02ZM1977.14 1099.51C1987.14 1098.13 1994.08 1097.72 2004.97 1098.02L2005.03 1096.02C1994.03 1095.71 1986.98 1096.13 1976.86 1097.53L1977.14 1099.51ZM1939.47 1113.41C1953.43 1106 1961.66 1101.66 1977.14 1099.51L1976.86 1097.53C1961.01 1099.73 1952.51 1104.23 1938.53 1111.64L1939.47 1113.41ZM1916.11 1130.36C1923.27 1124.37 1931.03 1117.88 1939.47 1113.41L1938.53 1111.64C1929.88 1116.23 1921.95 1122.86 1914.82 1128.82L1916.11 1130.36ZM1893.16 1145.01C1896.64 1144.43 1900.29 1142.49 1904.07 1139.88C1907.86 1137.26 1911.88 1133.89 1916.11 1130.36L1914.82 1128.82C1910.58 1132.37 1906.63 1135.68 1902.93 1138.23C1899.22 1140.8 1895.87 1142.53 1892.84 1143.04L1893.16 1145.01ZM1646 1147.02C1646.55 1147.02 1705.31 1147.02 1765.42 1146.77C1795.48 1146.65 1825.89 1146.46 1849.52 1146.18C1861.34 1146.04 1871.47 1145.87 1879.02 1145.68C1886.52 1145.49 1891.58 1145.27 1893.16 1145.01L1892.84 1143.04C1891.43 1143.27 1886.56 1143.49 1878.97 1143.68C1871.43 1143.87 1861.31 1144.04 1849.5 1144.18C1825.87 1144.46 1795.47 1144.65 1765.42 1144.77C1705.3 1145.02 1646.55 1145.02 1646 1145.02L1646 1147.02ZM1616.58 1142.93C1621.6 1145.26 1628.74 1146.28 1634.65 1146.72C1640.59 1147.17 1645.45 1147.04 1645.98 1147.02L1645.92 1145.02C1645.42 1145.04 1640.65 1145.16 1634.8 1144.73C1628.91 1144.29 1622.09 1143.29 1617.42 1141.12L1616.58 1142.93ZM1596.69 1128.11C1602.32 1135.81 1608.12 1139 1616.58 1142.93L1617.42 1141.12C1609.05 1137.23 1603.63 1134.21 1598.31 1126.93L1596.69 1128.11ZM1589.57 1109.46C1591.04 1116.83 1592.01 1121.72 1596.69 1128.11L1598.31 1126.93C1593.91 1120.92 1593 1116.42 1591.53 1109.07L1589.57 1109.46ZM1589.52 1109.22L1589.57 1109.46L1591.53 1109.07L1591.48 1108.83L1589.52 1109.22ZM1589.5 1053.5C1589.49 1053.86 1589.12 1065.88 1588.93 1078.74C1588.84 1085.17 1588.8 1091.82 1588.87 1097.33C1588.94 1102.79 1589.13 1107.25 1589.52 1109.22L1591.48 1108.83C1591.13 1107.08 1590.94 1102.83 1590.87 1097.3C1590.8 1091.82 1590.84 1085.19 1590.93 1078.77C1591.12 1065.92 1591.49 1053.92 1591.5 1053.56L1589.5 1053.5ZM1592.25 748.987L1589.5 1053.48L1591.5 1053.5L1594.25 749.005L1592.25 748.987ZM2207 745.023H1596.25V747.023H2207V745.023ZM2315.98 745.023H2207V747.023H2315.98V745.023ZM2394.21 745.045C2393.84 744.965 2393.21 744.909 2392.44 744.863C2391.63 744.815 2390.6 744.775 2389.38 744.741C2386.94 744.673 2383.7 744.631 2379.95 744.608C2372.45 744.561 2362.88 744.591 2353.44 744.652C2334.57 744.774 2316.21 745.02 2315.99 745.023L2316.02 747.023C2316.23 747.02 2334.59 746.774 2353.46 746.652C2362.89 746.591 2372.45 746.561 2379.94 746.608C2383.68 746.631 2386.9 746.673 2389.33 746.74C2390.54 746.774 2391.55 746.813 2392.32 746.859C2393.11 746.906 2393.59 746.958 2393.79 747L2394.21 745.045ZM2398.07 745.71C2396.86 745.53 2395.59 745.341 2394.21 745.045L2393.79 747C2395.24 747.312 2396.57 747.509 2397.77 747.688L2398.07 745.71ZM2398.08 745.712L2398.08 745.712L2397.75 747.685L2397.76 747.685L2398.08 745.712ZM2411.91 756.609C2409.83 752.035 2407.81 749.458 2405.5 747.953C2403.2 746.457 2400.73 746.105 2398.07 745.71L2397.77 747.688C2400.51 748.094 2402.53 748.41 2404.41 749.629C2406.26 750.838 2408.08 753.023 2410.09 757.437L2411.91 756.609ZM2424.95 801.685C2424.7 800.635 2422.66 792.061 2420.08 782.416C2417.51 772.803 2414.37 762.019 2411.91 756.609L2410.09 757.437C2412.47 762.667 2415.57 773.282 2418.15 782.933C2420.72 792.55 2422.75 801.103 2423 802.146L2424.95 801.685ZM2478.83 971.469L2424.99 801.829L2423.08 802.434L2476.93 972.074L2478.83 971.469ZM2461.5 1010.52C2461.5 996.632 2467.72 984.195 2477.54 975.848L2476.24 974.324C2466 983.036 2459.5 996.021 2459.5 1010.52H2461.5ZM2507 1056.02C2481.87 1056.02 2461.5 1035.65 2461.5 1010.52H2459.5C2459.5 1036.76 2480.77 1058.02 2507 1058.02V1056.02ZM2509.06 1055.98C2508.38 1056.01 2507.69 1056.02 2507 1056.02V1058.02C2507.72 1058.02 2508.44 1058.01 2509.15 1057.97L2509.06 1055.98ZM3301.19 1157.58L3303.88 1155.49L3302.65 1153.91L3299.96 1156.01L3301.19 1157.58ZM3310.93 1191.64C3306.63 1181.14 3302.03 1165.15 3300.49 1159.67L3298.57 1160.21C3300.1 1165.68 3304.73 1181.77 3309.07 1192.4L3310.93 1191.64ZM3335.43 1217.32C3325.02 1209.93 3315.67 1203.26 3310.93 1191.64L3309.07 1192.4C3314.08 1204.63 3323.94 1211.61 3334.27 1218.95L3335.43 1217.32ZM3338.08 1219.21C3337.19 1218.57 3336.31 1217.94 3335.43 1217.32L3334.27 1218.95C3335.15 1219.57 3336.03 1220.2 3336.92 1220.84L3338.08 1219.21ZM3340.06 1220.56C3339.4 1220.13 3338.74 1219.68 3338.08 1219.21L3336.92 1220.84C3337.6 1221.33 3338.29 1221.79 3338.97 1222.23L3340.06 1220.56ZM3306.85 1156.08L3342.15 1218.3L3343.89 1217.31L3308.59 1155.09L3306.85 1156.08ZM2507 1037.02C2521.08 1037.02 2532.5 1025.61 2532.5 1011.52H2530.5C2530.5 1024.5 2519.98 1035.02 2507 1035.02V1037.02ZM2481.5 1011.52C2481.5 1025.61 2492.92 1037.02 2507 1037.02V1035.02C2494.02 1035.02 2483.5 1024.5 2483.5 1011.52H2481.5ZM2507 986.023C2492.92 986.023 2481.5 997.439 2481.5 1011.52H2483.5C2483.5 998.544 2494.02 988.023 2507 988.023V986.023ZM2532.5 1011.52C2532.5 997.439 2521.08 986.023 2507 986.023V988.023C2519.98 988.023 2530.5 998.544 2530.5 1011.52H2532.5ZM2036.5 1144.52C2036.5 1159.71 2024.19 1172.02 2009 1172.02V1174.02C2025.29 1174.02 2038.5 1160.82 2038.5 1144.52H2036.5ZM2009 1117.02C2024.19 1117.02 2036.5 1129.33 2036.5 1144.52H2038.5C2038.5 1128.23 2025.29 1115.02 2009 1115.02V1117.02ZM1981.5 1144.52C1981.5 1129.33 1993.81 1117.02 2009 1117.02V1115.02C1992.71 1115.02 1979.5 1128.23 1979.5 1144.52H1981.5ZM2009 1172.02C1993.81 1172.02 1981.5 1159.71 1981.5 1144.52H1979.5C1979.5 1160.82 1992.71 1174.02 2009 1174.02V1172.02ZM2423 802.146C2423.03 802.245 2423.05 802.339 2423.08 802.434L2424.99 801.829C2424.97 801.779 2424.96 801.734 2424.95 801.685L2423 802.146ZM1337.5 736.522C1337.5 736.522 1337.49 736.523 1337.49 736.523C1337.49 736.523 1337.49 736.523 1337.48 736.523C1337.48 736.523 1337.48 736.523 1337.48 736.523C1337.48 736.523 1337.48 736.523 1337.48 736.523C1337.48 736.523 1337.48 736.523 1337.48 736.523L1337.49 738.523C1337.51 738.523 1337.52 738.523 1337.53 738.522C1337.54 738.522 1337.54 738.522 1337.55 738.522C1337.55 738.522 1337.55 738.522 1337.56 738.521L1337.5 736.522ZM2315.98 747.023C2315.98 747.023 2315.98 747.023 2315.98 747.023C2315.98 747.023 2315.98 747.023 2315.98 747.023C2315.98 747.023 2315.98 747.023 2315.98 747.023C2315.98 747.023 2315.98 747.023 2315.98 747.023C2315.99 747.023 2316 747.023 2316 747.023C2316.01 747.023 2316.01 747.023 2316.02 747.023L2315.99 745.023C2315.99 745.023 2315.99 745.023 2315.99 745.023C2315.99 745.023 2315.99 745.023 2315.99 745.023C2316 745.023 2316 745.023 2316 745.023C2316 745.023 2316 745.023 2316 745.023C2316 745.023 2316 745.023 2315.99 745.023C2315.99 745.023 2315.99 745.023 2315.98 745.023V747.023ZM1594.25 749.005C1594.26 747.907 1595.15 747.023 1596.25 747.023V745.023C1594.06 745.023 1592.27 746.792 1592.25 748.987L1594.25 749.005ZM1577.06 1115.77C1577.05 1115.72 1577.04 1115.67 1577.03 1115.63L1575.13 1116.26C1575.11 1116.22 1575.1 1116.17 1575.09 1116.12L1577.06 1115.77ZM1646 1145.02C1645.99 1145.02 1645.98 1145.02 1645.97 1145.02C1645.96 1145.02 1645.96 1145.02 1645.95 1145.02C1645.94 1145.02 1645.93 1145.02 1645.92 1145.02C1645.92 1145.02 1645.91 1145.03 1645.92 1145.03C1645.92 1145.02 1645.92 1145.02 1645.92 1145.02C1645.93 1145.02 1645.93 1145.02 1645.92 1145.02L1645.98 1147.02C1646 1147.02 1646.01 1147.02 1646.02 1147.02C1646.03 1147.02 1646.03 1147.02 1646.04 1147.02C1646.04 1147.02 1646.04 1147.02 1646.04 1147.02C1646.04 1147.02 1646.04 1147.02 1646.04 1147.02C1646.04 1147.02 1646.04 1147.02 1646.04 1147.02C1646.04 1147.02 1646.04 1147.02 1646.04 1147.02C1646.03 1147.02 1646.02 1147.02 1646.02 1147.02C1646.01 1147.02 1646.01 1147.02 1646 1147.02C1646 1147.02 1646 1147.02 1646 1147.02C1646 1147.02 1646 1147.02 1646 1147.02L1646 1145.02ZM2513.23 1058.92C2512.71 1057.05 2510.93 1055.89 2509.06 1055.98L2509.15 1057.97C2510.17 1057.93 2511.05 1058.56 2511.31 1059.46L2513.23 1058.92ZM3463.75 1426.52C3463.03 1426.52 3462.36 1426.14 3462.01 1425.51L3460.27 1426.5C3460.98 1427.75 3462.31 1428.52 3463.75 1428.52V1426.52ZM2533.71 1051.26C2533.58 1050.48 2533.92 1049.67 2534.6 1049.19L2533.44 1047.56C2532.17 1048.46 2531.47 1050.02 2531.74 1051.6L2533.71 1051.26ZM2944.23 433.519C2943.52 432.283 2942.2 431.523 2940.77 431.523V433.523C2941.48 433.523 2942.14 433.903 2942.5 434.521L2944.23 433.519ZM2536.5 1067.38C2536.48 1067.33 2536.48 1067.29 2536.47 1067.24L2534.5 1067.58C2534.51 1067.68 2534.53 1067.76 2534.55 1067.86L2536.5 1067.38ZM2476.93 972.074C2477.18 972.865 2476.91 973.754 2476.24 974.324L2477.54 975.848C2478.78 974.789 2479.34 973.076 2478.83 971.469L2476.93 972.074ZM3232.01 1157.02C3231.98 1157.02 3231.95 1157.02 3231.91 1157.02L3231.94 1159.02C3232 1159.02 3232.07 1159.02 3232.13 1159.02L3232.01 1157.02ZM3289.48 1125.45C3289.84 1126.1 3289.82 1126.9 3289.42 1127.52L3291.09 1128.61C3291.91 1127.36 3291.95 1125.76 3291.22 1124.47L3289.48 1125.45ZM3076.47 754.002C3077.42 753.465 3078.62 753.8 3079.17 754.771L3080.91 753.784C3079.83 751.875 3077.42 751.169 3075.49 752.261L3076.47 754.002ZM2900.91 436.51C2900.16 435.176 2901.12 433.523 2902.65 433.523V431.523C2899.59 431.523 2897.66 434.83 2899.17 437.497L2900.91 436.51ZM3060.84 726.646C3062.8 725.574 3063.51 723.102 3062.4 721.155L3060.66 722.142C3061.21 723.115 3060.86 724.353 3059.88 724.891L3060.84 726.646ZM2539.74 978.922C2540.91 980.142 2542.74 980.579 2544.35 979.879L2543.55 978.046C2542.76 978.39 2541.81 978.191 2541.18 977.533L2539.74 978.922ZM2505.63 962.357C2506.19 963.962 2507.69 964.998 2509.34 965.082L2509.44 963.084C2508.55 963.039 2507.8 962.486 2507.52 961.697L2505.63 962.357ZM2383.44 725.522C2383.48 725.523 2383.52 725.522 2383.57 725.521L2383.52 723.522C2383.5 723.522 2383.48 723.522 2383.46 723.522L2383.44 725.522ZM1575.5 721.538C1575.5 722.082 1575.06 722.523 1574.52 722.523V720.523C1573.95 720.523 1573.5 720.977 1573.5 721.538H1575.5ZM1574.52 722.553C1575.06 722.536 1575.5 722.087 1575.5 721.538H1573.5C1573.5 721.006 1573.92 720.57 1574.45 720.554L1574.52 722.553ZM1332.88 730.52C1332.98 730.522 1333.06 730.521 1333.16 730.517L1333.07 728.519C1333.01 728.521 1332.97 728.522 1332.92 728.52L1332.88 730.52ZM3365.69 1255.74C3365.15 1254.78 3364.23 1254.09 3363.16 1253.82L3362.68 1255.77C3363.22 1255.9 3363.68 1256.25 3363.95 1256.73L3365.69 1255.74ZM1222.91 943.523C1222.99 943.523 1223.06 943.521 1223.14 943.516L1223.01 941.52C1222.98 941.522 1222.95 941.523 1222.91 941.523V943.523ZM2077.5 1159.02L2077.5 1159.02V1157.02C2077.5 1157.02 2077.51 1157.02 2077.5 1157.02C2077.5 1157.02 2077.5 1157.02 2077.5 1157.02L2077.5 1159.02ZM3338.97 1222.23C3340.59 1223.29 3342.35 1222.94 3343.43 1221.83C3344.49 1220.72 3344.82 1218.95 3343.89 1217.31L3342.15 1218.3C3342.64 1219.17 3342.43 1219.98 3341.99 1220.44C3341.57 1220.88 3340.86 1221.08 3340.06 1220.56L3338.97 1222.23ZM597.6 951.523C596.918 951.523 596.349 951.189 596.083 950.679L594.309 951.602C594.967 952.866 596.282 953.523 597.6 953.523V951.523ZM3303.88 1155.49C3304.84 1154.73 3306.25 1155.01 3306.85 1156.08L3308.59 1155.09C3307.38 1152.97 3304.57 1152.41 3302.65 1153.91L3303.88 1155.49ZM1265.73 930.355C1265.68 930.435 1265.64 930.497 1265.59 930.558L1267.16 931.796C1267.28 931.645 1267.38 931.495 1267.47 931.339L1265.73 930.355ZM1281.01 771.388C1281 771.439 1281 771.481 1281 771.52L1283 771.621C1283 771.596 1283 771.585 1283 771.573L1281.01 771.388ZM1267.49 905.172C1267.5 905.117 1267.5 905.069 1267.5 905.021L1265.5 904.912C1265.5 904.939 1265.5 904.957 1265.5 904.977L1267.49 905.172ZM2554.8 1003.48C2553.2 1004.2 2552.29 1005.85 2552.4 1007.54L2554.4 1007.41C2554.34 1006.49 2554.83 1005.66 2555.61 1005.31L2554.8 1003.48ZM1575.5 734.199C1575.5 731.948 1573.64 730.14 1571.39 730.201L1571.45 732.2C1572.57 732.17 1573.5 733.074 1573.5 734.199H1575.5ZM1274.5 777.092C1274.5 777.091 1274.5 777.089 1274.5 777.088C1274.5 777.087 1274.5 777.085 1274.5 777.082C1274.5 777.076 1274.5 777.071 1274.5 777.064L1272.5 776.972C1272.5 776.975 1272.5 776.975 1272.5 776.973C1272.5 776.973 1272.5 776.973 1272.5 776.974C1272.5 776.974 1272.5 776.974 1272.5 776.975C1272.5 776.977 1272.5 776.98 1272.5 776.983L1274.5 777.092ZM1591.5 1053.56C1591.5 1053.55 1591.5 1053.53 1591.5 1053.52C1591.5 1053.51 1591.5 1053.51 1591.5 1053.51C1591.5 1053.51 1591.5 1053.51 1591.5 1053.5C1591.5 1053.5 1591.5 1053.5 1591.5 1053.5L1589.5 1053.48C1589.5 1053.49 1589.5 1053.49 1589.5 1053.5C1589.5 1053.5 1589.5 1053.5 1589.5 1053.5C1589.5 1053.51 1589.5 1053.51 1589.5 1053.5C1589.5 1053.5 1589.5 1053.5 1589.5 1053.5C1589.5 1053.5 1589.5 1053.5 1589.5 1053.5C1589.5 1053.5 1589.5 1053.5 1589.5 1053.5L1591.5 1053.56ZM3299.96 1156.01C3298.69 1157 3298.13 1158.65 3298.57 1160.21L3300.49 1159.67C3300.28 1158.9 3300.55 1158.08 3301.19 1157.58L3299.96 1156.01ZM2075.67 1173.02C2075.52 1173.02 2075.39 1173.03 2075.28 1173.04L2075.4 1175.03C2075.51 1175.03 2075.59 1175.02 2075.67 1175.02V1173.02ZM1221.49 949.023C1221.48 949.023 1221.48 949.023 1221.48 949.023C1221.48 949.023 1221.48 949.023 1221.48 949.023C1221.47 949.023 1221.47 949.023 1221.47 949.023C1221.47 949.023 1221.47 949.023 1221.46 949.023L1221.47 951.023C1221.49 951.023 1221.51 951.023 1221.55 951.022L1221.49 949.023ZM2430.53 747.822C2430.56 747.876 2430.58 747.935 2430.61 748.002L2432.5 747.341C2432.45 747.209 2432.4 747.075 2432.33 746.941L2430.53 747.822ZM1651.07 1160.02C1651 1160.02 1650.94 1160.02 1650.86 1160.03L1650.99 1162.03C1651.02 1162.02 1651.05 1162.02 1651.09 1162.02L1651.07 1160.02ZM3240.53 1182.01C3240.45 1182.02 3240.38 1182.03 3240.31 1182.03L3240.37 1184.03C3240.51 1184.02 3240.65 1184.01 3240.78 1183.99L3240.53 1182.01ZM3008.99 758.392C3009.02 758.379 3009.04 758.364 3009.07 758.346C3009.08 758.339 3009.09 758.332 3009.09 758.331C3009.09 758.329 3009.1 758.326 3009.1 758.322L3008 756.656C3007.98 756.665 3007.97 756.671 3007.97 756.676C3007.97 756.678 3007.96 756.679 3007.96 756.679C3007.96 756.68 3007.96 756.681 3007.96 756.681C3007.96 756.682 3007.96 756.681 3007.96 756.68C3007.96 756.678 3007.97 756.677 3007.97 756.675C3007.97 756.673 3007.97 756.672 3007.97 756.672C3007.98 756.671 3007.97 756.672 3007.97 756.677L3008.99 758.392ZM1577.08 1115.94C1577.08 1115.89 1577.07 1115.83 1577.06 1115.77L1575.09 1116.12C1575.08 1116.06 1575.08 1116 1575.08 1115.94H1577.08ZM2476.43 1155.02C2476.47 1155.02 2476.5 1155.02 2476.54 1155.02L2476.61 1153.03C2476.54 1153.02 2476.48 1153.02 2476.41 1153.02L2476.43 1155.02ZM3515.03 1423.52C3515.8 1424.85 3514.84 1426.52 3513.3 1426.52V1428.52C3516.38 1428.52 3518.3 1425.19 3516.76 1422.52L3515.03 1423.52ZM596.051 944.312C596.323 943.832 596.875 943.523 597.533 943.523V941.523C596.265 941.523 594.991 942.129 594.312 943.323L596.051 944.312ZM1577.03 1115.63C1577.06 1115.73 1577.08 1115.84 1577.08 1115.94H1575.08C1575.08 1116.05 1575.09 1116.16 1575.13 1116.26L1577.03 1115.63ZM2785.89 874.444C2785.89 874.444 2785.89 874.444 2785.89 874.445C2785.89 874.445 2785.89 874.445 2785.89 874.445C2785.89 874.445 2785.89 874.445 2785.89 874.445C2785.89 874.445 2785.89 874.445 2785.89 874.445C2785.89 874.445 2785.89 874.445 2785.89 874.445C2785.89 874.445 2785.89 874.444 2785.89 874.444C2785.89 874.443 2785.9 874.441 2785.9 874.439C2785.9 874.438 2785.91 874.436 2785.91 874.435L2785.09 872.609C2785.09 872.61 2785.09 872.61 2785.09 872.609C2785.09 872.609 2785.09 872.609 2785.1 872.608C2785.1 872.607 2785.1 872.607 2785.1 872.606C2785.1 872.606 2785.1 872.606 2785.1 872.606C2785.1 872.606 2785.1 872.607 2785.1 872.608C2785.09 872.609 2785.09 872.61 2785.09 872.611L2785.89 874.444Z" fill="#989898"/>
<path d="M1306 1413.52C1291.62 1389.13 1329.46 1356.87 1306 1341.02C1288.65 1329.3 1269.72 1332.61 1252.5 1344.52C1229.78 1360.23 1252.53 1390.68 1237 1413.52C1206.21 1458.81 1153.26 1434.82 1098.5 1435.52C1038.91 1436.29 1007.04 1416.12 947.5 1413.52C921.75 1412.4 906.821 1418.33 881.5 1413.52C849.478 1407.44 825.482 1404.77 805.5 1379.02C786.226 1354.18 793.704 1331.24 790 1300.02C784.226 1251.35 842 1196.52 790 1174.52C738 1152.52 598.32 1174.52 475.5 1174.52C436.057 1174.52 393.886 1208.87 374.5 1174.52C363.56 1155.14 374.5 1139.78 374.5 1117.52V881.523C374.5 881.523 392.55 831.082 374.5 809.523C367.68 801.377 362.865 795.853 352.5 793.523C330.408 788.555 332.709 826.591 311.5 834.523C280.318 846.184 242.667 835.856 230 809.523C217.333 783.189 192 727.423 192 715.023C192 702.623 164.755 662.678 167 627.023C170.047 578.627 217.2 532.423 230 520.023C242.8 507.623 300.931 515.53 327.5 485.023C350.224 458.93 365.291 432.172 352.5 400.023C344.18 379.111 330.895 370.941 311.5 359.523C271.284 335.847 192 359.523 192 359.523C192 359.523 116.767 368.604 85 400.023C58.7968 425.939 44 485.023 44 485.023V611.023V809.523C44 849.923 71.3333 899.689 85 919.523C98.6667 939.356 119.829 1060.34 126 1152.52C129.847 1210 126 1242.42 126 1300.02C126 1352.94 111.022 1384.77 126 1435.52C139.896 1482.61 156.245 1508.88 192 1542.52C252.044 1599.02 312.98 1587.8 393.5 1605.52C499.705 1628.89 670.5 1634.02 670.5 1634.02H925.5H1174C1174 1634.02 1289.16 1640.4 1362.5 1634.02C1429.56 1628.19 1504.5 1611.52 1532.5 1605.52C1554.9 1600.72 1630.17 1586.86 1665 1580.52C1699.83 1574.19 1758.04 1542.43 1759 1492.02C1759.44 1468.81 1752.85 1455.18 1740.5 1435.52C1697.29 1366.74 1612.95 1446.77 1532.5 1435.52C1491.58 1429.8 1470.06 1418.17 1429 1413.52C1381.27 1408.12 1330.39 1454.9 1306 1413.52Z" fill="#0C7047" fill-opacity="0.4"/>
<path fill-rule="evenodd" clip-rule="evenodd" d="M2721.28 1046.95C2721.78 1045.96 2721.38 1044.76 2720.39 1044.27L2616.75 992.164C2615.76 991.668 2614.56 992.065 2614.07 993.052L2588.66 1043.58C2588.17 1044.57 2588.56 1045.77 2589.55 1046.27L2609.75 1056.42C2610.73 1056.92 2611.13 1058.12 2610.64 1059.11L2588.4 1103.34C2587.9 1104.33 2588.3 1105.53 2589.29 1106.03L2642.66 1132.86C2643.65 1133.35 2644.85 1132.96 2645.35 1131.97L2667.58 1087.73C2668.08 1086.75 2669.28 1086.35 2670.27 1086.85L2693.19 1098.37C2694.18 1098.87 2695.38 1098.47 2695.88 1097.48L2721.28 1046.95Z" fill="#2F7B9A"/>
<rect x="1640.5" y="957.023" width="119" height="56" rx="2" fill="#2F7B9A"/>
<path fill-rule="evenodd" clip-rule="evenodd" d="M1795.5 1019.02C1795.5 1017.92 1796.4 1017.02 1797.5 1017.02H1871.5C1872.6 1017.02 1873.5 1017.92 1873.5 1019.02V1039.02C1873.5 1040.13 1874.4 1041.02 1875.5 1041.02H1885.5C1886.6 1041.02 1887.5 1041.92 1887.5 1043.02V1103.02C1887.5 1104.13 1886.6 1105.02 1885.5 1105.02H1875.5C1874.4 1105.02 1873.5 1105.92 1873.5 1107.02V1111.02C1873.5 1112.13 1872.6 1113.02 1871.5 1113.02H1797.5C1796.4 1113.02 1795.5 1112.13 1795.5 1111.02V1086.02C1795.5 1084.92 1794.6 1084.02 1793.5 1084.02H1785.5C1784.4 1084.02 1783.5 1083.13 1783.5 1082.02V1033.02C1783.5 1031.92 1784.4 1031.02 1785.5 1031.02H1793.5C1794.6 1031.02 1795.5 1030.13 1795.5 1029.02V1019.02Z" fill="#2F7B9A"/>
<rect x="1417.5" y="878.023" width="105" height="50" rx="2" fill="#2F7B9A"/>
<rect x="1461.5" y="757.023" width="61" height="38" rx="2" fill="#2F7B9A"/>
<rect x="1033.5" y="890.023" width="61" height="38" rx="2" fill="#2F7B9A"/>
<rect x="1384.5" y="908.023" width="20" height="35" rx="2" fill="#2F7B9A"/>
<rect x="1417.5" y="943.023" width="105" height="50" rx="2" fill="#2F7B9A"/>
<rect x="1417.5" y="1013.02" width="105" height="52" rx="2" fill="#2F7B9A"/>
<rect x="1441.5" y="1068.02" width="20" height="11" rx="2" fill="#2F7B9A"/>
<rect x="1364.5" y="847.023" width="20" height="15" rx="2" fill="#2F7B9A"/>
<rect x="1404" y="1097.52" width="136" height="51" rx="2.5" fill="#EAEAEA" stroke="#989898"/>
<rect x="1608" y="1027.52" width="143" height="91" rx="2.5" fill="#EAEAEA" stroke="#989898"/>
<rect x="1602" y="903.523" width="35" height="109" rx="2.5" fill="#EAEAEA" stroke="#989898"/>
</svg>
