<svg width="2418" height="1726" viewBox="0 0 2418 1726" fill="none" xmlns="http://www.w3.org/2000/svg">
<path d="M965.427 774.988L894.286 842.283C893.552 842.978 892.415 843.015 891.636 842.371L862.745 818.445C861.818 817.678 861.774 816.272 862.651 815.448L935.158 747.262C935.917 746.549 937.095 746.536 937.868 747.233L965.392 772.05C966.258 772.831 966.275 774.186 965.427 774.988Z" fill="#EAEAEA" stroke="#989898"/>
<path d="M1161 1227.62V1282.67C1161 1283.89 1162.09 1284.83 1163.3 1284.65L1458.26 1239.34C1459.45 1239.16 1460.21 1237.98 1459.88 1236.82L1446.01 1188.04C1446 1188.01 1446 1187.99 1445.99 1187.96C1445.87 1187.49 1444.69 1182.9 1442.5 1181C1439.16 1178.11 1431.51 1179.77 1430.59 1179.98C1430.53 1179.99 1430.47 1180 1430.41 1180.01L1275 1203L1171.04 1218.99C1171.01 1219 1170.99 1219 1170.96 1219C1170.51 1219.06 1166.34 1219.61 1163.5 1221.5C1160.81 1223.29 1160.93 1226.69 1160.99 1227.38C1160.99 1227.46 1161 1227.54 1161 1227.62Z" fill="#EAEAEA" stroke="#989898"/>
<path d="M888.05 1082.5H836C834.895 1082.5 834 1083.4 834 1084.5V1117.71C834 1117.9 834.027 1118.09 834.081 1118.28L851.366 1177.04C851.454 1177.34 851.611 1177.62 851.825 1177.85L889 1217.5L916.387 1255.84C916.462 1255.95 916.548 1256.04 916.642 1256.13L934 1272.5L956.59 1289.69C956.859 1289.89 957.176 1290.03 957.51 1290.07L994.124 1295.44C994.372 1295.48 994.626 1295.47 994.87 1295.41L1016.57 1290.34C1017.42 1290.14 1018.04 1289.4 1018.1 1288.53L1021.87 1235.81C1021.94 1234.78 1021.23 1233.87 1020.22 1233.68C1015.58 1232.84 1002.89 1230.4 994.5 1227.5C983.274 1223.62 977.107 1220.74 967 1214.5C958.46 1209.23 953.755 1205.94 946.5 1199C938.675 1191.52 934.906 1186.57 929 1177.5C923.14 1168.5 921.109 1162.7 916.5 1153C905.164 1129.14 892.464 1091.43 889.947 1083.85C889.674 1083.03 888.915 1082.5 888.05 1082.5Z" fill="#EAEAEA" stroke="#989898"/>
<path d="M1049.48 1345.73L1047.6 1312.36C1047.55 1311.31 1048.31 1310.4 1049.35 1310.26L1243.85 1285.28C1245.01 1285.13 1246.05 1286 1246.11 1287.16L1247.5 1315.45C1247.5 1315.48 1247.5 1315.51 1247.5 1315.54C1247.49 1316.2 1247.27 1324.15 1242 1329C1238.64 1332.09 1231.07 1332.46 1230.1 1332.5C1230.03 1332.5 1229.97 1332.5 1229.9 1332.51L1070.54 1353C1070.51 1353 1070.49 1353 1070.47 1353.01C1069.98 1353.08 1064.22 1353.96 1058 1353C1052.29 1352.12 1050.06 1347.39 1049.59 1346.25C1049.53 1346.08 1049.49 1345.91 1049.48 1345.73Z" fill="#EAEAEA" stroke="#989898"/>
<path d="M1593.22 1133.06L1580.67 1140.51C1579.74 1141.06 1579.41 1142.25 1579.94 1143.2L1594.75 1170.05C1594.91 1170.34 1595 1170.68 1595 1171.02V1171.82C1595 1172.55 1594.6 1173.22 1593.97 1173.57L1550.08 1197.75C1548.54 1198.6 1548.76 1200.88 1550.44 1201.41L1567.23 1206.75C1567.72 1206.91 1568.26 1206.87 1568.73 1206.64L1612.75 1184.62C1613.5 1184.25 1613.94 1183.45 1613.88 1182.61C1613.73 1180.58 1613.55 1176.64 1614 1173C1614.54 1168.62 1610.28 1160.06 1610.01 1159.53C1610 1159.51 1610 1159.49 1609.99 1159.47L1595.99 1133.82C1595.45 1132.83 1594.19 1132.48 1593.22 1133.06Z" fill="#EAEAEA" stroke="#989898"/>
<path fill-rule="evenodd" clip-rule="evenodd" d="M828 823C826.157 823 824.284 823.025 822.395 823.05C809.431 823.22 795.716 823.401 785.688 815.69L732.771 775L663.004 723.516C661.617 722.493 660.315 721.355 659.016 720.219C658.613 719.867 658.211 719.516 657.807 719.168C654.722 716.515 651.649 713.87 654.771 707C658.771 698.2 693.605 649.667 704.771 635.5L752.683 568.325C753.075 567.775 753.466 567.239 753.868 566.695C757.8 561.381 780.241 530.881 793.271 509.5C808.868 483.909 828.243 443.06 831.893 435.297L831.962 435.148C832.291 434.447 832.447 434.114 833.017 433.506C833.958 432.502 835.496 431.385 836.767 430.855C846.886 426.636 854 416.649 854 405C854 389.536 841.464 377 826 377C821.328 377 816.545 377.657 811.758 378.315C803.284 379.479 794.8 380.644 786.909 378.167C764.129 371.017 753.992 344.252 766.556 323.949L898.334 111.003C902.117 104.891 897.72 97 890.532 97C887.398 97 884.48 98.6002 882.795 101.243L719.771 357L649.771 455.5L568.531 576.453L568.481 576.528C568.135 577.043 563.024 584.65 557.58 593.224C554.948 597.371 551.892 601.385 548.827 605.41C541.887 614.526 534.903 623.7 532.69 634.6C532.238 636.829 532 639.137 532 641.5C532 650.551 535.485 658.788 541.187 664.942C546.453 670.625 553.27 674.499 560.098 678.38C564.534 680.901 568.975 683.425 572.999 686.449L630.271 729.5L654.771 746.5L784.011 846.764C788.282 850.077 790 855.595 790 861C790 871.485 793.375 881.772 796.75 892.058C800.125 902.345 803.5 912.632 803.5 923.117V937C803.5 937 803.5 983.105 806 1012.5C809.773 1056.86 816.833 1098.83 824.5 1125C829.909 1143.46 835.899 1162.51 838.958 1172.12C840.313 1176.38 841.959 1180.51 843.947 1184.52C848.801 1194.3 858.575 1213.39 865 1222L865.498 1222.67C874.395 1234.59 889.289 1254.55 908.5 1270.5C922.916 1282.47 931.597 1288.91 948.5 1297C956.828 1300.98 963.941 1303.75 970.943 1305.88C971.248 1305.97 971.452 1306.26 971.431 1306.58C971.373 1307.46 971.275 1308.78 971.115 1310.48C970.794 1313.9 970.227 1318.88 969.242 1325.06C967.27 1337.44 963.63 1354.59 956.967 1373.66C944.021 1410.71 919.783 1454.66 874.51 1485.04C872.217 1486.58 871.521 1489.67 873 1492C874.479 1494.33 877.575 1495.03 879.87 1493.49C927.672 1461.49 953.009 1415.31 966.408 1376.96C973.307 1357.22 977.074 1339.47 979.117 1326.64C980.14 1320.22 980.733 1315.03 981.071 1311.42C981.209 1309.94 982.607 1308.91 984.054 1309.22C990.367 1310.57 997.109 1311.7 1005 1313C1043.01 1319.24 1100.86 1309.78 1113.85 1307.48C1115.64 1307.17 1117.4 1306.88 1119.2 1306.64L1250 1289L1418.5 1263.8C1419.83 1263.6 1421.15 1263.43 1422.49 1263.28C1434.36 1261.94 1497.08 1254.59 1547.73 1243.5C1548.06 1243.43 1548.4 1243.56 1548.59 1243.84C1549.03 1244.46 1549.68 1245.38 1550.52 1246.56C1552.2 1248.94 1554.63 1252.4 1557.66 1256.73C1563.7 1265.39 1572.11 1277.52 1581.54 1291.41C1600.42 1319.22 1623.34 1353.98 1639.68 1382.02C1648.7 1397.49 1655.29 1408.92 1664.16 1424.48C1665.52 1426.88 1668.58 1427.71 1670.98 1426.34C1673.38 1424.98 1674.21 1421.92 1672.84 1419.52C1663.96 1403.94 1657.35 1392.48 1648.32 1376.98C1631.8 1348.63 1608.72 1313.64 1589.82 1285.8C1580.35 1271.86 1571.92 1259.69 1565.85 1251L1565.74 1250.84C1562.43 1246.1 1564.92 1239.5 1570.5 1238C1592.31 1232.12 1625.19 1221.11 1628.27 1220.08C1628.34 1220.05 1628.41 1220.03 1628.48 1220.01C1628.54 1219.99 1628.59 1219.97 1628.65 1219.95L1628.74 1219.92C1631.46 1218.96 1656.26 1210.08 1670.5 1198.5C1680.34 1190.5 1695.33 1176.16 1695.5 1176C1695.5 1176 1695.5 1176 1695.5 1176L1695.51 1175.99C1695.54 1175.95 1695.6 1175.93 1695.65 1175.93C1696.43 1175.98 1697.21 1176 1698 1176C1718.99 1176 1736 1158.99 1736 1138C1736 1135.65 1735.79 1133.36 1735.38 1131.13C1734.43 1125.92 1735.83 1120.23 1740.25 1117.32C1747.42 1112.6 1757.53 1106.23 1769.3 1099.61C1792.97 1086.3 1822.81 1072.31 1848.74 1068.45C1860.01 1066.77 1875.19 1066.59 1889.16 1067.37C1903.28 1068.16 1915.41 1069.9 1920.82 1071.73C1931.05 1075.21 1942.31 1081.47 1951.16 1086.99C1955.54 1089.73 1959.27 1092.24 1961.9 1094.07C1963.21 1094.99 1964.25 1095.73 1964.95 1096.23C1965.31 1096.49 1965.57 1096.69 1965.75 1096.82L1965.86 1096.9L1965.95 1096.96L1966 1097L1966.01 1097.01L1966.01 1097.01L1967.44 1098.07L2022.98 1141.83C2025.15 1143.54 2028.29 1143.17 2030 1141C2031.71 1138.83 2031.34 1135.69 2029.17 1133.98L1990.45 1103.48C1982.4 1097.13 1980.9 1085.52 1987.07 1077.34L1987.07 1077.34L2055.98 986.003C2057.64 983.798 2057.2 980.663 2055 979C2052.8 977.337 2049.66 977.776 2048 979.98L1979.09 1071.32L1979.09 1071.32L1968.51 1085.35C1968.29 1085.64 1967.88 1085.69 1967.6 1085.47L1967.24 1085.19C1967.16 1085.12 1967.04 1085.14 1966.98 1085.22C1966.94 1085.27 1966.88 1085.29 1966.83 1085.29C1966.79 1085.28 1966.76 1085.27 1966.73 1085.25C1964.07 1083.42 1960.54 1081.06 1956.45 1078.51C1947.4 1072.86 1935.37 1066.12 1924.03 1062.27C1917.22 1059.95 1903.89 1058.18 1889.72 1057.39C1875.42 1056.59 1859.49 1056.73 1847.26 1058.55C1819.44 1062.7 1788.28 1077.46 1764.39 1090.89C1752.38 1097.65 1742.07 1104.15 1734.75 1108.97C1730.57 1111.72 1725.01 1110.81 1721.03 1107.77C1714.64 1102.89 1706.66 1100 1698 1100C1688.67 1100 1678.37 1096.71 1674.55 1088.2L1565.56 844.955L1565.49 844.785L1565.4 844.621C1559.47 833.658 1551 820.262 1544.06 809.683C1540.59 804.376 1537.48 799.747 1535.23 796.444C1534.48 795.336 1533.93 794.105 1533.6 792.805L1457.07 487.633C1456.39 484.955 1453.68 483.328 1451 484C1448.32 484.672 1446.69 487.388 1447.37 490.066L1517.8 770.906C1518.11 772.146 1516.52 772.989 1515.65 772.051C1504.66 760.173 1485.6 742.57 1450.9 717.923C1380.53 667.955 1303.62 649.939 1161.33 669.045C1019.09 688.145 948.496 734.361 941.364 740.106C935.017 745.218 927.621 751.291 916.728 760.719C908.756 767.619 899.368 777.142 892.041 784.856C888.362 788.729 885.174 792.178 882.904 794.659C881.769 795.9 880.863 796.9 880.24 797.591C879.928 797.937 879.687 798.205 879.523 798.388L879.354 798.576L864.67 813.473C855.588 822.687 840.937 823 828 823ZM798 405C798 404.793 797.87 404.608 797.675 404.541L761.5 392L754.056 389.71C739.126 385.116 722.938 390.689 714 403.5L675 458L618.5 544.5L591 586L580 602.5C578.5 605 579.8 608.3 581 609.5C582.2 610.7 584.5 611.5 593 612.5C603.299 613.712 627.741 633.1 636.233 639.837L636.237 639.839C637.637 640.95 638.603 641.717 639 642C640.036 642.74 641.513 643.854 643.23 645.15C647.341 648.251 652.829 652.391 656.934 654.918C659.312 656.382 662.107 655.84 663.825 653.639C665.294 651.757 665.716 649.09 664.893 646.849C661.318 637.116 654.104 616.81 650.5 602C649.824 599.222 649.023 595.601 648.419 592.809C647.798 589.939 647.285 587.041 647.187 584.107C647.121 582.117 647.156 579.812 647.5 578C647.902 575.884 648.941 573.313 649.86 571.307C650.418 570.089 651.005 568.884 651.592 567.68C652.083 566.671 652.574 565.663 653.049 564.647C653.945 562.726 655.075 560.341 656 558.5C662.725 545.124 673.686 527.488 676.044 523.725C676.353 523.233 676.657 522.761 676.979 522.277C679.207 518.924 688.74 504.73 695.5 497C695.693 496.779 695.885 496.56 696.075 496.341C699.659 492.238 702.9 488.526 707.5 485.5C710.358 483.62 711.845 483.197 714.059 482.566C715.014 482.294 716.105 481.983 717.5 481.5C722.825 479.656 738.871 478.281 744.5 478C769.803 476.735 793.971 463.653 806.274 441.507L808.5 437.5C810.664 432.975 808.775 427.636 805.38 423.943C800.798 418.957 798 412.305 798 405ZM1525.43 800.146C1525.27 800.185 1525.12 800.092 1525.08 799.938L1524.88 799.132C1524.85 799.003 1524.79 798.881 1524.72 798.772L1524.53 798.5L1524.34 798.226C1524.03 797.778 1523.66 797.384 1523.26 797.009C1522.66 796.434 1522.16 795.836 1521.76 795.347C1521.15 794.591 1520.44 793.633 1519.67 792.591C1519.43 792.263 1519.18 791.928 1518.92 791.588C1516.72 788.639 1513.51 784.457 1508.31 778.843C1497.9 767.59 1479.4 750.43 1445.1 726.077C1377.47 678.045 1303.38 660.061 1162.67 678.956C1021.91 697.855 953.117 743.479 947.636 747.894C941.37 752.941 934.065 758.939 923.272 768.28C915.688 774.845 906.577 784.072 899.292 791.742C895.666 795.561 892.521 798.962 890.283 801.408C889.165 802.631 888.274 803.614 887.664 804.29C887.359 804.628 887.124 804.889 886.967 805.065L886.789 805.264L886.744 805.313L886.734 805.325L886.731 805.328L886.731 805.328L886.648 805.421L886.561 805.51L875.778 816.449C865.821 826.55 865.908 842.707 865.986 857.234V857.237C865.993 858.506 866 859.762 866 861C866 881.987 848.987 899 828 899C827.349 899 826.701 898.984 826.058 898.951C826.037 898.95 826.018 898.962 826.01 898.98C826.007 898.986 826.005 898.992 826.003 898.997C826.001 899.005 826 899.014 826 899.022V919.5V938.595C826 939.865 826.023 941.105 826.075 942.374C826.463 951.854 828.348 995.206 831.5 1024C832.093 1029.42 832.63 1034.53 833.143 1039.4L833.143 1039.4L833.143 1039.4L833.143 1039.4L833.143 1039.4L833.143 1039.4L833.143 1039.4C836.388 1070.24 838.654 1091.78 848 1125C852.77 1141.96 861.556 1164.96 866.285 1176.96C868.401 1182.33 871.033 1187.45 874.187 1192.28C879.199 1199.96 887.325 1212.08 894 1220.5C894.954 1221.7 895.866 1222.86 896.748 1223.98L896.763 1223.99C905.244 1234.74 910.841 1241.82 922 1251.5C923.4 1252.71 924.681 1253.84 925.88 1254.89C935.336 1263.19 939.694 1267.01 957 1275C976.5 1284 1002.2 1289 1005 1289C1005.34 1289 1006.26 1289.09 1007.67 1289.22C1013.39 1289.77 1027.19 1291.08 1043.5 1290.5C1056.47 1290.04 1078.5 1288.5 1091 1287L1159.5 1279.5L1221.5 1270.5L1364.5 1249.5L1525.69 1224.13C1525.94 1224.09 1526.19 1224.05 1526.44 1224.01C1526.58 1223.98 1526.72 1223.96 1526.87 1223.93C1527.01 1223.91 1527.15 1223.89 1527.29 1223.86C1531.32 1223.14 1549.86 1219.78 1562 1216.5C1570.77 1214.13 1583.87 1209.72 1585.77 1209.08C1585.85 1209.05 1585.93 1209.02 1586.01 1209C1586.09 1208.97 1586.16 1208.95 1586.24 1208.92C1608.03 1201.85 1617.92 1176.64 1606.58 1156.73C1587.21 1122.74 1559.58 1074.99 1537.42 1039.72C1532.38 1031.7 1527.97 1025.22 1523.76 1019.02L1523.76 1019.02L1523.75 1019.01L1523.75 1019.01L1523.75 1019C1517.32 1009.55 1511.34 1000.75 1504.24 988.142C1492.3 966.935 1485.93 951.747 1478.09 933.04L1478.08 933.039L1478.08 933.034L1478.08 933.032L1478.07 933.006C1475.34 926.494 1472.43 919.555 1469.04 911.788C1467.25 907.68 1464.93 902.26 1463.24 898.312C1461.95 895.307 1463.07 891.815 1465.85 890.108C1469.35 887.966 1473.94 889.484 1475.48 893.286C1481.84 908.998 1497.51 946.65 1511.28 971.456C1519.23 985.782 1525.99 995.799 1533.23 1006.52L1533.23 1006.52L1533.23 1006.52L1533.23 1006.52L1533.24 1006.52L1533.24 1006.53L1533.24 1006.53C1538.11 1013.74 1543.19 1021.26 1548.98 1030.62C1583.21 1085.88 1629.94 1171.03 1640.72 1190.77C1640.86 1191.03 1641.15 1191.11 1641.42 1191.02C1641.47 1191.01 1641.52 1190.99 1641.57 1190.96L1667 1174.5C1671 1171.25 1670.86 1165.09 1667.74 1160.99C1662.88 1154.6 1660 1146.64 1660 1138C1660 1126.49 1665.11 1116.18 1673.19 1109.21C1673.3 1109.12 1673.19 1108.93 1673.05 1108.99C1672.99 1109.02 1672.91 1108.99 1672.89 1108.93L1556.51 849.216C1550.8 838.67 1542.57 825.646 1535.7 815.164C1532.26 809.912 1529.18 805.33 1526.96 802.06C1526.52 801.407 1526.11 800.806 1525.74 800.263C1525.67 800.164 1525.55 800.117 1525.43 800.146ZM758 520.5C766.547 507.528 756.852 490.322 741.329 490.911L739.71 490.973C739.237 490.991 738.767 491.025 738.296 491.079C736.898 491.241 733.715 491.622 731.5 492C730.738 492.13 730.033 492.244 729.364 492.352L729.363 492.352L729.362 492.352C726.221 492.86 723.904 493.235 720.5 494.5C718.288 495.322 717.05 495.833 715 497C713.599 497.798 712.068 498.965 710.672 500.141C707.417 502.886 704.73 506.216 702.198 509.638L687.5 529.5L667.425 563.284C667.142 563.761 666.862 564.24 666.596 564.727C665.513 566.703 662.56 572.311 661.5 576.5C660.587 580.11 660.5 583.868 660.5 587.592V588.5C660.673 589.732 660.763 590.759 660.848 591.74C660.978 593.242 661.099 594.638 661.5 596.5C661.991 598.783 662.529 600.299 663.172 602.108C663.43 602.835 663.705 603.61 664 604.5C666.468 611.938 670.564 621.624 673.391 628.064C674.738 631.133 678.919 631.579 680.953 628.915C683.669 625.358 686.853 621.187 689.5 617.5C695.582 606.95 709.965 586.878 717.407 576.493L717.408 576.492C719.958 572.932 721.694 570.51 722 570C723.089 568.185 742.108 542.207 754.461 525.335L754.468 525.325L754.475 525.315L754.478 525.311C755.729 523.602 756.912 521.987 758 520.5ZM842 861C842 869.284 835.284 876 827 876C818.716 876 812 869.284 812 861C812 852.716 818.716 846 827 846C835.284 846 842 852.716 842 861ZM1698 1153C1706.28 1153 1713 1146.28 1713 1138C1713 1129.72 1706.28 1123 1698 1123C1689.72 1123 1683 1129.72 1683 1138C1683 1146.28 1689.72 1153 1698 1153ZM835 404.5C835 409.747 830.747 414 825.5 414C820.253 414 816 409.747 816 404.5C816 399.253 820.253 395 825.5 395C830.747 395 835 399.253 835 404.5ZM567 654C573.627 654 579 648.627 579 642C579 635.373 573.627 630 567 630C560.373 630 555 635.373 555 642C555 648.627 560.373 654 567 654Z" fill="#D6D6D6"/>
<path d="M822.395 823.05L822.408 824.049L822.408 824.049L822.395 823.05ZM785.688 815.69L785.078 816.482L785.078 816.482L785.688 815.69ZM732.771 775L733.381 774.207C733.376 774.203 733.371 774.199 733.365 774.195L732.771 775ZM663.004 723.516L663.598 722.712L663.598 722.712L663.004 723.516ZM659.016 720.219L658.357 720.972L658.358 720.972L659.016 720.219ZM657.807 719.168L658.459 718.41L658.459 718.41L657.807 719.168ZM654.771 707L655.682 707.414L655.682 707.414L654.771 707ZM704.771 635.5L705.557 636.119C705.567 636.106 705.576 636.094 705.586 636.081L704.771 635.5ZM752.683 568.325L751.869 567.745L751.869 567.745L752.683 568.325ZM753.868 566.695L754.672 567.29L754.672 567.29L753.868 566.695ZM793.271 509.5L794.125 510.02L794.125 510.02L793.271 509.5ZM831.893 435.297L832.798 435.722L832.798 435.721L831.893 435.297ZM831.962 435.148L832.868 435.573L832.868 435.572L831.962 435.148ZM833.017 433.506L833.746 434.19L833.746 434.19L833.017 433.506ZM836.767 430.855L836.382 429.932L836.382 429.932L836.767 430.855ZM811.758 378.315L811.894 379.305L811.894 379.305L811.758 378.315ZM786.909 378.167L787.209 377.213L787.209 377.213L786.909 378.167ZM766.556 323.949L767.406 324.476L766.556 323.949ZM898.334 111.003L897.484 110.477L897.484 110.477L898.334 111.003ZM882.795 101.243L881.952 100.706L881.952 100.706L882.795 101.243ZM719.771 357L720.587 357.579C720.596 357.566 720.606 357.552 720.615 357.538L719.771 357ZM649.771 455.5L648.956 454.921C648.951 454.928 648.946 454.935 648.941 454.942L649.771 455.5ZM568.531 576.453L569.361 577.011L569.362 577.011L568.531 576.453ZM568.481 576.528L569.311 577.086L569.311 577.086L568.481 576.528ZM557.58 593.224L556.736 592.688L556.736 592.688L557.58 593.224ZM548.827 605.41L549.623 606.016L549.623 606.016L548.827 605.41ZM532.69 634.6L533.67 634.799L533.67 634.799L532.69 634.6ZM541.187 664.942L541.921 664.262L541.921 664.262L541.187 664.942ZM560.098 678.38L559.604 679.249L559.604 679.249L560.098 678.38ZM572.999 686.449L573.6 685.65L573.6 685.65L572.999 686.449ZM630.271 729.5L629.671 730.299C629.681 730.307 629.691 730.314 629.701 730.322L630.271 729.5ZM654.771 746.5L655.384 745.71C655.37 745.699 655.356 745.689 655.342 745.678L654.771 746.5ZM784.011 846.764L784.624 845.974L784.624 845.974L784.011 846.764ZM806 1012.5L805.004 1012.58L805.004 1012.58L806 1012.5ZM824.5 1125L825.46 1124.72L825.46 1124.72L824.5 1125ZM838.958 1172.12L839.911 1171.82L839.911 1171.82L838.958 1172.12ZM843.947 1184.52L843.052 1184.96L843.052 1184.96L843.947 1184.52ZM865 1222L865.801 1221.4L865.801 1221.4L865 1222ZM865.498 1222.67L864.697 1223.27L864.697 1223.27L865.498 1222.67ZM908.5 1270.5L909.139 1269.73L909.139 1269.73L908.5 1270.5ZM948.5 1297L948.932 1296.1L948.932 1296.1L948.5 1297ZM970.943 1305.88L971.233 1304.92L971.233 1304.92L970.943 1305.88ZM971.431 1306.58L970.433 1306.51L970.433 1306.51L971.431 1306.58ZM971.115 1310.48L970.119 1310.39L970.119 1310.39L971.115 1310.48ZM969.242 1325.06L970.23 1325.22L970.23 1325.22L969.242 1325.06ZM956.967 1373.66L957.911 1373.99L957.911 1373.99L956.967 1373.66ZM874.51 1485.04L873.952 1484.21L873.952 1484.21L874.51 1485.04ZM873 1492L872.156 1492.54L872.156 1492.54L873 1492ZM879.87 1493.49L880.426 1494.32L880.426 1494.32L879.87 1493.49ZM966.408 1376.96L965.464 1376.63L965.464 1376.63L966.408 1376.96ZM979.117 1326.64L978.13 1326.48L978.13 1326.48L979.117 1326.64ZM981.071 1311.42L982.067 1311.51L982.067 1311.51L981.071 1311.42ZM984.054 1309.22L983.845 1310.2L983.845 1310.2L984.054 1309.22ZM1005 1313L1005.16 1312.01L1005.16 1312.01L1005 1313ZM1113.85 1307.48L1114.02 1308.47L1114.02 1308.47L1113.85 1307.48ZM1119.2 1306.64L1119.34 1307.63L1119.34 1307.63L1119.2 1306.64ZM1250 1289L1250.13 1289.99C1250.14 1289.99 1250.14 1289.99 1250.15 1289.99L1250 1289ZM1418.5 1263.8L1418.65 1264.79L1418.65 1264.79L1418.5 1263.8ZM1422.49 1263.28L1422.6 1264.27L1422.6 1264.27L1422.49 1263.28ZM1547.73 1243.5L1547.51 1242.52L1547.51 1242.52L1547.73 1243.5ZM1548.59 1243.84L1549.41 1243.26L1549.41 1243.26L1548.59 1243.84ZM1550.52 1246.56L1549.7 1247.14L1549.7 1247.14L1550.52 1246.56ZM1557.66 1256.73L1556.84 1257.3L1556.84 1257.3L1557.66 1256.73ZM1581.54 1291.41L1582.37 1290.85L1582.37 1290.85L1581.54 1291.41ZM1639.68 1382.02L1638.82 1382.52L1638.82 1382.52L1639.68 1382.02ZM1664.16 1424.48L1665.03 1423.98L1665.03 1423.98L1664.16 1424.48ZM1672.84 1419.52L1673.71 1419.03L1673.71 1419.03L1672.84 1419.52ZM1648.32 1376.98L1647.46 1377.49L1647.46 1377.49L1648.32 1376.98ZM1589.82 1285.8L1588.99 1286.36L1588.99 1286.36L1589.82 1285.8ZM1565.85 1251L1566.67 1250.43L1566.67 1250.43L1565.85 1251ZM1565.74 1250.84L1564.92 1251.41L1564.92 1251.41L1565.74 1250.84ZM1570.5 1238L1570.24 1237.03L1570.24 1237.03L1570.5 1238ZM1628.27 1220.08L1628.59 1221.03L1628.59 1221.03L1628.27 1220.08ZM1628.48 1220.01L1628.81 1220.95L1628.81 1220.95L1628.48 1220.01ZM1628.65 1219.95L1628.32 1219L1628.32 1219L1628.65 1219.95ZM1628.74 1219.92L1629.07 1220.86L1629.07 1220.86L1628.74 1219.92ZM1670.5 1198.5L1669.87 1197.72L1669.87 1197.72L1670.5 1198.5ZM1695.5 1176L1696.19 1176.72L1696.19 1176.72L1695.5 1176ZM1695.5 1176L1694.72 1175.38C1694.71 1175.39 1694.69 1175.41 1694.68 1175.43L1695.5 1176ZM1695.51 1175.99L1694.73 1175.36C1694.73 1175.36 1694.73 1175.37 1694.72 1175.37L1695.51 1175.99ZM1695.65 1175.93L1695.59 1176.93L1695.59 1176.93L1695.65 1175.93ZM1735.38 1131.13L1736.36 1130.95L1736.36 1130.95L1735.38 1131.13ZM1740.25 1117.32L1740.8 1118.15L1740.8 1118.15L1740.25 1117.32ZM1769.3 1099.61L1768.81 1098.74L1768.81 1098.74L1769.3 1099.61ZM1848.74 1068.45L1848.59 1067.46L1848.59 1067.46L1848.74 1068.45ZM1889.16 1067.37L1889.11 1068.37L1889.11 1068.37L1889.16 1067.37ZM1920.82 1071.73L1921.14 1070.79L1921.14 1070.79L1920.82 1071.73ZM1951.16 1086.99L1950.63 1087.84L1950.63 1087.84L1951.16 1086.99ZM1961.9 1094.07L1962.47 1093.25L1962.47 1093.25L1961.9 1094.07ZM1964.95 1096.23L1965.54 1095.42L1965.54 1095.42L1964.95 1096.23ZM1965.75 1096.82L1966.34 1096.01L1966.34 1096.01L1965.75 1096.82ZM1965.86 1096.9L1966.45 1096.09L1966.45 1096.09L1965.86 1096.9ZM1965.95 1096.96L1966.55 1096.16L1966.54 1096.16L1965.95 1096.96ZM1966 1097L1966.6 1096.2L1966.59 1096.19L1966 1097ZM1966.01 1097.01L1966.62 1096.21L1966.61 1096.21L1966.01 1097.01ZM1966.01 1097.01L1965.4 1097.8C1965.4 1097.8 1965.41 1097.8 1965.41 1097.81L1966.01 1097.01ZM1967.44 1098.07L1968.05 1097.29C1968.05 1097.28 1968.04 1097.28 1968.03 1097.27L1967.44 1098.07ZM2022.98 1141.83L2023.6 1141.05L2023.6 1141.05L2022.98 1141.83ZM2029.17 1133.98L2029.79 1133.19L2029.79 1133.19L2029.17 1133.98ZM1990.45 1103.48L1991.07 1102.69L1991.07 1102.69L1990.45 1103.48ZM1987.07 1077.34L1987.87 1077.94C1987.88 1077.93 1987.88 1077.93 1987.89 1077.92L1987.07 1077.34ZM1987.07 1077.34L1986.27 1076.74C1986.27 1076.75 1986.26 1076.75 1986.25 1076.76L1987.07 1077.34ZM2055.98 986.003L2056.78 986.605L2056.78 986.605L2055.98 986.003ZM2048 979.98L2048.8 980.582L2048.8 980.582L2048 979.98ZM1979.09 1071.32L1979.86 1071.95C1979.87 1071.94 1979.88 1071.93 1979.89 1071.92L1979.09 1071.32ZM1979.09 1071.32L1978.31 1070.68C1978.31 1070.69 1978.3 1070.7 1978.29 1070.72L1979.09 1071.32ZM1968.51 1085.35L1969.3 1085.95L1969.3 1085.95L1968.51 1085.35ZM1967.6 1085.47L1966.98 1086.25L1966.98 1086.25L1967.6 1085.47ZM1967.24 1085.19L1967.86 1084.4L1967.86 1084.4L1967.24 1085.19ZM1966.98 1085.22L1966.2 1084.6L1966.19 1084.6L1966.98 1085.22ZM1966.83 1085.29L1966.88 1084.29L1966.88 1084.29L1966.83 1085.29ZM1966.73 1085.25L1967.3 1084.43L1967.3 1084.43L1966.73 1085.25ZM1956.45 1078.51L1955.92 1079.35L1955.92 1079.35L1956.45 1078.51ZM1924.03 1062.27L1923.71 1063.21L1923.71 1063.21L1924.03 1062.27ZM1889.72 1057.39L1889.78 1056.39L1889.78 1056.39L1889.72 1057.39ZM1847.26 1058.55L1847.12 1057.57L1847.12 1057.57L1847.26 1058.55ZM1764.39 1090.89L1763.9 1090.02L1763.9 1090.02L1764.39 1090.89ZM1734.75 1108.97L1734.21 1108.13L1734.21 1108.13L1734.75 1108.97ZM1721.03 1107.77L1721.63 1106.97L1721.63 1106.97L1721.03 1107.77ZM1674.55 1088.2L1673.64 1088.61L1673.64 1088.61L1674.55 1088.2ZM1565.56 844.955L1566.48 844.546L1566.48 844.546L1565.56 844.955ZM1565.49 844.785L1566.4 844.376C1566.39 844.354 1566.38 844.331 1566.37 844.31L1565.49 844.785ZM1565.4 844.621L1566.28 844.146L1566.28 844.145L1565.4 844.621ZM1544.06 809.683L1544.9 809.135L1544.9 809.135L1544.06 809.683ZM1535.23 796.444L1534.41 797.006L1534.41 797.006L1535.23 796.444ZM1533.6 792.805L1534.57 792.562L1534.57 792.562L1533.6 792.805ZM1457.07 487.633L1458.04 487.39L1458.04 487.39L1457.07 487.633ZM1447.37 490.066L1448.34 489.823L1448.34 489.823L1447.37 490.066ZM1517.8 770.906L1516.83 771.15L1516.83 771.15L1517.8 770.906ZM1515.65 772.051L1516.38 771.372L1516.38 771.372L1515.65 772.051ZM1450.9 717.923L1451.47 717.108L1451.47 717.108L1450.9 717.923ZM1161.33 669.045L1161.47 670.036L1161.47 670.036L1161.33 669.045ZM941.364 740.106L940.736 739.327L940.736 739.327L941.364 740.106ZM916.728 760.719L917.382 761.475L917.382 761.475L916.728 760.719ZM892.041 784.856L892.766 785.544L892.766 785.544L892.041 784.856ZM882.904 794.659L882.166 793.984L882.166 793.984L882.904 794.659ZM880.24 797.591L879.497 796.921L879.497 796.921L880.24 797.591ZM879.523 798.388L878.778 797.72L878.778 797.721L879.523 798.388ZM879.354 798.576L880.066 799.278C880.077 799.267 880.088 799.255 880.099 799.244L879.354 798.576ZM864.67 813.473L863.957 812.771L863.957 812.771L864.67 813.473ZM797.675 404.541L797.348 405.486L797.348 405.486L797.675 404.541ZM761.5 392L761.828 391.055C761.816 391.051 761.805 391.048 761.794 391.044L761.5 392ZM754.056 389.71L754.35 388.754L754.35 388.754L754.056 389.71ZM714 403.5L714.813 404.082L714.82 404.072L714 403.5ZM675 458L674.187 457.418C674.179 457.43 674.171 457.441 674.163 457.453L675 458ZM618.5 544.5L619.334 545.052L619.337 545.047L618.5 544.5ZM591 586L591.832 586.555L591.834 586.552L591 586ZM580 602.5L579.168 601.945C579.159 601.958 579.151 601.972 579.143 601.986L580 602.5ZM581 609.5L580.293 610.207L580.293 610.207L581 609.5ZM593 612.5L592.883 613.493L592.883 613.493L593 612.5ZM636.233 639.837L635.612 640.62L635.614 640.622L636.233 639.837ZM636.237 639.839L636.858 639.056L636.856 639.054L636.237 639.839ZM639 642L639.581 641.186L639.581 641.186L639 642ZM643.23 645.15L642.628 645.948L642.628 645.948L643.23 645.15ZM656.934 654.918L657.458 654.066L657.458 654.066L656.934 654.918ZM663.825 653.639L663.037 653.024L663.037 653.024L663.825 653.639ZM664.893 646.849L663.954 647.193L663.954 647.193L664.893 646.849ZM650.5 602L649.528 602.236L649.528 602.236L650.5 602ZM648.419 592.809L647.441 593.021L647.441 593.021L648.419 592.809ZM647.187 584.107L646.188 584.14L646.188 584.14L647.187 584.107ZM647.5 578L646.518 577.813L646.518 577.813L647.5 578ZM649.86 571.307L650.769 571.724L650.769 571.724L649.86 571.307ZM651.592 567.68L652.491 568.118L652.491 568.118L651.592 567.68ZM653.049 564.647L653.955 565.07L653.955 565.07L653.049 564.647ZM656 558.5L655.107 558.051L655.107 558.051L656 558.5ZM676.044 523.725L676.891 524.256L676.891 524.256L676.044 523.725ZM676.979 522.277L676.146 521.723L676.146 521.723L676.979 522.277ZM695.5 497L694.747 496.342L694.747 496.342L695.5 497ZM696.075 496.341L695.322 495.684L695.322 495.684L696.075 496.341ZM707.5 485.5L708.049 486.336L708.049 486.336L707.5 485.5ZM714.059 482.566L713.785 481.604L713.785 481.604L714.059 482.566ZM717.5 481.5L717.173 480.555L717.173 480.555L717.5 481.5ZM744.5 478L744.45 477.001L744.45 477.001L744.5 478ZM806.274 441.507L807.148 441.993L807.148 441.993L806.274 441.507ZM808.5 437.5L809.374 437.986C809.384 437.968 809.393 437.95 809.402 437.931L808.5 437.5ZM805.38 423.943L806.117 423.266L806.117 423.266L805.38 423.943ZM1525.08 799.938L1526.05 799.695L1526.05 799.694L1525.08 799.938ZM1525.43 800.146L1525.19 799.176L1525.19 799.176L1525.43 800.146ZM1524.88 799.132L1525.85 798.889L1525.85 798.889L1524.88 799.132ZM1524.72 798.772L1525.54 798.206L1525.54 798.206L1524.72 798.772ZM1524.53 798.5L1525.35 797.935L1525.35 797.934L1524.53 798.5ZM1524.34 798.226L1525.17 797.66L1525.17 797.659L1524.34 798.226ZM1523.26 797.009L1523.95 796.285L1523.95 796.285L1523.26 797.009ZM1521.76 795.347L1522.54 794.719L1522.54 794.718L1521.76 795.347ZM1519.67 792.591L1518.87 793.186L1518.87 793.187L1519.67 792.591ZM1518.92 791.588L1518.12 792.186L1518.12 792.186L1518.92 791.588ZM1508.31 778.843L1509.04 778.164L1509.04 778.164L1508.31 778.843ZM1445.1 726.077L1444.53 726.892L1445.1 726.077ZM1162.67 678.956L1162.53 677.964L1162.53 677.964L1162.67 678.956ZM947.636 747.894L948.264 748.673L948.264 748.673L947.636 747.894ZM923.272 768.28L922.618 767.524L922.618 767.524L923.272 768.28ZM899.292 791.742L898.567 791.053L898.567 791.053L899.292 791.742ZM890.283 801.408L889.545 800.733L889.545 800.733L890.283 801.408ZM887.664 804.29L888.406 804.96L888.406 804.96L887.664 804.29ZM886.967 805.065L886.222 804.397L886.222 804.398L886.967 805.065ZM886.789 805.264L886.044 804.597L886.043 804.598L886.789 805.264ZM886.744 805.313L887.489 805.981L887.49 805.98L886.744 805.313ZM886.734 805.325L885.989 804.658L885.985 804.662L886.734 805.325ZM886.731 805.328L887.438 806.035C887.453 806.021 887.466 806.006 887.48 805.991L886.731 805.328ZM886.731 805.328L886.024 804.621C886.01 804.635 885.997 804.649 885.985 804.663L886.731 805.328ZM886.648 805.421L887.36 806.123C887.372 806.111 887.383 806.099 887.395 806.087L886.648 805.421ZM886.561 805.51L887.273 806.212L887.273 806.212L886.561 805.51ZM875.778 816.449L876.491 817.151L876.491 817.151L875.778 816.449ZM865.986 857.234H866.986L866.986 857.229L865.986 857.234ZM865.986 857.237H864.986L864.986 857.243L865.986 857.237ZM826.058 898.951L826.108 897.952L826.108 897.952L826.058 898.951ZM826.01 898.98L826.91 899.415L826.915 899.404L826.01 898.98ZM826.003 898.997L825.037 898.738L825.037 898.739L826.003 898.997ZM826.075 942.374L825.076 942.415L825.076 942.415L826.075 942.374ZM831.5 1024L832.494 1023.89L832.494 1023.89L831.5 1024ZM833.143 1039.4L832.148 1039.5C832.151 1039.52 832.153 1039.54 832.157 1039.56L833.143 1039.4ZM833.143 1039.4L834.135 1039.27C834.134 1039.26 834.132 1039.25 834.129 1039.23L833.143 1039.4ZM833.143 1039.4L832.151 1039.52C832.153 1039.54 832.154 1039.55 832.157 1039.56L833.143 1039.4ZM833.143 1039.4L834.135 1039.28C834.134 1039.26 834.132 1039.25 834.13 1039.24L833.143 1039.4ZM833.143 1039.4L834.138 1039.3C834.138 1039.29 834.137 1039.28 834.136 1039.28L833.143 1039.4ZM833.143 1039.4L832.148 1039.5C832.151 1039.52 832.153 1039.54 832.157 1039.57L833.143 1039.4ZM833.143 1039.4L834.138 1039.3C834.136 1039.28 834.133 1039.26 834.13 1039.24L833.143 1039.4ZM848 1125L848.963 1124.73L848.963 1124.73L848 1125ZM866.285 1176.96L865.355 1177.33L865.355 1177.33L866.285 1176.96ZM874.187 1192.28L875.025 1191.74L875.025 1191.74L874.187 1192.28ZM894 1220.5L893.216 1221.12L893.216 1221.12L894 1220.5ZM896.748 1223.98L897.534 1223.36L897.533 1223.36L896.748 1223.98ZM896.763 1223.99L895.978 1224.61L895.979 1224.61L896.763 1223.99ZM922 1251.5L922.655 1250.74L922.655 1250.74L922 1251.5ZM925.88 1254.89L925.22 1255.64L925.22 1255.64L925.88 1254.89ZM957 1275L957.419 1274.09L957.419 1274.09L957 1275ZM1007.67 1289.22L1007.58 1290.22L1007.58 1290.22L1007.67 1289.22ZM1043.5 1290.5L1043.46 1289.5L1043.46 1289.5L1043.5 1290.5ZM1091 1287L1090.89 1286.01L1090.88 1286.01L1091 1287ZM1159.5 1279.5L1159.61 1280.49C1159.62 1280.49 1159.63 1280.49 1159.64 1280.49L1159.5 1279.5ZM1221.5 1270.5L1221.64 1271.49L1221.65 1271.49L1221.5 1270.5ZM1364.5 1249.5L1364.65 1250.49L1364.66 1250.49L1364.5 1249.5ZM1525.69 1224.13L1525.54 1223.14L1525.54 1223.14L1525.69 1224.13ZM1526.44 1224.01L1526.6 1224.99L1526.6 1224.99L1526.44 1224.01ZM1526.87 1223.93L1526.7 1222.95L1526.7 1222.95L1526.87 1223.93ZM1527.29 1223.86L1527.12 1222.88L1527.12 1222.88L1527.29 1223.86ZM1562 1216.5L1561.74 1215.53L1561.74 1215.53L1562 1216.5ZM1585.77 1209.08L1585.45 1208.13L1585.45 1208.13L1585.77 1209.08ZM1586.01 1209L1586.32 1209.95L1586.32 1209.95L1586.01 1209ZM1586.24 1208.92L1585.93 1207.97L1585.93 1207.97L1586.24 1208.92ZM1606.58 1156.73L1607.45 1156.24L1607.45 1156.24L1606.58 1156.73ZM1537.42 1039.72L1536.57 1040.25L1536.57 1040.25L1537.42 1039.72ZM1523.76 1019.02L1522.93 1019.58L1522.94 1019.59L1523.76 1019.02ZM1523.76 1019.02L1524.59 1018.46C1524.59 1018.46 1524.58 1018.45 1524.58 1018.45L1523.76 1019.02ZM1523.75 1019.01L1522.93 1019.58L1522.93 1019.58L1523.75 1019.01ZM1523.75 1019.01L1524.58 1018.44C1524.57 1018.44 1524.57 1018.43 1524.57 1018.43L1523.75 1019.01ZM1523.75 1019L1522.92 1019.56C1522.92 1019.57 1522.93 1019.57 1522.93 1019.58L1523.75 1019ZM1504.24 988.142L1503.37 988.633L1503.37 988.633L1504.24 988.142ZM1478.09 933.04L1477.16 933.421L1477.16 933.427L1478.09 933.04ZM1478.08 933.039L1479.01 932.658L1479.01 932.651L1478.08 933.039ZM1478.08 933.034L1477.16 933.419L1477.16 933.423L1478.08 933.034ZM1478.08 933.032L1479.01 932.648L1479 932.647L1478.08 933.032ZM1478.07 933.006L1478.99 932.62L1478.99 932.619L1478.07 933.006ZM1469.04 911.788L1468.13 912.188L1468.13 912.188L1469.04 911.788ZM1463.24 898.312L1462.32 898.706L1462.32 898.706L1463.24 898.312ZM1465.85 890.108L1466.38 890.96L1466.38 890.96L1465.85 890.108ZM1475.48 893.286L1474.55 893.662L1474.55 893.662L1475.48 893.286ZM1511.28 971.456L1510.4 971.941L1510.4 971.941L1511.28 971.456ZM1533.23 1006.52L1534.07 1005.97C1534.07 1005.97 1534.06 1005.96 1534.06 1005.96L1533.23 1006.52ZM1533.23 1006.52L1532.39 1007.06C1532.4 1007.07 1532.41 1007.09 1532.42 1007.1L1533.23 1006.52ZM1533.23 1006.52L1532.42 1007.1C1532.43 1007.12 1532.45 1007.14 1532.46 1007.16L1533.23 1006.52ZM1533.23 1006.52L1534.06 1005.96C1534.04 1005.93 1534.02 1005.9 1534 1005.88L1533.23 1006.52ZM1533.24 1006.52L1532.41 1007.08L1532.41 1007.09L1533.24 1006.52ZM1533.24 1006.53L1534.07 1005.97C1534.07 1005.97 1534.06 1005.96 1534.06 1005.96L1533.24 1006.53ZM1533.24 1006.53L1532.41 1007.09L1532.41 1007.09L1533.24 1006.53ZM1548.98 1030.62L1548.13 1031.14L1548.13 1031.14L1548.98 1030.62ZM1640.72 1190.77L1641.6 1190.29L1641.6 1190.29L1640.72 1190.77ZM1641.42 1191.02L1641.73 1191.98L1641.73 1191.98L1641.42 1191.02ZM1641.57 1190.96L1642.11 1191.8L1642.11 1191.8L1641.57 1190.96ZM1667 1174.5L1667.54 1175.34C1667.57 1175.32 1667.6 1175.3 1667.63 1175.28L1667 1174.5ZM1667.74 1160.99L1666.94 1161.59L1666.94 1161.59L1667.74 1160.99ZM1673.19 1109.21L1672.54 1108.46L1672.54 1108.46L1673.19 1109.21ZM1673.05 1108.99L1672.64 1108.08L1672.64 1108.08L1673.05 1108.99ZM1672.89 1108.93L1671.97 1109.34L1671.97 1109.34L1672.89 1108.93ZM1556.51 849.216L1557.43 848.807C1557.42 848.784 1557.41 848.761 1557.39 848.739L1556.51 849.216ZM1535.7 815.164L1534.86 815.712L1534.86 815.712L1535.7 815.164ZM1526.96 802.06L1527.79 801.499L1527.79 801.499L1526.96 802.06ZM1525.74 800.263L1526.56 799.699L1526.56 799.699L1525.74 800.263ZM741.329 490.911L741.291 489.912L741.291 489.912L741.329 490.911ZM758 520.5L758.807 521.091C758.817 521.077 758.826 521.064 758.835 521.05L758 520.5ZM739.71 490.973L739.747 491.972L739.748 491.972L739.71 490.973ZM738.296 491.079L738.182 490.086L738.182 490.086L738.296 491.079ZM731.5 492L731.668 492.986L731.668 492.986L731.5 492ZM729.364 492.352L729.501 493.343C729.508 493.342 729.516 493.34 729.524 493.339L729.364 492.352ZM729.363 492.352L729.429 493.35C729.453 493.348 729.476 493.346 729.499 493.343L729.363 492.352ZM729.362 492.352L729.296 491.354C729.265 491.357 729.234 491.36 729.203 491.365L729.362 492.352ZM720.5 494.5L720.152 493.563L720.152 493.563L720.5 494.5ZM715 497L714.505 496.131L714.505 496.131L715 497ZM710.672 500.141L711.316 500.906L711.316 500.906L710.672 500.141ZM702.198 509.638L701.394 509.043L701.394 509.043L702.198 509.638ZM687.5 529.5L686.696 528.905C686.676 528.932 686.658 528.96 686.64 528.989L687.5 529.5ZM667.425 563.284L666.566 562.773L666.566 562.773L667.425 563.284ZM666.596 564.727L667.473 565.207L667.473 565.207L666.596 564.727ZM661.5 576.5L662.469 576.745L662.469 576.745L661.5 576.5ZM660.5 588.5H659.5C659.5 588.547 659.503 588.593 659.51 588.639L660.5 588.5ZM660.848 591.74L659.852 591.826L659.852 591.826L660.848 591.74ZM661.5 596.5L662.478 596.29L662.478 596.29L661.5 596.5ZM663.172 602.108L664.114 601.774L664.114 601.774L663.172 602.108ZM664 604.5L664.949 604.185L664.949 604.185L664 604.5ZM673.391 628.064L674.306 627.662L674.306 627.662L673.391 628.064ZM680.953 628.915L681.748 629.522L681.748 629.522L680.953 628.915ZM689.5 617.5L690.312 618.083C690.332 618.056 690.35 618.028 690.366 617.999L689.5 617.5ZM717.407 576.493L716.596 575.907L716.594 575.91L717.407 576.493ZM717.408 576.492L718.218 577.077L718.221 577.074L717.408 576.492ZM722 570L722.858 570.515L722.858 570.514L722 570ZM754.461 525.335L755.268 525.926L755.269 525.923L754.461 525.335ZM754.468 525.325L753.662 524.733L753.659 524.737L754.468 525.325ZM754.478 525.311L755.284 525.902L755.285 525.902L754.478 525.311ZM822.408 824.049C824.298 824.025 826.164 824 828 824V822C826.149 822 824.269 822.025 822.381 822.05L822.408 824.049ZM785.078 816.482C790.275 820.478 796.395 822.403 802.799 823.315C809.192 824.226 815.941 824.135 822.408 824.049L822.381 822.05C815.884 822.135 809.294 822.22 803.081 821.335C796.88 820.452 791.128 818.612 786.297 814.897L785.078 816.482ZM732.162 775.793L785.078 816.482L786.297 814.897L733.381 774.207L732.162 775.793ZM662.41 724.321L732.178 775.805L733.365 774.195L663.598 722.712L662.41 724.321ZM658.358 720.972C659.652 722.104 660.984 723.269 662.41 724.321L663.598 722.712C662.25 721.717 660.979 720.607 659.674 719.466L658.358 720.972ZM657.155 719.926C657.556 720.271 657.955 720.62 658.357 720.972L659.674 719.466C659.272 719.115 658.867 718.761 658.459 718.41L657.155 719.926ZM653.861 706.586C652.227 710.182 652.135 712.86 653.037 715.047C653.907 717.157 655.649 718.631 657.155 719.926L658.459 718.41C656.88 717.052 655.543 715.877 654.886 714.284C654.26 712.768 654.194 710.688 655.682 707.414L653.861 706.586ZM703.986 634.881C698.386 641.986 686.874 657.678 676.267 672.685C670.962 680.191 665.879 687.534 661.869 693.553C657.881 699.541 654.902 704.297 653.861 706.586L655.682 707.414C656.641 705.303 659.517 700.693 663.533 694.662C667.529 688.664 672.601 681.338 677.901 673.84C688.502 658.839 699.99 643.181 705.557 636.119L703.986 634.881ZM751.869 567.745L703.957 634.919L705.586 636.081L753.497 568.906L751.869 567.745ZM753.064 566.101C752.659 566.648 752.265 567.189 751.869 567.745L753.497 568.906C753.886 568.361 754.273 567.829 754.672 567.29L753.064 566.101ZM792.418 508.98C779.414 530.317 757 560.78 753.064 566.101L754.672 567.29C758.6 561.981 781.067 531.446 794.125 510.02L792.418 508.98ZM830.988 434.871C827.335 442.642 807.981 483.442 792.418 508.98L794.125 510.02C809.755 484.375 829.152 443.478 832.798 435.722L830.988 434.871ZM831.057 434.724L830.987 434.872L832.798 435.721L832.868 435.573L831.057 434.724ZM832.288 432.822C831.609 433.545 831.4 433.992 831.057 434.724L832.868 435.572C833.182 434.902 833.284 434.682 833.746 434.19L832.288 432.822ZM836.382 429.932C834.965 430.523 833.313 431.728 832.288 432.822L833.746 434.19C834.603 433.276 836.027 432.247 837.151 431.778L836.382 429.932ZM853 405C853 416.231 846.142 425.863 836.382 429.932L837.151 431.778C847.631 427.409 855 417.066 855 405H853ZM826 378C840.912 378 853 390.088 853 405H855C855 388.984 842.016 376 826 376V378ZM811.894 379.305C816.694 378.646 821.409 378 826 378V376C821.248 376 816.396 376.668 811.622 377.324L811.894 379.305ZM786.61 379.121C794.752 381.677 803.468 380.463 811.894 379.305L811.622 377.324C803.1 378.495 794.848 379.611 787.209 377.213L786.61 379.121ZM765.706 323.423C752.794 344.288 763.215 371.778 786.61 379.121L787.209 377.213C765.043 370.256 755.19 344.216 767.406 324.476L765.706 323.423ZM897.484 110.477L765.706 323.423L767.406 324.476L899.185 111.53L897.484 110.477ZM890.532 98C896.937 98 900.854 105.031 897.484 110.477L899.185 111.53C903.379 104.751 898.504 96 890.532 96V98ZM883.638 101.781C885.14 99.4258 887.739 98 890.532 98V96C887.056 96 883.82 97.7746 881.952 100.706L883.638 101.781ZM720.615 357.538L883.638 101.781L881.952 100.706L718.928 356.462L720.615 357.538ZM650.587 456.079L720.587 357.579L718.956 356.421L648.956 454.921L650.587 456.079ZM569.362 577.011L650.602 456.058L648.941 454.942L567.701 575.896L569.362 577.011ZM569.311 577.086L569.361 577.011L567.701 575.896L567.651 575.97L569.311 577.086ZM558.425 593.76C563.862 585.197 568.966 577.599 569.311 577.086L567.651 575.97C567.303 576.488 562.187 584.103 556.736 592.688L558.425 593.76ZM549.623 606.016C552.682 601.997 555.765 597.949 558.425 593.76L556.736 592.688C554.13 596.793 551.101 600.773 548.031 604.805L549.623 606.016ZM533.67 634.799C535.829 624.163 542.653 615.171 549.623 606.016L548.031 604.805C541.121 613.881 533.976 623.237 531.71 634.401L533.67 634.799ZM533 641.5C533 639.204 533.231 636.963 533.67 634.799L531.71 634.401C531.244 636.696 531 639.07 531 641.5H533ZM541.921 664.262C536.383 658.286 533 650.289 533 641.5H531C531 650.813 534.587 659.29 540.454 665.622L541.921 664.262ZM560.592 677.511C553.739 673.616 547.064 669.813 541.921 664.262L540.454 665.622C545.843 671.438 552.801 675.383 559.604 679.249L560.592 677.511ZM573.6 685.65C569.516 682.581 565.018 680.026 560.592 677.511L559.604 679.249C564.05 681.776 568.434 684.269 572.398 687.249L573.6 685.65ZM630.872 728.701L573.6 685.65L572.398 687.249L629.671 730.299L630.872 728.701ZM655.342 745.678L630.842 728.678L629.701 730.322L654.201 747.322L655.342 745.678ZM784.624 845.974L655.384 745.71L654.159 747.29L783.398 847.554L784.624 845.974ZM791 861C791 855.42 789.228 849.546 784.624 845.974L783.398 847.554C787.335 850.609 789 855.769 789 861H791ZM797.7 891.747C794.315 881.429 791 871.297 791 861H789C789 871.673 792.435 882.114 795.8 892.37L797.7 891.747ZM804.5 923.117C804.5 912.444 801.065 902.003 797.7 891.747L795.8 892.37C799.185 902.688 802.5 912.82 802.5 923.117H804.5ZM804.5 937V923.117H802.5V937H804.5ZM806.996 1012.42C805.749 997.752 805.125 978.903 804.812 963.707C804.656 956.111 804.578 949.434 804.539 944.655C804.52 942.266 804.51 940.352 804.505 939.035C804.502 938.376 804.501 937.867 804.501 937.523C804.5 937.351 804.5 937.22 804.5 937.132C804.5 937.088 804.5 937.055 804.5 937.033C804.5 937.022 804.5 937.014 804.5 937.008C804.5 937.005 804.5 937.003 804.5 937.002C804.5 937.001 804.5 937.001 804.5 937.001C804.5 937 804.5 937 803.5 937C802.5 937 802.5 937 802.5 937.001C802.5 937.001 802.5 937.002 802.5 937.002C802.5 937.004 802.5 937.006 802.5 937.009C802.5 937.014 802.5 937.023 802.5 937.034C802.5 937.056 802.5 937.09 802.5 937.134C802.5 937.223 802.5 937.354 802.501 937.527C802.501 937.872 802.502 938.383 802.505 939.042C802.51 940.362 802.52 942.279 802.539 944.671C802.578 949.456 802.656 956.142 802.813 963.748C803.125 978.952 803.751 997.854 805.004 1012.58L806.996 1012.42ZM825.46 1124.72C817.819 1098.64 810.767 1056.74 806.996 1012.42L805.004 1012.58C808.78 1056.98 815.848 1099.03 823.54 1125.28L825.46 1124.72ZM839.911 1171.82C836.853 1162.2 830.866 1143.17 825.46 1124.72L823.54 1125.28C828.953 1143.75 834.946 1162.81 838.005 1172.42L839.911 1171.82ZM844.843 1184.08C842.879 1180.12 841.252 1176.03 839.911 1171.82L838.005 1172.42C839.375 1176.73 841.039 1180.91 843.052 1184.96L844.843 1184.08ZM865.801 1221.4C859.442 1212.88 849.709 1193.88 844.843 1184.08L843.052 1184.96C847.892 1194.71 857.708 1213.9 864.199 1222.6L865.801 1221.4ZM866.3 1222.07L865.801 1221.4L864.199 1222.6L864.697 1223.27L866.3 1222.07ZM909.139 1269.73C890.031 1253.86 875.201 1234 866.3 1222.07L864.697 1223.27C873.589 1235.18 888.547 1255.23 907.861 1271.27L909.139 1269.73ZM948.932 1296.1C932.13 1288.06 923.52 1281.67 909.139 1269.73L907.861 1271.27C922.312 1283.27 931.063 1289.77 948.068 1297.9L948.932 1296.1ZM971.233 1304.92C964.285 1302.81 957.22 1300.06 948.932 1296.1L948.068 1297.9C956.436 1301.91 963.596 1304.69 970.652 1306.84L971.233 1304.92ZM972.428 1306.65C972.48 1305.86 971.978 1305.15 971.233 1304.92L970.652 1306.84C970.519 1306.79 970.423 1306.67 970.433 1306.51L972.428 1306.65ZM972.11 1310.58C972.271 1308.86 972.37 1307.53 972.428 1306.65L970.433 1306.51C970.376 1307.39 970.278 1308.69 970.119 1310.39L972.11 1310.58ZM970.23 1325.22C971.219 1319.01 971.788 1314.01 972.11 1310.58L970.119 1310.39C969.801 1313.79 969.236 1318.75 968.254 1324.91L970.23 1325.22ZM957.911 1373.99C964.598 1354.86 968.251 1337.64 970.23 1325.22L968.254 1324.91C966.29 1337.24 962.663 1354.33 956.023 1373.33L957.911 1373.99ZM875.067 1485.87C920.58 1455.33 944.922 1411.17 957.911 1373.99L956.023 1373.33C943.12 1410.26 918.986 1453.99 873.952 1484.21L875.067 1485.87ZM873.844 1491.46C872.665 1489.6 873.21 1487.12 875.067 1485.87L873.952 1484.21C871.223 1486.05 870.377 1489.73 872.156 1492.54L873.844 1491.46ZM879.314 1492.66C877.499 1493.87 875.031 1493.33 873.844 1491.46L872.156 1492.54C873.928 1495.33 877.652 1496.18 880.426 1494.32L879.314 1492.66ZM965.464 1376.63C952.108 1414.85 926.876 1460.82 879.314 1492.66L880.426 1494.32C928.469 1462.16 953.91 1415.76 967.352 1377.29L965.464 1376.63ZM978.13 1326.48C976.093 1339.26 972.339 1356.96 965.464 1376.63L967.352 1377.29C974.275 1357.48 978.054 1339.67 980.105 1326.8L978.13 1326.48ZM980.075 1311.32C979.739 1314.91 979.149 1320.09 978.13 1326.48L980.105 1326.8C981.131 1320.35 981.727 1315.14 982.067 1311.51L980.075 1311.32ZM984.263 1308.24C982.229 1307.81 980.269 1309.26 980.075 1311.32L982.067 1311.51C982.149 1310.63 982.985 1310.02 983.845 1310.2L984.263 1308.24ZM1005.16 1312.01C997.269 1310.72 990.549 1309.59 984.263 1308.24L983.845 1310.2C990.184 1311.55 996.949 1312.69 1004.84 1313.99L1005.16 1312.01ZM1113.68 1306.5C1107.2 1307.64 1089.52 1310.58 1068.72 1312.45C1047.9 1314.32 1024.04 1315.11 1005.16 1312.01L1004.84 1313.99C1023.97 1317.13 1048.04 1316.31 1068.9 1314.44C1089.77 1312.56 1107.51 1309.62 1114.02 1308.47L1113.68 1306.5ZM1119.07 1305.64C1117.25 1305.89 1115.47 1306.18 1113.68 1306.5L1114.02 1308.47C1115.81 1308.15 1117.55 1307.87 1119.34 1307.63L1119.07 1305.64ZM1249.87 1288.01L1119.07 1305.64L1119.34 1307.63L1250.13 1289.99L1249.87 1288.01ZM1418.35 1262.81L1249.85 1288.01L1250.15 1289.99L1418.65 1264.79L1418.35 1262.81ZM1422.38 1262.28C1421.03 1262.44 1419.7 1262.61 1418.35 1262.81L1418.65 1264.79C1419.97 1264.59 1421.27 1264.42 1422.6 1264.27L1422.38 1262.28ZM1547.51 1242.52C1496.92 1253.6 1434.24 1260.94 1422.38 1262.28L1422.6 1264.27C1434.47 1262.93 1497.24 1255.57 1547.94 1244.48L1547.51 1242.52ZM1549.41 1243.26C1548.98 1242.66 1548.24 1242.37 1547.51 1242.52L1547.94 1244.48C1547.88 1244.49 1547.81 1244.46 1547.78 1244.42L1549.41 1243.26ZM1551.34 1245.99C1550.5 1244.8 1549.85 1243.88 1549.41 1243.26L1547.78 1244.42C1548.22 1245.04 1548.86 1245.95 1549.7 1247.14L1551.34 1245.99ZM1558.48 1256.16C1555.45 1251.83 1553.02 1248.37 1551.34 1245.99L1549.7 1247.14C1551.38 1249.52 1553.81 1252.98 1556.84 1257.3L1558.48 1256.16ZM1582.37 1290.85C1572.94 1276.96 1564.53 1264.82 1558.48 1256.16L1556.84 1257.3C1562.88 1265.96 1571.29 1278.09 1580.72 1291.98L1582.37 1290.85ZM1640.54 1381.51C1624.19 1353.45 1601.25 1318.67 1582.37 1290.85L1580.72 1291.98C1599.59 1319.78 1622.5 1354.52 1638.82 1382.52L1640.54 1381.51ZM1665.03 1423.98C1656.15 1408.42 1649.56 1396.99 1640.54 1381.51L1638.82 1382.52C1647.83 1397.99 1654.42 1409.42 1663.29 1424.97L1665.03 1423.98ZM1670.48 1425.47C1668.56 1426.57 1666.12 1425.9 1665.03 1423.98L1663.29 1424.97C1664.93 1427.85 1668.59 1428.85 1671.47 1427.21L1670.48 1425.47ZM1671.97 1420.02C1673.07 1421.94 1672.4 1424.38 1670.48 1425.47L1671.47 1427.21C1674.35 1425.57 1675.35 1421.91 1673.71 1419.03L1671.97 1420.02ZM1647.46 1377.49C1656.49 1392.98 1663.09 1404.44 1671.97 1420.02L1673.71 1419.03C1664.82 1403.44 1658.22 1391.98 1649.18 1376.48L1647.46 1377.49ZM1588.99 1286.36C1607.89 1314.2 1630.96 1349.17 1647.46 1377.49L1649.18 1376.48C1632.65 1348.1 1609.55 1313.08 1590.64 1285.24L1588.99 1286.36ZM1565.03 1251.58C1571.1 1260.26 1579.53 1272.43 1588.99 1286.36L1590.64 1285.24C1581.18 1271.3 1572.74 1259.12 1566.67 1250.43L1565.03 1251.58ZM1564.92 1251.41L1565.03 1251.58L1566.67 1250.43L1566.56 1250.27L1564.92 1251.41ZM1570.24 1237.03C1564.01 1238.71 1561.2 1246.09 1564.92 1251.41L1566.56 1250.27C1563.65 1246.11 1565.83 1240.29 1570.76 1238.97L1570.24 1237.03ZM1627.95 1219.13C1624.86 1220.17 1592.02 1231.17 1570.24 1237.03L1570.76 1238.97C1592.6 1233.08 1625.51 1222.06 1628.59 1221.03L1627.95 1219.13ZM1628.16 1219.06C1628.09 1219.08 1628.02 1219.1 1627.95 1219.13L1628.59 1221.03C1628.66 1221 1628.74 1220.98 1628.81 1220.95L1628.16 1219.06ZM1628.32 1219C1628.26 1219.02 1628.21 1219.04 1628.16 1219.06L1628.81 1220.95C1628.86 1220.93 1628.92 1220.91 1628.97 1220.89L1628.32 1219ZM1628.42 1218.97L1628.32 1219L1628.97 1220.89L1629.07 1220.86L1628.42 1218.97ZM1669.87 1197.72C1662.85 1203.43 1653.18 1208.51 1644.89 1212.28C1636.61 1216.05 1629.76 1218.5 1628.41 1218.97L1629.07 1220.86C1630.45 1220.38 1637.36 1217.91 1645.72 1214.1C1654.06 1210.31 1663.91 1205.15 1671.13 1199.28L1669.87 1197.72ZM1694.81 1175.28C1694.64 1175.44 1679.67 1189.75 1669.87 1197.72L1671.13 1199.28C1681.01 1191.25 1696.03 1176.87 1696.19 1176.72L1694.81 1175.28ZM1694.68 1175.43C1694.68 1175.42 1694.71 1175.39 1694.75 1175.34C1694.78 1175.31 1694.8 1175.29 1694.81 1175.28L1696.19 1176.72C1696.23 1176.68 1696.28 1176.63 1696.33 1176.57L1694.68 1175.43ZM1694.72 1175.37L1694.72 1175.38L1696.29 1176.61L1696.29 1176.61L1694.72 1175.37ZM1695.71 1174.93C1695.34 1174.91 1694.97 1175.07 1694.73 1175.36L1696.28 1176.63C1696.11 1176.83 1695.86 1176.94 1695.59 1176.93L1695.71 1174.93ZM1698 1175C1697.23 1175 1696.47 1174.98 1695.71 1174.93L1695.59 1176.93C1696.39 1176.98 1697.19 1177 1698 1177V1175ZM1735 1138C1735 1158.43 1718.43 1175 1698 1175V1177C1719.54 1177 1737 1159.54 1737 1138H1735ZM1734.4 1131.31C1734.79 1133.48 1735 1135.72 1735 1138H1737C1737 1135.59 1736.78 1133.24 1736.36 1130.95L1734.4 1131.31ZM1739.7 1116.48C1734.83 1119.69 1733.4 1125.86 1734.4 1131.31L1736.36 1130.95C1735.46 1125.98 1736.83 1120.77 1740.8 1118.15L1739.7 1116.48ZM1768.81 1098.74C1757.01 1105.37 1746.88 1111.76 1739.7 1116.48L1740.8 1118.15C1747.95 1113.45 1758.04 1107.08 1769.79 1100.48L1768.81 1098.74ZM1848.59 1067.46C1822.47 1071.35 1792.5 1085.41 1768.81 1098.74L1769.79 1100.48C1793.44 1087.18 1823.15 1073.27 1848.88 1069.43L1848.59 1067.46ZM1889.22 1066.37C1875.21 1065.59 1859.96 1065.76 1848.59 1067.46L1848.88 1069.43C1860.07 1067.77 1875.16 1067.59 1889.11 1068.37L1889.22 1066.37ZM1921.14 1070.79C1915.59 1068.9 1903.34 1067.17 1889.22 1066.37L1889.11 1068.37C1903.22 1069.16 1915.23 1070.89 1920.49 1072.68L1921.14 1070.79ZM1951.69 1086.14C1942.82 1080.61 1931.49 1074.3 1921.14 1070.79L1920.49 1072.68C1930.62 1076.12 1941.8 1082.33 1950.63 1087.84L1951.69 1086.14ZM1962.47 1093.25C1959.83 1091.42 1956.09 1088.89 1951.69 1086.14L1950.63 1087.84C1955 1090.57 1958.71 1093.07 1961.33 1094.89L1962.47 1093.25ZM1965.54 1095.42C1964.83 1094.91 1963.79 1094.17 1962.47 1093.25L1961.33 1094.89C1962.64 1095.8 1963.67 1096.54 1964.37 1097.05L1965.54 1095.42ZM1966.34 1096.01C1966.16 1095.88 1965.89 1095.68 1965.54 1095.42L1964.37 1097.05C1964.72 1097.3 1964.98 1097.49 1965.16 1097.62L1966.34 1096.01ZM1966.45 1096.09L1966.34 1096.01L1965.16 1097.62L1965.27 1097.7L1966.45 1096.09ZM1966.54 1096.16L1966.45 1096.09L1965.26 1097.7L1965.36 1097.77L1966.54 1096.16ZM1966.59 1096.19L1966.55 1096.16L1965.35 1097.77L1965.4 1097.8L1966.59 1096.19ZM1966.61 1096.21L1966.6 1096.2L1965.4 1097.8L1965.41 1097.81L1966.61 1096.21ZM1966.62 1096.21L1966.62 1096.21L1965.4 1097.8L1965.4 1097.8L1966.62 1096.21ZM1968.03 1097.27L1966.61 1096.21L1965.41 1097.81L1966.84 1098.87L1968.03 1097.27ZM2023.6 1141.05L1968.05 1097.29L1966.82 1098.86L2022.36 1142.62L2023.6 1141.05ZM2029.21 1140.38C2027.85 1142.12 2025.33 1142.41 2023.6 1141.05L2022.36 1142.62C2024.96 1144.67 2028.73 1144.22 2030.79 1141.62L2029.21 1140.38ZM2028.55 1134.76C2030.28 1136.13 2030.58 1138.65 2029.21 1140.38L2030.79 1141.62C2032.84 1139.02 2032.39 1135.24 2029.79 1133.19L2028.55 1134.76ZM1989.83 1104.26L2028.55 1134.76L2029.79 1133.19L1991.07 1102.69L1989.83 1104.26ZM1986.27 1076.74C1979.78 1085.35 1981.36 1097.58 1989.83 1104.26L1991.07 1102.69C1983.45 1096.69 1982.03 1085.69 1987.87 1077.94L1986.27 1076.74ZM1986.25 1076.76L1986.25 1076.76L1987.89 1077.92L1987.89 1077.92L1986.25 1076.76ZM2055.18 985.401L1986.27 1076.74L1987.87 1077.94L2056.78 986.605L2055.18 985.401ZM2054.4 979.798C2056.16 981.129 2056.51 983.637 2055.18 985.401L2056.78 986.605C2058.77 983.96 2058.25 980.197 2055.6 978.202L2054.4 979.798ZM2048.8 980.582C2050.13 978.819 2052.63 978.468 2054.4 979.798L2055.6 978.202C2052.96 976.206 2049.19 976.733 2047.2 979.378L2048.8 980.582ZM1979.89 1071.92L2048.8 980.582L2047.2 979.378L1978.29 1070.72L1979.89 1071.92ZM1979.86 1071.95L1979.86 1071.95L1978.32 1070.68L1978.31 1070.68L1979.86 1071.95ZM1969.3 1085.95L1979.89 1071.92L1978.29 1070.72L1967.71 1084.75L1969.3 1085.95ZM1966.98 1086.25C1967.7 1086.82 1968.75 1086.69 1969.3 1085.95L1967.71 1084.75C1967.83 1084.59 1968.06 1084.56 1968.22 1084.68L1966.98 1086.25ZM1966.62 1085.97L1966.98 1086.25L1968.22 1084.68L1967.86 1084.4L1966.62 1085.97ZM1967.77 1085.84C1967.49 1086.19 1966.97 1086.25 1966.62 1085.97L1967.86 1084.4C1967.34 1084 1966.6 1084.08 1966.2 1084.6L1967.77 1085.84ZM1966.77 1086.29C1967.14 1086.31 1967.52 1086.15 1967.77 1085.84L1966.19 1084.6C1966.36 1084.38 1966.63 1084.27 1966.88 1084.29L1966.77 1086.29ZM1966.16 1086.08C1966.35 1086.2 1966.56 1086.27 1966.77 1086.29L1966.88 1084.29C1967.03 1084.3 1967.18 1084.35 1967.3 1084.43L1966.16 1086.08ZM1955.92 1079.35C1959.99 1081.9 1963.52 1084.25 1966.17 1086.08L1967.3 1084.43C1964.63 1082.59 1961.08 1080.22 1956.98 1077.66L1955.92 1079.35ZM1923.71 1063.21C1934.94 1067.03 1946.89 1073.72 1955.92 1079.35L1956.98 1077.66C1947.91 1072 1935.8 1065.21 1924.35 1061.32L1923.71 1063.21ZM1889.67 1058.39C1903.83 1059.18 1917.04 1060.95 1923.71 1063.21L1924.35 1061.32C1917.4 1058.96 1903.95 1057.19 1889.78 1056.39L1889.67 1058.39ZM1847.41 1059.54C1859.54 1057.74 1875.39 1057.59 1889.67 1058.39L1889.78 1056.39C1875.44 1055.59 1859.43 1055.73 1847.12 1057.57L1847.41 1059.54ZM1764.88 1091.77C1788.75 1078.34 1819.78 1063.66 1847.41 1059.54L1847.12 1057.57C1819.11 1061.74 1787.81 1076.58 1763.9 1090.02L1764.88 1091.77ZM1735.3 1109.8C1742.6 1105 1752.89 1098.51 1764.88 1091.77L1763.9 1090.02C1751.86 1096.79 1741.53 1103.31 1734.21 1108.13L1735.3 1109.8ZM1720.42 1108.56C1724.64 1111.79 1730.66 1112.85 1735.3 1109.8L1734.21 1108.13C1730.47 1110.59 1725.38 1109.83 1721.63 1106.97L1720.42 1108.56ZM1698 1101C1706.43 1101 1714.2 1103.82 1720.42 1108.56L1721.63 1106.97C1715.08 1101.97 1706.88 1099 1698 1099V1101ZM1673.64 1088.61C1677.71 1097.68 1688.54 1101 1698 1101V1099C1688.79 1099 1679.03 1095.75 1675.47 1087.79L1673.64 1088.61ZM1564.65 845.364L1673.64 1088.61L1675.47 1087.79L1566.48 844.546L1564.65 845.364ZM1564.57 845.194L1564.65 845.364L1566.48 844.546L1566.4 844.376L1564.57 845.194ZM1564.52 845.096L1564.61 845.26L1566.37 844.31L1566.28 844.146L1564.52 845.096ZM1543.23 810.231C1550.16 820.806 1558.61 834.172 1564.52 845.097L1566.28 844.145C1560.33 833.143 1551.84 819.719 1544.9 809.135L1543.23 810.231ZM1534.41 797.006C1536.65 800.306 1539.75 804.93 1543.23 810.231L1544.9 809.135C1541.42 803.823 1538.31 799.189 1536.06 795.883L1534.41 797.006ZM1532.63 793.048C1532.99 794.463 1533.59 795.801 1534.41 797.006L1536.06 795.883C1535.37 794.87 1534.87 793.747 1534.57 792.562L1532.63 793.048ZM1456.1 487.877L1532.63 793.048L1534.57 792.562L1458.04 487.39L1456.1 487.877ZM1451.24 484.97C1453.39 484.433 1455.56 485.734 1456.1 487.877L1458.04 487.39C1457.23 484.176 1453.97 482.224 1450.76 483.03L1451.24 484.97ZM1448.34 489.823C1447.8 487.68 1449.1 485.507 1451.24 484.97L1450.76 483.03C1447.54 483.836 1445.59 487.095 1446.4 490.309L1448.34 489.823ZM1518.77 770.663L1448.34 489.823L1446.4 490.309L1516.83 771.15L1518.77 770.663ZM1514.92 772.73C1516.46 774.397 1519.34 772.947 1518.77 770.663L1516.83 771.15C1516.85 771.226 1516.84 771.266 1516.82 771.293C1516.8 771.331 1516.76 771.377 1516.7 771.412C1516.63 771.447 1516.57 771.456 1516.52 771.45C1516.48 771.445 1516.44 771.431 1516.38 771.372L1514.92 772.73ZM1450.32 718.739C1484.98 743.356 1503.98 760.915 1514.92 772.73L1516.38 771.372C1505.34 759.431 1486.22 741.783 1451.47 717.108L1450.32 718.739ZM1161.47 670.036C1303.6 650.951 1380.23 668.964 1450.32 718.739L1451.47 717.108C1380.84 666.946 1303.64 648.927 1161.2 668.053L1161.47 670.036ZM941.991 740.885C948.958 735.273 1019.37 689.116 1161.47 670.036L1161.2 668.053C1018.8 687.174 948.034 733.449 940.736 739.327L941.991 740.885ZM917.382 761.475C928.265 752.056 935.653 745.99 941.991 740.885L940.736 739.327C934.382 744.445 926.976 750.526 916.073 759.963L917.382 761.475ZM892.766 785.544C900.088 777.835 909.449 768.342 917.382 761.475L916.073 759.963C908.063 766.897 898.647 776.449 891.316 784.167L892.766 785.544ZM883.642 795.334C885.908 792.856 889.093 789.412 892.766 785.544L891.316 784.167C887.632 788.046 884.439 791.5 882.166 793.984L883.642 795.334ZM880.982 798.261C881.604 797.572 882.509 796.573 883.642 795.334L882.166 793.984C881.03 795.227 880.122 796.229 879.497 796.921L880.982 798.261ZM880.267 799.056C880.43 798.873 880.671 798.606 880.982 798.261L879.497 796.921C879.185 797.268 878.943 797.537 878.778 797.72L880.267 799.056ZM880.099 799.244L880.267 799.055L878.778 797.721L878.609 797.909L880.099 799.244ZM865.382 814.175L880.066 799.278L878.642 797.874L863.957 812.771L865.382 814.175ZM828 824C834.462 824 841.448 823.924 847.969 822.674C854.499 821.422 860.648 818.977 865.382 814.175L863.957 812.771C859.609 817.183 853.892 819.502 847.592 820.71C841.283 821.919 834.476 822 828 822V824ZM797.348 405.486C797.134 405.411 797 405.212 797 405H799C799 404.375 798.607 403.805 798.003 403.596L797.348 405.486ZM761.172 392.945L797.348 405.486L798.003 403.596L761.828 391.055L761.172 392.945ZM753.762 390.665L761.206 392.956L761.794 391.044L754.35 388.754L753.762 390.665ZM714.82 404.072C723.51 391.617 739.247 386.199 753.762 390.665L754.35 388.754C739.005 384.032 722.367 389.76 713.18 402.928L714.82 404.072ZM675.813 458.582L714.813 404.082L713.187 402.918L674.187 457.418L675.813 458.582ZM619.337 545.047L675.837 458.547L674.163 457.453L617.663 543.953L619.337 545.047ZM591.834 586.552L619.334 545.052L617.666 543.948L590.166 585.448L591.834 586.552ZM580.832 603.055L591.832 586.555L590.168 585.445L579.168 601.945L580.832 603.055ZM581.707 608.793C581.265 608.351 580.718 607.408 580.463 606.27C580.213 605.146 580.279 603.979 580.857 603.014L579.143 601.986C578.221 603.521 578.187 605.254 578.512 606.705C578.832 608.142 579.535 609.449 580.293 610.207L581.707 608.793ZM593.117 611.507C588.873 611.008 586.233 610.564 584.519 610.109C582.817 609.656 582.132 609.218 581.707 608.793L580.293 610.207C581.068 610.982 582.133 611.544 584.006 612.041C585.867 612.536 588.627 612.992 592.883 613.493L593.117 611.507ZM636.855 639.053C632.61 635.686 624.353 629.136 615.863 623.274C611.618 620.343 607.299 617.573 603.382 615.456C599.496 613.355 595.894 611.834 593.117 611.507L592.883 613.493C595.256 613.772 598.571 615.129 602.43 617.215C606.258 619.284 610.511 622.009 614.726 624.92C623.155 630.739 631.365 637.251 635.612 640.62L636.855 639.053ZM636.856 639.054L636.853 639.052L635.614 640.622L635.617 640.624L636.856 639.054ZM639.581 641.186C639.211 640.922 638.275 640.18 636.858 639.056L635.615 640.623C637 641.721 637.995 642.511 638.419 642.814L639.581 641.186ZM643.832 644.351C642.12 643.059 640.63 641.935 639.581 641.186L638.419 642.814C639.441 643.544 640.906 644.649 642.628 645.948L643.832 644.351ZM657.458 654.066C653.402 651.57 647.957 647.463 643.832 644.351L642.628 645.948C646.725 649.039 652.255 653.212 656.41 655.77L657.458 654.066ZM663.037 653.024C661.624 654.834 659.391 655.256 657.458 654.066L656.41 655.77C659.233 657.507 662.591 656.846 664.613 654.254L663.037 653.024ZM663.954 647.193C664.658 649.109 664.294 651.413 663.037 653.024L664.613 654.254C666.294 652.1 666.774 649.071 665.831 646.504L663.954 647.193ZM649.528 602.236C653.148 617.108 660.38 637.463 663.954 647.193L665.831 646.504C662.256 636.768 655.061 616.512 651.472 601.763L649.528 602.236ZM647.441 593.021C648.046 595.814 648.849 599.445 649.528 602.236L651.472 601.763C650.799 598.999 650 595.389 649.396 592.598L647.441 593.021ZM646.188 584.14C646.288 587.164 646.816 590.131 647.441 593.021L649.396 592.598C648.779 589.747 648.281 586.918 648.187 584.073L646.188 584.14ZM646.518 577.813C646.152 579.737 646.121 582.133 646.188 584.14L648.187 584.073C648.121 582.102 648.159 579.886 648.482 578.187L646.518 577.813ZM648.951 570.891C648.027 572.908 646.944 575.571 646.518 577.813L648.482 578.187C648.861 576.197 649.856 573.718 650.769 571.724L648.951 570.891ZM650.693 567.242C650.107 568.444 649.514 569.66 648.951 570.891L650.769 571.724C651.321 570.518 651.903 569.324 652.491 568.118L650.693 567.242ZM652.142 564.224C651.672 565.231 651.185 566.232 650.693 567.242L652.491 568.118C652.981 567.111 653.476 566.095 653.955 565.07L652.142 564.224ZM655.107 558.051C654.174 559.905 653.039 562.302 652.142 564.224L653.955 565.07C654.85 563.151 655.975 560.776 656.893 558.949L655.107 558.051ZM675.197 523.194C672.84 526.954 661.855 544.627 655.107 558.051L656.893 558.949C663.594 545.621 674.531 528.022 676.891 524.256L675.197 523.194ZM676.146 521.723C675.819 522.215 675.51 522.695 675.197 523.194L676.891 524.256C677.195 523.771 677.495 523.307 677.812 522.83L676.146 521.723ZM694.747 496.342C687.936 504.13 678.367 518.382 676.146 521.723L677.812 522.83C680.048 519.465 689.545 505.329 696.253 497.658L694.747 496.342ZM695.322 495.684C695.131 495.902 694.94 496.121 694.747 496.342L696.253 497.658C696.446 497.437 696.638 497.218 696.829 496.999L695.322 495.684ZM706.951 484.665C702.219 487.776 698.895 491.592 695.322 495.684L696.829 496.999C700.422 492.883 703.58 489.275 708.049 486.336L706.951 484.665ZM713.785 481.604C711.523 482.249 709.928 482.706 706.951 484.665L708.049 486.336C710.788 484.534 712.167 484.145 714.333 483.528L713.785 481.604ZM717.173 480.555C715.806 481.028 714.738 481.333 713.785 481.604L714.333 483.528C715.29 483.255 716.404 482.938 717.827 482.445L717.173 480.555ZM744.45 477.001C741.613 477.143 736.173 477.559 730.774 478.17C725.415 478.777 719.959 479.59 717.173 480.555L717.827 482.445C720.367 481.565 725.596 480.769 730.999 480.158C736.361 479.55 741.758 479.138 744.55 478.999L744.45 477.001ZM805.4 441.021C793.288 462.822 769.461 475.751 744.45 477.001L744.55 478.999C770.145 477.719 794.653 464.484 807.148 441.993L805.4 441.021ZM807.626 437.014L805.4 441.021L807.148 441.993L809.374 437.986L807.626 437.014ZM804.644 424.62C807.892 428.154 809.516 433.059 807.598 437.069L809.402 437.931C811.813 432.89 809.658 427.119 806.117 423.266L804.644 424.62ZM797 405C797 412.566 799.899 419.457 804.644 424.62L806.117 423.266C801.697 418.458 799 412.045 799 405H797ZM1524.11 800.181C1524.28 800.871 1524.98 801.289 1525.67 801.116L1525.19 799.176C1525.57 799.081 1525.95 799.312 1526.05 799.695L1524.11 800.181ZM1523.91 799.375L1524.11 800.181L1526.05 799.694L1525.85 798.889L1523.91 799.375ZM1523.89 799.338C1523.9 799.349 1523.9 799.362 1523.91 799.375L1525.85 798.889C1525.79 798.645 1525.68 798.414 1525.54 798.206L1523.89 799.338ZM1523.71 799.066L1523.89 799.338L1525.54 798.206L1525.35 797.935L1523.71 799.066ZM1523.52 798.792L1523.71 799.067L1525.35 797.934L1525.17 797.66L1523.52 798.792ZM1522.57 797.733C1522.95 798.09 1523.27 798.429 1523.52 798.793L1525.17 797.659C1524.8 797.128 1524.37 796.678 1523.95 796.285L1522.57 797.733ZM1520.99 795.975C1521.39 796.473 1521.92 797.112 1522.57 797.734L1523.95 796.285C1523.4 795.756 1522.93 795.199 1522.54 794.719L1520.99 795.975ZM1518.87 793.187C1519.64 794.224 1520.36 795.2 1520.99 795.975L1522.54 794.718C1521.95 793.983 1521.25 793.043 1520.47 791.995L1518.87 793.187ZM1518.12 792.186C1518.38 792.525 1518.62 792.859 1518.87 793.186L1520.47 791.995C1520.23 791.668 1519.98 791.331 1519.73 790.99L1518.12 792.186ZM1507.58 779.522C1512.74 785.103 1515.93 789.255 1518.12 792.186L1519.73 790.99C1517.51 788.023 1514.27 783.812 1509.04 778.164L1507.58 779.522ZM1444.53 726.892C1478.78 751.217 1497.22 768.332 1507.58 779.522L1509.04 778.164C1498.57 766.848 1480.02 749.644 1445.68 725.261L1444.53 726.892ZM1162.8 679.947C1303.36 661.073 1377.16 679.054 1444.53 726.892L1445.68 725.261C1377.77 677.036 1303.4 659.049 1162.53 677.964L1162.8 679.947ZM948.264 748.673C953.579 744.391 1022.2 698.827 1162.8 679.947L1162.53 677.964C1021.63 696.884 952.655 742.567 947.009 747.115L948.264 748.673ZM923.927 769.036C934.709 759.704 942.005 753.714 948.264 748.673L947.009 747.115C940.735 752.169 933.42 758.174 922.618 767.524L923.927 769.036ZM900.017 792.431C907.298 784.765 916.382 775.567 923.927 769.036L922.618 767.524C914.995 774.122 905.856 783.379 898.567 791.053L900.017 792.431ZM891.021 802.083C893.255 799.641 896.396 796.244 900.017 792.431L898.567 791.053C894.935 794.877 891.786 798.284 889.545 800.733L891.021 802.083ZM888.406 804.96C889.015 804.286 889.904 803.304 891.021 802.083L889.545 800.733C888.425 801.958 887.533 802.943 886.922 803.62L888.406 804.96ZM887.711 805.733C887.868 805.558 888.102 805.297 888.406 804.96L886.922 803.62C886.616 803.959 886.381 804.221 886.222 804.397L887.711 805.733ZM887.533 805.931L887.711 805.732L886.222 804.398L886.044 804.597L887.533 805.931ZM887.49 805.98L887.534 805.93L886.043 804.598L885.999 804.647L887.49 805.98ZM887.478 805.993L887.489 805.981L886 804.646L885.989 804.658L887.478 805.993ZM887.48 805.991L887.482 805.989L885.985 804.662L885.983 804.665L887.48 805.991ZM887.438 806.036L887.438 806.035L886.024 804.621L886.024 804.621L887.438 806.036ZM887.395 806.087L887.477 805.994L885.985 804.663L885.902 804.756L887.395 806.087ZM887.273 806.212L887.36 806.123L885.936 804.719L885.849 804.808L887.273 806.212ZM876.491 817.151L887.273 806.212L885.849 804.808L875.066 815.747L876.491 817.151ZM866.986 857.229C866.947 849.947 866.909 842.366 868.105 835.35C869.299 828.345 871.708 822.002 876.491 817.151L875.066 815.747C869.891 820.997 867.366 827.783 866.133 835.014C864.903 842.233 864.947 849.993 864.986 857.24L866.986 857.229ZM866.986 857.237V857.234H864.986V857.237H866.986ZM867 861C867 859.758 866.993 858.5 866.986 857.232L864.986 857.243C864.993 858.512 865 859.765 865 861H867ZM828 900C849.539 900 867 882.539 867 861H865C865 881.435 848.434 898 828 898V900ZM826.008 899.95C826.668 899.983 827.332 900 828 900V898C827.365 898 826.735 897.984 826.108 897.952L826.008 899.95ZM826.915 899.404C826.752 899.753 826.393 899.969 826.008 899.95L826.108 897.952C825.682 897.931 825.284 898.17 825.104 898.557L826.915 899.404ZM826.969 899.257C826.954 899.311 826.935 899.364 826.91 899.415L825.109 898.545C825.079 898.608 825.055 898.672 825.037 898.738L826.969 899.257ZM827 899.022C827 899.102 826.989 899.18 826.969 899.255L825.037 898.739C825.013 898.831 825 898.925 825 899.022H827ZM827 919.5V899.022H825V919.5H827ZM827 938.595V919.5H825V938.595H827ZM827.074 942.333C827.023 941.079 827 939.853 827 938.595H825C825 939.877 825.023 941.131 825.076 942.415L827.074 942.333ZM832.494 1023.89C829.346 995.136 827.462 951.817 827.074 942.333L825.076 942.415C825.463 951.89 827.35 995.275 830.506 1024.11L832.494 1023.89ZM834.137 1039.29C833.625 1034.42 833.088 1029.31 832.494 1023.89L830.506 1024.11C831.099 1029.53 831.636 1034.63 832.148 1039.5L834.137 1039.29ZM834.129 1039.23L834.129 1039.23L832.157 1039.56L832.157 1039.56L834.129 1039.23ZM834.135 1039.27L834.135 1039.27L832.151 1039.52L832.151 1039.52L834.135 1039.27ZM834.13 1039.24L834.13 1039.23L832.157 1039.56L832.157 1039.56L834.13 1039.24ZM834.136 1039.28L834.135 1039.28L832.151 1039.52L832.151 1039.52L834.136 1039.28ZM834.138 1039.3L834.138 1039.3L832.148 1039.5L832.148 1039.5L834.138 1039.3ZM834.13 1039.24L834.13 1039.24L832.157 1039.57L832.157 1039.57L834.13 1039.24ZM848.963 1124.73C839.641 1091.59 837.382 1070.13 834.138 1039.3L832.149 1039.51C835.394 1070.35 837.667 1091.96 847.037 1125.27L848.963 1124.73ZM867.216 1176.6C862.486 1164.59 853.717 1141.63 848.963 1124.73L847.037 1125.27C851.823 1142.28 860.626 1165.33 865.355 1177.33L867.216 1176.6ZM875.025 1191.74C871.908 1186.96 869.307 1181.9 867.216 1176.6L865.355 1177.33C867.495 1182.76 870.157 1187.94 873.35 1192.83L875.025 1191.74ZM894.784 1219.88C888.14 1211.5 880.035 1199.41 875.025 1191.74L873.35 1192.83C878.362 1200.51 886.51 1212.66 893.216 1221.12L894.784 1219.88ZM897.533 1223.36C896.651 1222.24 895.738 1221.08 894.784 1219.88L893.216 1221.12C894.169 1222.32 895.082 1223.48 895.963 1224.6L897.533 1223.36ZM897.549 1223.38L897.534 1223.36L895.963 1224.59L895.978 1224.61L897.549 1223.38ZM922.655 1250.74C911.572 1241.13 906.024 1234.11 897.548 1223.38L895.979 1224.61C904.465 1235.36 910.11 1242.51 921.345 1252.26L922.655 1250.74ZM926.539 1254.14C925.341 1253.09 924.057 1251.96 922.655 1250.74L921.345 1252.26C922.742 1253.47 924.021 1254.59 925.22 1255.64L926.539 1254.14ZM957.419 1274.09C948.79 1270.11 943.428 1267.18 939.056 1264.23C934.682 1261.28 931.274 1258.29 926.539 1254.14L925.22 1255.64C929.942 1259.78 933.441 1262.86 937.937 1265.89C942.435 1268.92 947.905 1271.9 956.581 1275.91L957.419 1274.09ZM1005 1288C1004.74 1288 1004.1 1287.93 1003.08 1287.78C1002.09 1287.63 1000.8 1287.4 999.253 1287.1C996.165 1286.49 992.1 1285.59 987.512 1284.41C978.329 1282.04 967.093 1278.56 957.419 1274.09L956.581 1275.91C966.407 1280.44 977.771 1283.96 987.013 1286.34C991.637 1287.54 995.741 1288.45 998.869 1289.06C1000.43 1289.37 1001.76 1289.6 1002.78 1289.76C1003.78 1289.91 1004.56 1290 1005 1290V1288ZM1007.77 1288.23C1006.39 1288.1 1005.4 1288 1005 1288V1290C1005.28 1290 1006.12 1290.08 1007.58 1290.22L1007.77 1288.23ZM1043.46 1289.5C1027.22 1290.08 1013.47 1288.77 1007.77 1288.23L1007.58 1290.22C1013.3 1290.76 1027.16 1292.08 1043.54 1291.5L1043.46 1289.5ZM1090.88 1286.01C1078.42 1287.5 1056.41 1289.04 1043.46 1289.5L1043.54 1291.5C1056.53 1291.04 1078.58 1289.5 1091.12 1287.99L1090.88 1286.01ZM1159.39 1278.51L1090.89 1286.01L1091.11 1287.99L1159.61 1280.49L1159.39 1278.51ZM1221.36 1269.51L1159.36 1278.51L1159.64 1280.49L1221.64 1271.49L1221.36 1269.51ZM1364.35 1248.51L1221.35 1269.51L1221.65 1271.49L1364.65 1250.49L1364.35 1248.51ZM1525.54 1223.14L1364.34 1248.51L1364.66 1250.49L1525.85 1225.11L1525.54 1223.14ZM1526.28 1223.02C1526.03 1223.06 1525.79 1223.1 1525.54 1223.14L1525.85 1225.11C1526.1 1225.07 1526.35 1225.03 1526.6 1224.99L1526.28 1223.02ZM1526.7 1222.95C1526.56 1222.97 1526.42 1223 1526.28 1223.02L1526.6 1224.99C1526.75 1224.97 1526.89 1224.94 1527.04 1224.92L1526.7 1222.95ZM1527.12 1222.88C1526.98 1222.9 1526.84 1222.93 1526.7 1222.95L1527.04 1224.92C1527.18 1224.9 1527.32 1224.87 1527.47 1224.85L1527.12 1222.88ZM1561.74 1215.53C1549.65 1218.8 1531.15 1222.16 1527.12 1222.88L1527.47 1224.85C1531.49 1224.13 1550.08 1220.76 1562.26 1217.47L1561.74 1215.53ZM1585.45 1208.13C1583.54 1208.78 1570.48 1213.17 1561.74 1215.53L1562.26 1217.47C1571.07 1215.08 1584.19 1210.67 1586.09 1210.03L1585.45 1208.13ZM1585.69 1208.05C1585.61 1208.08 1585.53 1208.1 1585.45 1208.13L1586.09 1210.03C1586.17 1210 1586.24 1209.97 1586.32 1209.95L1585.69 1208.05ZM1585.93 1207.97C1585.85 1208 1585.77 1208.02 1585.69 1208.05L1586.32 1209.95C1586.4 1209.92 1586.47 1209.9 1586.55 1209.87L1585.93 1207.97ZM1605.71 1157.23C1616.74 1176.58 1607.13 1201.1 1585.93 1207.97L1586.55 1209.87C1608.94 1202.61 1619.11 1176.7 1607.45 1156.24L1605.71 1157.23ZM1536.57 1040.25C1558.72 1075.5 1586.35 1123.23 1605.71 1157.23L1607.45 1156.24C1588.08 1122.24 1560.44 1074.48 1538.27 1039.19L1536.57 1040.25ZM1522.94 1019.59C1527.15 1025.78 1531.54 1032.25 1536.57 1040.25L1538.27 1039.19C1533.22 1031.15 1528.8 1024.65 1524.59 1018.46L1522.94 1019.59ZM1522.93 1019.57L1522.93 1019.58L1524.59 1018.47L1524.59 1018.46L1522.93 1019.57ZM1522.93 1019.58L1522.94 1019.59L1524.58 1018.45L1524.58 1018.44L1522.93 1019.58ZM1522.92 1019.57L1522.93 1019.58L1524.58 1018.45L1524.58 1018.44L1522.92 1019.57ZM1522.93 1019.58L1522.93 1019.58L1524.57 1018.43L1524.56 1018.43L1522.93 1019.58ZM1503.37 988.633C1510.49 1001.28 1516.49 1010.11 1522.92 1019.56L1524.57 1018.44C1518.14 1008.99 1512.18 1000.22 1505.11 987.652L1503.37 988.633ZM1477.16 933.427C1485.01 952.138 1491.4 967.371 1503.37 988.633L1505.11 987.652C1493.2 966.498 1486.85 951.356 1479.01 932.653L1477.16 933.427ZM1477.16 933.42L1477.16 933.421L1479.01 932.659L1479.01 932.658L1477.16 933.42ZM1477.16 933.423L1477.16 933.427L1479.01 932.651L1479 932.646L1477.16 933.423ZM1477.16 933.417L1477.16 933.419L1479.01 932.65L1479.01 932.648L1477.16 933.417ZM1477.15 933.391L1477.16 933.418L1479 932.647L1478.99 932.62L1477.15 933.391ZM1468.13 912.188C1471.51 919.948 1474.42 926.88 1477.15 933.392L1478.99 932.619C1476.26 926.108 1473.35 919.163 1469.96 911.389L1468.13 912.188ZM1462.32 898.706C1464.01 902.654 1466.34 908.076 1468.13 912.188L1469.96 911.389C1468.17 907.284 1465.85 901.867 1464.16 897.919L1462.32 898.706ZM1465.33 889.255C1462.12 891.22 1460.83 895.243 1462.32 898.706L1464.16 897.919C1463.06 895.371 1464.01 892.409 1466.38 890.96L1465.33 889.255ZM1476.41 892.911C1474.63 888.538 1469.36 886.789 1465.33 889.255L1466.38 890.96C1469.35 889.142 1473.24 890.43 1474.55 893.662L1476.41 892.911ZM1512.15 970.97C1498.42 946.225 1482.77 908.627 1476.41 892.911L1474.55 893.662C1480.91 909.37 1496.6 947.075 1510.4 971.941L1512.15 970.97ZM1534.06 1005.96C1526.82 995.241 1520.08 985.256 1512.15 970.97L1510.4 971.941C1518.38 986.309 1525.16 996.357 1532.4 1007.08L1534.06 1005.96ZM1534.07 1005.97L1534.07 1005.97L1532.39 1007.06L1532.39 1007.06L1534.07 1005.97ZM1534.04 1005.94L1534.04 1005.94L1532.42 1007.1L1532.42 1007.1L1534.04 1005.94ZM1534 1005.88L1534 1005.88L1532.46 1007.16L1532.46 1007.16L1534 1005.88ZM1534.06 1005.96L1534.06 1005.96L1532.4 1007.08L1532.41 1007.08L1534.06 1005.96ZM1534.06 1005.96L1534.06 1005.95L1532.41 1007.09L1532.41 1007.09L1534.06 1005.96ZM1534.07 1005.98L1534.07 1005.97L1532.4 1007.08L1532.41 1007.09L1534.07 1005.98ZM1549.83 1030.09C1544.03 1020.71 1538.94 1013.18 1534.07 1005.97L1532.41 1007.09C1537.28 1014.3 1542.35 1021.8 1548.13 1031.14L1549.83 1030.09ZM1641.6 1190.29C1630.82 1170.56 1584.08 1085.38 1549.83 1030.09L1548.13 1031.14C1582.35 1086.38 1629.07 1171.51 1639.84 1191.25L1641.6 1190.29ZM1641.12 1190.07C1641.16 1190.06 1641.24 1190.05 1641.35 1190.08C1641.46 1190.12 1641.55 1190.2 1641.6 1190.29L1639.84 1191.25C1640.25 1192 1641.08 1192.19 1641.73 1191.98L1641.12 1190.07ZM1641.02 1190.12C1641.05 1190.1 1641.08 1190.08 1641.12 1190.07L1641.73 1191.98C1641.87 1191.93 1641.99 1191.87 1642.11 1191.8L1641.02 1190.12ZM1666.46 1173.66L1641.02 1190.12L1642.11 1191.8L1667.54 1175.34L1666.46 1173.66ZM1666.94 1161.59C1669.84 1165.4 1669.83 1170.91 1666.37 1173.72L1667.63 1175.28C1672.17 1171.58 1671.88 1164.78 1668.53 1160.38L1666.94 1161.59ZM1659 1138C1659 1146.86 1661.96 1155.04 1666.94 1161.59L1668.53 1160.38C1663.81 1154.17 1661 1146.41 1661 1138H1659ZM1672.54 1108.46C1664.25 1115.61 1659 1126.19 1659 1138H1661C1661 1126.8 1665.98 1116.76 1673.84 1109.97L1672.54 1108.46ZM1673.46 1109.91C1672.98 1110.12 1672.54 1109.85 1672.37 1109.58C1672.19 1109.3 1672.14 1108.8 1672.54 1108.46L1673.84 1109.97C1674.35 1109.53 1674.3 1108.89 1674.06 1108.51C1673.83 1108.14 1673.26 1107.8 1672.64 1108.08L1673.46 1109.91ZM1671.97 1109.34C1672.23 1109.91 1672.89 1110.16 1673.46 1109.91L1672.64 1108.08C1673.08 1107.88 1673.6 1108.08 1673.8 1108.52L1671.97 1109.34ZM1555.6 849.625L1671.97 1109.34L1673.8 1108.52L1557.43 848.807L1555.6 849.625ZM1534.86 815.712C1541.73 826.19 1549.94 839.185 1555.63 849.692L1557.39 848.739C1551.66 838.155 1543.41 825.102 1536.54 814.616L1534.86 815.712ZM1526.13 802.622C1528.35 805.888 1531.43 810.466 1534.86 815.712L1536.54 814.616C1533.09 809.359 1530.01 804.771 1527.79 801.499L1526.13 802.622ZM1524.91 800.827C1525.28 801.369 1525.69 801.969 1526.13 802.622L1527.79 801.499C1527.34 800.845 1526.93 800.243 1526.56 799.699L1524.91 800.827ZM1525.67 801.116C1525.38 801.189 1525.08 801.074 1524.91 800.827L1526.56 799.699C1526.26 799.254 1525.71 799.046 1525.19 799.176L1525.67 801.116ZM741.367 491.911C756.077 491.352 765.264 507.657 757.165 519.95L758.835 521.05C767.829 507.398 757.627 489.292 741.291 489.912L741.367 491.911ZM739.748 491.972L741.367 491.911L741.291 489.912L739.672 489.974L739.748 491.972ZM738.411 492.073C738.853 492.022 739.298 491.989 739.747 491.972L739.672 489.974C739.175 489.993 738.68 490.029 738.182 490.086L738.411 492.073ZM731.668 492.986C733.853 492.613 737.011 492.234 738.411 492.073L738.182 490.086C736.786 490.247 733.577 490.631 731.332 491.014L731.668 492.986ZM729.524 493.339C730.192 493.231 730.902 493.117 731.668 492.986L731.332 491.014C730.575 491.143 729.873 491.257 729.205 491.365L729.524 493.339ZM729.499 493.343L729.501 493.343L729.228 491.361L729.226 491.362L729.499 493.343ZM729.429 493.35L729.429 493.35L729.296 491.354L729.296 491.354L729.429 493.35ZM720.848 495.437C724.155 494.208 726.388 493.846 729.522 493.339L729.203 491.365C726.053 491.874 723.654 492.261 720.152 493.563L720.848 495.437ZM715.495 497.869C717.481 496.738 718.665 496.249 720.848 495.437L720.152 493.563C717.912 494.395 716.62 494.927 714.505 496.131L715.495 497.869ZM711.316 500.906C712.695 499.744 714.172 498.622 715.495 497.869L714.505 496.131C713.026 496.973 711.441 498.185 710.027 499.377L711.316 500.906ZM703.001 510.233C705.522 506.827 708.154 503.573 711.316 500.906L710.027 499.377C706.681 502.199 703.938 505.606 701.394 509.043L703.001 510.233ZM688.304 530.095L703.001 510.233L701.394 509.043L686.696 528.905L688.304 530.095ZM668.285 563.795L688.36 530.011L686.64 528.989L666.566 562.773L668.285 563.795ZM667.473 565.207C667.731 564.735 668.003 564.269 668.285 563.795L666.566 562.773C666.28 563.254 665.994 563.744 665.719 564.246L667.473 565.207ZM662.469 576.745C663.494 572.697 666.384 567.196 667.473 565.207L665.719 564.246C664.643 566.211 661.626 571.924 660.531 576.255L662.469 576.745ZM661.5 587.592C661.5 583.869 661.59 580.222 662.469 576.745L660.531 576.255C659.583 579.998 659.5 583.868 659.5 587.592H661.5ZM661.5 588.5V587.592H659.5V588.5H661.5ZM661.844 591.653C661.759 590.672 661.668 589.622 661.49 588.36L659.51 588.639C659.679 589.842 659.766 590.845 659.852 591.826L661.844 591.653ZM662.478 596.29C662.091 594.494 661.974 593.153 661.844 591.653L659.852 591.826C659.982 593.332 660.108 594.782 660.522 596.71L662.478 596.29ZM664.114 601.774C663.473 599.969 662.954 598.505 662.478 596.29L660.522 596.71C661.028 599.061 661.585 600.629 662.229 602.443L664.114 601.774ZM664.949 604.185C664.65 603.284 664.372 602.5 664.114 601.774L662.229 602.443C662.487 603.17 662.759 603.936 663.051 604.815L664.949 604.185ZM674.306 627.662C671.48 621.224 667.401 611.575 664.949 604.185L663.051 604.815C665.534 612.301 669.647 622.024 672.475 628.466L674.306 627.662ZM680.158 628.308C678.571 630.386 675.338 630.012 674.306 627.662L672.475 628.466C674.138 632.255 679.266 632.772 681.748 629.522L680.158 628.308ZM688.688 616.917C686.05 620.59 682.876 624.748 680.158 628.308L681.748 629.522C684.462 625.967 687.655 621.785 690.312 618.083L688.688 616.917ZM716.594 575.91C709.167 586.275 694.747 606.396 688.634 617.001L690.366 617.999C696.417 607.503 710.762 587.482 718.22 577.075L716.594 575.91ZM716.597 575.906L716.596 575.907L718.218 577.078L718.218 577.077L716.597 575.906ZM721.143 569.485C720.864 569.95 719.17 572.315 716.595 575.909L718.221 577.074C720.746 573.549 722.523 571.071 722.858 570.515L721.143 569.485ZM753.654 524.744C747.478 533.18 739.634 543.893 733.198 552.725C729.981 557.14 727.114 561.087 724.983 564.043C722.873 566.971 721.443 568.985 721.143 569.486L722.858 570.514C723.102 570.108 724.457 568.194 726.606 565.213C728.733 562.26 731.598 558.317 734.815 553.903C741.249 545.073 749.091 534.362 755.268 525.926L753.654 524.744ZM753.659 524.737L753.652 524.747L755.269 525.923L755.277 525.913L753.659 524.737ZM753.669 524.724L753.662 524.733L755.274 525.916L755.281 525.906L753.669 524.724ZM753.672 524.72L753.669 524.724L755.281 525.906L755.284 525.902L753.672 524.72ZM757.193 519.909C756.105 521.396 754.922 523.011 753.671 524.72L755.285 525.902C756.536 524.193 757.719 522.578 758.807 521.091L757.193 519.909ZM827 877C835.836 877 843 869.837 843 861H841C841 868.732 834.732 875 827 875V877ZM811 861C811 869.837 818.163 877 827 877V875C819.268 875 813 868.732 813 861H811ZM827 845C818.163 845 811 852.163 811 861H813C813 853.268 819.268 847 827 847V845ZM843 861C843 852.163 835.836 845 827 845V847C834.732 847 841 853.268 841 861H843ZM1712 1138C1712 1145.73 1705.73 1152 1698 1152V1154C1706.84 1154 1714 1146.84 1714 1138H1712ZM1698 1124C1705.73 1124 1712 1130.27 1712 1138H1714C1714 1129.16 1706.84 1122 1698 1122V1124ZM1684 1138C1684 1130.27 1690.27 1124 1698 1124V1122C1689.16 1122 1682 1129.16 1682 1138H1684ZM1698 1152C1690.27 1152 1684 1145.73 1684 1138H1682C1682 1146.84 1689.16 1154 1698 1154V1152ZM825.5 415C831.299 415 836 410.299 836 404.5H834C834 409.194 830.194 413 825.5 413V415ZM815 404.5C815 410.299 819.701 415 825.5 415V413C820.806 413 817 409.194 817 404.5H815ZM825.5 394C819.701 394 815 398.701 815 404.5H817C817 399.806 820.806 396 825.5 396V394ZM836 404.5C836 398.701 831.299 394 825.5 394V396C830.194 396 834 399.806 834 404.5H836ZM578 642C578 648.075 573.075 653 567 653V655C574.18 655 580 649.18 580 642H578ZM567 631C573.075 631 578 635.925 578 642H580C580 634.82 574.18 629 567 629V631ZM556 642C556 635.925 560.925 631 567 631V629C559.82 629 554 634.82 554 642H556ZM567 653C560.925 653 556 648.075 556 642H554C554 649.18 559.82 655 567 655V653Z" fill="#989898"/>
<path d="M328.83 1147.07C328.83 1147.07 280.745 1118.68 248.83 1124.57C234.781 1127.16 226.565 1129.92 214.83 1138.07C174.18 1166.29 205.173 1215.13 207.33 1264.57C209.158 1306.48 205.739 1332.13 221.33 1371.07C231.785 1397.18 240.52 1411.21 258.83 1432.57C270.247 1445.89 277.348 1452.98 291.33 1463.57C324.166 1488.44 353.115 1482.94 389.33 1502.57C419.375 1518.85 432.046 1534.81 461.83 1551.57C498.947 1572.45 521.495 1581.4 561.83 1595.07C605.205 1609.77 630.668 1614.97 675.83 1622.57C734.727 1632.48 768.732 1637.94 828.33 1634.07C860.405 1631.98 903.91 1654.16 909.83 1622.57C910.981 1616.43 910.386 1612.79 909.83 1606.57C905.823 1561.74 859.107 1557.91 828.33 1525.07C806.299 1501.56 796.269 1486.2 773.33 1463.57C747.697 1438.29 739.015 1408.35 703.33 1403.57C678.31 1400.21 665.759 1424.05 640.83 1420.07C604.288 1414.24 574.33 1352.57 574.33 1352.57L505.33 1264.57C505.33 1264.57 464.377 1213.67 430.33 1190.57C394.646 1166.35 328.83 1147.07 328.83 1147.07Z" fill="#00693E" fill-opacity="0.4"/>
<path d="M738.83 689.07C728.042 673.482 710.997 665.57 728.83 641.57C724.712 643.658 763.51 600.316 785.83 560.57C792.452 548.778 785.83 546.07 796.33 527.57C806.83 509.07 833.405 482.564 856.33 453.07C865.989 440.643 872.649 434.515 880.83 421.07C889.868 406.215 887.49 393.304 899.33 380.57C912.174 366.756 923.473 358.104 942.33 358.57C960.324 359.014 965.925 374.391 982.83 380.57C1001.5 387.393 1012.99 388.893 1032.83 390.07C1061.72 391.783 1077.69 384.711 1106.33 380.57C1134.51 376.495 1150.12 372.947 1178.33 369.07C1216.27 363.855 1237.56 359.928 1275.83 358.57C1294.76 357.898 1324.33 358.57 1324.33 358.57C1324.33 358.57 1360.97 366.692 1384.83 369.07C1417.47 372.322 1436.31 373.342 1468.83 369.07C1494.09 365.751 1507.01 356.883 1532.33 354.07C1566.14 350.313 1594.16 335.681 1619.33 358.57C1638.43 375.935 1625 400.684 1640.83 421.07C1648.54 430.998 1655 434.648 1664.33 443.07C1688.33 464.727 1702.28 476.434 1728.33 495.57C1750.46 511.823 1767.26 515.314 1786.83 534.57C1814.21 561.508 1818.52 585.534 1836.33 619.57C1852.45 650.372 1875 688.403 1874.33 700.07C1873.66 711.736 1871.03 736.97 1865.83 744.57C1859.33 754.07 1865.83 758.07 1848.83 775.07C1831.83 792.07 1830.53 799.091 1813.33 804.07C1801.14 807.6 1793.52 804.07 1780.83 804.07C1768.14 804.07 1770.33 851.57 1770.33 851.57C1770.33 851.57 1778.33 884.736 1780.83 890.57C1783.33 896.403 1788.03 910.37 1786.83 919.57C1785.63 928.77 1775.33 923.403 1770.33 919.57C1765.33 915.736 1750.77 929.611 1750.33 941.07C1749.98 950.242 1753.33 956.07 1761.83 961.57C1770.33 967.07 1768.83 968.116 1780.83 974.57C1792.83 981.023 1823.83 1003.57 1823.83 1003.57C1823.83 1003.57 1859.8 1016.55 1857.33 1034.07C1855.91 1044.16 1845.03 1051.87 1841.83 1055.07C1838.63 1058.27 1812.67 1062.33 1802 1067C1791.33 1071.67 1780 1078.5 1755 1092.07C1739.55 1100.45 1733.55 1097.47 1716.83 1092.07C1697.91 1085.96 1690.03 1075.44 1676.83 1060.57C1652.66 1033.34 1640.83 974.57 1640.83 974.57V941.07C1640.83 927.987 1617.5 904.643 1607.33 879.07C1593.08 843.231 1605.69 815.923 1586.33 782.57C1571.9 757.723 1551.21 753.336 1535.83 729.07C1513 693.05 1505.83 634.57 1505.83 624.07C1505.83 613.57 1510.33 616.07 1505.83 592.07C1505.83 592.07 1479.5 497.57 1478.83 486.07C1478.83 486.07 1481.14 458.532 1468.83 453.07C1436 438.5 1423.34 452.282 1422.33 461C1420.87 473.608 1429 482 1429 482C1429 482 1440.5 508.5 1448.33 527.57C1456.16 546.639 1452.78 547.71 1455.83 560.57C1460.61 580.753 1466.35 591.476 1468.83 612.07C1471.17 631.456 1473.33 650.07 1468.83 662.07C1464.33 674.07 1457.83 683.07 1441.33 679.57C1441.33 679.57 1389 672.236 1365.33 668.57C1341.66 664.903 1328.33 657.07 1328.33 657.07C1328.33 657.07 1304.66 640.731 1303.33 638.57C1295.33 625.57 1293.14 623.971 1288.33 612.07C1281.85 596.03 1284.33 578.903 1275.83 569.57C1267.33 560.236 1249.43 541.27 1245.83 540.07C1242.23 538.87 1228.33 525.57 1221.83 519.07C1215.33 512.57 1196.24 498.8 1187.33 509.57C1181.11 517.093 1187.83 527.903 1187.33 534.57C1186.83 541.236 1185.1 550.663 1187.33 560.57C1191.95 581.132 1210.83 590.236 1221.83 602.07C1232.83 613.903 1241.94 633.564 1221.83 641.57L1170.33 662.07C1150.22 670.075 1119.7 674.339 1086.83 673.07C1071.7 672.485 1059.83 664.903 1048.33 668.57C1036.83 672.236 1018.33 676.57 1003.33 679.57C988.33 682.57 983.83 681.07 970.83 689.07C957.83 697.07 953.83 704.07 927.83 711.07C901.83 718.07 902.83 708.57 892.83 700.07C882.83 691.57 868.756 679.734 850.33 679.57C837.482 679.455 831.33 681.07 818.83 689.07C806.33 697.07 787.303 717.483 765.83 711.07C752.798 707.177 746.57 700.254 738.83 689.07Z" fill="#00693E" fill-opacity="0.4"/>
<path d="M1388.33 703.57C1367.85 694.493 1348.27 672.842 1332.83 689.07C1323.85 698.505 1325.33 721.57 1325.33 721.57V758.07V791.57C1325.33 791.57 1326.19 817.71 1332.83 832.57C1338.65 845.583 1343.18 853.183 1354.33 862.07C1363.96 869.747 1370.74 877.892 1382.83 875.57C1388.92 874.4 1384.33 877.903 1396.83 868.07C1409.33 858.236 1441.33 832.57 1441.33 832.57C1441.33 832.57 1460 811.903 1465.83 804.57C1471.66 797.236 1487.78 788.955 1483.83 776.57C1482.22 771.509 1479.29 769.597 1475.83 765.57C1467.02 755.324 1458.96 752.91 1448.33 744.57C1437.08 735.742 1431.64 729.63 1419.83 721.57C1408.13 713.585 1401.28 709.31 1388.33 703.57Z" fill="#00693E" fill-opacity="0.4"/>
<path d="M1820.83 1237.57C1815 1231.24 1817.67 1225.56 1820.83 1219.07C1825.5 1209.48 1848.5 1199.67 1857.33 1189C1866.16 1178.33 1872.33 1172.57 1872.33 1172.57C1872.33 1172.57 1882.33 1157.74 1887.33 1152.07C1892.33 1146.4 1894.71 1133.58 1902.33 1123.57C1908.52 1115.44 1914.09 1112.75 1920.83 1105.07C1925.14 1100.17 1925.29 1094.55 1931.33 1092.07C1938.78 1089.01 1944.5 1093.24 1951.33 1097.07C1958.16 1100.9 1972.58 1102.15 1975.33 1113.07C1976.33 1117.05 1975.33 1123.57 1975.33 1123.57C1975.33 1123.57 1971.92 1135.52 1968.33 1142.57C1962.33 1154.33 1954.79 1158.17 1947.33 1169.07C1940.41 1179.19 1931.33 1196.07 1931.33 1196.07C1931.33 1196.07 1918.58 1212.87 1910.33 1223.57C1901.41 1235.14 1896.51 1241.71 1887.33 1253.07C1879.66 1262.56 1879.16 1274.08 1867.33 1277.07C1862.41 1278.31 1859.1 1278.81 1854.33 1277.07C1846.14 1274.09 1847.29 1265.37 1841.83 1258.57C1834.57 1249.52 1826.66 1243.9 1820.83 1237.57Z" fill="#00693E" fill-opacity="0.4"/>
<path d="M918.5 1003.5C897.5 1001.5 886.91 1024.95 885 1046C884.017 1056.83 890.395 1072.99 890.96 1074.4C890.99 1074.47 891.005 1074.52 891.027 1074.6C891.685 1076.96 904.411 1122.29 918.5 1149C928.38 1167.73 932.85 1179.7 948 1194.5C964.099 1210.22 976.752 1215.29 997.5 1224C1015.99 1231.77 1045.33 1237.17 1053.7 1238.61C1054.91 1238.82 1056 1237.89 1056 1236.66V1209.42C1056 1208.57 1056.54 1207.81 1057.35 1207.53L1068.52 1203.67C1068.83 1203.56 1069.08 1203.41 1069.31 1203.16C1074.04 1197.94 1131.71 1134.23 1136.5 1128C1141.5 1121.5 1153 1075.73 1115 1081.5C1077 1087.27 1071.5 1101.5 1041.5 1081.5C1011.5 1061.5 939.5 1005.5 918.5 1003.5Z" fill="#91C0AC"/>
<rect x="1286" y="1141" width="7" height="29" rx="2" fill="#2F7B9A"/>
<rect x="794" y="728.091" width="49.9373" height="83.9494" rx="2" transform="rotate(-47.9664 794 728.091)" fill="#2F7B9A"/>
<rect x="1289" y="1086" width="36" height="23" rx="2" fill="#2F7B9A"/>
<path fill-rule="evenodd" clip-rule="evenodd" d="M581.637 842.864C580.733 842.229 580.515 840.982 581.15 840.078L591.293 825.637C591.927 824.733 593.175 824.515 594.079 825.15L626.14 847.669C627.044 848.304 627.262 849.551 626.627 850.455L616.484 864.896C615.85 865.8 614.602 866.018 613.698 865.383L581.637 842.864ZM437.534 837.242C436.63 836.607 435.383 836.825 434.748 837.729L408.345 875.32C407.71 876.224 407.928 877.472 408.832 878.107L458.021 912.656C458.925 913.291 460.172 913.073 460.807 912.169L466.206 904.482C466.841 903.578 468.088 903.36 468.992 903.995L483.825 914.413C484.729 915.048 485.977 914.83 486.612 913.926L496.755 899.485C497.39 898.581 497.171 897.334 496.268 896.699L481.434 886.28C480.53 885.645 480.312 884.398 480.947 883.494L487.21 874.577C487.845 873.674 487.627 872.426 486.723 871.791L437.534 837.242ZM497.637 961.864C496.733 961.229 496.515 959.982 497.15 959.078L507.293 944.637C507.927 943.733 509.175 943.515 510.079 944.15L542.14 966.669C543.044 967.304 543.262 968.551 542.627 969.455L532.484 983.896C531.85 984.8 530.602 985.018 529.698 984.383L497.637 961.864ZM565.079 985.15C564.175 984.515 562.927 984.733 562.293 985.637L552.15 1000.08C551.515 1000.98 551.733 1002.23 552.637 1002.86L584.698 1025.38C585.602 1026.02 586.85 1025.8 587.484 1024.9L597.627 1010.46C598.262 1009.55 598.044 1008.3 597.14 1007.67L565.079 985.15ZM517.637 931.864C516.733 931.229 516.515 929.982 517.15 929.078L527.293 914.637C527.927 913.733 529.175 913.515 530.079 914.15L562.14 936.669C563.044 937.304 563.262 938.551 562.627 939.455L552.484 953.896C551.85 954.8 550.602 955.018 549.698 954.383L517.637 931.864ZM585.079 955.15C584.175 954.515 582.927 954.733 582.293 955.637L572.15 970.078C571.515 970.981 571.733 972.229 572.637 972.864L604.698 995.383C605.602 996.018 606.85 995.8 607.484 994.896L617.627 980.455C618.262 979.551 618.044 978.304 617.14 977.669L585.079 955.15ZM538.637 901.864C537.733 901.229 537.515 899.982 538.15 899.078L548.293 884.637C548.927 883.733 550.175 883.515 551.079 884.15L583.14 906.669C584.044 907.304 584.262 908.551 583.627 909.455L573.484 923.896C572.85 924.8 571.602 925.018 570.698 924.383L538.637 901.864ZM483.436 1041.7C482.852 1040.76 481.619 1040.47 480.681 1041.06L463.022 1052.05C462.085 1052.63 461.797 1053.86 462.381 1054.8L503.495 1120.87C504.078 1121.81 505.312 1122.1 506.249 1121.51L523.908 1110.52C524.846 1109.94 525.133 1108.71 524.55 1107.77L483.436 1041.7ZM683.768 925.579C683.103 924.698 683.279 923.443 684.161 922.778L711.235 902.361C712.117 901.696 713.371 901.872 714.037 902.754L753.53 955.126C754.196 956.008 754.02 957.262 753.138 957.927L726.063 978.344C725.181 979.009 723.927 978.833 723.262 977.952L683.768 925.579ZM606.079 925.15C605.175 924.515 603.927 924.733 603.293 925.637L593.15 940.078C592.515 940.981 592.733 942.229 593.637 942.864L625.698 965.383C626.602 966.018 627.85 965.8 628.484 964.896L638.627 950.455C639.262 949.551 639.044 948.304 638.14 947.669L606.079 925.15ZM560.637 872.864C559.733 872.229 559.515 870.982 560.15 870.078L570.293 855.637C570.927 854.733 572.175 854.515 573.079 855.15L605.14 877.669C606.044 878.304 606.262 879.551 605.627 880.455L595.484 894.896C594.85 895.8 593.602 896.018 592.698 895.383L560.637 872.864ZM628.079 896.15C627.175 895.515 625.927 895.733 625.293 896.637L615.15 911.078C614.515 911.981 614.733 913.229 615.637 913.864L647.698 936.383C648.602 937.018 649.85 936.8 650.484 935.896L660.627 921.455C661.262 920.551 661.044 919.304 660.14 918.669L628.079 896.15ZM649.079 866.15C648.175 865.515 646.927 865.733 646.293 866.637L636.15 881.078C635.515 881.981 635.733 883.229 636.637 883.864L668.698 906.383C669.602 907.018 670.85 906.8 671.484 905.896L681.627 891.455C682.262 890.551 682.044 889.304 681.14 888.669L649.079 866.15Z" fill="#2F7B9A"/>
<path fill-rule="evenodd" clip-rule="evenodd" d="M1738.32 1246.68C1737.69 1245.78 1736.44 1245.56 1735.54 1246.19L1655.45 1302.27C1654.55 1302.9 1654.33 1304.15 1654.96 1305.05L1680.77 1341.91C1681.4 1342.82 1682.65 1343.04 1683.56 1342.4L1704.54 1327.71C1705.44 1327.08 1706.69 1327.3 1707.33 1328.2L1734.51 1367.03C1735.14 1367.93 1736.39 1368.15 1737.3 1367.52L1768.15 1345.92C1769.05 1345.28 1769.27 1344.03 1768.64 1343.13L1741.45 1304.31C1740.82 1303.4 1741.04 1302.15 1741.94 1301.52L1763.64 1286.33C1764.55 1285.69 1764.77 1284.45 1764.13 1283.54L1738.32 1246.68Z" fill="#2F7B9A"/>
<rect x="1420.9" y="928.832" width="43.6476" height="99.7025" rx="2" transform="rotate(-25.0744 1420.9 928.832)" fill="#2F7B9A"/>
<rect x="1420.88" y="883.854" width="29.3083" height="21.4587" rx="2" transform="rotate(-25.0744 1420.88 883.854)" fill="#2F7B9A"/>
<rect x="1428" y="465.098" width="28.547" height="22.0237" rx="2" transform="rotate(-25.0744 1428 465.098)" fill="#2F7B9A"/>
<rect x="1350" y="949.498" width="43.6476" height="99.7025" rx="2" transform="rotate(-25.0744 1350 949.498)" fill="#2F7B9A"/>
<rect x="1528.03" y="1169.42" width="57.0202" height="33.5148" rx="2" transform="rotate(-28.9098 1528.03 1169.42)" fill="#2F7B9A"/>
<path d="M1432.85 1093.31C1432.38 1092.31 1432.81 1091.12 1433.81 1090.65L1469.72 1073.85C1470.72 1073.38 1471.91 1073.81 1472.38 1074.81L1512.94 1161.49C1513.41 1162.5 1512.98 1163.69 1511.98 1164.15L1476.06 1180.96C1475.06 1181.42 1473.87 1180.99 1473.41 1179.99L1432.85 1093.31Z" fill="#2F7B9A"/>
<path fill-rule="evenodd" clip-rule="evenodd" d="M1193 1114C1193 1112.9 1193.9 1112 1195 1112H1257C1258.1 1112 1259 1112.9 1259 1114V1136C1259 1137.1 1259.9 1138 1261 1138H1270C1271.1 1138 1272 1138.9 1272 1140V1185C1272 1186.1 1271.1 1187 1270 1187H1259H1206H1195C1193.9 1187 1193 1186.1 1193 1185V1160C1193 1158.9 1192.1 1158 1191 1158H1178C1176.9 1158 1176 1157.1 1176 1156V1142C1176 1140.9 1176.9 1140 1178 1140H1191C1192.1 1140 1193 1139.1 1193 1138V1114Z" fill="#2F7B9A"/>
<rect x="1052" y="1205" width="35" height="45" rx="2" fill="#2F7B9A"/>
<rect x="932.248" y="1345.25" width="14.527" height="20.5919" rx="2" transform="rotate(30.3536 932.248 1345.25)" fill="#2F7B9A"/>
<rect x="1124" y="1215" width="35" height="38" rx="2" fill="#2F7B9A"/>
<rect x="902.038" y="913.187" width="112.213" height="50.7074" rx="2" transform="rotate(34 902.038 913.187)" fill="#2F7B9A"/>
<path d="M1858.89 1106.07C1859.61 1105.23 1860.87 1105.15 1861.71 1105.87L1891.23 1131.59C1892.07 1132.32 1892.15 1133.58 1891.43 1134.42L1851.67 1180.06C1850.94 1180.89 1849.68 1180.97 1848.85 1180.25L1819.32 1154.53C1818.49 1153.8 1818.4 1152.54 1819.13 1151.7L1858.89 1106.07Z" fill="#2F7B9A"/>
<rect x="1911" y="1004" width="47" height="38" rx="2" fill="#2F7B9A"/>
<rect x="1989" y="1004" width="21" height="26" rx="2" fill="#2F7B9A"/>
<rect x="2022" y="955" width="44" height="19" rx="2" fill="#2F7B9A"/>
<circle cx="1884.5" cy="994.5" r="22.5" fill="#91C0AC"/>
<rect x="239.139" y="897.417" width="1030.72" height="28.6112" rx="9" transform="rotate(-55.4667 239.139 897.417)" fill="#D9D9D9" stroke="#989898" stroke-width="2"/>
</svg>
